<svg xmlns="http://www.w3.org/2000/svg" xmlns:rdkit="http://www.rdkit.org/xml" xmlns:xlink="http://www.w3.org/1999/xlink" version="1.1" baseProfile="full" xml:space="preserve" width="750px" height="250px" viewBox="0 0 750 250">
<!-- END OF HEADER -->
<rect style="opacity:1.0;fill:#FFFFFF;stroke:none" width="750.0" height="250.0" x="0.0" y="0.0"> </rect>
<path class="bond-0 atom-0 atom-1" d="M 109.8,138.7 L 130.6,127.7" style="fill:none;fill-rule:evenodd;stroke:#FF7F7F;stroke-width:5.0px;stroke-linecap:butt;stroke-linejoin:miter;stroke-opacity:1"/>
<path class="bond-8 atom-0 atom-9" d="M 109.8,138.7 L 89.1,149.8" style="fill:none;fill-rule:evenodd;stroke:#FF7F7F;stroke-width:5.0px;stroke-linecap:butt;stroke-linejoin:miter;stroke-opacity:1"/>
<path class="bond-9 atom-0 atom-10" d="M 109.8,138.7 L 120.9,159.5" style="fill:none;fill-rule:evenodd;stroke:#FF7F7F;stroke-width:5.0px;stroke-linecap:butt;stroke-linejoin:miter;stroke-opacity:1"/>
<path class="bond-10 atom-0 atom-11" d="M 109.8,138.7 L 101.5,129.5" style="fill:none;fill-rule:evenodd;stroke:#FF7F7F;stroke-width:5.0px;stroke-linecap:butt;stroke-linejoin:miter;stroke-opacity:1"/>
<ellipse cx="109.8" cy="138.7" rx="4.7" ry="4.7" class="atom-0" style="fill:#FF7F7F;fill-rule:evenodd;stroke:#FF7F7F;stroke-width:1.0px;stroke-linecap:butt;stroke-linejoin:miter;stroke-opacity:1"/>
<ellipse cx="130.6" cy="127.7" rx="4.7" ry="4.7" class="atom-1" style="fill:#FF7F7F;fill-rule:evenodd;stroke:#FF7F7F;stroke-width:1.0px;stroke-linecap:butt;stroke-linejoin:miter;stroke-opacity:1"/>
<ellipse cx="89.1" cy="149.8" rx="4.7" ry="4.7" class="atom-9" style="fill:#FF7F7F;fill-rule:evenodd;stroke:#FF7F7F;stroke-width:1.0px;stroke-linecap:butt;stroke-linejoin:miter;stroke-opacity:1"/>
<ellipse cx="120.9" cy="159.5" rx="4.7" ry="4.7" class="atom-10" style="fill:#FF7F7F;fill-rule:evenodd;stroke:#FF7F7F;stroke-width:1.0px;stroke-linecap:butt;stroke-linejoin:miter;stroke-opacity:1"/>
<ellipse cx="101.5" cy="129.5" rx="4.7" ry="4.7" class="atom-11" style="fill:#FF7F7F;fill-rule:evenodd;stroke:#FF7F7F;stroke-width:1.0px;stroke-linecap:butt;stroke-linejoin:miter;stroke-opacity:1"/>
<path class="bond-0 atom-0 atom-1" d="M 109.8,138.7 L 130.6,127.7" style="fill:none;fill-rule:evenodd;stroke:#000000;stroke-width:2.0px;stroke-linecap:butt;stroke-linejoin:miter;stroke-opacity:1"/>
<path class="bond-1 atom-1 atom-2" d="M 130.6,127.7 L 151.3,116.6" style="fill:none;fill-rule:evenodd;stroke:#000000;stroke-width:2.0px;stroke-linecap:butt;stroke-linejoin:miter;stroke-opacity:1"/>
<path class="bond-2 atom-2 atom-3" d="M 151.3,116.6 L 159.7,112.0" style="fill:none;fill-rule:evenodd;stroke:#000000;stroke-width:2.0px;stroke-linecap:butt;stroke-linejoin:miter;stroke-opacity:1"/>
<path class="bond-2 atom-2 atom-3" d="M 159.7,112.0 L 168.2,107.5" style="fill:none;fill-rule:evenodd;stroke:#FF0000;stroke-width:2.0px;stroke-linecap:butt;stroke-linejoin:miter;stroke-opacity:1"/>
<path class="bond-3 atom-1 atom-4" d="M 130.6,127.7 L 119.5,106.9" style="fill:none;fill-rule:evenodd;stroke:#000000;stroke-width:2.0px;stroke-linecap:butt;stroke-linejoin:miter;stroke-opacity:1"/>
<path class="bond-4 atom-4 atom-5" d="M 119.5,106.9 L 98.8,118.0" style="fill:none;fill-rule:evenodd;stroke:#000000;stroke-width:2.0px;stroke-linecap:butt;stroke-linejoin:miter;stroke-opacity:1"/>
<path class="bond-5 atom-5 atom-6" d="M 98.8,118.0 L 90.3,122.6" style="fill:none;fill-rule:evenodd;stroke:#000000;stroke-width:2.0px;stroke-linecap:butt;stroke-linejoin:miter;stroke-opacity:1"/>
<path class="bond-5 atom-5 atom-6" d="M 90.3,122.6 L 81.8,127.1" style="fill:none;fill-rule:evenodd;stroke:#FF0000;stroke-width:2.0px;stroke-linecap:butt;stroke-linejoin:miter;stroke-opacity:1"/>
<path class="bond-6 atom-4 atom-7" d="M 119.5,106.9 L 108.4,86.2" style="fill:none;fill-rule:evenodd;stroke:#000000;stroke-width:2.0px;stroke-linecap:butt;stroke-linejoin:miter;stroke-opacity:1"/>
<path class="bond-7 atom-7 atom-8" d="M 108.4,86.2 L 103.9,77.9" style="fill:none;fill-rule:evenodd;stroke:#000000;stroke-width:2.0px;stroke-linecap:butt;stroke-linejoin:miter;stroke-opacity:1"/>
<path class="bond-7 atom-7 atom-8" d="M 103.9,77.9 L 99.5,69.6" style="fill:none;fill-rule:evenodd;stroke:#0000FF;stroke-width:2.0px;stroke-linecap:butt;stroke-linejoin:miter;stroke-opacity:1"/>
<path class="bond-7 atom-7 atom-8" d="M 102.9,85.9 L 99.1,78.9" style="fill:none;fill-rule:evenodd;stroke:#000000;stroke-width:2.0px;stroke-linecap:butt;stroke-linejoin:miter;stroke-opacity:1"/>
<path class="bond-7 atom-7 atom-8" d="M 99.1,78.9 L 95.3,71.8" style="fill:none;fill-rule:evenodd;stroke:#0000FF;stroke-width:2.0px;stroke-linecap:butt;stroke-linejoin:miter;stroke-opacity:1"/>
<path class="bond-7 atom-7 atom-8" d="M 111.2,81.5 L 107.4,74.4" style="fill:none;fill-rule:evenodd;stroke:#000000;stroke-width:2.0px;stroke-linecap:butt;stroke-linejoin:miter;stroke-opacity:1"/>
<path class="bond-7 atom-7 atom-8" d="M 107.4,74.4 L 103.6,67.4" style="fill:none;fill-rule:evenodd;stroke:#0000FF;stroke-width:2.0px;stroke-linecap:butt;stroke-linejoin:miter;stroke-opacity:1"/>
<path class="bond-8 atom-0 atom-9" d="M 109.8,138.7 L 92.5,148.0" style="fill:none;fill-rule:evenodd;stroke:#000000;stroke-width:2.0px;stroke-linecap:butt;stroke-linejoin:miter;stroke-opacity:1"/>
<path class="bond-9 atom-0 atom-10" d="M 109.8,138.7 L 118.8,155.4" style="fill:none;fill-rule:evenodd;stroke:#000000;stroke-width:2.0px;stroke-linecap:butt;stroke-linejoin:miter;stroke-opacity:1"/>
<path class="bond-10 atom-0 atom-11" d="M 109.8,138.7 L 104.8,133.2" style="fill:none;fill-rule:evenodd;stroke:#000000;stroke-width:2.0px;stroke-linecap:butt;stroke-linejoin:miter;stroke-opacity:1"/>
<path class="bond-11 atom-1 atom-12" d="M 130.6,127.7 L 139.5,144.3" style="fill:none;fill-rule:evenodd;stroke:#000000;stroke-width:2.0px;stroke-linecap:butt;stroke-linejoin:miter;stroke-opacity:1"/>
<path class="bond-12 atom-2 atom-13" d="M 151.3,116.6 L 160.2,133.2" style="fill:none;fill-rule:evenodd;stroke:#000000;stroke-width:2.0px;stroke-linecap:butt;stroke-linejoin:miter;stroke-opacity:1"/>
<path class="bond-13 atom-2 atom-14" d="M 151.3,116.6 L 144.4,98.7" style="fill:none;fill-rule:evenodd;stroke:#000000;stroke-width:2.0px;stroke-linecap:butt;stroke-linejoin:miter;stroke-opacity:1"/>
<path class="bond-14 atom-3 atom-15" d="M 175.8,107.8 L 182.2,111.8" style="fill:none;fill-rule:evenodd;stroke:#FF0000;stroke-width:2.0px;stroke-linecap:butt;stroke-linejoin:miter;stroke-opacity:1"/>
<path class="bond-14 atom-3 atom-15" d="M 182.2,111.8 L 188.6,115.8" style="fill:none;fill-rule:evenodd;stroke:#000000;stroke-width:2.0px;stroke-linecap:butt;stroke-linejoin:miter;stroke-opacity:1"/>
<path class="bond-15 atom-4 atom-16" d="M 119.5,106.9 L 135.3,95.8" style="fill:none;fill-rule:evenodd;stroke:#000000;stroke-width:2.0px;stroke-linecap:butt;stroke-linejoin:miter;stroke-opacity:1"/>
<path class="bond-16 atom-5 atom-17" d="M 98.8,118.0 L 103.5,136.7" style="fill:none;fill-rule:evenodd;stroke:#000000;stroke-width:2.0px;stroke-linecap:butt;stroke-linejoin:miter;stroke-opacity:1"/>
<path class="bond-17 atom-5 atom-18" d="M 98.8,118.0 L 89.8,101.4" style="fill:none;fill-rule:evenodd;stroke:#000000;stroke-width:2.0px;stroke-linecap:butt;stroke-linejoin:miter;stroke-opacity:1"/>
<path class="bond-18 atom-6 atom-19" d="M 74.2,126.8 L 67.8,122.8" style="fill:none;fill-rule:evenodd;stroke:#FF0000;stroke-width:2.0px;stroke-linecap:butt;stroke-linejoin:miter;stroke-opacity:1"/>
<path class="bond-18 atom-6 atom-19" d="M 67.8,122.8 L 61.4,118.8" style="fill:none;fill-rule:evenodd;stroke:#000000;stroke-width:2.0px;stroke-linecap:butt;stroke-linejoin:miter;stroke-opacity:1"/>
<path class="atom-3" d="M 168.9 105.5 Q 168.9 103.9, 169.7 103.0 Q 170.5 102.1, 172.0 102.1 Q 173.5 102.1, 174.3 103.0 Q 175.0 103.9, 175.0 105.5 Q 175.0 107.1, 174.3 108.0 Q 173.5 108.9, 172.0 108.9 Q 170.5 108.9, 169.7 108.0 Q 168.9 107.1, 168.9 105.5 M 172.0 108.2 Q 173.0 108.2, 173.6 107.5 Q 174.1 106.8, 174.1 105.5 Q 174.1 104.2, 173.6 103.5 Q 173.0 102.9, 172.0 102.9 Q 171.0 102.9, 170.4 103.5 Q 169.9 104.2, 169.9 105.5 Q 169.9 106.8, 170.4 107.5 Q 171.0 108.2, 172.0 108.2 " fill="#FF0000"/>
<path class="atom-6" d="M 75.0 129.1 Q 75.0 127.5, 75.8 126.6 Q 76.6 125.8, 78.0 125.8 Q 79.5 125.8, 80.3 126.6 Q 81.1 127.5, 81.1 129.1 Q 81.1 130.8, 80.3 131.7 Q 79.5 132.6, 78.0 132.6 Q 76.6 132.6, 75.8 131.7 Q 75.0 130.8, 75.0 129.1 M 78.0 131.8 Q 79.0 131.8, 79.6 131.2 Q 80.1 130.5, 80.1 129.1 Q 80.1 127.8, 79.6 127.2 Q 79.0 126.5, 78.0 126.5 Q 77.0 126.5, 76.5 127.2 Q 75.9 127.8, 75.9 129.1 Q 75.9 130.5, 76.5 131.2 Q 77.0 131.8, 78.0 131.8 " fill="#FF0000"/>
<path class="atom-8" d="M 95.8 62.2 L 98.0 65.7 Q 98.2 66.0, 98.6 66.7 Q 98.9 67.3, 98.9 67.3 L 98.9 62.2 L 99.8 62.2 L 99.8 68.8 L 98.9 68.8 L 96.6 65.0 Q 96.3 64.5, 96.0 64.0 Q 95.7 63.5, 95.6 63.3 L 95.6 68.8 L 94.8 68.8 L 94.8 62.2 L 95.8 62.2 " fill="#0000FF"/>
<path class="atom-9" d="M 86.5 146.5 L 87.4 146.5 L 87.4 149.3 L 90.8 149.3 L 90.8 146.5 L 91.7 146.5 L 91.7 153.2 L 90.8 153.2 L 90.8 150.1 L 87.4 150.1 L 87.4 153.2 L 86.5 153.2 L 86.5 146.5 " fill="#000000"/>
<path class="atom-10" d="M 118.3 156.1 L 119.2 156.1 L 119.2 159.0 L 122.6 159.0 L 122.6 156.1 L 123.5 156.1 L 123.5 162.8 L 122.6 162.8 L 122.6 159.7 L 119.2 159.7 L 119.2 162.8 L 118.3 162.8 L 118.3 156.1 " fill="#000000"/>
<path class="atom-11" d="M 98.9 126.2 L 99.8 126.2 L 99.8 129.0 L 103.2 129.0 L 103.2 126.2 L 104.1 126.2 L 104.1 132.8 L 103.2 132.8 L 103.2 129.7 L 99.8 129.7 L 99.8 132.8 L 98.9 132.8 L 98.9 126.2 " fill="#000000"/>
<path class="atom-12" d="M 139.1 145.0 L 140.0 145.0 L 140.0 147.9 L 143.4 147.9 L 143.4 145.0 L 144.3 145.0 L 144.3 151.7 L 143.4 151.7 L 143.4 148.6 L 140.0 148.6 L 140.0 151.7 L 139.1 151.7 L 139.1 145.0 " fill="#000000"/>
<path class="atom-13" d="M 159.8 133.9 L 160.7 133.9 L 160.7 136.8 L 164.1 136.8 L 164.1 133.9 L 165.0 133.9 L 165.0 140.6 L 164.1 140.6 L 164.1 137.5 L 160.7 137.5 L 160.7 140.6 L 159.8 140.6 L 159.8 133.9 " fill="#000000"/>
<path class="atom-14" d="M 140.2 91.3 L 141.1 91.3 L 141.1 94.1 L 144.5 94.1 L 144.5 91.3 L 145.4 91.3 L 145.4 98.0 L 144.5 98.0 L 144.5 94.9 L 141.1 94.9 L 141.1 98.0 L 140.2 98.0 L 140.2 91.3 " fill="#000000"/>
<path class="atom-15" d="M 189.4 114.5 L 190.3 114.5 L 190.3 117.4 L 193.7 117.4 L 193.7 114.5 L 194.6 114.5 L 194.6 121.2 L 193.7 121.2 L 193.7 118.1 L 190.3 118.1 L 190.3 121.2 L 189.4 121.2 L 189.4 114.5 " fill="#000000"/>
<path class="atom-16" d="M 136.1 90.1 L 137.0 90.1 L 137.0 92.9 L 140.4 92.9 L 140.4 90.1 L 141.3 90.1 L 141.3 96.7 L 140.4 96.7 L 140.4 93.7 L 137.0 93.7 L 137.0 96.7 L 136.1 96.7 L 136.1 90.1 " fill="#000000"/>
<path class="atom-17" d="M 101.9 137.5 L 102.8 137.5 L 102.8 140.3 L 106.2 140.3 L 106.2 137.5 L 107.1 137.5 L 107.1 144.1 L 106.2 144.1 L 106.2 141.1 L 102.8 141.1 L 102.8 144.1 L 101.9 144.1 L 101.9 137.5 " fill="#000000"/>
<path class="atom-18" d="M 85.1 94.0 L 86.0 94.0 L 86.0 96.8 L 89.4 96.8 L 89.4 94.0 L 90.3 94.0 L 90.3 100.6 L 89.4 100.6 L 89.4 97.6 L 86.0 97.6 L 86.0 100.6 L 85.1 100.6 L 85.1 94.0 " fill="#000000"/>
<path class="atom-19" d="M 55.5 113.4 L 56.4 113.4 L 56.4 116.2 L 59.8 116.2 L 59.8 113.4 L 60.7 113.4 L 60.7 120.1 L 59.8 120.1 L 59.8 117.0 L 56.4 117.0 L 56.4 120.1 L 55.5 120.1 L 55.5 113.4 " fill="#000000"/>
<path class="note" d="M 117.3 142.7 Q 116.7 142.7, 116.4 142.3 Q 116.1 141.8, 116.1 141.0 Q 116.1 140.2, 116.4 139.8 Q 116.7 139.3, 117.3 139.3 Q 118.0 139.3, 118.3 139.8 Q 118.6 140.2, 118.6 141.0 Q 118.6 141.8, 118.3 142.3 Q 118.0 142.7, 117.3 142.7 M 117.3 142.4 Q 117.7 142.4, 117.9 142.0 Q 118.1 141.7, 118.1 141.0 Q 118.1 140.4, 117.9 140.0 Q 117.7 139.7, 117.3 139.7 Q 117.0 139.7, 116.8 140.0 Q 116.6 140.4, 116.6 141.0 Q 116.6 141.7, 116.8 142.0 Q 117.0 142.4, 117.3 142.4 " fill="#000000"/>
<path class="note" d="M 129.7 136.8 L 130.5 136.8 L 130.5 134.3 L 129.7 134.5 L 129.6 134.3 L 130.6 133.8 L 130.9 133.9 L 130.9 136.8 L 131.6 136.8 L 131.6 137.2 L 129.7 137.2 L 129.7 136.8 " fill="#000000"/>
<path class="note" d="M nan nan Q nan nan, nan nan Q nan nan, nan nan Q nan nan, nan nan Q nan nan, nan nan Q nan nan, nan nan Q nan nan, nan nan L nan nan L nan nan L nan nan L nan nan Q nan nan, nan nan Q nan nan, nan nan Q nan nan, nan nan Q nan nan, nan nan Q nan nan, nan nan Q nan nan, nan nan Q nan nan, nan nan L nan nan " fill="#000000"/>
<path class="note" d="M 172.7 97.6 Q 173.0 97.7, 173.2 97.9 Q 173.4 98.1, 173.4 98.4 Q 173.4 98.7, 173.2 98.9 Q 173.1 99.1, 172.8 99.2 Q 172.6 99.4, 172.2 99.4 Q 171.9 99.4, 171.6 99.2 Q 171.3 99.1, 171.1 98.9 L 171.4 98.6 Q 171.6 98.8, 171.8 98.9 Q 171.9 99.0, 172.2 99.0 Q 172.5 99.0, 172.7 98.8 Q 172.9 98.7, 172.9 98.4 Q 172.9 98.1, 172.7 97.9 Q 172.5 97.8, 172.1 97.8 L 171.9 97.8 L 171.9 97.4 L 172.1 97.4 Q 172.4 97.4, 172.6 97.3 Q 172.8 97.1, 172.8 96.8 Q 172.8 96.6, 172.7 96.5 Q 172.5 96.3, 172.2 96.3 Q 172.0 96.3, 171.8 96.4 Q 171.6 96.5, 171.5 96.8 L 171.2 96.6 Q 171.3 96.3, 171.6 96.1 Q 171.8 96.0, 172.2 96.0 Q 172.7 96.0, 173.0 96.2 Q 173.3 96.4, 173.3 96.8 Q 173.3 97.1, 173.1 97.3 Q 173.0 97.5, 172.7 97.6 " fill="#000000"/>
<path class="note" d="M 124.1 108.6 L 124.5 108.6 L 124.5 109.0 L 124.1 109.0 L 124.1 109.7 L 123.7 109.7 L 123.7 109.0 L 121.9 109.0 L 121.9 108.7 L 123.4 106.4 L 124.1 106.4 L 124.1 108.6 M 122.5 108.6 L 123.7 108.6 L 123.7 106.7 L 122.5 108.6 " fill="#000000"/>
<path class="note" d="M 102.4 119.2 Q 102.7 119.2, 102.9 119.3 Q 103.2 119.4, 103.3 119.7 Q 103.5 119.9, 103.5 120.2 Q 103.5 120.6, 103.3 120.8 Q 103.1 121.1, 102.9 121.2 Q 102.6 121.3, 102.3 121.3 Q 102.0 121.3, 101.7 121.2 Q 101.4 121.1, 101.2 120.9 L 101.5 120.6 Q 101.6 120.7, 101.9 120.8 Q 102.1 120.9, 102.3 120.9 Q 102.6 120.9, 102.8 120.7 Q 103.0 120.6, 103.0 120.2 Q 103.0 119.9, 102.8 119.7 Q 102.6 119.5, 102.3 119.5 Q 102.0 119.5, 101.6 119.7 L 101.4 119.5 L 101.5 117.9 L 103.3 117.9 L 103.2 118.3 L 101.9 118.3 L 101.8 119.3 Q 102.1 119.2, 102.4 119.2 " fill="#000000"/>
<path class="note" d="M 77.9 136.6 Q 78.2 136.6, 78.5 136.7 Q 78.7 136.8, 78.8 137.0 Q 78.9 137.3, 78.9 137.6 Q 78.9 137.9, 78.8 138.1 Q 78.7 138.4, 78.4 138.5 Q 78.1 138.7, 77.8 138.7 Q 77.2 138.7, 76.9 138.3 Q 76.6 137.9, 76.6 137.1 Q 76.6 136.2, 77.0 135.7 Q 77.4 135.3, 78.1 135.3 Q 78.3 135.3, 78.5 135.3 Q 78.6 135.4, 78.8 135.5 L 78.6 135.8 Q 78.4 135.6, 78.1 135.6 Q 77.6 135.6, 77.4 136.0 Q 77.1 136.3, 77.1 136.9 Q 77.3 136.7, 77.5 136.6 Q 77.7 136.6, 77.9 136.6 M 77.8 138.3 Q 78.0 138.3, 78.1 138.2 Q 78.3 138.1, 78.4 137.9 Q 78.5 137.8, 78.5 137.6 Q 78.5 137.3, 78.3 137.1 Q 78.1 136.9, 77.8 136.9 Q 77.6 136.9, 77.4 137.0 Q 77.2 137.1, 77.1 137.2 Q 77.1 137.8, 77.3 138.0 Q 77.5 138.3, 77.8 138.3 " fill="#000000"/>
<path class="note" d="M 105.6 86.8 L 103.8 86.8 L 103.8 86.4 L 106.0 86.4 L 106.0 86.7 L 104.7 89.7 L 104.2 89.7 L 105.6 86.8 " fill="#000000"/>
<path class="note" d="M 94.1 58.5 Q 94.4 58.6, 94.6 58.8 Q 94.8 59.0, 94.8 59.4 Q 94.8 59.6, 94.6 59.9 Q 94.5 60.1, 94.2 60.2 Q 93.9 60.3, 93.6 60.3 Q 93.0 60.3, 92.7 60.1 Q 92.4 59.8, 92.4 59.4 Q 92.4 59.1, 92.5 58.9 Q 92.7 58.7, 93.0 58.5 Q 92.8 58.4, 92.6 58.2 Q 92.5 58.0, 92.5 57.8 Q 92.5 57.4, 92.8 57.1 Q 93.1 56.9, 93.6 56.9 Q 94.1 56.9, 94.3 57.1 Q 94.6 57.4, 94.6 57.8 Q 94.6 58.0, 94.5 58.2 Q 94.4 58.4, 94.1 58.5 M 93.6 57.3 Q 93.3 57.3, 93.1 57.4 Q 93.0 57.5, 93.0 57.8 Q 93.0 57.9, 93.1 58.1 Q 93.2 58.2, 93.4 58.2 Q 93.5 58.3, 93.8 58.4 Q 94.0 58.3, 94.1 58.1 Q 94.2 58.0, 94.2 57.8 Q 94.2 57.5, 94.0 57.4 Q 93.9 57.3, 93.6 57.3 M 93.6 60.0 Q 93.9 60.0, 94.1 59.8 Q 94.3 59.6, 94.3 59.4 Q 94.3 59.2, 94.2 59.1 Q 94.1 59.0, 93.9 58.9 Q 93.8 58.8, 93.5 58.7 L 93.3 58.7 Q 93.1 58.8, 93.0 59.0 Q 92.9 59.1, 92.9 59.4 Q 92.9 59.6, 93.1 59.8 Q 93.3 60.0, 93.6 60.0 " fill="#000000"/>
<path class="note" d="M 82.2 151.9 Q 82.8 151.9, 83.1 152.3 Q 83.4 152.7, 83.4 153.5 Q 83.4 154.3, 83.0 154.8 Q 82.6 155.3, 81.9 155.3 Q 81.7 155.3, 81.5 155.2 Q 81.4 155.2, 81.2 155.1 L 81.4 154.7 Q 81.6 154.9, 81.9 154.9 Q 82.4 154.9, 82.6 154.6 Q 82.9 154.3, 82.9 153.6 Q 82.7 153.8, 82.5 153.9 Q 82.3 154.0, 82.1 154.0 Q 81.8 154.0, 81.6 153.8 Q 81.3 153.7, 81.2 153.5 Q 81.1 153.3, 81.1 153.0 Q 81.1 152.6, 81.2 152.4 Q 81.4 152.1, 81.6 152.0 Q 81.9 151.9, 82.2 151.9 M 81.5 153.0 Q 81.5 153.3, 81.7 153.4 Q 81.9 153.6, 82.2 153.6 Q 82.4 153.6, 82.6 153.5 Q 82.8 153.4, 82.9 153.3 Q 82.9 152.7, 82.7 152.5 Q 82.5 152.2, 82.2 152.2 Q 82.0 152.2, 81.9 152.3 Q 81.7 152.4, 81.6 152.6 Q 81.5 152.8, 81.5 153.0 " fill="#000000"/>
<path class="note" d="M 122.5 167.7 L 123.2 167.7 L 123.2 165.2 L 122.4 165.4 L 122.3 165.2 L 123.3 164.7 L 123.7 164.8 L 123.7 167.7 L 124.3 167.7 L 124.3 168.0 L 122.5 168.0 L 122.5 167.7 " fill="#000000"/>
<path class="note" d="M 125.7 168.1 Q 125.1 168.1, 124.8 167.6 Q 124.5 167.2, 124.5 166.4 Q 124.5 165.6, 124.8 165.1 Q 125.1 164.7, 125.7 164.7 Q 126.4 164.7, 126.7 165.1 Q 127.0 165.6, 127.0 166.4 Q 127.0 167.2, 126.7 167.6 Q 126.3 168.1, 125.7 168.1 M 125.7 167.7 Q 126.1 167.7, 126.3 167.4 Q 126.5 167.0, 126.5 166.4 Q 126.5 165.7, 126.3 165.4 Q 126.1 165.1, 125.7 165.1 Q 125.4 165.1, 125.2 165.4 Q 125.0 165.7, 125.0 166.4 Q 125.0 167.0, 125.2 167.4 Q 125.4 167.7, 125.7 167.7 " fill="#000000"/>
<path class="note" d="M 107.2 129.1 L 107.9 129.1 L 107.9 126.6 L 107.1 126.9 L 107.0 126.6 L 108.0 126.2 L 108.4 126.2 L 108.4 129.1 L 109.0 129.1 L 109.0 129.5 L 107.2 129.5 L 107.2 129.1 " fill="#000000"/>
<path class="note" d="M 109.4 129.1 L 110.1 129.1 L 110.1 126.6 L 109.3 126.9 L 109.2 126.6 L 110.2 126.2 L 110.6 126.2 L 110.6 129.1 L 111.2 129.1 L 111.2 129.5 L 109.4 129.5 L 109.4 129.1 " fill="#000000"/>
<path class="note" d="M 143.3 156.6 L 144.0 156.6 L 144.0 154.1 L 143.2 154.3 L 143.1 154.1 L 144.1 153.6 L 144.5 153.7 L 144.5 156.6 L 145.1 156.6 L 145.1 157.0 L 143.3 157.0 L 143.3 156.6 " fill="#000000"/>
<path class="note" d="M 145.3 154.3 Q 145.5 153.9, 145.8 153.8 Q 146.0 153.6, 146.5 153.6 Q 147.0 153.6, 147.2 153.9 Q 147.5 154.1, 147.5 154.6 Q 147.5 155.1, 147.2 155.6 Q 146.8 156.0, 146.0 156.6 L 147.6 156.6 L 147.6 157.0 L 145.3 157.0 L 145.3 156.6 Q 146.0 156.2, 146.3 155.9 Q 146.7 155.5, 146.9 155.2 Q 147.0 154.9, 147.0 154.6 Q 147.0 154.3, 146.9 154.1 Q 146.7 154.0, 146.5 154.0 Q 146.2 154.0, 146.0 154.1 Q 145.8 154.2, 145.7 154.4 L 145.3 154.3 " fill="#000000"/>
<path class="note" d="M 164.0 145.5 L 164.8 145.5 L 164.8 143.0 L 164.0 143.2 L 163.8 143.0 L 164.9 142.5 L 165.2 142.6 L 165.2 145.5 L 165.9 145.5 L 165.9 145.9 L 164.0 145.9 L 164.0 145.5 " fill="#000000"/>
<path class="note" d="M 167.7 144.1 Q 168.0 144.2, 168.1 144.4 Q 168.3 144.6, 168.3 145.0 Q 168.3 145.2, 168.1 145.5 Q 168.0 145.7, 167.7 145.8 Q 167.5 145.9, 167.2 145.9 Q 166.8 145.9, 166.5 145.8 Q 166.3 145.7, 166.1 145.4 L 166.3 145.1 Q 166.5 145.4, 166.7 145.4 Q 166.9 145.5, 167.2 145.5 Q 167.5 145.5, 167.6 145.4 Q 167.8 145.2, 167.8 144.9 Q 167.8 144.6, 167.6 144.5 Q 167.4 144.3, 167.0 144.3 L 166.8 144.3 L 166.8 144.0 L 167.0 144.0 Q 167.4 144.0, 167.6 143.8 Q 167.7 143.6, 167.7 143.3 Q 167.7 143.1, 167.6 143.0 Q 167.4 142.9, 167.2 142.9 Q 166.9 142.9, 166.7 143.0 Q 166.5 143.1, 166.4 143.3 L 166.1 143.1 Q 166.2 142.9, 166.5 142.7 Q 166.8 142.5, 167.2 142.5 Q 167.6 142.5, 167.9 142.7 Q 168.2 143.0, 168.2 143.3 Q 168.2 143.6, 168.1 143.8 Q 167.9 144.0, 167.7 144.1 " fill="#000000"/>
<path class="note" d="M 141.8 88.2 L 142.5 88.2 L 142.5 85.7 L 141.7 86.0 L 141.6 85.7 L 142.6 85.2 L 143.0 85.3 L 143.0 88.2 L 143.6 88.2 L 143.6 88.6 L 141.8 88.6 L 141.8 88.2 " fill="#000000"/>
<path class="note" d="M 146.0 87.4 L 146.4 87.4 L 146.4 87.8 L 146.0 87.8 L 146.0 88.6 L 145.5 88.6 L 145.5 87.8 L 143.8 87.8 L 143.8 87.5 L 145.3 85.2 L 146.0 85.2 L 146.0 87.4 M 144.4 87.4 L 145.5 87.4 L 145.5 85.5 L 144.4 87.4 " fill="#000000"/>
<path class="note" d="M 196.6 123.3 L 197.3 123.3 L 197.3 120.8 L 196.5 121.0 L 196.4 120.8 L 197.4 120.3 L 197.7 120.4 L 197.7 123.3 L 198.4 123.3 L 198.4 123.7 L 196.6 123.7 L 196.6 123.3 " fill="#000000"/>
<path class="note" d="M 199.8 121.6 Q 200.1 121.6, 200.3 121.7 Q 200.6 121.8, 200.7 122.1 Q 200.8 122.3, 200.8 122.6 Q 200.8 123.0, 200.7 123.2 Q 200.5 123.4, 200.2 123.6 Q 200.0 123.7, 199.7 123.7 Q 199.3 123.7, 199.1 123.6 Q 198.8 123.5, 198.6 123.3 L 198.9 123.0 Q 199.0 123.1, 199.2 123.2 Q 199.5 123.3, 199.7 123.3 Q 200.0 123.3, 200.2 123.1 Q 200.4 123.0, 200.4 122.6 Q 200.4 122.3, 200.2 122.1 Q 200.0 121.9, 199.6 121.9 Q 199.3 121.9, 199.0 122.1 L 198.8 121.9 L 198.9 120.3 L 200.6 120.3 L 200.6 120.7 L 199.3 120.7 L 199.2 121.7 Q 199.5 121.6, 199.8 121.6 " fill="#000000"/>
<path class="note" d="M 137.3 102.5 L 138.0 102.5 L 138.0 100.0 L 137.2 100.3 L 137.1 100.0 L 138.1 99.5 L 138.5 99.6 L 138.5 102.5 L 139.1 102.5 L 139.1 102.9 L 137.3 102.9 L 137.3 102.5 " fill="#000000"/>
<path class="note" d="M 140.6 100.8 Q 140.9 100.8, 141.2 100.9 Q 141.4 101.1, 141.5 101.3 Q 141.6 101.5, 141.6 101.8 Q 141.6 102.1, 141.5 102.4 Q 141.4 102.6, 141.1 102.8 Q 140.8 102.9, 140.5 102.9 Q 139.9 102.9, 139.6 102.5 Q 139.3 102.1, 139.3 101.3 Q 139.3 100.4, 139.7 100.0 Q 140.1 99.5, 140.8 99.5 Q 141.0 99.5, 141.2 99.6 Q 141.3 99.6, 141.5 99.7 L 141.3 100.0 Q 141.1 99.9, 140.8 99.9 Q 140.3 99.9, 140.1 100.2 Q 139.8 100.5, 139.8 101.1 Q 140.0 101.0, 140.2 100.9 Q 140.4 100.8, 140.6 100.8 M 140.5 102.5 Q 140.7 102.5, 140.8 102.4 Q 141.0 102.3, 141.1 102.2 Q 141.2 102.0, 141.2 101.8 Q 141.2 101.5, 141.0 101.3 Q 140.8 101.2, 140.5 101.2 Q 140.3 101.2, 140.1 101.3 Q 139.9 101.3, 139.8 101.5 Q 139.8 102.0, 140.0 102.3 Q 140.2 102.5, 140.5 102.5 " fill="#000000"/>
<path class="note" d="M 104.4 149.7 L 105.1 149.7 L 105.1 147.2 L 104.3 147.5 L 104.2 147.2 L 105.2 146.7 L 105.6 146.8 L 105.6 149.7 L 106.2 149.7 L 106.2 150.1 L 104.4 150.1 L 104.4 149.7 " fill="#000000"/>
<path class="note" d="M 108.2 147.1 L 106.4 147.1 L 106.4 146.8 L 108.6 146.8 L 108.6 147.1 L 107.3 150.1 L 106.8 150.1 L 108.2 147.1 " fill="#000000"/>
<path class="note" d="M 81.9 91.7 L 82.6 91.7 L 82.6 89.2 L 81.8 89.5 L 81.7 89.2 L 82.7 88.7 L 83.0 88.8 L 83.0 91.7 L 83.7 91.7 L 83.7 92.1 L 81.9 92.1 L 81.9 91.7 " fill="#000000"/>
<path class="note" d="M 85.6 90.3 Q 85.9 90.5, 86.1 90.7 Q 86.2 90.8, 86.2 91.2 Q 86.2 91.5, 86.1 91.7 Q 85.9 91.9, 85.7 92.0 Q 85.4 92.1, 85.1 92.1 Q 84.5 92.1, 84.2 91.9 Q 83.9 91.6, 83.9 91.2 Q 83.9 90.9, 84.0 90.7 Q 84.2 90.5, 84.5 90.3 Q 84.2 90.2, 84.1 90.0 Q 84.0 89.9, 84.0 89.6 Q 84.0 89.2, 84.3 89.0 Q 84.6 88.7, 85.1 88.7 Q 85.5 88.7, 85.8 89.0 Q 86.1 89.2, 86.1 89.6 Q 86.1 89.8, 86.0 90.0 Q 85.8 90.2, 85.6 90.3 M 85.1 89.1 Q 84.8 89.1, 84.6 89.2 Q 84.5 89.3, 84.5 89.6 Q 84.5 89.7, 84.6 89.9 Q 84.7 90.0, 84.8 90.0 Q 85.0 90.1, 85.3 90.2 Q 85.5 90.1, 85.6 89.9 Q 85.6 89.8, 85.6 89.6 Q 85.6 89.3, 85.5 89.2 Q 85.3 89.1, 85.1 89.1 M 85.1 91.8 Q 85.4 91.8, 85.6 91.6 Q 85.8 91.4, 85.8 91.2 Q 85.8 91.0, 85.7 90.9 Q 85.6 90.8, 85.4 90.7 Q 85.3 90.6, 85.0 90.6 L 84.8 90.5 Q 84.6 90.6, 84.5 90.8 Q 84.4 91.0, 84.4 91.2 Q 84.4 91.4, 84.6 91.6 Q 84.8 91.8, 85.1 91.8 " fill="#000000"/>
<path class="note" d="M 49.3 113.9 L 50.1 113.9 L 50.1 111.4 L 49.3 111.7 L 49.2 111.4 L 50.2 110.9 L 50.5 111.0 L 50.5 113.9 L 51.2 113.9 L 51.2 114.3 L 49.3 114.3 L 49.3 113.9 " fill="#000000"/>
<path class="note" d="M 52.5 110.9 Q 53.1 110.9, 53.4 111.3 Q 53.7 111.7, 53.7 112.5 Q 53.7 113.4, 53.3 113.9 Q 52.9 114.3, 52.2 114.3 Q 52.0 114.3, 51.8 114.3 Q 51.7 114.2, 51.5 114.1 L 51.7 113.8 Q 51.9 113.9, 52.2 113.9 Q 52.7 113.9, 52.9 113.6 Q 53.2 113.3, 53.2 112.7 Q 53.0 112.9, 52.8 112.9 Q 52.6 113.0, 52.4 113.0 Q 52.1 113.0, 51.8 112.9 Q 51.6 112.8, 51.5 112.5 Q 51.4 112.3, 51.4 112.0 Q 51.4 111.7, 51.5 111.4 Q 51.6 111.2, 51.9 111.1 Q 52.2 110.9, 52.5 110.9 M 51.8 112.0 Q 51.8 112.3, 52.0 112.5 Q 52.2 112.7, 52.5 112.7 Q 52.7 112.7, 52.9 112.6 Q 53.1 112.5, 53.2 112.3 Q 53.2 111.8, 53.0 111.5 Q 52.8 111.3, 52.5 111.3 Q 52.3 111.3, 52.1 111.4 Q 52.0 111.5, 51.9 111.7 Q 51.8 111.8, 51.8 112.0 " fill="#000000"/>
<path class="legend" d="M 64.9 238.9 L 67.4 238.9 L 67.4 230.5 L 64.7 231.3 L 64.3 230.4 L 67.8 228.8 L 68.9 229.0 L 68.9 238.9 L 71.1 238.9 L 71.1 240.2 L 64.9 240.2 L 64.9 238.9 " fill="#000000"/>
<path class="legend" d="M 75.9 240.3 Q 73.9 240.3, 72.8 238.8 Q 71.8 237.3, 71.8 234.5 Q 71.8 231.8, 72.8 230.3 Q 73.8 228.7, 75.9 228.7 Q 78.0 228.7, 79.1 230.3 Q 80.1 231.8, 80.1 234.5 Q 80.1 237.3, 79.0 238.8 Q 78.0 240.3, 75.9 240.3 M 75.9 239.0 Q 77.2 239.0, 77.8 237.9 Q 78.5 236.8, 78.5 234.5 Q 78.5 232.3, 77.8 231.2 Q 77.2 230.0, 75.9 230.0 Q 74.7 230.0, 74.1 231.2 Q 73.4 232.3, 73.4 234.5 Q 73.4 236.8, 74.1 237.9 Q 74.7 239.0, 75.9 239.0 " fill="#000000"/>
<path class="legend" d="M 85.3 240.3 Q 83.2 240.3, 82.1 238.8 Q 81.1 237.3, 81.1 234.5 Q 81.1 231.8, 82.1 230.3 Q 83.2 228.7, 85.3 228.7 Q 87.4 228.7, 88.4 230.3 Q 89.4 231.8, 89.4 234.5 Q 89.4 237.3, 88.4 238.8 Q 87.3 240.3, 85.3 240.3 M 85.3 239.0 Q 86.5 239.0, 87.2 237.9 Q 87.8 236.8, 87.8 234.5 Q 87.8 232.3, 87.2 231.2 Q 86.5 230.0, 85.3 230.0 Q 84.1 230.0, 83.4 231.2 Q 82.7 232.3, 82.7 234.5 Q 82.7 236.8, 83.4 237.9 Q 84.1 239.0, 85.3 239.0 " fill="#000000"/>
<path class="legend" d="M 96.2 234.2 Q 97.3 234.6, 97.9 235.3 Q 98.5 236.0, 98.5 237.1 Q 98.5 238.1, 98.0 238.8 Q 97.5 239.5, 96.6 240.0 Q 95.7 240.4, 94.5 240.4 Q 92.6 240.4, 91.5 239.5 Q 90.5 238.6, 90.5 237.1 Q 90.5 236.2, 90.9 235.5 Q 91.4 234.8, 92.4 234.2 Q 91.7 233.8, 91.3 233.2 Q 90.9 232.6, 90.9 231.6 Q 90.9 230.3, 91.8 229.5 Q 92.8 228.7, 94.5 228.7 Q 96.1 228.7, 97.1 229.5 Q 98.0 230.3, 98.0 231.6 Q 98.0 232.5, 97.6 233.1 Q 97.1 233.7, 96.2 234.2 M 94.5 229.9 Q 93.5 229.9, 93.0 230.4 Q 92.5 230.8, 92.5 231.6 Q 92.5 232.2, 92.8 232.6 Q 93.2 233.0, 93.7 233.2 Q 94.2 233.5, 95.2 233.8 Q 95.8 233.3, 96.1 232.8 Q 96.4 232.3, 96.4 231.6 Q 96.4 230.8, 95.9 230.4 Q 95.4 229.9, 94.5 229.9 M 94.5 239.2 Q 95.6 239.2, 96.2 238.6 Q 96.9 238.0, 96.9 237.1 Q 96.9 236.5, 96.5 236.1 Q 96.2 235.7, 95.7 235.5 Q 95.2 235.3, 94.3 235.0 L 93.6 234.7 Q 92.8 235.2, 92.4 235.8 Q 92.1 236.3, 92.1 237.1 Q 92.1 238.0, 92.7 238.6 Q 93.4 239.2, 94.5 239.2 " fill="#000000"/>
<path class="legend" d="M 103.9 233.1 Q 104.9 233.1, 105.7 233.6 Q 106.5 234.0, 106.9 234.8 Q 107.3 235.6, 107.3 236.6 Q 107.3 237.7, 106.8 238.5 Q 106.3 239.4, 105.5 239.8 Q 104.6 240.3, 103.5 240.3 Q 101.5 240.3, 100.5 239.0 Q 99.5 237.6, 99.5 234.9 Q 99.5 231.9, 100.7 230.3 Q 102.0 228.7, 104.4 228.7 Q 105.1 228.7, 105.7 228.9 Q 106.3 229.1, 106.9 229.4 L 106.2 230.5 Q 105.4 230.0, 104.4 230.0 Q 102.8 230.0, 102.0 231.1 Q 101.2 232.1, 101.1 234.2 Q 101.7 233.7, 102.4 233.4 Q 103.1 233.1, 103.9 233.1 M 103.5 239.0 Q 104.1 239.0, 104.6 238.7 Q 105.1 238.4, 105.4 237.8 Q 105.7 237.3, 105.7 236.6 Q 105.7 235.6, 105.2 235.0 Q 104.6 234.4, 103.6 234.4 Q 102.9 234.4, 102.2 234.7 Q 101.6 235.0, 101.1 235.4 Q 101.1 237.3, 101.7 238.2 Q 102.3 239.0, 103.5 239.0 " fill="#000000"/>
<path class="legend" d="M 114.1 230.2 L 108.2 230.2 L 108.2 228.9 L 115.7 228.9 L 115.7 230.0 L 111.1 240.2 L 109.6 240.2 L 114.1 230.2 " fill="#000000"/>
<path class="legend" d="M 124.3 241.0 L 124.3 242.3 L 116.2 242.3 L 116.2 241.0 L 124.3 241.0 " fill="#000000"/>
<path class="legend" d="M 128.5 240.3 Q 126.4 240.3, 125.4 238.8 Q 124.3 237.3, 124.3 234.5 Q 124.3 231.8, 125.4 230.3 Q 126.4 228.7, 128.5 228.7 Q 130.6 228.7, 131.6 230.3 Q 132.6 231.8, 132.6 234.5 Q 132.6 237.3, 131.6 238.8 Q 130.6 240.3, 128.5 240.3 M 128.5 239.0 Q 129.7 239.0, 130.4 237.9 Q 131.0 236.8, 131.0 234.5 Q 131.0 232.3, 130.4 231.2 Q 129.7 230.0, 128.5 230.0 Q 127.3 230.0, 126.6 231.2 Q 125.9 232.3, 125.9 234.5 Q 125.9 236.8, 126.6 237.9 Q 127.3 239.0, 128.5 239.0 " fill="#000000"/>
<path class="legend" d="" fill="#000000"/>
<path class="legend" d="M 139.0 235.6 Q 139.0 233.3, 139.7 231.5 Q 140.3 229.6, 141.6 227.5 L 142.5 228.1 Q 141.5 230.0, 141.0 231.7 Q 140.4 233.4, 140.4 235.6 Q 140.4 237.8, 141.0 239.5 Q 141.5 241.2, 142.5 243.2 L 141.6 243.8 Q 140.3 241.7, 139.7 239.8 Q 139.0 238.0, 139.0 235.6 " fill="#000000"/>
<path class="legend" d="M 152.0 234.6 L 152.0 239.4 Q 150.4 240.3, 148.0 240.3 Q 145.6 240.3, 144.2 238.8 Q 142.9 237.3, 142.9 234.5 Q 142.9 231.7, 144.2 230.2 Q 145.6 228.7, 148.1 228.7 Q 149.4 228.7, 150.3 229.2 Q 151.3 229.6, 152.0 230.4 L 150.9 231.3 Q 149.9 230.0, 148.1 230.0 Q 146.4 230.0, 145.5 231.2 Q 144.6 232.3, 144.6 234.5 Q 144.6 236.8, 145.5 237.9 Q 146.4 239.1, 148.3 239.1 Q 149.4 239.1, 150.5 238.7 L 150.5 234.6 L 152.0 234.6 " fill="#000000"/>
<path class="legend" d="M 154.4 232.0 L 154.6 233.1 Q 155.5 231.8, 156.9 231.8 Q 157.3 231.8, 157.9 232.0 L 157.7 233.3 Q 157.0 233.2, 156.6 233.2 Q 156.0 233.2, 155.5 233.4 Q 155.1 233.7, 154.7 234.3 L 154.7 240.2 L 153.2 240.2 L 153.2 232.0 L 154.4 232.0 " fill="#000000"/>
<path class="legend" d="M 158.2 236.1 Q 158.2 234.1, 159.2 233.0 Q 160.2 231.8, 162.0 231.8 Q 163.9 231.8, 164.7 232.9 Q 165.5 234.0, 165.5 236.0 L 165.5 236.3 L 159.7 236.3 Q 159.8 237.7, 160.4 238.4 Q 161.0 239.1, 162.2 239.1 Q 162.8 239.1, 163.4 239.0 Q 164.0 238.8, 164.7 238.5 L 165.1 239.5 Q 164.3 240.0, 163.6 240.2 Q 162.9 240.3, 162.1 240.3 Q 160.2 240.3, 159.2 239.2 Q 158.2 238.1, 158.2 236.1 M 162.0 233.0 Q 161.1 233.0, 160.5 233.6 Q 160.0 234.1, 159.8 235.2 L 163.9 235.2 Q 163.8 234.1, 163.3 233.5 Q 162.9 233.0, 162.0 233.0 " fill="#000000"/>
<path class="legend" d="M 166.1 236.1 Q 166.1 234.1, 167.1 233.0 Q 168.1 231.8, 169.9 231.8 Q 171.7 231.8, 172.5 232.9 Q 173.4 234.0, 173.4 236.0 L 173.4 236.3 L 167.6 236.3 Q 167.6 237.7, 168.3 238.4 Q 168.9 239.1, 170.1 239.1 Q 170.7 239.1, 171.3 239.0 Q 171.9 238.8, 172.6 238.5 L 173.0 239.5 Q 172.2 240.0, 171.5 240.2 Q 170.7 240.3, 170.0 240.3 Q 168.1 240.3, 167.1 239.2 Q 166.1 238.1, 166.1 236.1 M 169.9 233.0 Q 169.0 233.0, 168.4 233.6 Q 167.9 234.1, 167.7 235.2 L 171.8 235.2 Q 171.7 234.1, 171.2 233.5 Q 170.8 233.0, 169.9 233.0 " fill="#000000"/>
<path class="legend" d="M 178.3 231.8 Q 179.6 231.8, 180.3 232.6 Q 181.0 233.3, 181.0 234.8 L 181.0 240.2 L 179.5 240.2 L 179.5 234.9 Q 179.5 233.9, 179.1 233.5 Q 178.7 233.0, 177.9 233.0 Q 177.1 233.0, 176.5 233.4 Q 175.9 233.7, 175.5 234.3 L 175.5 240.2 L 174.0 240.2 L 174.0 232.0 L 175.2 232.0 L 175.4 233.1 Q 176.5 231.8, 178.3 231.8 " fill="#000000"/>
<path class="legend" d="M 185.7 235.6 Q 185.7 238.0, 185.0 239.8 Q 184.4 241.7, 183.1 243.8 L 182.2 243.2 Q 183.2 241.2, 183.7 239.5 Q 184.3 237.8, 184.3 235.6 Q 184.3 233.4, 183.7 231.7 Q 183.2 230.0, 182.2 228.1 L 183.1 227.5 Q 184.4 229.6, 185.0 231.5 Q 185.7 233.3, 185.7 235.6 " fill="#000000"/>
<path class="bond-2 atom-2 atom-3" d="M 338.3,112.5 L 361.0,118.5" style="fill:none;fill-rule:evenodd;stroke:#FF7F7F;stroke-width:5.0px;stroke-linecap:butt;stroke-linejoin:miter;stroke-opacity:1"/>
<path class="bond-3 atom-3 atom-4" d="M 361.0,118.5 L 383.7,124.5" style="fill:none;fill-rule:evenodd;stroke:#FF7F7F;stroke-width:5.0px;stroke-linecap:butt;stroke-linejoin:miter;stroke-opacity:1"/>
<path class="bond-15 atom-3 atom-16" d="M 361.0,118.5 L 355.0,141.2" style="fill:none;fill-rule:evenodd;stroke:#FF7F7F;stroke-width:5.0px;stroke-linecap:butt;stroke-linejoin:miter;stroke-opacity:1"/>
<path class="bond-16 atom-3 atom-17" d="M 361.0,118.5 L 367.0,95.8" style="fill:none;fill-rule:evenodd;stroke:#FF7F7F;stroke-width:5.0px;stroke-linecap:butt;stroke-linejoin:miter;stroke-opacity:1"/>
<ellipse cx="338.3" cy="112.5" rx="4.7" ry="4.7" class="atom-2" style="fill:#FF7F7F;fill-rule:evenodd;stroke:#FF7F7F;stroke-width:1.0px;stroke-linecap:butt;stroke-linejoin:miter;stroke-opacity:1"/>
<ellipse cx="361.0" cy="118.5" rx="4.7" ry="4.7" class="atom-3" style="fill:#FF7F7F;fill-rule:evenodd;stroke:#FF7F7F;stroke-width:1.0px;stroke-linecap:butt;stroke-linejoin:miter;stroke-opacity:1"/>
<ellipse cx="383.7" cy="124.5" rx="4.7" ry="4.7" class="atom-4" style="fill:#FF7F7F;fill-rule:evenodd;stroke:#FF7F7F;stroke-width:1.0px;stroke-linecap:butt;stroke-linejoin:miter;stroke-opacity:1"/>
<ellipse cx="355.0" cy="141.2" rx="4.7" ry="4.7" class="atom-16" style="fill:#FF7F7F;fill-rule:evenodd;stroke:#FF7F7F;stroke-width:1.0px;stroke-linecap:butt;stroke-linejoin:miter;stroke-opacity:1"/>
<ellipse cx="367.0" cy="95.8" rx="4.7" ry="4.7" class="atom-17" style="fill:#FF7F7F;fill-rule:evenodd;stroke:#FF7F7F;stroke-width:1.0px;stroke-linecap:butt;stroke-linejoin:miter;stroke-opacity:1"/>
<path class="bond-0 atom-0 atom-1" d="M 292.8,100.5 L 315.5,106.5" style="fill:none;fill-rule:evenodd;stroke:#000000;stroke-width:2.0px;stroke-linecap:butt;stroke-linejoin:miter;stroke-opacity:1"/>
<path class="bond-1 atom-1 atom-2" d="M 315.5,106.5 L 338.3,112.5" style="fill:none;fill-rule:evenodd;stroke:#000000;stroke-width:2.0px;stroke-linecap:butt;stroke-linejoin:miter;stroke-opacity:1"/>
<path class="bond-2 atom-2 atom-3" d="M 338.3,112.5 L 361.0,118.5" style="fill:none;fill-rule:evenodd;stroke:#000000;stroke-width:2.0px;stroke-linecap:butt;stroke-linejoin:miter;stroke-opacity:1"/>
<path class="bond-3 atom-3 atom-4" d="M 361.0,118.5 L 383.7,124.5" style="fill:none;fill-rule:evenodd;stroke:#000000;stroke-width:2.0px;stroke-linecap:butt;stroke-linejoin:miter;stroke-opacity:1"/>
<path class="bond-4 atom-4 atom-5" d="M 383.7,124.5 L 393.4,127.0" style="fill:none;fill-rule:evenodd;stroke:#000000;stroke-width:2.0px;stroke-linecap:butt;stroke-linejoin:miter;stroke-opacity:1"/>
<path class="bond-4 atom-4 atom-5" d="M 393.4,127.0 L 403.1,129.6" style="fill:none;fill-rule:evenodd;stroke:#0000FF;stroke-width:2.0px;stroke-linecap:butt;stroke-linejoin:miter;stroke-opacity:1"/>
<path class="bond-5 atom-5 atom-6" d="M 409.7,127.2 L 416.3,120.5" style="fill:none;fill-rule:evenodd;stroke:#0000FF;stroke-width:2.0px;stroke-linecap:butt;stroke-linejoin:miter;stroke-opacity:1"/>
<path class="bond-5 atom-5 atom-6" d="M 416.3,120.5 L 423.0,113.8" style="fill:none;fill-rule:evenodd;stroke:#000000;stroke-width:2.0px;stroke-linecap:butt;stroke-linejoin:miter;stroke-opacity:1"/>
<path class="bond-5 atom-5 atom-6" d="M 408.4,121.8 L 413.0,117.2" style="fill:none;fill-rule:evenodd;stroke:#0000FF;stroke-width:2.0px;stroke-linecap:butt;stroke-linejoin:miter;stroke-opacity:1"/>
<path class="bond-5 atom-5 atom-6" d="M 413.0,117.2 L 417.7,112.5" style="fill:none;fill-rule:evenodd;stroke:#000000;stroke-width:2.0px;stroke-linecap:butt;stroke-linejoin:miter;stroke-opacity:1"/>
<path class="bond-6 atom-6 atom-7" d="M 423.0,113.8 L 432.4,116.3" style="fill:none;fill-rule:evenodd;stroke:#000000;stroke-width:2.0px;stroke-linecap:butt;stroke-linejoin:miter;stroke-opacity:1"/>
<path class="bond-6 atom-6 atom-7" d="M 432.4,116.3 L 441.9,118.8" style="fill:none;fill-rule:evenodd;stroke:#FF0000;stroke-width:2.0px;stroke-linecap:butt;stroke-linejoin:miter;stroke-opacity:1"/>
<path class="bond-7 atom-7 atom-8" d="M 449.5,115.9 L 455.9,109.5" style="fill:none;fill-rule:evenodd;stroke:#FF0000;stroke-width:2.0px;stroke-linecap:butt;stroke-linejoin:miter;stroke-opacity:1"/>
<path class="bond-7 atom-7 atom-8" d="M 455.9,109.5 L 462.3,103.1" style="fill:none;fill-rule:evenodd;stroke:#000000;stroke-width:2.0px;stroke-linecap:butt;stroke-linejoin:miter;stroke-opacity:1"/>
<path class="bond-8 atom-0 atom-9" d="M 292.8,100.5 L 273.5,95.4" style="fill:none;fill-rule:evenodd;stroke:#000000;stroke-width:2.0px;stroke-linecap:butt;stroke-linejoin:miter;stroke-opacity:1"/>
<path class="bond-9 atom-0 atom-10" d="M 292.8,100.5 L 287.9,119.1" style="fill:none;fill-rule:evenodd;stroke:#000000;stroke-width:2.0px;stroke-linecap:butt;stroke-linejoin:miter;stroke-opacity:1"/>
<path class="bond-10 atom-0 atom-11" d="M 292.8,100.5 L 297.7,81.9" style="fill:none;fill-rule:evenodd;stroke:#000000;stroke-width:2.0px;stroke-linecap:butt;stroke-linejoin:miter;stroke-opacity:1"/>
<path class="bond-11 atom-1 atom-12" d="M 315.5,106.5 L 310.6,125.1" style="fill:none;fill-rule:evenodd;stroke:#000000;stroke-width:2.0px;stroke-linecap:butt;stroke-linejoin:miter;stroke-opacity:1"/>
<path class="bond-12 atom-1 atom-13" d="M 315.5,106.5 L 320.5,87.9" style="fill:none;fill-rule:evenodd;stroke:#000000;stroke-width:2.0px;stroke-linecap:butt;stroke-linejoin:miter;stroke-opacity:1"/>
<path class="bond-13 atom-2 atom-14" d="M 338.3,112.5 L 343.2,93.9" style="fill:none;fill-rule:evenodd;stroke:#000000;stroke-width:2.0px;stroke-linecap:butt;stroke-linejoin:miter;stroke-opacity:1"/>
<path class="bond-14 atom-2 atom-15" d="M 338.3,112.5 L 333.3,131.1" style="fill:none;fill-rule:evenodd;stroke:#000000;stroke-width:2.0px;stroke-linecap:butt;stroke-linejoin:miter;stroke-opacity:1"/>
<path class="bond-15 atom-3 atom-16" d="M 361.0,118.5 L 356.1,137.1" style="fill:none;fill-rule:evenodd;stroke:#000000;stroke-width:2.0px;stroke-linecap:butt;stroke-linejoin:miter;stroke-opacity:1"/>
<path class="bond-16 atom-3 atom-17" d="M 361.0,118.5 L 365.9,99.9" style="fill:none;fill-rule:evenodd;stroke:#000000;stroke-width:2.0px;stroke-linecap:butt;stroke-linejoin:miter;stroke-opacity:1"/>
<path class="bond-17 atom-4 atom-18" d="M 383.7,124.5 L 388.6,105.9" style="fill:none;fill-rule:evenodd;stroke:#000000;stroke-width:2.0px;stroke-linecap:butt;stroke-linejoin:miter;stroke-opacity:1"/>
<path class="bond-18 atom-4 atom-19" d="M 383.7,124.5 L 378.8,143.1" style="fill:none;fill-rule:evenodd;stroke:#000000;stroke-width:2.0px;stroke-linecap:butt;stroke-linejoin:miter;stroke-opacity:1"/>
<path class="bond-19 atom-6 atom-20" d="M 423.0,113.8 L 417.9,95.2" style="fill:none;fill-rule:evenodd;stroke:#000000;stroke-width:2.0px;stroke-linecap:butt;stroke-linejoin:miter;stroke-opacity:1"/>
<path class="bond-20 atom-8 atom-21" d="M 462.3,103.1 L 475.4,89.9" style="fill:none;fill-rule:evenodd;stroke:#000000;stroke-width:2.0px;stroke-linecap:butt;stroke-linejoin:miter;stroke-opacity:1"/>
<path class="bond-21 atom-8 atom-22" d="M 462.3,103.1 L 475.6,116.3" style="fill:none;fill-rule:evenodd;stroke:#000000;stroke-width:2.0px;stroke-linecap:butt;stroke-linejoin:miter;stroke-opacity:1"/>
<path class="bond-22 atom-8 atom-23" d="M 462.3,103.1 L 449.0,89.9" style="fill:none;fill-rule:evenodd;stroke:#000000;stroke-width:2.0px;stroke-linecap:butt;stroke-linejoin:miter;stroke-opacity:1"/>
<path class="atom-5" d="M 404.9 127.2 L 407.1 130.7 Q 407.3 131.0, 407.7 131.7 Q 408.0 132.3, 408.1 132.3 L 408.1 127.2 L 408.9 127.2 L 408.9 133.8 L 408.0 133.8 L 405.7 130.0 Q 405.4 129.5, 405.1 129.0 Q 404.8 128.5, 404.8 128.3 L 404.8 133.8 L 403.9 133.8 L 403.9 127.2 L 404.9 127.2 " fill="#0000FF"/>
<path class="atom-7" d="M 442.6 119.8 Q 442.6 118.2, 443.4 117.3 Q 444.2 116.4, 445.7 116.4 Q 447.2 116.4, 448.0 117.3 Q 448.8 118.2, 448.8 119.8 Q 448.8 121.4, 448.0 122.4 Q 447.2 123.3, 445.7 123.3 Q 444.2 123.3, 443.4 122.4 Q 442.6 121.5, 442.6 119.8 M 445.7 122.5 Q 446.7 122.5, 447.3 121.8 Q 447.8 121.2, 447.8 119.8 Q 447.8 118.5, 447.3 117.9 Q 446.7 117.2, 445.7 117.2 Q 444.7 117.2, 444.1 117.8 Q 443.6 118.5, 443.6 119.8 Q 443.6 121.2, 444.1 121.8 Q 444.7 122.5, 445.7 122.5 " fill="#FF0000"/>
<path class="atom-9" d="M 267.5 91.1 L 268.4 91.1 L 268.4 94.0 L 271.8 94.0 L 271.8 91.1 L 272.7 91.1 L 272.7 97.8 L 271.8 97.8 L 271.8 94.7 L 268.4 94.7 L 268.4 97.8 L 267.5 97.8 L 267.5 91.1 " fill="#000000"/>
<path class="atom-10" d="M 284.2 119.9 L 285.1 119.9 L 285.1 122.7 L 288.5 122.7 L 288.5 119.9 L 289.4 119.9 L 289.4 126.5 L 288.5 126.5 L 288.5 123.4 L 285.1 123.4 L 285.1 126.5 L 284.2 126.5 L 284.2 119.9 " fill="#000000"/>
<path class="atom-11" d="M 296.2 74.4 L 297.1 74.4 L 297.1 77.3 L 300.5 77.3 L 300.5 74.4 L 301.4 74.4 L 301.4 81.1 L 300.5 81.1 L 300.5 78.0 L 297.1 78.0 L 297.1 81.1 L 296.2 81.1 L 296.2 74.4 " fill="#000000"/>
<path class="atom-12" d="M 306.9 125.9 L 307.8 125.9 L 307.8 128.7 L 311.2 128.7 L 311.2 125.9 L 312.1 125.9 L 312.1 132.5 L 311.2 132.5 L 311.2 129.5 L 307.8 129.5 L 307.8 132.5 L 306.9 132.5 L 306.9 125.9 " fill="#000000"/>
<path class="atom-13" d="M 318.9 80.4 L 319.8 80.4 L 319.8 83.3 L 323.2 83.3 L 323.2 80.4 L 324.1 80.4 L 324.1 87.1 L 323.2 87.1 L 323.2 84.0 L 319.8 84.0 L 319.8 87.1 L 318.9 87.1 L 318.9 80.4 " fill="#000000"/>
<path class="atom-14" d="M 341.7 86.4 L 342.6 86.4 L 342.6 89.3 L 346.0 89.3 L 346.0 86.4 L 346.9 86.4 L 346.9 93.1 L 346.0 93.1 L 346.0 90.0 L 342.6 90.0 L 342.6 93.1 L 341.7 93.1 L 341.7 86.4 " fill="#000000"/>
<path class="atom-15" d="M 329.6 131.9 L 330.6 131.9 L 330.6 134.7 L 334.0 134.7 L 334.0 131.9 L 334.9 131.9 L 334.9 138.5 L 334.0 138.5 L 334.0 135.5 L 330.6 135.5 L 330.6 138.5 L 329.6 138.5 L 329.6 131.9 " fill="#000000"/>
<path class="atom-16" d="M 352.4 137.9 L 353.3 137.9 L 353.3 140.7 L 356.7 140.7 L 356.7 137.9 L 357.6 137.9 L 357.6 144.5 L 356.7 144.5 L 356.7 141.5 L 353.3 141.5 L 353.3 144.5 L 352.4 144.5 L 352.4 137.9 " fill="#000000"/>
<path class="atom-17" d="M 364.4 92.4 L 365.3 92.4 L 365.3 95.3 L 368.7 95.3 L 368.7 92.4 L 369.6 92.4 L 369.6 99.1 L 368.7 99.1 L 368.7 96.0 L 365.3 96.0 L 365.3 99.1 L 364.4 99.1 L 364.4 92.4 " fill="#000000"/>
<path class="atom-18" d="M 387.1 98.4 L 388.0 98.4 L 388.0 101.3 L 391.4 101.3 L 391.4 98.4 L 392.3 98.4 L 392.3 105.1 L 391.4 105.1 L 391.4 102.0 L 388.0 102.0 L 388.0 105.1 L 387.1 105.1 L 387.1 98.4 " fill="#000000"/>
<path class="atom-19" d="M 375.1 143.9 L 376.0 143.9 L 376.0 146.7 L 379.4 146.7 L 379.4 143.9 L 380.3 143.9 L 380.3 150.5 L 379.4 150.5 L 379.4 147.5 L 376.0 147.5 L 376.0 150.5 L 375.1 150.5 L 375.1 143.9 " fill="#000000"/>
<path class="atom-20" d="M 414.2 87.8 L 415.1 87.8 L 415.1 90.6 L 418.5 90.6 L 418.5 87.8 L 419.4 87.8 L 419.4 94.5 L 418.5 94.5 L 418.5 91.4 L 415.1 91.4 L 415.1 94.5 L 414.2 94.5 L 414.2 87.8 " fill="#000000"/>
<path class="atom-21" d="M 476.2 83.1 L 477.1 83.1 L 477.1 86.0 L 480.5 86.0 L 480.5 83.1 L 481.4 83.1 L 481.4 89.8 L 480.5 89.8 L 480.5 86.7 L 477.1 86.7 L 477.1 89.8 L 476.2 89.8 L 476.2 83.1 " fill="#000000"/>
<path class="atom-22" d="M 476.3 116.4 L 477.2 116.4 L 477.2 119.2 L 480.6 119.2 L 480.6 116.4 L 481.5 116.4 L 481.5 123.0 L 480.6 123.0 L 480.6 119.9 L 477.2 119.9 L 477.2 123.0 L 476.3 123.0 L 476.3 116.4 " fill="#000000"/>
<path class="atom-23" d="M 443.0 83.2 L 443.9 83.2 L 443.9 86.1 L 447.3 86.1 L 447.3 83.2 L 448.2 83.2 L 448.2 89.9 L 447.3 89.9 L 447.3 86.8 L 443.9 86.8 L 443.9 89.9 L 443.0 89.9 L 443.0 83.2 " fill="#000000"/>
<path class="note" d="M 294.8 105.6 Q 294.2 105.6, 293.9 105.1 Q 293.6 104.7, 293.6 103.9 Q 293.6 103.1, 293.9 102.6 Q 294.2 102.2, 294.8 102.2 Q 295.4 102.2, 295.7 102.6 Q 296.0 103.1, 296.0 103.9 Q 296.0 104.7, 295.7 105.1 Q 295.4 105.6, 294.8 105.6 M 294.8 105.2 Q 295.1 105.2, 295.3 104.9 Q 295.5 104.5, 295.5 103.9 Q 295.5 103.2, 295.3 102.9 Q 295.1 102.6, 294.8 102.6 Q 294.4 102.6, 294.2 102.9 Q 294.0 103.2, 294.0 103.9 Q 294.0 104.5, 294.2 104.9 Q 294.4 105.2, 294.8 105.2 " fill="#000000"/>
<path class="note" d="M 311.3 109.7 L 312.1 109.7 L 312.1 107.3 L 311.3 107.5 L 311.1 107.2 L 312.2 106.8 L 312.5 106.8 L 312.5 109.7 L 313.2 109.7 L 313.2 110.1 L 311.3 110.1 L 311.3 109.7 " fill="#000000"/>
<path class="note" d="M 335.2 108.1 Q 335.3 107.8, 335.6 107.6 Q 335.9 107.4, 336.3 107.4 Q 336.8 107.4, 337.1 107.7 Q 337.3 108.0, 337.3 108.4 Q 337.3 108.9, 337.0 109.4 Q 336.6 109.9, 335.9 110.4 L 337.4 110.4 L 337.4 110.8 L 335.2 110.8 L 335.2 110.5 Q 335.8 110.0, 336.1 109.7 Q 336.5 109.4, 336.7 109.1 Q 336.9 108.8, 336.9 108.5 Q 336.9 108.1, 336.7 108.0 Q 336.6 107.8, 336.3 107.8 Q 336.0 107.8, 335.8 107.9 Q 335.7 108.0, 335.5 108.2 L 335.2 108.1 " fill="#000000"/>
<path class="note" d="M 358.1 120.4 Q 358.4 120.5, 358.5 120.7 Q 358.7 120.9, 358.7 121.2 Q 358.7 121.5, 358.6 121.7 Q 358.4 121.9, 358.2 122.1 Q 357.9 122.2, 357.6 122.2 Q 357.2 122.2, 356.9 122.1 Q 356.7 121.9, 356.5 121.7 L 356.7 121.4 Q 356.9 121.6, 357.1 121.7 Q 357.3 121.8, 357.6 121.8 Q 357.9 121.8, 358.1 121.6 Q 358.2 121.5, 358.2 121.2 Q 358.2 120.9, 358.0 120.7 Q 357.9 120.6, 357.4 120.6 L 357.2 120.6 L 357.2 120.2 L 357.4 120.2 Q 357.8 120.2, 358.0 120.1 Q 358.2 119.9, 358.2 119.6 Q 358.2 119.4, 358.0 119.3 Q 357.8 119.1, 357.6 119.1 Q 357.3 119.1, 357.1 119.2 Q 357.0 119.3, 356.8 119.6 L 356.5 119.4 Q 356.6 119.1, 356.9 119.0 Q 357.2 118.8, 357.6 118.8 Q 358.1 118.8, 358.4 119.0 Q 358.6 119.2, 358.6 119.6 Q 358.6 119.9, 358.5 120.1 Q 358.3 120.3, 358.1 120.4 " fill="#000000"/>
<path class="note" d="M 382.6 121.6 L 383.0 121.6 L 383.0 122.0 L 382.6 122.0 L 382.6 122.8 L 382.2 122.8 L 382.2 122.0 L 380.4 122.0 L 380.4 121.7 L 381.9 119.4 L 382.6 119.4 L 382.6 121.6 M 381.0 121.6 L 382.2 121.6 L 382.2 119.7 L 381.0 121.6 " fill="#000000"/>
<path class="note" d="M 408.6 137.6 Q 408.8 137.6, 409.1 137.7 Q 409.3 137.9, 409.5 138.1 Q 409.6 138.3, 409.6 138.7 Q 409.6 139.0, 409.4 139.2 Q 409.3 139.5, 409.0 139.6 Q 408.7 139.7, 408.4 139.7 Q 408.1 139.7, 407.8 139.6 Q 407.5 139.5, 407.3 139.3 L 407.6 139.0 Q 407.8 139.2, 408.0 139.3 Q 408.2 139.4, 408.4 139.4 Q 408.7 139.4, 408.9 139.2 Q 409.1 139.0, 409.1 138.7 Q 409.1 138.3, 408.9 138.1 Q 408.7 138.0, 408.4 138.0 Q 408.1 138.0, 407.8 138.1 L 407.5 138.0 L 407.7 136.4 L 409.4 136.4 L 409.3 136.8 L 408.1 136.8 L 408.0 137.7 Q 408.3 137.6, 408.6 137.6 " fill="#000000"/>
<path class="note" d="M 424.2 117.2 Q 424.4 117.2, 424.7 117.3 Q 424.9 117.4, 425.0 117.7 Q 425.2 117.9, 425.2 118.2 Q 425.2 118.5, 425.0 118.8 Q 424.9 119.0, 424.6 119.2 Q 424.4 119.3, 424.0 119.3 Q 423.4 119.3, 423.1 118.9 Q 422.8 118.5, 422.8 117.7 Q 422.8 116.8, 423.2 116.4 Q 423.6 115.9, 424.3 115.9 Q 424.5 115.9, 424.7 115.9 Q 424.9 116.0, 425.0 116.1 L 424.8 116.4 Q 424.6 116.3, 424.3 116.3 Q 423.8 116.3, 423.6 116.6 Q 423.4 116.9, 423.3 117.5 Q 423.5 117.4, 423.7 117.3 Q 423.9 117.2, 424.2 117.2 M 424.0 118.9 Q 424.2 118.9, 424.4 118.8 Q 424.5 118.7, 424.6 118.6 Q 424.7 118.4, 424.7 118.2 Q 424.7 117.9, 424.5 117.7 Q 424.4 117.6, 424.1 117.6 Q 423.9 117.6, 423.7 117.6 Q 423.5 117.7, 423.3 117.9 Q 423.3 118.4, 423.5 118.7 Q 423.7 118.9, 424.0 118.9 " fill="#000000"/>
<path class="note" d="M 448.4 126.1 L 446.6 126.1 L 446.6 125.7 L 448.9 125.7 L 448.9 126.0 L 447.5 129.0 L 447.1 129.0 L 448.4 126.1 " fill="#000000"/>
<path class="note" d="M 462.8 110.9 Q 463.1 111.0, 463.3 111.2 Q 463.5 111.4, 463.5 111.7 Q 463.5 112.0, 463.3 112.2 Q 463.2 112.5, 462.9 112.6 Q 462.6 112.7, 462.3 112.7 Q 461.7 112.7, 461.4 112.4 Q 461.1 112.2, 461.1 111.7 Q 461.1 111.5, 461.2 111.3 Q 461.4 111.1, 461.7 110.9 Q 461.5 110.8, 461.3 110.6 Q 461.2 110.4, 461.2 110.1 Q 461.2 109.7, 461.5 109.5 Q 461.8 109.3, 462.3 109.3 Q 462.8 109.3, 463.0 109.5 Q 463.3 109.7, 463.3 110.1 Q 463.3 110.4, 463.2 110.6 Q 463.1 110.7, 462.8 110.9 M 462.3 109.6 Q 462.0 109.6, 461.8 109.8 Q 461.7 109.9, 461.7 110.1 Q 461.7 110.3, 461.8 110.4 Q 461.9 110.5, 462.1 110.6 Q 462.2 110.7, 462.5 110.8 Q 462.7 110.6, 462.8 110.5 Q 462.9 110.3, 462.9 110.1 Q 462.9 109.9, 462.7 109.8 Q 462.6 109.6, 462.3 109.6 M 462.3 112.3 Q 462.6 112.3, 462.8 112.2 Q 463.0 112.0, 463.0 111.7 Q 463.0 111.5, 462.9 111.4 Q 462.8 111.3, 462.6 111.3 Q 462.5 111.2, 462.2 111.1 L 462.0 111.0 Q 461.8 111.2, 461.7 111.3 Q 461.6 111.5, 461.6 111.7 Q 461.6 112.0, 461.8 112.2 Q 462.0 112.3, 462.3 112.3 " fill="#000000"/>
<path class="note" d="M 262.5 90.8 Q 263.1 90.8, 263.4 91.2 Q 263.7 91.6, 263.7 92.4 Q 263.7 93.3, 263.3 93.7 Q 262.9 94.2, 262.2 94.2 Q 262.0 94.2, 261.8 94.1 Q 261.7 94.1, 261.5 94.0 L 261.7 93.7 Q 261.9 93.8, 262.2 93.8 Q 262.7 93.8, 262.9 93.5 Q 263.2 93.2, 263.2 92.6 Q 263.0 92.7, 262.8 92.8 Q 262.6 92.9, 262.4 92.9 Q 262.1 92.9, 261.8 92.8 Q 261.6 92.7, 261.5 92.4 Q 261.4 92.2, 261.4 91.9 Q 261.4 91.6, 261.5 91.3 Q 261.7 91.1, 261.9 90.9 Q 262.2 90.8, 262.5 90.8 M 261.8 91.9 Q 261.8 92.2, 262.0 92.4 Q 262.2 92.5, 262.5 92.5 Q 262.7 92.5, 262.9 92.4 Q 263.1 92.4, 263.2 92.2 Q 263.2 91.7, 263.0 91.4 Q 262.8 91.2, 262.5 91.2 Q 262.3 91.2, 262.1 91.3 Q 262.0 91.4, 261.9 91.5 Q 261.8 91.7, 261.8 91.9 " fill="#000000"/>
<path class="note" d="M 282.7 132.1 L 283.4 132.1 L 283.4 129.6 L 282.6 129.8 L 282.5 129.6 L 283.5 129.1 L 283.8 129.2 L 283.8 132.1 L 284.5 132.1 L 284.5 132.5 L 282.7 132.5 L 282.7 132.1 " fill="#000000"/>
<path class="note" d="M 285.9 132.5 Q 285.3 132.5, 285.0 132.0 Q 284.7 131.6, 284.7 130.8 Q 284.7 130.0, 285.0 129.5 Q 285.3 129.1, 285.9 129.1 Q 286.5 129.1, 286.8 129.5 Q 287.1 130.0, 287.1 130.8 Q 287.1 131.6, 286.8 132.0 Q 286.5 132.5, 285.9 132.5 M 285.9 132.1 Q 286.3 132.1, 286.5 131.8 Q 286.7 131.4, 286.7 130.8 Q 286.7 130.1, 286.5 129.8 Q 286.3 129.5, 285.9 129.5 Q 285.6 129.5, 285.4 129.8 Q 285.2 130.1, 285.2 130.8 Q 285.2 131.4, 285.4 131.8 Q 285.6 132.1, 285.9 132.1 " fill="#000000"/>
<path class="note" d="M 298.9 71.5 L 299.6 71.5 L 299.6 69.0 L 298.8 69.2 L 298.7 69.0 L 299.7 68.5 L 300.1 68.6 L 300.1 71.5 L 300.7 71.5 L 300.7 71.9 L 298.9 71.9 L 298.9 71.5 " fill="#000000"/>
<path class="note" d="M 301.1 71.5 L 301.8 71.5 L 301.8 69.0 L 301.0 69.2 L 300.9 69.0 L 301.9 68.5 L 302.3 68.6 L 302.3 71.5 L 302.9 71.5 L 302.9 71.9 L 301.1 71.9 L 301.1 71.5 " fill="#000000"/>
<path class="note" d="M 305.5 138.1 L 306.2 138.1 L 306.2 135.6 L 305.4 135.8 L 305.3 135.6 L 306.3 135.1 L 306.7 135.2 L 306.7 138.1 L 307.3 138.1 L 307.3 138.5 L 305.5 138.5 L 305.5 138.1 " fill="#000000"/>
<path class="note" d="M 307.5 135.8 Q 307.6 135.4, 307.9 135.3 Q 308.2 135.1, 308.6 135.1 Q 309.1 135.1, 309.4 135.4 Q 309.7 135.6, 309.7 136.1 Q 309.7 136.6, 309.3 137.1 Q 309.0 137.5, 308.2 138.1 L 309.8 138.1 L 309.8 138.5 L 307.5 138.5 L 307.5 138.1 Q 308.1 137.7, 308.5 137.4 Q 308.9 137.0, 309.0 136.7 Q 309.2 136.4, 309.2 136.1 Q 309.2 135.8, 309.1 135.6 Q 308.9 135.5, 308.6 135.5 Q 308.4 135.5, 308.2 135.6 Q 308.0 135.7, 307.9 135.9 L 307.5 135.8 " fill="#000000"/>
<path class="note" d="M 321.5 77.5 L 322.2 77.5 L 322.2 75.0 L 321.4 75.2 L 321.3 75.0 L 322.3 74.5 L 322.7 74.6 L 322.7 77.5 L 323.3 77.5 L 323.3 77.9 L 321.5 77.9 L 321.5 77.5 " fill="#000000"/>
<path class="note" d="M 325.1 76.1 Q 325.4 76.2, 325.6 76.4 Q 325.8 76.6, 325.8 77.0 Q 325.8 77.2, 325.6 77.5 Q 325.5 77.7, 325.2 77.8 Q 325.0 77.9, 324.6 77.9 Q 324.3 77.9, 324.0 77.8 Q 323.7 77.7, 323.5 77.4 L 323.8 77.1 Q 324.0 77.4, 324.2 77.4 Q 324.3 77.5, 324.6 77.5 Q 324.9 77.5, 325.1 77.4 Q 325.3 77.2, 325.3 76.9 Q 325.3 76.6, 325.1 76.5 Q 324.9 76.3, 324.5 76.3 L 324.3 76.3 L 324.3 76.0 L 324.5 76.0 Q 324.8 76.0, 325.0 75.8 Q 325.2 75.6, 325.2 75.3 Q 325.2 75.1, 325.1 75.0 Q 324.9 74.9, 324.6 74.9 Q 324.3 74.9, 324.2 75.0 Q 324.0 75.1, 323.9 75.3 L 323.5 75.1 Q 323.7 74.9, 323.9 74.7 Q 324.2 74.5, 324.6 74.5 Q 325.1 74.5, 325.4 74.7 Q 325.7 75.0, 325.7 75.3 Q 325.7 75.6, 325.5 75.8 Q 325.4 76.0, 325.1 76.1 " fill="#000000"/>
<path class="note" d="M 344.1 83.5 L 344.8 83.5 L 344.8 81.0 L 344.0 81.2 L 343.9 81.0 L 344.9 80.5 L 345.2 80.6 L 345.2 83.5 L 345.9 83.5 L 345.9 83.9 L 344.1 83.9 L 344.1 83.5 " fill="#000000"/>
<path class="note" d="M 348.2 82.7 L 348.6 82.7 L 348.6 83.1 L 348.2 83.1 L 348.2 83.9 L 347.8 83.9 L 347.8 83.1 L 346.1 83.1 L 346.1 82.8 L 347.5 80.5 L 348.2 80.5 L 348.2 82.7 M 346.6 82.7 L 347.8 82.7 L 347.8 80.8 L 346.6 82.7 " fill="#000000"/>
<path class="note" d="M 328.2 144.1 L 328.9 144.1 L 328.9 141.6 L 328.1 141.8 L 328.0 141.6 L 329.0 141.1 L 329.4 141.2 L 329.4 144.1 L 330.0 144.1 L 330.0 144.4 L 328.2 144.4 L 328.2 144.1 " fill="#000000"/>
<path class="note" d="M 331.4 142.4 Q 331.7 142.4, 332.0 142.5 Q 332.2 142.6, 332.3 142.8 Q 332.5 143.1, 332.5 143.4 Q 332.5 143.7, 332.3 144.0 Q 332.1 144.2, 331.9 144.4 Q 331.6 144.5, 331.3 144.5 Q 331.0 144.5, 330.7 144.4 Q 330.4 144.3, 330.2 144.0 L 330.5 143.7 Q 330.7 143.9, 330.9 144.0 Q 331.1 144.1, 331.3 144.1 Q 331.6 144.1, 331.8 143.9 Q 332.0 143.7, 332.0 143.4 Q 332.0 143.0, 331.8 142.9 Q 331.6 142.7, 331.3 142.7 Q 331.0 142.7, 330.7 142.8 L 330.4 142.7 L 330.6 141.1 L 332.3 141.1 L 332.2 141.5 L 330.9 141.5 L 330.8 142.5 Q 331.1 142.4, 331.4 142.4 " fill="#000000"/>
<path class="note" d="M 350.9 150.1 L 351.6 150.1 L 351.6 147.6 L 350.8 147.8 L 350.7 147.6 L 351.7 147.1 L 352.1 147.2 L 352.1 150.1 L 352.7 150.1 L 352.7 150.5 L 350.9 150.5 L 350.9 150.1 " fill="#000000"/>
<path class="note" d="M 354.2 148.4 Q 354.5 148.4, 354.7 148.5 Q 355.0 148.6, 355.1 148.9 Q 355.2 149.1, 355.2 149.4 Q 355.2 149.7, 355.1 150.0 Q 354.9 150.2, 354.7 150.4 Q 354.4 150.5, 354.1 150.5 Q 353.5 150.5, 353.2 150.1 Q 352.9 149.7, 352.9 148.9 Q 352.9 148.0, 353.3 147.6 Q 353.7 147.1, 354.4 147.1 Q 354.6 147.1, 354.8 147.1 Q 354.9 147.2, 355.1 147.3 L 354.9 147.6 Q 354.7 147.5, 354.4 147.5 Q 353.9 147.5, 353.7 147.8 Q 353.4 148.1, 353.4 148.7 Q 353.6 148.5, 353.8 148.5 Q 354.0 148.4, 354.2 148.4 M 354.1 150.1 Q 354.3 150.1, 354.4 150.0 Q 354.6 149.9, 354.7 149.8 Q 354.8 149.6, 354.8 149.4 Q 354.8 149.1, 354.6 148.9 Q 354.4 148.8, 354.1 148.8 Q 353.9 148.8, 353.7 148.8 Q 353.5 148.9, 353.4 149.1 Q 353.4 149.6, 353.6 149.9 Q 353.8 150.1, 354.1 150.1 " fill="#000000"/>
<path class="note" d="M 367.0 89.5 L 367.7 89.5 L 367.7 87.0 L 366.9 87.2 L 366.8 87.0 L 367.8 86.5 L 368.1 86.6 L 368.1 89.5 L 368.8 89.5 L 368.8 89.9 L 367.0 89.9 L 367.0 89.5 " fill="#000000"/>
<path class="note" d="M 370.7 86.9 L 369.0 86.9 L 369.0 86.5 L 371.2 86.5 L 371.2 86.9 L 369.8 89.9 L 369.4 89.9 L 370.7 86.9 " fill="#000000"/>
<path class="note" d="M 389.6 95.5 L 390.3 95.5 L 390.3 93.0 L 389.5 93.3 L 389.4 93.0 L 390.4 92.5 L 390.8 92.6 L 390.8 95.5 L 391.4 95.5 L 391.4 95.9 L 389.6 95.9 L 389.6 95.5 " fill="#000000"/>
<path class="note" d="M 393.3 94.1 Q 393.6 94.2, 393.8 94.4 Q 394.0 94.6, 394.0 95.0 Q 394.0 95.2, 393.8 95.5 Q 393.7 95.7, 393.4 95.8 Q 393.2 95.9, 392.8 95.9 Q 392.3 95.9, 391.9 95.7 Q 391.6 95.4, 391.6 95.0 Q 391.6 94.7, 391.8 94.5 Q 391.9 94.3, 392.2 94.1 Q 392.0 94.0, 391.9 93.8 Q 391.7 93.6, 391.7 93.4 Q 391.7 93.0, 392.0 92.7 Q 392.3 92.5, 392.8 92.5 Q 393.3 92.5, 393.6 92.7 Q 393.9 93.0, 393.9 93.4 Q 393.9 93.6, 393.7 93.8 Q 393.6 94.0, 393.3 94.1 M 392.8 92.9 Q 392.5 92.9, 392.4 93.0 Q 392.2 93.1, 392.2 93.4 Q 392.2 93.5, 392.3 93.6 Q 392.4 93.8, 392.6 93.8 Q 392.7 93.9, 393.0 94.0 Q 393.2 93.8, 393.3 93.7 Q 393.4 93.5, 393.4 93.4 Q 393.4 93.1, 393.2 93.0 Q 393.1 92.9, 392.8 92.9 M 392.8 95.6 Q 393.1 95.6, 393.3 95.4 Q 393.5 95.2, 393.5 95.0 Q 393.5 94.8, 393.4 94.7 Q 393.3 94.5, 393.2 94.5 Q 393.0 94.4, 392.7 94.3 L 392.5 94.3 Q 392.3 94.4, 392.2 94.6 Q 392.1 94.7, 392.1 95.0 Q 392.1 95.2, 392.3 95.4 Q 392.5 95.6, 392.8 95.6 " fill="#000000"/>
<path class="note" d="M 373.6 156.1 L 374.4 156.1 L 374.4 153.6 L 373.5 153.8 L 373.4 153.6 L 374.5 153.1 L 374.8 153.2 L 374.8 156.1 L 375.4 156.1 L 375.4 156.5 L 373.6 156.5 L 373.6 156.1 " fill="#000000"/>
<path class="note" d="M 376.8 153.1 Q 377.4 153.1, 377.6 153.5 Q 378.0 153.9, 378.0 154.7 Q 378.0 155.6, 377.6 156.0 Q 377.2 156.5, 376.5 156.5 Q 376.3 156.5, 376.1 156.4 Q 375.9 156.4, 375.8 156.3 L 376.0 156.0 Q 376.2 156.1, 376.5 156.1 Q 377.0 156.1, 377.2 155.8 Q 377.4 155.5, 377.5 154.9 Q 377.3 155.0, 377.1 155.1 Q 376.9 155.2, 376.6 155.2 Q 376.4 155.2, 376.1 155.1 Q 375.9 155.0, 375.8 154.7 Q 375.6 154.5, 375.6 154.2 Q 375.6 153.9, 375.8 153.6 Q 375.9 153.4, 376.2 153.2 Q 376.4 153.1, 376.8 153.1 M 376.1 154.2 Q 376.1 154.5, 376.3 154.7 Q 376.4 154.8, 376.7 154.8 Q 376.9 154.8, 377.1 154.8 Q 377.3 154.7, 377.5 154.5 Q 377.5 154.0, 377.3 153.7 Q 377.1 153.5, 376.8 153.5 Q 376.6 153.5, 376.4 153.6 Q 376.3 153.7, 376.2 153.8 Q 376.1 154.0, 376.1 154.2 " fill="#000000"/>
<path class="note" d="M 412.3 82.6 Q 412.4 82.2, 412.7 82.1 Q 413.0 81.9, 413.4 81.9 Q 413.9 81.9, 414.2 82.2 Q 414.5 82.4, 414.5 82.9 Q 414.5 83.4, 414.1 83.9 Q 413.7 84.3, 413.0 84.9 L 414.5 84.9 L 414.5 85.2 L 412.3 85.2 L 412.3 84.9 Q 412.9 84.5, 413.3 84.2 Q 413.6 83.8, 413.8 83.5 Q 414.0 83.2, 414.0 82.9 Q 414.0 82.6, 413.8 82.4 Q 413.7 82.3, 413.4 82.3 Q 413.1 82.3, 413.0 82.4 Q 412.8 82.5, 412.6 82.7 L 412.3 82.6 " fill="#000000"/>
<path class="note" d="M 416.0 85.3 Q 415.4 85.3, 415.1 84.8 Q 414.8 84.4, 414.8 83.6 Q 414.8 82.8, 415.1 82.3 Q 415.4 81.9, 416.0 81.9 Q 416.6 81.9, 416.9 82.3 Q 417.2 82.8, 417.2 83.6 Q 417.2 84.4, 416.9 84.8 Q 416.6 85.3, 416.0 85.3 M 416.0 84.9 Q 416.4 84.9, 416.6 84.6 Q 416.8 84.2, 416.8 83.6 Q 416.8 82.9, 416.6 82.6 Q 416.4 82.3, 416.0 82.3 Q 415.7 82.3, 415.5 82.6 Q 415.3 82.9, 415.3 83.6 Q 415.3 84.2, 415.5 84.6 Q 415.7 84.9, 416.0 84.9 " fill="#000000"/>
<path class="note" d="M 484.1 83.4 Q 484.2 83.1, 484.5 82.9 Q 484.8 82.7, 485.2 82.7 Q 485.7 82.7, 486.0 83.0 Q 486.3 83.3, 486.3 83.7 Q 486.3 84.2, 485.9 84.7 Q 485.6 85.2, 484.8 85.7 L 486.3 85.7 L 486.3 86.1 L 484.1 86.1 L 484.1 85.8 Q 484.7 85.3, 485.1 85.0 Q 485.5 84.7, 485.6 84.4 Q 485.8 84.1, 485.8 83.8 Q 485.8 83.4, 485.7 83.3 Q 485.5 83.1, 485.2 83.1 Q 485.0 83.1, 484.8 83.2 Q 484.6 83.3, 484.5 83.5 L 484.1 83.4 " fill="#000000"/>
<path class="note" d="M 486.8 85.7 L 487.5 85.7 L 487.5 83.2 L 486.7 83.5 L 486.6 83.2 L 487.6 82.7 L 488.0 82.8 L 488.0 85.7 L 488.6 85.7 L 488.6 86.1 L 486.8 86.1 L 486.8 85.7 " fill="#000000"/>
<path class="note" d="M 478.6 126.2 Q 478.7 125.9, 479.0 125.7 Q 479.3 125.6, 479.7 125.6 Q 480.2 125.6, 480.5 125.8 Q 480.8 126.1, 480.8 126.6 Q 480.8 127.1, 480.4 127.5 Q 480.1 128.0, 479.3 128.6 L 480.8 128.6 L 480.8 128.9 L 478.6 128.9 L 478.6 128.6 Q 479.2 128.2, 479.6 127.8 Q 480.0 127.5, 480.1 127.2 Q 480.3 126.9, 480.3 126.6 Q 480.3 126.3, 480.2 126.1 Q 480.0 125.9, 479.7 125.9 Q 479.5 125.9, 479.3 126.0 Q 479.1 126.2, 479.0 126.4 L 478.6 126.2 " fill="#000000"/>
<path class="note" d="M 481.1 126.2 Q 481.3 125.9, 481.5 125.7 Q 481.8 125.6, 482.2 125.6 Q 482.7 125.6, 483.0 125.8 Q 483.3 126.1, 483.3 126.6 Q 483.3 127.1, 482.9 127.5 Q 482.6 128.0, 481.8 128.6 L 483.4 128.6 L 483.4 128.9 L 481.1 128.9 L 481.1 128.6 Q 481.7 128.2, 482.1 127.8 Q 482.5 127.5, 482.7 127.2 Q 482.8 126.9, 482.8 126.6 Q 482.8 126.3, 482.7 126.1 Q 482.5 125.9, 482.2 125.9 Q 482.0 125.9, 481.8 126.0 Q 481.6 126.2, 481.5 126.4 L 481.1 126.2 " fill="#000000"/>
<path class="note" d="M 441.2 78.0 Q 441.3 77.7, 441.6 77.5 Q 441.9 77.3, 442.3 77.3 Q 442.8 77.3, 443.0 77.6 Q 443.3 77.9, 443.3 78.4 Q 443.3 78.9, 443.0 79.3 Q 442.6 79.8, 441.8 80.3 L 443.4 80.3 L 443.4 80.7 L 441.1 80.7 L 441.1 80.4 Q 441.8 79.9, 442.1 79.6 Q 442.5 79.3, 442.7 79.0 Q 442.9 78.7, 442.9 78.4 Q 442.9 78.1, 442.7 77.9 Q 442.5 77.7, 442.3 77.7 Q 442.0 77.7, 441.8 77.8 Q 441.6 77.9, 441.5 78.2 L 441.2 78.0 " fill="#000000"/>
<path class="note" d="M 445.3 78.9 Q 445.6 79.0, 445.7 79.2 Q 445.9 79.5, 445.9 79.8 Q 445.9 80.1, 445.8 80.3 Q 445.6 80.5, 445.4 80.6 Q 445.1 80.7, 444.8 80.7 Q 444.4 80.7, 444.1 80.6 Q 443.9 80.5, 443.7 80.2 L 443.9 80.0 Q 444.1 80.2, 444.3 80.3 Q 444.5 80.4, 444.8 80.4 Q 445.1 80.4, 445.3 80.2 Q 445.4 80.0, 445.4 79.8 Q 445.4 79.4, 445.2 79.3 Q 445.1 79.1, 444.6 79.1 L 444.4 79.1 L 444.4 78.8 L 444.6 78.8 Q 445.0 78.8, 445.2 78.6 Q 445.4 78.5, 445.4 78.2 Q 445.4 78.0, 445.2 77.8 Q 445.0 77.7, 444.8 77.7 Q 444.5 77.7, 444.3 77.8 Q 444.2 77.9, 444.0 78.2 L 443.7 78.0 Q 443.8 77.7, 444.1 77.5 Q 444.4 77.3, 444.8 77.3 Q 445.3 77.3, 445.5 77.6 Q 445.8 77.8, 445.8 78.2 Q 445.8 78.4, 445.7 78.6 Q 445.5 78.8, 445.3 78.9 " fill="#000000"/>
<path class="legend" d="M 315.5 238.9 L 318.0 238.9 L 318.0 230.5 L 315.3 231.3 L 314.9 230.4 L 318.4 228.8 L 319.5 229.0 L 319.5 238.9 L 321.7 238.9 L 321.7 240.2 L 315.5 240.2 L 315.5 238.9 " fill="#000000"/>
<path class="legend" d="M 322.4 231.0 Q 322.8 229.9, 323.8 229.4 Q 324.8 228.7, 326.2 228.7 Q 327.9 228.7, 328.9 229.7 Q 329.8 230.6, 329.8 232.2 Q 329.8 233.9, 328.6 235.5 Q 327.4 237.1, 324.8 238.9 L 330.0 238.9 L 330.0 240.2 L 322.4 240.2 L 322.4 239.1 Q 324.5 237.6, 325.8 236.5 Q 327.0 235.4, 327.6 234.4 Q 328.2 233.4, 328.2 232.3 Q 328.2 231.2, 327.7 230.6 Q 327.1 230.0, 326.2 230.0 Q 325.3 230.0, 324.7 230.4 Q 324.1 230.8, 323.6 231.6 L 322.4 231.0 " fill="#000000"/>
<path class="legend" d="M 336.4 234.2 Q 337.5 234.6, 338.1 235.3 Q 338.6 236.0, 338.6 237.1 Q 338.6 238.1, 338.1 238.8 Q 337.6 239.5, 336.8 240.0 Q 335.9 240.4, 334.7 240.4 Q 333.5 240.4, 332.6 239.9 Q 331.7 239.5, 331.0 238.6 L 331.9 237.7 Q 332.6 238.5, 333.2 238.8 Q 333.8 239.1, 334.7 239.1 Q 335.8 239.1, 336.4 238.5 Q 337.0 238.0, 337.0 237.1 Q 337.0 235.9, 336.3 235.4 Q 335.7 234.9, 334.3 234.9 L 333.5 234.9 L 333.5 233.7 L 334.2 233.7 Q 335.5 233.7, 336.1 233.2 Q 336.8 232.6, 336.8 231.6 Q 336.8 230.9, 336.2 230.5 Q 335.7 230.0, 334.7 230.0 Q 333.8 230.0, 333.2 230.4 Q 332.6 230.7, 332.2 231.5 L 331.1 231.0 Q 331.5 230.0, 332.4 229.4 Q 333.4 228.7, 334.7 228.7 Q 336.4 228.7, 337.4 229.5 Q 338.4 230.3, 338.4 231.6 Q 338.4 232.6, 337.9 233.2 Q 337.4 233.9, 336.4 234.2 " fill="#000000"/>
<path class="legend" d="M 343.7 240.3 Q 341.6 240.3, 340.6 238.8 Q 339.5 237.3, 339.5 234.5 Q 339.5 231.8, 340.6 230.3 Q 341.6 228.7, 343.7 228.7 Q 345.8 228.7, 346.8 230.3 Q 347.8 231.8, 347.8 234.5 Q 347.8 237.3, 346.8 238.8 Q 345.8 240.3, 343.7 240.3 M 343.7 239.0 Q 344.9 239.0, 345.6 237.9 Q 346.2 236.8, 346.2 234.5 Q 346.2 232.3, 345.6 231.2 Q 344.9 230.0, 343.7 230.0 Q 342.5 230.0, 341.8 231.2 Q 341.1 232.3, 341.1 234.5 Q 341.1 236.8, 341.8 237.9 Q 342.5 239.0, 343.7 239.0 " fill="#000000"/>
<path class="legend" d="M 353.3 233.1 Q 354.3 233.1, 355.1 233.6 Q 355.9 234.0, 356.3 234.8 Q 356.7 235.6, 356.7 236.6 Q 356.7 237.7, 356.2 238.5 Q 355.8 239.4, 354.9 239.8 Q 354.0 240.3, 352.9 240.3 Q 350.9 240.3, 349.9 239.0 Q 348.9 237.6, 348.9 234.9 Q 348.9 231.9, 350.1 230.3 Q 351.4 228.7, 353.8 228.7 Q 354.5 228.7, 355.1 228.9 Q 355.7 229.1, 356.3 229.4 L 355.7 230.5 Q 354.8 230.0, 353.8 230.0 Q 352.2 230.0, 351.4 231.1 Q 350.6 232.1, 350.5 234.2 Q 351.1 233.7, 351.8 233.4 Q 352.5 233.1, 353.3 233.1 M 352.9 239.0 Q 353.5 239.0, 354.0 238.7 Q 354.6 238.4, 354.8 237.8 Q 355.1 237.3, 355.1 236.6 Q 355.1 235.6, 354.6 235.0 Q 354.0 234.4, 353.0 234.4 Q 352.3 234.4, 351.6 234.7 Q 351.0 235.0, 350.5 235.4 Q 350.6 237.3, 351.1 238.2 Q 351.7 239.0, 352.9 239.0 " fill="#000000"/>
<path class="legend" d="M 362.0 233.1 Q 363.0 233.1, 363.8 233.6 Q 364.6 234.0, 365.0 234.8 Q 365.5 235.6, 365.5 236.6 Q 365.5 237.7, 365.0 238.5 Q 364.5 239.4, 363.6 239.8 Q 362.8 240.3, 361.7 240.3 Q 359.6 240.3, 358.6 239.0 Q 357.6 237.6, 357.6 234.9 Q 357.6 231.9, 358.9 230.3 Q 360.1 228.7, 362.5 228.7 Q 363.2 228.7, 363.8 228.9 Q 364.4 229.1, 365.0 229.4 L 364.4 230.5 Q 363.6 230.0, 362.6 230.0 Q 361.0 230.0, 360.1 231.1 Q 359.3 232.1, 359.2 234.2 Q 359.8 233.7, 360.5 233.4 Q 361.3 233.1, 362.0 233.1 M 361.7 239.0 Q 362.3 239.0, 362.8 238.7 Q 363.3 238.4, 363.6 237.8 Q 363.9 237.3, 363.9 236.6 Q 363.9 235.6, 363.3 235.0 Q 362.7 234.4, 361.8 234.4 Q 361.1 234.4, 360.4 234.7 Q 359.7 235.0, 359.2 235.4 Q 359.3 237.3, 359.9 238.2 Q 360.5 239.0, 361.7 239.0 " fill="#000000"/>
<path class="legend" d="M 374.5 241.0 L 374.5 242.3 L 366.3 242.3 L 366.3 241.0 L 374.5 241.0 " fill="#000000"/>
<path class="legend" d="M 379.9 234.2 Q 381.1 234.6, 381.6 235.3 Q 382.1 236.0, 382.1 237.1 Q 382.1 238.1, 381.6 238.8 Q 381.2 239.5, 380.3 240.0 Q 379.4 240.4, 378.3 240.4 Q 377.0 240.4, 376.1 239.9 Q 375.2 239.5, 374.5 238.6 L 375.4 237.7 Q 376.1 238.5, 376.7 238.8 Q 377.3 239.1, 378.3 239.1 Q 379.3 239.1, 379.9 238.5 Q 380.5 238.0, 380.5 237.1 Q 380.5 235.9, 379.9 235.4 Q 379.2 234.9, 377.8 234.9 L 377.0 234.9 L 377.0 233.7 L 377.7 233.7 Q 379.0 233.7, 379.6 233.2 Q 380.3 232.6, 380.3 231.6 Q 380.3 230.9, 379.7 230.5 Q 379.2 230.0, 378.3 230.0 Q 377.3 230.0, 376.7 230.4 Q 376.2 230.7, 375.7 231.5 L 374.6 231.0 Q 375.0 230.0, 376.0 229.4 Q 376.9 228.7, 378.3 228.7 Q 379.9 228.7, 380.9 229.5 Q 381.9 230.3, 381.9 231.6 Q 381.9 232.6, 381.4 233.2 Q 380.9 233.9, 379.9 234.2 " fill="#000000"/>
<path class="legend" d="" fill="#000000"/>
<path class="legend" d="M 388.4 235.6 Q 388.4 233.3, 389.1 231.5 Q 389.7 229.6, 391.0 227.5 L 391.9 228.1 Q 390.9 230.0, 390.4 231.7 Q 389.8 233.4, 389.8 235.6 Q 389.8 237.8, 390.4 239.5 Q 390.9 241.2, 391.9 243.2 L 391.0 243.8 Q 389.7 241.7, 389.1 239.8 Q 388.4 238.0, 388.4 235.6 " fill="#000000"/>
<path class="legend" d="M 401.4 234.6 L 401.4 239.4 Q 399.8 240.3, 397.4 240.3 Q 395.0 240.3, 393.6 238.8 Q 392.3 237.3, 392.3 234.5 Q 392.3 231.7, 393.6 230.2 Q 395.0 228.7, 397.5 228.7 Q 398.8 228.7, 399.7 229.2 Q 400.7 229.6, 401.4 230.4 L 400.3 231.3 Q 399.3 230.0, 397.5 230.0 Q 395.8 230.0, 394.9 231.2 Q 394.0 232.3, 394.0 234.5 Q 394.0 236.8, 394.9 237.9 Q 395.8 239.1, 397.7 239.1 Q 398.8 239.1, 399.9 238.7 L 399.9 234.6 L 401.4 234.6 " fill="#000000"/>
<path class="legend" d="M 403.8 232.0 L 404.0 233.1 Q 404.9 231.8, 406.3 231.8 Q 406.7 231.8, 407.3 232.0 L 407.1 233.3 Q 406.4 233.2, 406.0 233.2 Q 405.4 233.2, 404.9 233.4 Q 404.5 233.7, 404.1 234.3 L 404.1 240.2 L 402.6 240.2 L 402.6 232.0 L 403.8 232.0 " fill="#000000"/>
<path class="legend" d="M 407.6 236.1 Q 407.6 234.1, 408.6 233.0 Q 409.6 231.8, 411.4 231.8 Q 413.3 231.8, 414.1 232.9 Q 414.9 234.0, 414.9 236.0 L 414.9 236.3 L 409.1 236.3 Q 409.2 237.7, 409.8 238.4 Q 410.4 239.1, 411.6 239.1 Q 412.2 239.1, 412.8 239.0 Q 413.4 238.8, 414.1 238.5 L 414.5 239.5 Q 413.7 240.0, 413.0 240.2 Q 412.3 240.3, 411.5 240.3 Q 409.6 240.3, 408.6 239.2 Q 407.6 238.1, 407.6 236.1 M 411.4 233.0 Q 410.5 233.0, 409.9 233.6 Q 409.4 234.1, 409.2 235.2 L 413.3 235.2 Q 413.2 234.1, 412.7 233.5 Q 412.3 233.0, 411.4 233.0 " fill="#000000"/>
<path class="legend" d="M 415.5 236.1 Q 415.5 234.1, 416.5 233.0 Q 417.5 231.8, 419.3 231.8 Q 421.1 231.8, 421.9 232.9 Q 422.8 234.0, 422.8 236.0 L 422.8 236.3 L 417.0 236.3 Q 417.0 237.7, 417.7 238.4 Q 418.3 239.1, 419.5 239.1 Q 420.1 239.1, 420.7 239.0 Q 421.3 238.8, 422.0 238.5 L 422.4 239.5 Q 421.6 240.0, 420.9 240.2 Q 420.1 240.3, 419.4 240.3 Q 417.5 240.3, 416.5 239.2 Q 415.5 238.1, 415.5 236.1 M 419.3 233.0 Q 418.4 233.0, 417.8 233.6 Q 417.3 234.1, 417.1 235.2 L 421.2 235.2 Q 421.1 234.1, 420.6 233.5 Q 420.2 233.0, 419.3 233.0 " fill="#000000"/>
<path class="legend" d="M 427.7 231.8 Q 429.0 231.8, 429.7 232.6 Q 430.4 233.3, 430.4 234.8 L 430.4 240.2 L 428.9 240.2 L 428.9 234.9 Q 428.9 233.9, 428.5 233.5 Q 428.1 233.0, 427.3 233.0 Q 426.5 233.0, 425.9 233.4 Q 425.3 233.7, 424.9 234.3 L 424.9 240.2 L 423.4 240.2 L 423.4 232.0 L 424.6 232.0 L 424.8 233.1 Q 425.9 231.8, 427.7 231.8 " fill="#000000"/>
<path class="legend" d="M 435.1 235.6 Q 435.1 238.0, 434.4 239.8 Q 433.8 241.7, 432.5 243.8 L 431.6 243.2 Q 432.6 241.2, 433.1 239.5 Q 433.7 237.8, 433.7 235.6 Q 433.7 233.4, 433.1 231.7 Q 432.6 230.0, 431.6 228.1 L 432.5 227.5 Q 433.8 229.6, 434.4 231.5 Q 435.1 233.3, 435.1 235.6 " fill="#000000"/>
<path class="bond-0 atom-0 atom-1" d="M 659.2,111.8 L 635.8,114.6" style="fill:none;fill-rule:evenodd;stroke:#FF7F7F;stroke-width:5.0px;stroke-linecap:butt;stroke-linejoin:miter;stroke-opacity:1"/>
<path class="bond-9 atom-0 atom-9" d="M 659.2,111.8 L 682.5,109.0" style="fill:none;fill-rule:evenodd;stroke:#FF7F7F;stroke-width:5.0px;stroke-linecap:butt;stroke-linejoin:miter;stroke-opacity:1"/>
<path class="bond-10 atom-0 atom-10" d="M 659.2,111.8 L 659.2,99.3" style="fill:none;fill-rule:evenodd;stroke:#FF7F7F;stroke-width:5.0px;stroke-linecap:butt;stroke-linejoin:miter;stroke-opacity:1"/>
<path class="bond-11 atom-0 atom-11" d="M 659.2,111.8 L 662.0,135.1" style="fill:none;fill-rule:evenodd;stroke:#FF7F7F;stroke-width:5.0px;stroke-linecap:butt;stroke-linejoin:miter;stroke-opacity:1"/>
<ellipse cx="659.2" cy="111.8" rx="4.7" ry="4.7" class="atom-0" style="fill:#FF7F7F;fill-rule:evenodd;stroke:#FF7F7F;stroke-width:1.0px;stroke-linecap:butt;stroke-linejoin:miter;stroke-opacity:1"/>
<ellipse cx="635.8" cy="114.6" rx="4.7" ry="4.7" class="atom-1" style="fill:#FF7F7F;fill-rule:evenodd;stroke:#FF7F7F;stroke-width:1.0px;stroke-linecap:butt;stroke-linejoin:miter;stroke-opacity:1"/>
<ellipse cx="682.5" cy="109.0" rx="4.7" ry="4.7" class="atom-9" style="fill:#FF7F7F;fill-rule:evenodd;stroke:#FF7F7F;stroke-width:1.0px;stroke-linecap:butt;stroke-linejoin:miter;stroke-opacity:1"/>
<ellipse cx="659.2" cy="99.3" rx="4.7" ry="4.7" class="atom-10" style="fill:#FF7F7F;fill-rule:evenodd;stroke:#FF7F7F;stroke-width:1.0px;stroke-linecap:butt;stroke-linejoin:miter;stroke-opacity:1"/>
<ellipse cx="662.0" cy="135.1" rx="4.7" ry="4.7" class="atom-11" style="fill:#FF7F7F;fill-rule:evenodd;stroke:#FF7F7F;stroke-width:1.0px;stroke-linecap:butt;stroke-linejoin:miter;stroke-opacity:1"/>
<path class="bond-0 atom-0 atom-1" d="M 659.2,111.8 L 635.8,114.6" style="fill:none;fill-rule:evenodd;stroke:#000000;stroke-width:2.0px;stroke-linecap:butt;stroke-linejoin:miter;stroke-opacity:1"/>
<path class="bond-1 atom-1 atom-2" d="M 635.8,114.6 L 635.5,91.1" style="fill:none;fill-rule:evenodd;stroke:#000000;stroke-width:2.0px;stroke-linecap:butt;stroke-linejoin:miter;stroke-opacity:1"/>
<path class="bond-2 atom-2 atom-3" d="M 635.5,91.1 L 613.0,84.2" style="fill:none;fill-rule:evenodd;stroke:#000000;stroke-width:2.0px;stroke-linecap:butt;stroke-linejoin:miter;stroke-opacity:1"/>
<path class="bond-3 atom-3 atom-4" d="M 613.0,84.2 L 599.5,103.4" style="fill:none;fill-rule:evenodd;stroke:#000000;stroke-width:2.0px;stroke-linecap:butt;stroke-linejoin:miter;stroke-opacity:1"/>
<path class="bond-4 atom-4 atom-5" d="M 599.5,103.4 L 576.0,103.8" style="fill:none;fill-rule:evenodd;stroke:#000000;stroke-width:2.0px;stroke-linecap:butt;stroke-linejoin:miter;stroke-opacity:1"/>
<path class="bond-5 atom-5 atom-6" d="M 574.0,105.0 L 569.2,97.0" style="fill:none;fill-rule:evenodd;stroke:#000000;stroke-width:2.0px;stroke-linecap:butt;stroke-linejoin:miter;stroke-opacity:1"/>
<path class="bond-5 atom-5 atom-6" d="M 569.2,97.0 L 564.4,89.1" style="fill:none;fill-rule:evenodd;stroke:#FF0000;stroke-width:2.0px;stroke-linecap:butt;stroke-linejoin:miter;stroke-opacity:1"/>
<path class="bond-5 atom-5 atom-6" d="M 578.0,102.6 L 573.2,94.6" style="fill:none;fill-rule:evenodd;stroke:#000000;stroke-width:2.0px;stroke-linecap:butt;stroke-linejoin:miter;stroke-opacity:1"/>
<path class="bond-5 atom-5 atom-6" d="M 573.2,94.6 L 568.5,86.7" style="fill:none;fill-rule:evenodd;stroke:#FF0000;stroke-width:2.0px;stroke-linecap:butt;stroke-linejoin:miter;stroke-opacity:1"/>
<path class="bond-6 atom-4 atom-7" d="M 599.5,103.4 L 613.6,122.2" style="fill:none;fill-rule:evenodd;stroke:#000000;stroke-width:2.0px;stroke-linecap:butt;stroke-linejoin:miter;stroke-opacity:1"/>
<path class="bond-6 atom-4 atom-7" d="M 605.4,103.4 L 615.3,116.6" style="fill:none;fill-rule:evenodd;stroke:#000000;stroke-width:2.0px;stroke-linecap:butt;stroke-linejoin:miter;stroke-opacity:1"/>
<path class="bond-7 atom-7 atom-8" d="M 613.6,122.2 L 610.8,131.4" style="fill:none;fill-rule:evenodd;stroke:#000000;stroke-width:2.0px;stroke-linecap:butt;stroke-linejoin:miter;stroke-opacity:1"/>
<path class="bond-7 atom-7 atom-8" d="M 610.8,131.4 L 608.0,140.6" style="fill:none;fill-rule:evenodd;stroke:#0000FF;stroke-width:2.0px;stroke-linecap:butt;stroke-linejoin:miter;stroke-opacity:1"/>
<path class="bond-8 atom-7 atom-1" d="M 613.6,122.2 L 635.8,114.6" style="fill:none;fill-rule:evenodd;stroke:#000000;stroke-width:2.0px;stroke-linecap:butt;stroke-linejoin:miter;stroke-opacity:1"/>
<path class="bond-9 atom-0 atom-9" d="M 659.2,111.8 L 679.2,109.4" style="fill:none;fill-rule:evenodd;stroke:#000000;stroke-width:2.0px;stroke-linecap:butt;stroke-linejoin:miter;stroke-opacity:1"/>
<path class="bond-10 atom-0 atom-10" d="M 659.2,111.8 L 659.2,103.4" style="fill:none;fill-rule:evenodd;stroke:#000000;stroke-width:2.0px;stroke-linecap:butt;stroke-linejoin:miter;stroke-opacity:1"/>
<path class="bond-11 atom-0 atom-11" d="M 659.2,111.8 L 661.5,131.1" style="fill:none;fill-rule:evenodd;stroke:#000000;stroke-width:2.0px;stroke-linecap:butt;stroke-linejoin:miter;stroke-opacity:1"/>
<path class="bond-12 atom-1 atom-12" d="M 635.8,114.6 L 640.2,133.5" style="fill:none;fill-rule:evenodd;stroke:#000000;stroke-width:2.0px;stroke-linecap:butt;stroke-linejoin:miter;stroke-opacity:1"/>
<path class="bond-13 atom-2 atom-13" d="M 635.5,91.1 L 639.2,72.1" style="fill:none;fill-rule:evenodd;stroke:#000000;stroke-width:2.0px;stroke-linecap:butt;stroke-linejoin:miter;stroke-opacity:1"/>
<path class="bond-14 atom-2 atom-14" d="M 635.5,91.1 L 644.6,90.8" style="fill:none;fill-rule:evenodd;stroke:#000000;stroke-width:2.0px;stroke-linecap:butt;stroke-linejoin:miter;stroke-opacity:1"/>
<path class="bond-15 atom-3 atom-15" d="M 613.0,84.2 L 595.8,74.7" style="fill:none;fill-rule:evenodd;stroke:#000000;stroke-width:2.0px;stroke-linecap:butt;stroke-linejoin:miter;stroke-opacity:1"/>
<path class="bond-16 atom-3 atom-16" d="M 613.0,84.2 L 620.5,66.7" style="fill:none;fill-rule:evenodd;stroke:#000000;stroke-width:2.0px;stroke-linecap:butt;stroke-linejoin:miter;stroke-opacity:1"/>
<path class="bond-17 atom-5 atom-17" d="M 576.0,103.8 L 566.8,120.3" style="fill:none;fill-rule:evenodd;stroke:#000000;stroke-width:2.0px;stroke-linecap:butt;stroke-linejoin:miter;stroke-opacity:1"/>
<path class="bond-18 atom-8 atom-18" d="M 610.0,148.2 L 614.7,153.3" style="fill:none;fill-rule:evenodd;stroke:#0000FF;stroke-width:2.0px;stroke-linecap:butt;stroke-linejoin:miter;stroke-opacity:1"/>
<path class="bond-18 atom-8 atom-18" d="M 614.7,153.3 L 619.4,158.3" style="fill:none;fill-rule:evenodd;stroke:#000000;stroke-width:2.0px;stroke-linecap:butt;stroke-linejoin:miter;stroke-opacity:1"/>
<path class="bond-19 atom-8 atom-19" d="M 603.4,145.5 L 595.3,147.3" style="fill:none;fill-rule:evenodd;stroke:#0000FF;stroke-width:2.0px;stroke-linecap:butt;stroke-linejoin:miter;stroke-opacity:1"/>
<path class="bond-19 atom-8 atom-19" d="M 595.3,147.3 L 587.1,149.2" style="fill:none;fill-rule:evenodd;stroke:#000000;stroke-width:2.0px;stroke-linecap:butt;stroke-linejoin:miter;stroke-opacity:1"/>
<path class="atom-6" d="M 560.9 83.7 Q 560.9 82.1, 561.7 81.2 Q 562.5 80.3, 563.9 80.3 Q 565.4 80.3, 566.2 81.2 Q 567.0 82.1, 567.0 83.7 Q 567.0 85.3, 566.2 86.2 Q 565.4 87.1, 563.9 87.1 Q 562.5 87.1, 561.7 86.2 Q 560.9 85.3, 560.9 83.7 M 563.9 86.4 Q 565.0 86.4, 565.5 85.7 Q 566.1 85.0, 566.1 83.7 Q 566.1 82.4, 565.5 81.7 Q 565.0 81.0, 563.9 81.0 Q 562.9 81.0, 562.4 81.7 Q 561.8 82.4, 561.8 83.7 Q 561.8 85.0, 562.4 85.7 Q 562.9 86.4, 563.9 86.4 " fill="#FF0000"/>
<path class="atom-8" d="M 605.2 141.4 L 607.4 144.9 Q 607.6 145.2, 608.0 145.9 Q 608.3 146.5, 608.3 146.5 L 608.3 141.4 L 609.2 141.4 L 609.2 148.0 L 608.3 148.0 L 606.0 144.2 Q 605.7 143.7, 605.4 143.2 Q 605.1 142.7, 605.0 142.5 L 605.0 148.0 L 604.2 148.0 L 604.2 141.4 L 605.2 141.4 " fill="#0000FF"/>
<path class="atom-9" d="M 679.9 105.7 L 680.8 105.7 L 680.8 108.5 L 684.2 108.5 L 684.2 105.7 L 685.1 105.7 L 685.1 112.3 L 684.2 112.3 L 684.2 109.2 L 680.8 109.2 L 680.8 112.3 L 679.9 112.3 L 679.9 105.7 " fill="#000000"/>
<path class="atom-10" d="M 656.6 96.0 L 657.5 96.0 L 657.5 98.8 L 660.9 98.8 L 660.9 96.0 L 661.8 96.0 L 661.8 102.6 L 660.9 102.6 L 660.9 99.6 L 657.5 99.6 L 657.5 102.6 L 656.6 102.6 L 656.6 96.0 " fill="#000000"/>
<path class="atom-11" d="M 659.4 131.8 L 660.3 131.8 L 660.3 134.6 L 663.7 134.6 L 663.7 131.8 L 664.6 131.8 L 664.6 138.5 L 663.7 138.5 L 663.7 135.4 L 660.3 135.4 L 660.3 138.5 L 659.4 138.5 L 659.4 131.8 " fill="#000000"/>
<path class="atom-12" d="M 638.5 134.2 L 639.4 134.2 L 639.4 137.0 L 642.8 137.0 L 642.8 134.2 L 643.7 134.2 L 643.7 140.9 L 642.8 140.9 L 642.8 137.8 L 639.4 137.8 L 639.4 140.9 L 638.5 140.9 L 638.5 134.2 " fill="#000000"/>
<path class="atom-13" d="M 637.4 64.7 L 638.3 64.7 L 638.3 67.6 L 641.7 67.6 L 641.7 64.7 L 642.6 64.7 L 642.6 71.4 L 641.7 71.4 L 641.7 68.3 L 638.3 68.3 L 638.3 71.4 L 637.4 71.4 L 637.4 64.7 " fill="#000000"/>
<path class="atom-14" d="M 645.4 87.4 L 646.3 87.4 L 646.3 90.2 L 649.7 90.2 L 649.7 87.4 L 650.6 87.4 L 650.6 94.0 L 649.7 94.0 L 649.7 91.0 L 646.3 91.0 L 646.3 94.0 L 645.4 94.0 L 645.4 87.4 " fill="#000000"/>
<path class="atom-15" d="M 589.9 69.5 L 590.8 69.5 L 590.8 72.3 L 594.2 72.3 L 594.2 69.5 L 595.1 69.5 L 595.1 76.1 L 594.2 76.1 L 594.2 73.0 L 590.8 73.0 L 590.8 76.1 L 589.9 76.1 L 589.9 69.5 " fill="#000000"/>
<path class="atom-16" d="M 619.6 59.3 L 620.5 59.3 L 620.5 62.1 L 623.9 62.1 L 623.9 59.3 L 624.8 59.3 L 624.8 65.9 L 623.9 65.9 L 623.9 62.9 L 620.5 62.9 L 620.5 65.9 L 619.6 65.9 L 619.6 59.3 " fill="#000000"/>
<path class="atom-17" d="M 562.0 121.0 L 562.9 121.0 L 562.9 123.9 L 566.3 123.9 L 566.3 121.0 L 567.2 121.0 L 567.2 127.7 L 566.3 127.7 L 566.3 124.6 L 562.9 124.6 L 562.9 127.7 L 562.0 127.7 L 562.0 121.0 " fill="#000000"/>
<path class="atom-18" d="M 620.1 158.6 L 621.0 158.6 L 621.0 161.4 L 624.4 161.4 L 624.4 158.6 L 625.3 158.6 L 625.3 165.2 L 624.4 165.2 L 624.4 162.2 L 621.0 162.2 L 621.0 165.2 L 620.1 165.2 L 620.1 158.6 " fill="#000000"/>
<path class="atom-19" d="M 581.2 146.6 L 582.1 146.6 L 582.1 149.5 L 585.5 149.5 L 585.5 146.6 L 586.4 146.6 L 586.4 153.3 L 585.5 153.3 L 585.5 150.2 L 582.1 150.2 L 582.1 153.3 L 581.2 153.3 L 581.2 146.6 " fill="#000000"/>
<path class="note" d="M 656.2 110.9 Q 655.6 110.9, 655.3 110.5 Q 655.0 110.0, 655.0 109.2 Q 655.0 108.4, 655.3 108.0 Q 655.6 107.5, 656.2 107.5 Q 656.9 107.5, 657.2 108.0 Q 657.5 108.4, 657.5 109.2 Q 657.5 110.0, 657.2 110.5 Q 656.9 110.9, 656.2 110.9 M 656.2 110.5 Q 656.6 110.5, 656.8 110.2 Q 657.0 109.9, 657.0 109.2 Q 657.0 108.6, 656.8 108.2 Q 656.6 107.9, 656.2 107.9 Q 655.9 107.9, 655.7 108.2 Q 655.5 108.6, 655.5 109.2 Q 655.5 109.9, 655.7 110.2 Q 655.9 110.5, 656.2 110.5 " fill="#000000"/>
<path class="note" d="M 637.6 113.0 L 638.3 113.0 L 638.3 110.5 L 637.5 110.7 L 637.4 110.5 L 638.4 110.0 L 638.8 110.1 L 638.8 113.0 L 639.4 113.0 L 639.4 113.4 L 637.6 113.4 L 637.6 113.0 " fill="#000000"/>
<path class="note" d="M 631.2 92.5 Q 631.4 92.2, 631.6 92.0 Q 631.9 91.8, 632.3 91.8 Q 632.8 91.8, 633.1 92.1 Q 633.4 92.3, 633.4 92.8 Q 633.4 93.3, 633.0 93.8 Q 632.7 94.2, 631.9 94.8 L 633.5 94.8 L 633.5 95.2 L 631.2 95.2 L 631.2 94.9 Q 631.8 94.4, 632.2 94.1 Q 632.6 93.8, 632.8 93.5 Q 632.9 93.2, 632.9 92.9 Q 632.9 92.5, 632.8 92.4 Q 632.6 92.2, 632.3 92.2 Q 632.1 92.2, 631.9 92.3 Q 631.7 92.4, 631.6 92.6 L 631.2 92.5 " fill="#000000"/>
<path class="note" d="M 614.8 87.9 Q 615.1 88.0, 615.2 88.2 Q 615.4 88.4, 615.4 88.7 Q 615.4 89.0, 615.3 89.2 Q 615.1 89.4, 614.9 89.5 Q 614.6 89.7, 614.3 89.7 Q 613.9 89.7, 613.6 89.5 Q 613.4 89.4, 613.2 89.2 L 613.4 88.9 Q 613.6 89.1, 613.8 89.2 Q 614.0 89.3, 614.3 89.3 Q 614.6 89.3, 614.8 89.1 Q 614.9 89.0, 614.9 88.7 Q 614.9 88.4, 614.7 88.2 Q 614.6 88.0, 614.1 88.0 L 613.9 88.0 L 613.9 87.7 L 614.1 87.7 Q 614.5 87.7, 614.7 87.6 Q 614.9 87.4, 614.9 87.1 Q 614.9 86.9, 614.7 86.8 Q 614.5 86.6, 614.3 86.6 Q 614.0 86.6, 613.8 86.7 Q 613.7 86.8, 613.5 87.1 L 613.2 86.9 Q 613.3 86.6, 613.6 86.4 Q 613.9 86.2, 614.3 86.2 Q 614.8 86.2, 615.0 86.5 Q 615.3 86.7, 615.3 87.1 Q 615.3 87.4, 615.2 87.6 Q 615.0 87.7, 614.8 87.9 " fill="#000000"/>
<path class="note" d="M 598.6 100.5 L 599.0 100.5 L 599.0 100.9 L 598.6 100.9 L 598.6 101.7 L 598.1 101.7 L 598.1 100.9 L 596.4 100.9 L 596.4 100.6 L 597.8 98.3 L 598.6 98.3 L 598.6 100.5 M 596.9 100.5 L 598.1 100.5 L 598.1 98.6 L 596.9 100.5 " fill="#000000"/>
<path class="note" d="M 578.1 106.8 Q 578.4 106.8, 578.6 106.9 Q 578.9 107.0, 579.0 107.2 Q 579.1 107.5, 579.1 107.8 Q 579.1 108.1, 579.0 108.4 Q 578.8 108.6, 578.5 108.8 Q 578.3 108.9, 578.0 108.9 Q 577.6 108.9, 577.4 108.8 Q 577.1 108.7, 576.9 108.4 L 577.2 108.1 Q 577.3 108.3, 577.5 108.4 Q 577.8 108.5, 578.0 108.5 Q 578.3 108.5, 578.5 108.3 Q 578.7 108.1, 578.7 107.8 Q 578.7 107.4, 578.5 107.3 Q 578.3 107.1, 577.9 107.1 Q 577.6 107.1, 577.3 107.2 L 577.1 107.1 L 577.2 105.5 L 578.9 105.5 L 578.9 105.9 L 577.6 105.9 L 577.5 106.9 Q 577.8 106.8, 578.1 106.8 " fill="#000000"/>
<path class="note" d="M 560.1 76.5 Q 560.4 76.5, 560.6 76.7 Q 560.8 76.8, 560.9 77.0 Q 561.1 77.3, 561.1 77.5 Q 561.1 77.9, 560.9 78.1 Q 560.8 78.4, 560.5 78.5 Q 560.3 78.7, 559.9 78.7 Q 559.4 78.7, 559.1 78.3 Q 558.8 77.8, 558.8 77.1 Q 558.8 76.2, 559.1 75.7 Q 559.5 75.3, 560.2 75.3 Q 560.4 75.3, 560.6 75.3 Q 560.8 75.3, 560.9 75.4 L 560.8 75.8 Q 560.5 75.6, 560.2 75.6 Q 559.7 75.6, 559.5 75.9 Q 559.3 76.2, 559.2 76.9 Q 559.4 76.7, 559.6 76.6 Q 559.8 76.5, 560.1 76.5 M 560.0 78.3 Q 560.1 78.3, 560.3 78.2 Q 560.4 78.1, 560.5 77.9 Q 560.6 77.8, 560.6 77.5 Q 560.6 77.3, 560.4 77.1 Q 560.3 76.9, 560.0 76.9 Q 559.8 76.9, 559.6 77.0 Q 559.4 77.1, 559.2 77.2 Q 559.3 77.8, 559.4 78.0 Q 559.6 78.3, 560.0 78.3 " fill="#000000"/>
<path class="note" d="M 610.4 121.6 L 608.7 121.6 L 608.7 121.3 L 610.9 121.3 L 610.9 121.6 L 609.5 124.6 L 609.1 124.6 L 610.4 121.6 " fill="#000000"/>
<path class="note" d="M 614.9 142.9 Q 615.2 143.0, 615.3 143.2 Q 615.5 143.4, 615.5 143.7 Q 615.5 144.0, 615.4 144.2 Q 615.2 144.4, 615.0 144.6 Q 614.7 144.7, 614.4 144.7 Q 613.8 144.7, 613.5 144.4 Q 613.2 144.2, 613.2 143.7 Q 613.2 143.5, 613.3 143.2 Q 613.4 143.0, 613.7 142.9 Q 613.5 142.8, 613.4 142.6 Q 613.3 142.4, 613.3 142.1 Q 613.3 141.7, 613.6 141.5 Q 613.9 141.3, 614.3 141.3 Q 614.8 141.3, 615.1 141.5 Q 615.4 141.7, 615.4 142.1 Q 615.4 142.4, 615.3 142.5 Q 615.1 142.7, 614.9 142.9 M 614.3 141.6 Q 614.1 141.6, 613.9 141.8 Q 613.8 141.9, 613.8 142.1 Q 613.8 142.3, 613.9 142.4 Q 614.0 142.5, 614.1 142.6 Q 614.3 142.7, 614.5 142.8 Q 614.7 142.6, 614.8 142.5 Q 614.9 142.3, 614.9 142.1 Q 614.9 141.9, 614.8 141.8 Q 614.6 141.6, 614.3 141.6 M 614.4 144.3 Q 614.7 144.3, 614.9 144.2 Q 615.0 144.0, 615.0 143.7 Q 615.0 143.5, 614.9 143.4 Q 614.8 143.3, 614.7 143.2 Q 614.6 143.2, 614.3 143.1 L 614.1 143.0 Q 613.8 143.2, 613.7 143.3 Q 613.6 143.5, 613.6 143.7 Q 613.6 144.0, 613.8 144.2 Q 614.0 144.3, 614.4 144.3 " fill="#000000"/>
<path class="note" d="M 690.2 106.4 Q 690.8 106.4, 691.1 106.8 Q 691.4 107.2, 691.4 108.0 Q 691.4 108.8, 691.1 109.3 Q 690.7 109.8, 690.0 109.8 Q 689.8 109.8, 689.6 109.7 Q 689.4 109.7, 689.3 109.6 L 689.4 109.3 Q 689.7 109.4, 690.0 109.4 Q 690.5 109.4, 690.7 109.1 Q 690.9 108.8, 691.0 108.2 Q 690.8 108.3, 690.6 108.4 Q 690.4 108.5, 690.1 108.5 Q 689.8 108.5, 689.6 108.3 Q 689.4 108.2, 689.3 108.0 Q 689.1 107.8, 689.1 107.5 Q 689.1 107.1, 689.3 106.9 Q 689.4 106.6, 689.7 106.5 Q 689.9 106.4, 690.2 106.4 M 689.6 107.5 Q 689.6 107.8, 689.8 107.9 Q 689.9 108.1, 690.2 108.1 Q 690.4 108.1, 690.6 108.0 Q 690.8 107.9, 691.0 107.8 Q 690.9 107.2, 690.8 107.0 Q 690.6 106.7, 690.2 106.7 Q 690.1 106.7, 689.9 106.8 Q 689.8 106.9, 689.7 107.1 Q 689.6 107.3, 689.6 107.5 " fill="#000000"/>
<path class="note" d="M 657.1 92.8 L 657.8 92.8 L 657.8 90.3 L 657.0 90.6 L 656.9 90.3 L 657.9 89.8 L 658.2 89.9 L 658.2 92.8 L 658.9 92.8 L 658.9 93.2 L 657.1 93.2 L 657.1 92.8 " fill="#000000"/>
<path class="note" d="M 660.3 93.2 Q 659.7 93.2, 659.4 92.8 Q 659.1 92.3, 659.1 91.5 Q 659.1 90.7, 659.4 90.2 Q 659.7 89.8, 660.3 89.8 Q 660.9 89.8, 661.2 90.2 Q 661.5 90.7, 661.5 91.5 Q 661.5 92.3, 661.2 92.8 Q 660.9 93.2, 660.3 93.2 M 660.3 92.8 Q 660.7 92.8, 660.9 92.5 Q 661.1 92.2, 661.1 91.5 Q 661.1 90.8, 660.9 90.5 Q 660.7 90.2, 660.3 90.2 Q 660.0 90.2, 659.8 90.5 Q 659.6 90.8, 659.6 91.5 Q 659.6 92.2, 659.8 92.5 Q 660.0 92.8, 660.3 92.8 " fill="#000000"/>
<path class="note" d="M 661.0 144.2 L 661.7 144.2 L 661.7 141.7 L 660.9 142.0 L 660.8 141.7 L 661.9 141.2 L 662.2 141.3 L 662.2 144.2 L 662.8 144.2 L 662.8 144.6 L 661.0 144.6 L 661.0 144.2 " fill="#000000"/>
<path class="note" d="M 663.2 144.2 L 664.0 144.2 L 664.0 141.7 L 663.1 142.0 L 663.0 141.7 L 664.1 141.2 L 664.4 141.3 L 664.4 144.2 L 665.0 144.2 L 665.0 144.6 L 663.2 144.6 L 663.2 144.2 " fill="#000000"/>
<path class="note" d="M 640.8 146.5 L 641.5 146.5 L 641.5 144.0 L 640.7 144.2 L 640.6 144.0 L 641.6 143.5 L 642.0 143.6 L 642.0 146.5 L 642.6 146.5 L 642.6 146.9 L 640.8 146.9 L 640.8 146.5 " fill="#000000"/>
<path class="note" d="M 642.8 144.2 Q 643.0 143.8, 643.2 143.7 Q 643.5 143.5, 643.9 143.5 Q 644.4 143.5, 644.7 143.8 Q 645.0 144.0, 645.0 144.5 Q 645.0 145.0, 644.6 145.5 Q 644.3 145.9, 643.5 146.5 L 645.1 146.5 L 645.1 146.9 L 642.8 146.9 L 642.8 146.5 Q 643.4 146.1, 643.8 145.8 Q 644.2 145.4, 644.4 145.1 Q 644.5 144.8, 644.5 144.5 Q 644.5 144.2, 644.4 144.0 Q 644.2 143.9, 643.9 143.9 Q 643.7 143.9, 643.5 144.0 Q 643.3 144.1, 643.2 144.3 L 642.8 144.2 " fill="#000000"/>
<path class="note" d="M 639.5 61.7 L 640.2 61.7 L 640.2 59.2 L 639.4 59.5 L 639.3 59.2 L 640.3 58.7 L 640.6 58.8 L 640.6 61.7 L 641.3 61.7 L 641.3 62.1 L 639.5 62.1 L 639.5 61.7 " fill="#000000"/>
<path class="note" d="M 643.1 60.3 Q 643.4 60.4, 643.6 60.6 Q 643.7 60.8, 643.7 61.2 Q 643.7 61.4, 643.6 61.7 Q 643.4 61.9, 643.2 62.0 Q 642.9 62.1, 642.6 62.1 Q 642.2 62.1, 642.0 62.0 Q 641.7 61.9, 641.5 61.6 L 641.8 61.3 Q 642.0 61.6, 642.1 61.7 Q 642.3 61.7, 642.6 61.7 Q 642.9 61.7, 643.1 61.6 Q 643.3 61.4, 643.3 61.1 Q 643.3 60.8, 643.1 60.7 Q 642.9 60.5, 642.5 60.5 L 642.2 60.5 L 642.2 60.2 L 642.4 60.2 Q 642.8 60.2, 643.0 60.0 Q 643.2 59.8, 643.2 59.6 Q 643.2 59.3, 643.0 59.2 Q 642.9 59.1, 642.6 59.1 Q 642.3 59.1, 642.1 59.2 Q 642.0 59.3, 641.8 59.5 L 641.5 59.3 Q 641.6 59.1, 641.9 58.9 Q 642.2 58.7, 642.6 58.7 Q 643.1 58.7, 643.4 58.9 Q 643.7 59.2, 643.7 59.6 Q 643.7 59.8, 643.5 60.0 Q 643.4 60.2, 643.1 60.3 " fill="#000000"/>
<path class="note" d="M 649.9 98.7 L 650.6 98.7 L 650.6 96.2 L 649.8 96.4 L 649.7 96.1 L 650.7 95.7 L 651.1 95.7 L 651.1 98.7 L 651.7 98.7 L 651.7 99.0 L 649.9 99.0 L 649.9 98.7 " fill="#000000"/>
<path class="note" d="M 654.1 97.9 L 654.5 97.9 L 654.5 98.3 L 654.1 98.3 L 654.1 99.0 L 653.6 99.0 L 653.6 98.3 L 651.9 98.3 L 651.9 98.0 L 653.4 95.7 L 654.1 95.7 L 654.1 97.9 M 652.5 97.9 L 653.6 97.9 L 653.6 96.0 L 652.5 97.9 " fill="#000000"/>
<path class="note" d="M 583.6 70.3 L 584.3 70.3 L 584.3 67.8 L 583.5 68.0 L 583.4 67.8 L 584.4 67.3 L 584.8 67.4 L 584.8 70.3 L 585.4 70.3 L 585.4 70.7 L 583.6 70.7 L 583.6 70.3 " fill="#000000"/>
<path class="note" d="M 586.8 68.6 Q 587.1 68.6, 587.4 68.7 Q 587.6 68.8, 587.7 69.1 Q 587.9 69.3, 587.9 69.6 Q 587.9 69.9, 587.7 70.2 Q 587.5 70.4, 587.3 70.6 Q 587.0 70.7, 586.7 70.7 Q 586.4 70.7, 586.1 70.6 Q 585.8 70.5, 585.6 70.3 L 585.9 70.0 Q 586.1 70.1, 586.3 70.2 Q 586.5 70.3, 586.7 70.3 Q 587.0 70.3, 587.2 70.1 Q 587.4 69.9, 587.4 69.6 Q 587.4 69.3, 587.2 69.1 Q 587.0 68.9, 586.7 68.9 Q 586.4 68.9, 586.0 69.1 L 585.8 68.9 L 585.9 67.3 L 587.7 67.3 L 587.6 67.7 L 586.3 67.7 L 586.2 68.7 Q 586.5 68.6, 586.8 68.6 " fill="#000000"/>
<path class="note" d="M 623.2 56.7 L 624.0 56.7 L 624.0 54.2 L 623.2 54.5 L 623.1 54.2 L 624.1 53.7 L 624.4 53.8 L 624.4 56.7 L 625.1 56.7 L 625.1 57.1 L 623.2 57.1 L 623.2 56.7 " fill="#000000"/>
<path class="note" d="M 626.6 55.0 Q 626.8 55.0, 627.1 55.1 Q 627.3 55.3, 627.4 55.5 Q 627.6 55.7, 627.6 56.0 Q 627.6 56.3, 627.4 56.6 Q 627.3 56.8, 627.0 57.0 Q 626.8 57.1, 626.4 57.1 Q 625.9 57.1, 625.6 56.7 Q 625.3 56.3, 625.3 55.5 Q 625.3 54.6, 625.6 54.2 Q 626.0 53.7, 626.7 53.7 Q 626.9 53.7, 627.1 53.8 Q 627.3 53.8, 627.4 53.9 L 627.2 54.2 Q 627.0 54.1, 626.7 54.1 Q 626.2 54.1, 626.0 54.4 Q 625.8 54.7, 625.7 55.3 Q 625.9 55.2, 626.1 55.1 Q 626.3 55.0, 626.6 55.0 M 626.5 56.7 Q 626.6 56.7, 626.8 56.6 Q 626.9 56.5, 627.0 56.4 Q 627.1 56.2, 627.1 56.0 Q 627.1 55.7, 626.9 55.6 Q 626.8 55.4, 626.5 55.4 Q 626.3 55.4, 626.1 55.5 Q 625.9 55.5, 625.7 55.7 Q 625.8 56.2, 625.9 56.5 Q 626.1 56.7, 626.5 56.7 " fill="#000000"/>
<path class="note" d="M 558.7 132.5 L 559.5 132.5 L 559.5 130.0 L 558.7 130.3 L 558.6 130.0 L 559.6 129.5 L 559.9 129.6 L 559.9 132.5 L 560.6 132.5 L 560.6 132.9 L 558.7 132.9 L 558.7 132.5 " fill="#000000"/>
<path class="note" d="M 562.5 129.9 L 560.8 129.9 L 560.8 129.5 L 563.0 129.5 L 563.0 129.9 L 561.6 132.9 L 561.2 132.9 L 562.5 129.9 " fill="#000000"/>
<path class="note" d="M 622.4 170.9 L 623.1 170.9 L 623.1 168.4 L 622.3 168.6 L 622.2 168.3 L 623.2 167.9 L 623.5 167.9 L 623.5 170.9 L 624.2 170.9 L 624.2 171.2 L 622.4 171.2 L 622.4 170.9 " fill="#000000"/>
<path class="note" d="M 626.1 169.5 Q 626.4 169.6, 626.6 169.8 Q 626.7 170.0, 626.7 170.3 Q 626.7 170.6, 626.6 170.8 Q 626.4 171.0, 626.2 171.2 Q 625.9 171.3, 625.6 171.3 Q 625.0 171.3, 624.7 171.0 Q 624.4 170.8, 624.4 170.3 Q 624.4 170.1, 624.5 169.8 Q 624.7 169.6, 625.0 169.5 Q 624.7 169.4, 624.6 169.2 Q 624.5 169.0, 624.5 168.7 Q 624.5 168.3, 624.8 168.1 Q 625.1 167.9, 625.6 167.9 Q 626.0 167.9, 626.3 168.1 Q 626.6 168.3, 626.6 168.7 Q 626.6 169.0, 626.5 169.1 Q 626.3 169.3, 626.1 169.5 M 625.6 168.2 Q 625.3 168.2, 625.1 168.4 Q 625.0 168.5, 625.0 168.7 Q 625.0 168.9, 625.1 169.0 Q 625.2 169.1, 625.3 169.2 Q 625.5 169.3, 625.8 169.4 Q 626.0 169.2, 626.0 169.1 Q 626.1 168.9, 626.1 168.7 Q 626.1 168.5, 626.0 168.4 Q 625.8 168.2, 625.6 168.2 M 625.6 170.9 Q 625.9 170.9, 626.1 170.8 Q 626.3 170.6, 626.3 170.3 Q 626.3 170.1, 626.2 170.0 Q 626.1 169.9, 625.9 169.8 Q 625.8 169.8, 625.5 169.7 L 625.3 169.6 Q 625.1 169.8, 625.0 169.9 Q 624.8 170.1, 624.8 170.3 Q 624.8 170.6, 625.0 170.8 Q 625.2 170.9, 625.6 170.9 " fill="#000000"/>
<path class="note" d="M 574.1 153.0 L 574.8 153.0 L 574.8 150.5 L 574.0 150.8 L 573.9 150.5 L 574.9 150.0 L 575.3 150.1 L 575.3 153.0 L 575.9 153.0 L 575.9 153.4 L 574.1 153.4 L 574.1 153.0 " fill="#000000"/>
<path class="note" d="M 577.2 150.0 Q 577.8 150.0, 578.1 150.4 Q 578.4 150.8, 578.4 151.6 Q 578.4 152.5, 578.0 153.0 Q 577.7 153.4, 577.0 153.4 Q 576.8 153.4, 576.6 153.4 Q 576.4 153.3, 576.2 153.2 L 576.4 152.9 Q 576.7 153.0, 577.0 153.0 Q 577.4 153.0, 577.7 152.7 Q 577.9 152.4, 577.9 151.8 Q 577.8 152.0, 577.6 152.1 Q 577.3 152.1, 577.1 152.1 Q 576.8 152.1, 576.6 152.0 Q 576.4 151.9, 576.2 151.6 Q 576.1 151.4, 576.1 151.1 Q 576.1 150.8, 576.3 150.6 Q 576.4 150.3, 576.7 150.2 Q 576.9 150.0, 577.2 150.0 M 576.6 151.1 Q 576.6 151.4, 576.7 151.6 Q 576.9 151.8, 577.2 151.8 Q 577.4 151.8, 577.6 151.7 Q 577.8 151.6, 577.9 151.5 Q 577.9 150.9, 577.8 150.7 Q 577.6 150.4, 577.2 150.4 Q 577.0 150.4, 576.9 150.5 Q 576.8 150.6, 576.7 150.8 Q 576.6 150.9, 576.6 151.1 " fill="#000000"/>
<path class="legend" d="M 572.0 228.7 Q 574.0 228.7, 575.0 230.1 Q 576.0 231.5, 576.0 234.2 Q 576.0 237.2, 574.8 238.8 Q 573.5 240.3, 571.1 240.3 Q 570.4 240.3, 569.8 240.2 Q 569.2 240.0, 568.6 239.7 L 569.2 238.6 Q 570.1 239.0, 571.1 239.0 Q 572.7 239.0, 573.5 238.0 Q 574.3 237.0, 574.4 234.9 Q 573.8 235.4, 573.1 235.7 Q 572.4 235.9, 571.6 235.9 Q 570.6 235.9, 569.8 235.5 Q 569.0 235.1, 568.6 234.3 Q 568.2 233.5, 568.2 232.5 Q 568.2 231.4, 568.7 230.6 Q 569.1 229.7, 570.0 229.2 Q 570.9 228.7, 572.0 228.7 M 569.8 232.5 Q 569.8 233.5, 570.3 234.1 Q 570.9 234.7, 571.9 234.7 Q 572.6 234.7, 573.2 234.4 Q 573.9 234.1, 574.4 233.6 Q 574.3 231.8, 573.8 230.9 Q 573.2 230.1, 572.0 230.1 Q 571.4 230.1, 570.8 230.4 Q 570.3 230.7, 570.1 231.3 Q 569.8 231.8, 569.8 232.5 " fill="#000000"/>
<path class="legend" d="M 582.6 234.2 Q 583.7 234.6, 584.2 235.3 Q 584.7 236.0, 584.7 237.1 Q 584.7 238.1, 584.3 238.8 Q 583.8 239.5, 582.9 240.0 Q 582.0 240.4, 580.9 240.4 Q 579.6 240.4, 578.7 239.9 Q 577.8 239.5, 577.1 238.6 L 578.0 237.7 Q 578.7 238.5, 579.3 238.8 Q 579.9 239.1, 580.9 239.1 Q 581.9 239.1, 582.5 238.5 Q 583.1 238.0, 583.1 237.1 Q 583.1 235.9, 582.5 235.4 Q 581.8 234.9, 580.4 234.9 L 579.6 234.9 L 579.6 233.7 L 580.3 233.7 Q 581.6 233.7, 582.2 233.2 Q 582.9 232.6, 582.9 231.6 Q 582.9 230.9, 582.3 230.5 Q 581.8 230.0, 580.9 230.0 Q 579.9 230.0, 579.3 230.4 Q 578.8 230.7, 578.3 231.5 L 577.2 231.0 Q 577.6 230.0, 578.6 229.4 Q 579.5 228.7, 580.9 228.7 Q 582.5 228.7, 583.5 229.5 Q 584.5 230.3, 584.5 231.6 Q 584.5 232.6, 584.0 233.2 Q 583.5 233.9, 582.6 234.2 " fill="#000000"/>
<path class="legend" d="M 589.5 228.7 Q 591.5 228.7, 592.5 230.1 Q 593.5 231.5, 593.5 234.2 Q 593.5 237.2, 592.3 238.8 Q 591.0 240.3, 588.6 240.3 Q 587.9 240.3, 587.3 240.2 Q 586.7 240.0, 586.1 239.7 L 586.7 238.6 Q 587.6 239.0, 588.6 239.0 Q 590.2 239.0, 591.0 238.0 Q 591.8 237.0, 591.9 234.9 Q 591.3 235.4, 590.6 235.7 Q 589.9 235.9, 589.1 235.9 Q 588.1 235.9, 587.3 235.5 Q 586.5 235.1, 586.1 234.3 Q 585.7 233.5, 585.7 232.5 Q 585.7 231.4, 586.2 230.6 Q 586.7 229.7, 587.5 229.2 Q 588.4 228.7, 589.5 228.7 M 587.3 232.5 Q 587.3 233.5, 587.8 234.1 Q 588.4 234.7, 589.4 234.7 Q 590.1 234.7, 590.7 234.4 Q 591.4 234.1, 591.9 233.6 Q 591.9 231.8, 591.3 230.9 Q 590.7 230.1, 589.5 230.1 Q 588.9 230.1, 588.3 230.4 Q 587.9 230.7, 587.6 231.3 Q 587.3 231.8, 587.3 232.5 " fill="#000000"/>
<path class="legend" d="M 599.1 233.1 Q 600.0 233.1, 600.8 233.6 Q 601.6 234.0, 602.0 234.8 Q 602.5 235.6, 602.5 236.6 Q 602.5 237.7, 602.0 238.5 Q 601.5 239.4, 600.6 239.8 Q 599.8 240.3, 598.7 240.3 Q 596.7 240.3, 595.6 239.0 Q 594.6 237.6, 594.6 234.9 Q 594.6 231.9, 595.9 230.3 Q 597.1 228.7, 599.5 228.7 Q 600.3 228.7, 600.8 228.9 Q 601.5 229.1, 602.0 229.4 L 601.4 230.5 Q 600.6 230.0, 599.6 230.0 Q 598.0 230.0, 597.1 231.1 Q 596.3 232.1, 596.2 234.2 Q 596.8 233.7, 597.5 233.4 Q 598.3 233.1, 599.1 233.1 M 598.7 239.0 Q 599.3 239.0, 599.8 238.7 Q 600.3 238.4, 600.6 237.8 Q 600.9 237.3, 600.9 236.6 Q 600.9 235.6, 600.3 235.0 Q 599.8 234.4, 598.8 234.4 Q 598.1 234.4, 597.4 234.7 Q 596.7 235.0, 596.2 235.4 Q 596.3 237.3, 596.9 238.2 Q 597.5 239.0, 598.7 239.0 " fill="#000000"/>
<path class="legend" d="M 607.2 228.7 Q 609.2 228.7, 610.2 230.1 Q 611.2 231.5, 611.2 234.2 Q 611.2 237.2, 609.9 238.8 Q 608.7 240.3, 606.3 240.3 Q 605.6 240.3, 605.0 240.2 Q 604.4 240.0, 603.8 239.7 L 604.4 238.6 Q 605.3 239.0, 606.3 239.0 Q 607.9 239.0, 608.7 238.0 Q 609.5 237.0, 609.6 234.9 Q 609.0 235.4, 608.3 235.7 Q 607.6 235.9, 606.8 235.9 Q 605.8 235.9, 605.0 235.5 Q 604.2 235.1, 603.8 234.3 Q 603.4 233.5, 603.4 232.5 Q 603.4 231.4, 603.8 230.6 Q 604.3 229.7, 605.2 229.2 Q 606.1 228.7, 607.2 228.7 M 605.0 232.5 Q 605.0 233.5, 605.5 234.1 Q 606.1 234.7, 607.1 234.7 Q 607.8 234.7, 608.4 234.4 Q 609.1 234.1, 609.6 233.6 Q 609.5 231.8, 608.9 230.9 Q 608.3 230.1, 607.1 230.1 Q 606.5 230.1, 606.0 230.4 Q 605.5 230.7, 605.2 231.3 Q 605.0 231.8, 605.0 232.5 " fill="#000000"/>
<path class="legend" d="M 620.5 241.0 L 620.5 242.3 L 612.3 242.3 L 612.3 241.0 L 620.5 241.0 " fill="#000000"/>
<path class="legend" d="M 624.6 240.3 Q 622.5 240.3, 621.5 238.8 Q 620.5 237.3, 620.5 234.5 Q 620.5 231.8, 621.5 230.3 Q 622.5 228.7, 624.6 228.7 Q 626.7 228.7, 627.7 230.3 Q 628.7 231.8, 628.7 234.5 Q 628.7 237.3, 627.7 238.8 Q 626.7 240.3, 624.6 240.3 M 624.6 239.0 Q 625.8 239.0, 626.5 237.9 Q 627.1 236.8, 627.1 234.5 Q 627.1 232.3, 626.5 231.2 Q 625.8 230.0, 624.6 230.0 Q 623.4 230.0, 622.7 231.2 Q 622.1 232.3, 622.1 234.5 Q 622.1 236.8, 622.7 237.9 Q 623.4 239.0, 624.6 239.0 " fill="#000000"/>
<path class="legend" d="" fill="#000000"/>
<path class="legend" d="M 635.1 235.6 Q 635.1 233.3, 635.8 231.5 Q 636.5 229.6, 637.7 227.5 L 638.6 228.1 Q 637.6 230.0, 637.1 231.7 Q 636.6 233.4, 636.6 235.6 Q 636.6 237.8, 637.1 239.5 Q 637.6 241.2, 638.6 243.2 L 637.7 243.8 Q 636.5 241.7, 635.8 239.8 Q 635.1 238.0, 635.1 235.6 " fill="#000000"/>
<path class="legend" d="M 648.1 234.6 L 648.1 239.4 Q 646.5 240.3, 644.1 240.3 Q 641.7 240.3, 640.4 238.8 Q 639.0 237.3, 639.0 234.5 Q 639.0 231.7, 640.4 230.2 Q 641.7 228.7, 644.2 228.7 Q 645.5 228.7, 646.5 229.2 Q 647.4 229.6, 648.1 230.4 L 647.1 231.3 Q 646.0 230.0, 644.2 230.0 Q 642.5 230.0, 641.6 231.2 Q 640.7 232.3, 640.7 234.5 Q 640.7 236.8, 641.6 237.9 Q 642.5 239.1, 644.4 239.1 Q 645.6 239.1, 646.6 238.7 L 646.6 234.6 L 648.1 234.6 " fill="#000000"/>
<path class="legend" d="M 650.6 232.0 L 650.7 233.1 Q 651.6 231.8, 653.0 231.8 Q 653.5 231.8, 654.1 232.0 L 653.8 233.3 Q 653.1 233.2, 652.8 233.2 Q 652.1 233.2, 651.6 233.4 Q 651.2 233.7, 650.9 234.3 L 650.9 240.2 L 649.3 240.2 L 649.3 232.0 L 650.6 232.0 " fill="#000000"/>
<path class="legend" d="M 654.3 236.1 Q 654.3 234.1, 655.3 233.0 Q 656.3 231.8, 658.2 231.8 Q 660.0 231.8, 660.8 232.9 Q 661.6 234.0, 661.6 236.0 L 661.6 236.3 L 655.8 236.3 Q 655.9 237.7, 656.5 238.4 Q 657.1 239.1, 658.3 239.1 Q 658.9 239.1, 659.5 239.0 Q 660.1 238.8, 660.8 238.5 L 661.3 239.5 Q 660.5 240.0, 659.7 240.2 Q 659.0 240.3, 658.2 240.3 Q 656.4 240.3, 655.3 239.2 Q 654.3 238.1, 654.3 236.1 M 658.2 233.0 Q 657.2 233.0, 656.6 233.6 Q 656.1 234.1, 655.9 235.2 L 660.0 235.2 Q 659.9 234.1, 659.4 233.5 Q 659.0 233.0, 658.2 233.0 " fill="#000000"/>
<path class="legend" d="M 662.2 236.1 Q 662.2 234.1, 663.2 233.0 Q 664.2 231.8, 666.1 231.8 Q 667.9 231.8, 668.7 232.9 Q 669.5 234.0, 669.5 236.0 L 669.5 236.3 L 663.7 236.3 Q 663.8 237.7, 664.4 238.4 Q 665.0 239.1, 666.2 239.1 Q 666.8 239.1, 667.4 239.0 Q 668.0 238.8, 668.7 238.5 L 669.2 239.5 Q 668.3 240.0, 667.6 240.2 Q 666.9 240.3, 666.1 240.3 Q 664.2 240.3, 663.2 239.2 Q 662.2 238.1, 662.2 236.1 M 666.1 233.0 Q 665.1 233.0, 664.5 233.6 Q 664.0 234.1, 663.8 235.2 L 667.9 235.2 Q 667.8 234.1, 667.3 233.5 Q 666.9 233.0, 666.1 233.0 " fill="#000000"/>
<path class="legend" d="M 674.4 231.8 Q 675.7 231.8, 676.4 232.6 Q 677.1 233.3, 677.1 234.8 L 677.1 240.2 L 675.6 240.2 L 675.6 234.9 Q 675.6 233.9, 675.2 233.5 Q 674.8 233.0, 674.0 233.0 Q 673.2 233.0, 672.6 233.4 Q 672.0 233.7, 671.6 234.3 L 671.6 240.2 L 670.1 240.2 L 670.1 232.0 L 671.3 232.0 L 671.5 233.1 Q 672.6 231.8, 674.4 231.8 " fill="#000000"/>
<path class="legend" d="M 681.8 235.6 Q 681.8 238.0, 681.2 239.8 Q 680.5 241.7, 679.2 243.8 L 678.3 243.2 Q 679.3 241.2, 679.9 239.5 Q 680.4 237.8, 680.4 235.6 Q 680.4 233.4, 679.9 231.7 Q 679.3 230.0, 678.3 228.1 L 679.2 227.5 Q 680.5 229.6, 681.2 231.5 Q 681.8 233.3, 681.8 235.6 " fill="#000000"/>
</svg>