<svg xmlns="http://www.w3.org/2000/svg" xmlns:rdkit="http://www.rdkit.org/xml" xmlns:xlink="http://www.w3.org/1999/xlink" version="1.1" baseProfile="full" xml:space="preserve" width="750px" height="250px" viewBox="0 0 750 250">
<!-- END OF HEADER -->
<rect style="opacity:1.0;fill:#FFFFFF;stroke:none" width="750.0" height="250.0" x="0.0" y="0.0"> </rect>
<path class="bond-7 atom-7 atom-8" d="M 74.9,107.4 L 42.7,130.9" style="fill:none;fill-rule:evenodd;stroke:#FF7F7F;stroke-width:8.5px;stroke-linecap:butt;stroke-linejoin:miter;stroke-opacity:1"/>
<ellipse cx="74.9" cy="107.4" rx="8.0" ry="8.0" class="atom-7" style="fill:#FF7F7F;fill-rule:evenodd;stroke:#FF7F7F;stroke-width:1.0px;stroke-linecap:butt;stroke-linejoin:miter;stroke-opacity:1"/>
<ellipse cx="42.7" cy="131.0" rx="8.0" ry="8.2" class="atom-8" style="fill:#FF7F7F;fill-rule:evenodd;stroke:#FF7F7F;stroke-width:1.0px;stroke-linecap:butt;stroke-linejoin:miter;stroke-opacity:1"/>
<path class="bond-0 atom-0 atom-1" d="M 191.6,143.2 L 186.5,127.7" style="fill:none;fill-rule:evenodd;stroke:#FF0000;stroke-width:2.0px;stroke-linecap:butt;stroke-linejoin:miter;stroke-opacity:1"/>
<path class="bond-0 atom-0 atom-1" d="M 186.5,127.7 L 181.5,112.3" style="fill:none;fill-rule:evenodd;stroke:#000000;stroke-width:2.0px;stroke-linecap:butt;stroke-linejoin:miter;stroke-opacity:1"/>
<path class="bond-1 atom-1 atom-2" d="M 181.5,112.3 L 190.7,99.6" style="fill:none;fill-rule:evenodd;stroke:#000000;stroke-width:2.0px;stroke-linecap:butt;stroke-linejoin:miter;stroke-opacity:1"/>
<path class="bond-1 atom-1 atom-2" d="M 190.7,99.6 L 199.8,87.0" style="fill:none;fill-rule:evenodd;stroke:#0000FF;stroke-width:2.0px;stroke-linecap:butt;stroke-linejoin:miter;stroke-opacity:1"/>
<path class="bond-1 atom-1 atom-2" d="M 177.8,103.8 L 184.2,95.0" style="fill:none;fill-rule:evenodd;stroke:#000000;stroke-width:2.0px;stroke-linecap:butt;stroke-linejoin:miter;stroke-opacity:1"/>
<path class="bond-1 atom-1 atom-2" d="M 184.2,95.0 L 190.6,86.1" style="fill:none;fill-rule:evenodd;stroke:#0000FF;stroke-width:2.0px;stroke-linecap:butt;stroke-linejoin:miter;stroke-opacity:1"/>
<path class="bond-2 atom-2 atom-3" d="M 199.8,73.0 L 193.2,64.0" style="fill:none;fill-rule:evenodd;stroke:#0000FF;stroke-width:2.0px;stroke-linecap:butt;stroke-linejoin:miter;stroke-opacity:1"/>
<path class="bond-2 atom-2 atom-3" d="M 193.2,64.0 L 186.6,55.0" style="fill:none;fill-rule:evenodd;stroke:#FF0000;stroke-width:2.0px;stroke-linecap:butt;stroke-linejoin:miter;stroke-opacity:1"/>
<path class="bond-3 atom-3 atom-4" d="M 174.9,49.9 L 162.0,54.1" style="fill:none;fill-rule:evenodd;stroke:#FF0000;stroke-width:2.0px;stroke-linecap:butt;stroke-linejoin:miter;stroke-opacity:1"/>
<path class="bond-3 atom-3 atom-4" d="M 162.0,54.1 L 149.1,58.4" style="fill:none;fill-rule:evenodd;stroke:#0000FF;stroke-width:2.0px;stroke-linecap:butt;stroke-linejoin:miter;stroke-opacity:1"/>
<path class="bond-4 atom-4 atom-5" d="M 143.5,67.2 L 143.5,83.6" style="fill:none;fill-rule:evenodd;stroke:#0000FF;stroke-width:2.0px;stroke-linecap:butt;stroke-linejoin:miter;stroke-opacity:1"/>
<path class="bond-4 atom-4 atom-5" d="M 143.5,83.6 L 143.5,100.1" style="fill:none;fill-rule:evenodd;stroke:#000000;stroke-width:2.0px;stroke-linecap:butt;stroke-linejoin:miter;stroke-opacity:1"/>
<path class="bond-4 atom-4 atom-5" d="M 151.5,72.1 L 151.5,83.6" style="fill:none;fill-rule:evenodd;stroke:#0000FF;stroke-width:2.0px;stroke-linecap:butt;stroke-linejoin:miter;stroke-opacity:1"/>
<path class="bond-4 atom-4 atom-5" d="M 151.5,83.6 L 151.5,95.1" style="fill:none;fill-rule:evenodd;stroke:#000000;stroke-width:2.0px;stroke-linecap:butt;stroke-linejoin:miter;stroke-opacity:1"/>
<path class="bond-5 atom-5 atom-6" d="M 143.5,100.1 L 130.7,109.5" style="fill:none;fill-rule:evenodd;stroke:#000000;stroke-width:2.0px;stroke-linecap:butt;stroke-linejoin:miter;stroke-opacity:1"/>
<path class="bond-5 atom-5 atom-6" d="M 130.7,109.5 L 117.8,118.8" style="fill:none;fill-rule:evenodd;stroke:#FF0000;stroke-width:2.0px;stroke-linecap:butt;stroke-linejoin:miter;stroke-opacity:1"/>
<path class="bond-6 atom-6 atom-7" d="M 104.8,120.7 L 89.9,114.1" style="fill:none;fill-rule:evenodd;stroke:#FF0000;stroke-width:2.0px;stroke-linecap:butt;stroke-linejoin:miter;stroke-opacity:1"/>
<path class="bond-6 atom-6 atom-7" d="M 89.9,114.1 L 74.9,107.4" style="fill:none;fill-rule:evenodd;stroke:#000000;stroke-width:2.0px;stroke-linecap:butt;stroke-linejoin:miter;stroke-opacity:1"/>
<path class="bond-7 atom-7 atom-8" d="M 77.2,110.7 L 64.4,120.0" style="fill:none;fill-rule:evenodd;stroke:#000000;stroke-width:2.0px;stroke-linecap:butt;stroke-linejoin:miter;stroke-opacity:1"/>
<path class="bond-7 atom-7 atom-8" d="M 64.4,120.0 L 51.5,129.4" style="fill:none;fill-rule:evenodd;stroke:#FF0000;stroke-width:2.0px;stroke-linecap:butt;stroke-linejoin:miter;stroke-opacity:1"/>
<path class="bond-7 atom-7 atom-8" d="M 72.5,104.2 L 59.7,113.6" style="fill:none;fill-rule:evenodd;stroke:#000000;stroke-width:2.0px;stroke-linecap:butt;stroke-linejoin:miter;stroke-opacity:1"/>
<path class="bond-7 atom-7 atom-8" d="M 59.7,113.6 L 46.8,123.0" style="fill:none;fill-rule:evenodd;stroke:#FF0000;stroke-width:2.0px;stroke-linecap:butt;stroke-linejoin:miter;stroke-opacity:1"/>
<path class="bond-8 atom-5 atom-1" d="M 143.5,100.1 L 181.5,112.3" style="fill:none;fill-rule:evenodd;stroke:#000000;stroke-width:2.0px;stroke-linecap:butt;stroke-linejoin:miter;stroke-opacity:1"/>
<path class="bond-9 atom-0 atom-9" d="M 187.4,157.4 L 180.2,165.4" style="fill:none;fill-rule:evenodd;stroke:#FF0000;stroke-width:2.0px;stroke-linecap:butt;stroke-linejoin:miter;stroke-opacity:1"/>
<path class="bond-9 atom-0 atom-9" d="M 180.2,165.4 L 173.0,173.5" style="fill:none;fill-rule:evenodd;stroke:#000000;stroke-width:2.0px;stroke-linecap:butt;stroke-linejoin:miter;stroke-opacity:1"/>
<path class="bond-10 atom-7 atom-10" d="M 74.9,107.4 L 71.4,74.8" style="fill:none;fill-rule:evenodd;stroke:#000000;stroke-width:2.0px;stroke-linecap:butt;stroke-linejoin:miter;stroke-opacity:1"/>
<path class="atom-0" d="M 188.7 150.2 Q 188.7 147.5, 190.0 146.0 Q 191.4 144.5, 193.9 144.5 Q 196.4 144.5, 197.7 146.0 Q 199.1 147.5, 199.1 150.2 Q 199.1 153.0, 197.7 154.5 Q 196.4 156.1, 193.9 156.1 Q 191.4 156.1, 190.0 154.5 Q 188.7 153.0, 188.7 150.2 M 193.9 154.8 Q 195.6 154.8, 196.5 153.7 Q 197.5 152.5, 197.5 150.2 Q 197.5 148.0, 196.5 146.9 Q 195.6 145.8, 193.9 145.8 Q 192.2 145.8, 191.2 146.9 Q 190.3 148.0, 190.3 150.2 Q 190.3 152.5, 191.2 153.7 Q 192.2 154.8, 193.9 154.8 " fill="#FF0000"/>
<path class="atom-2" d="M 202.4 74.4 L 206.1 80.3 Q 206.4 80.9, 207.0 82.0 Q 207.6 83.1, 207.6 83.1 L 207.6 74.4 L 209.1 74.4 L 209.1 85.7 L 207.6 85.7 L 203.6 79.1 Q 203.2 78.3, 202.7 77.5 Q 202.2 76.6, 202.0 76.3 L 202.0 85.7 L 200.6 85.7 L 200.6 74.4 L 202.4 74.4 " fill="#0000FF"/>
<path class="atom-3" d="M 176.2 47.8 Q 176.2 45.1, 177.5 43.6 Q 178.8 42.1, 181.4 42.1 Q 183.9 42.1, 185.2 43.6 Q 186.5 45.1, 186.5 47.8 Q 186.5 50.6, 185.2 52.1 Q 183.8 53.7, 181.4 53.7 Q 178.9 53.7, 177.5 52.1 Q 176.2 50.6, 176.2 47.8 M 181.4 52.4 Q 183.1 52.4, 184.0 51.3 Q 184.9 50.1, 184.9 47.8 Q 184.9 45.6, 184.0 44.5 Q 183.1 43.4, 181.4 43.4 Q 179.6 43.4, 178.7 44.5 Q 177.8 45.6, 177.8 47.8 Q 177.8 50.1, 178.7 51.3 Q 179.6 52.4, 181.4 52.4 " fill="#FF0000"/>
<path class="atom-4" d="M 141.0 54.6 L 144.7 60.5 Q 145.0 61.1, 145.6 62.2 Q 146.2 63.3, 146.2 63.3 L 146.2 54.6 L 147.7 54.6 L 147.7 65.8 L 146.2 65.8 L 142.2 59.3 Q 141.8 58.5, 141.3 57.7 Q 140.8 56.8, 140.6 56.5 L 140.6 65.8 L 139.2 65.8 L 139.2 54.6 L 141.0 54.6 " fill="#0000FF"/>
<path class="atom-6" d="M 106.2 123.6 Q 106.2 120.9, 107.5 119.4 Q 108.8 117.9, 111.3 117.9 Q 113.8 117.9, 115.2 119.4 Q 116.5 120.9, 116.5 123.6 Q 116.5 126.4, 115.2 127.9 Q 113.8 129.5, 111.3 129.5 Q 108.9 129.5, 107.5 127.9 Q 106.2 126.4, 106.2 123.6 M 111.3 128.2 Q 113.1 128.2, 114.0 127.0 Q 114.9 125.9, 114.9 123.6 Q 114.9 121.4, 114.0 120.3 Q 113.1 119.1, 111.3 119.1 Q 109.6 119.1, 108.7 120.3 Q 107.8 121.4, 107.8 123.6 Q 107.8 125.9, 108.7 127.0 Q 109.6 128.2, 111.3 128.2 " fill="#FF0000"/>
<path class="atom-8" d="M 37.5 131.0 Q 37.5 128.3, 38.8 126.7 Q 40.2 125.2, 42.7 125.2 Q 45.2 125.2, 46.5 126.7 Q 47.9 128.3, 47.9 131.0 Q 47.9 133.7, 46.5 135.3 Q 45.2 136.8, 42.7 136.8 Q 40.2 136.8, 38.8 135.3 Q 37.5 133.7, 37.5 131.0 M 42.7 135.6 Q 44.4 135.6, 45.3 134.4 Q 46.3 133.2, 46.3 131.0 Q 46.3 128.8, 45.3 127.6 Q 44.4 126.5, 42.7 126.5 Q 41.0 126.5, 40.0 127.6 Q 39.1 128.7, 39.1 131.0 Q 39.1 133.3, 40.0 134.4 Q 41.0 135.6, 42.7 135.6 " fill="#FF0000"/>
<path class="atom-9" d="M 162.9 174.2 L 164.4 174.2 L 164.4 179.0 L 170.2 179.0 L 170.2 174.2 L 171.7 174.2 L 171.7 185.5 L 170.2 185.5 L 170.2 180.3 L 164.4 180.3 L 164.4 185.5 L 162.9 185.5 L 162.9 174.2 " fill="#000000"/>
<path class="atom-10" d="M 66.2 62.2 L 67.7 62.2 L 67.7 67.0 L 73.5 67.0 L 73.5 62.2 L 75.1 62.2 L 75.1 73.4 L 73.5 73.4 L 73.5 68.2 L 67.7 68.2 L 67.7 73.4 L 66.2 73.4 L 66.2 62.2 " fill="#000000"/>
<path class="note" d="M 206.9 155.9 Q 205.9 155.9, 205.3 155.1 Q 204.8 154.3, 204.8 153.0 Q 204.8 151.6, 205.3 150.8 Q 205.9 150.1, 206.9 150.1 Q 207.9 150.1, 208.5 150.8 Q 209.0 151.6, 209.0 153.0 Q 209.0 154.3, 208.4 155.1 Q 207.9 155.9, 206.9 155.9 M 206.9 155.2 Q 207.5 155.2, 207.8 154.7 Q 208.2 154.1, 208.2 153.0 Q 208.2 151.9, 207.8 151.3 Q 207.5 150.7, 206.9 150.7 Q 206.3 150.7, 206.0 151.3 Q 205.6 151.9, 205.6 153.0 Q 205.6 154.1, 206.0 154.7 Q 206.3 155.2, 206.9 155.2 " fill="#000000"/>
<path class="note" d="M 186.7 115.5 L 187.9 115.5 L 187.9 111.3 L 186.5 111.7 L 186.4 111.3 L 188.1 110.5 L 188.6 110.6 L 188.6 115.5 L 189.8 115.5 L 189.8 116.2 L 186.7 116.2 L 186.7 115.5 " fill="#000000"/>
<path class="note" d="M 216.3 78.3 Q 216.5 77.7, 217.0 77.4 Q 217.5 77.1, 218.1 77.1 Q 219.0 77.1, 219.5 77.6 Q 220.0 78.0, 220.0 78.9 Q 220.0 79.7, 219.3 80.5 Q 218.7 81.3, 217.4 82.2 L 220.0 82.2 L 220.0 82.8 L 216.2 82.8 L 216.2 82.3 Q 217.3 81.5, 217.9 81.0 Q 218.5 80.4, 218.9 79.9 Q 219.2 79.4, 219.2 78.9 Q 219.2 78.4, 218.9 78.1 Q 218.6 77.8, 218.1 77.8 Q 217.7 77.8, 217.4 77.9 Q 217.1 78.1, 216.9 78.5 L 216.3 78.3 " fill="#000000"/>
<path class="note" d="M 186.2 35.0 Q 186.8 35.2, 187.1 35.6 Q 187.3 35.9, 187.3 36.5 Q 187.3 36.9, 187.1 37.3 Q 186.9 37.7, 186.4 37.9 Q 186.0 38.1, 185.4 38.1 Q 184.8 38.1, 184.3 37.9 Q 183.9 37.7, 183.5 37.2 L 184.0 36.8 Q 184.3 37.2, 184.6 37.3 Q 184.9 37.4, 185.4 37.4 Q 185.9 37.4, 186.2 37.2 Q 186.5 36.9, 186.5 36.5 Q 186.5 35.9, 186.2 35.6 Q 185.9 35.4, 185.2 35.4 L 184.8 35.4 L 184.8 34.8 L 185.1 34.8 Q 185.8 34.8, 186.1 34.5 Q 186.4 34.2, 186.4 33.7 Q 186.4 33.4, 186.1 33.2 Q 185.9 32.9, 185.4 32.9 Q 184.9 32.9, 184.6 33.1 Q 184.4 33.3, 184.1 33.7 L 183.6 33.4 Q 183.8 32.9, 184.3 32.6 Q 184.7 32.3, 185.4 32.3 Q 186.2 32.3, 186.7 32.7 Q 187.2 33.1, 187.2 33.7 Q 187.2 34.2, 187.0 34.5 Q 186.7 34.9, 186.2 35.0 " fill="#000000"/>
<path class="note" d="M 134.2 53.3 L 134.9 53.3 L 134.9 53.9 L 134.2 53.9 L 134.2 55.2 L 133.4 55.2 L 133.4 53.9 L 130.5 53.9 L 130.5 53.4 L 133.0 49.6 L 134.2 49.6 L 134.2 53.3 M 131.4 53.3 L 133.4 53.3 L 133.4 50.1 L 131.4 53.3 " fill="#000000"/>
<path class="note" d="M 137.8 96.4 Q 138.3 96.4, 138.7 96.6 Q 139.1 96.8, 139.3 97.2 Q 139.5 97.6, 139.5 98.1 Q 139.5 98.7, 139.2 99.1 Q 139.0 99.5, 138.5 99.7 Q 138.0 100.0, 137.5 100.0 Q 137.0 100.0, 136.5 99.8 Q 136.0 99.6, 135.7 99.2 L 136.2 98.7 Q 136.5 99.0, 136.8 99.2 Q 137.2 99.3, 137.5 99.3 Q 138.0 99.3, 138.4 99.0 Q 138.7 98.7, 138.7 98.1 Q 138.7 97.5, 138.4 97.2 Q 138.0 97.0, 137.5 97.0 Q 137.0 97.0, 136.4 97.2 L 136.0 97.0 L 136.3 94.2 L 139.2 94.2 L 139.1 94.9 L 136.9 94.9 L 136.8 96.6 Q 137.3 96.4, 137.8 96.4 " fill="#000000"/>
<path class="note" d="M 113.0 136.1 Q 113.5 136.1, 113.9 136.3 Q 114.3 136.6, 114.5 136.9 Q 114.7 137.3, 114.7 137.8 Q 114.7 138.4, 114.5 138.8 Q 114.2 139.2, 113.8 139.5 Q 113.4 139.7, 112.8 139.7 Q 111.8 139.7, 111.3 139.0 Q 110.8 138.3, 110.8 137.0 Q 110.8 135.5, 111.4 134.7 Q 112.1 133.9, 113.3 133.9 Q 113.6 133.9, 113.9 134.0 Q 114.2 134.1, 114.5 134.3 L 114.2 134.8 Q 113.8 134.6, 113.3 134.6 Q 112.5 134.6, 112.1 135.1 Q 111.7 135.6, 111.6 136.7 Q 111.9 136.4, 112.3 136.3 Q 112.6 136.1, 113.0 136.1 M 112.8 139.1 Q 113.1 139.1, 113.4 138.9 Q 113.6 138.7, 113.8 138.5 Q 113.9 138.2, 113.9 137.8 Q 113.9 137.3, 113.6 137.0 Q 113.4 136.8, 112.9 136.8 Q 112.5 136.8, 112.2 136.9 Q 111.8 137.0, 111.6 137.3 Q 111.6 138.2, 111.9 138.6 Q 112.2 139.1, 112.8 139.1 " fill="#000000"/>
<path class="note" d="M 81.3 101.3 L 78.4 101.3 L 78.4 100.7 L 82.1 100.7 L 82.1 101.3 L 79.8 106.3 L 79.1 106.3 L 81.3 101.3 " fill="#000000"/>
<path class="note" d="M 32.8 138.6 Q 33.4 138.9, 33.6 139.2 Q 33.9 139.5, 33.9 140.1 Q 33.9 140.6, 33.7 140.9 Q 33.4 141.3, 33.0 141.5 Q 32.6 141.7, 32.0 141.7 Q 31.0 141.7, 30.5 141.3 Q 30.0 140.8, 30.0 140.1 Q 30.0 139.6, 30.2 139.3 Q 30.4 138.9, 30.9 138.7 Q 30.6 138.5, 30.4 138.2 Q 30.2 137.8, 30.2 137.4 Q 30.2 136.7, 30.6 136.3 Q 31.1 135.9, 31.9 135.9 Q 32.8 135.9, 33.2 136.3 Q 33.7 136.7, 33.7 137.4 Q 33.7 137.8, 33.5 138.1 Q 33.3 138.4, 32.8 138.6 M 31.9 136.5 Q 31.5 136.5, 31.2 136.7 Q 31.0 137.0, 31.0 137.4 Q 31.0 137.7, 31.1 137.9 Q 31.3 138.1, 31.6 138.2 Q 31.8 138.3, 32.3 138.4 Q 32.6 138.2, 32.8 137.9 Q 32.9 137.7, 32.9 137.4 Q 32.9 137.0, 32.7 136.7 Q 32.4 136.5, 31.9 136.5 M 32.0 141.1 Q 32.5 141.1, 32.8 140.8 Q 33.1 140.5, 33.1 140.1 Q 33.1 139.8, 33.0 139.6 Q 32.8 139.4, 32.6 139.3 Q 32.3 139.2, 31.9 139.0 L 31.5 138.9 Q 31.1 139.1, 30.9 139.4 Q 30.8 139.7, 30.8 140.1 Q 30.8 140.5, 31.1 140.8 Q 31.4 141.1, 32.0 141.1 " fill="#000000"/>
<path class="note" d="M 158.3 186.9 Q 159.4 186.9, 159.9 187.6 Q 160.4 188.3, 160.4 189.6 Q 160.4 191.1, 159.7 191.9 Q 159.1 192.7, 157.9 192.7 Q 157.6 192.7, 157.3 192.6 Q 157.0 192.5, 156.7 192.4 L 157.0 191.8 Q 157.4 192.1, 157.9 192.1 Q 158.7 192.1, 159.1 191.6 Q 159.5 191.0, 159.6 190.0 Q 159.3 190.2, 158.9 190.4 Q 158.5 190.5, 158.2 190.5 Q 157.7 190.5, 157.3 190.3 Q 156.9 190.1, 156.7 189.7 Q 156.5 189.3, 156.5 188.8 Q 156.5 188.3, 156.7 187.8 Q 156.9 187.4, 157.4 187.2 Q 157.8 186.9, 158.3 186.9 M 157.2 188.8 Q 157.2 189.3, 157.5 189.6 Q 157.8 189.9, 158.3 189.9 Q 158.6 189.9, 159.0 189.7 Q 159.3 189.6, 159.6 189.4 Q 159.5 188.4, 159.2 188.0 Q 158.9 187.6, 158.3 187.6 Q 158.0 187.6, 157.8 187.7 Q 157.5 187.9, 157.4 188.2 Q 157.2 188.5, 157.2 188.8 " fill="#000000"/>
<path class="note" d="M 65.6 56.8 L 66.8 56.8 L 66.8 52.6 L 65.5 53.0 L 65.3 52.5 L 67.0 51.8 L 67.6 51.9 L 67.6 56.8 L 68.7 56.8 L 68.7 57.4 L 65.6 57.4 L 65.6 56.8 " fill="#000000"/>
<path class="note" d="M 71.1 57.5 Q 70.0 57.5, 69.5 56.7 Q 69.0 56.0, 69.0 54.6 Q 69.0 53.2, 69.5 52.5 Q 70.0 51.7, 71.1 51.7 Q 72.1 51.7, 72.6 52.5 Q 73.2 53.2, 73.2 54.6 Q 73.2 56.0, 72.6 56.7 Q 72.1 57.5, 71.1 57.5 M 71.1 56.9 Q 71.7 56.9, 72.0 56.3 Q 72.4 55.7, 72.4 54.6 Q 72.4 53.5, 72.0 52.9 Q 71.7 52.4, 71.1 52.4 Q 70.5 52.4, 70.1 52.9 Q 69.8 53.5, 69.8 54.6 Q 69.8 55.7, 70.1 56.3 Q 70.5 56.9, 71.1 56.9 " fill="#000000"/>
<path class="legend" d="M 71.7 238.9 L 74.2 238.9 L 74.2 230.5 L 71.5 231.3 L 71.1 230.4 L 74.6 228.8 L 75.7 229.0 L 75.7 238.9 L 77.9 238.9 L 77.9 240.2 L 71.7 240.2 L 71.7 238.9 " fill="#000000"/>
<path class="legend" d="M 84.0 234.2 Q 85.1 234.6, 85.7 235.3 Q 86.2 236.0, 86.2 237.1 Q 86.2 238.1, 85.7 238.8 Q 85.3 239.5, 84.4 240.0 Q 83.5 240.4, 82.3 240.4 Q 81.1 240.4, 80.2 239.9 Q 79.3 239.5, 78.6 238.6 L 79.5 237.7 Q 80.2 238.5, 80.8 238.8 Q 81.4 239.1, 82.3 239.1 Q 83.4 239.1, 84.0 238.5 Q 84.6 238.0, 84.6 237.1 Q 84.6 235.9, 84.0 235.4 Q 83.3 234.9, 81.9 234.9 L 81.1 234.9 L 81.1 233.7 L 81.8 233.7 Q 83.1 233.7, 83.7 233.2 Q 84.4 232.6, 84.4 231.6 Q 84.4 230.9, 83.8 230.5 Q 83.3 230.0, 82.4 230.0 Q 81.4 230.0, 80.8 230.4 Q 80.2 230.7, 79.8 231.5 L 78.7 231.0 Q 79.1 230.0, 80.1 229.4 Q 81.0 228.7, 82.4 228.7 Q 84.0 228.7, 85.0 229.5 Q 86.0 230.3, 86.0 231.6 Q 86.0 232.6, 85.5 233.2 Q 85.0 233.9, 84.0 234.2 " fill="#000000"/>
<path class="legend" d="M 87.8 238.9 L 90.3 238.9 L 90.3 230.5 L 87.5 231.3 L 87.2 230.4 L 90.6 228.8 L 91.8 229.0 L 91.8 238.9 L 94.0 238.9 L 94.0 240.2 L 87.8 240.2 L 87.8 238.9 " fill="#000000"/>
<path class="legend" d="M 102.0 236.3 L 103.4 236.3 L 103.4 237.6 L 102.0 237.6 L 102.0 240.2 L 100.5 240.2 L 100.5 237.6 L 94.7 237.6 L 94.7 236.6 L 99.6 228.9 L 102.0 228.9 L 102.0 236.3 M 96.5 236.3 L 100.5 236.3 L 100.5 229.9 L 96.5 236.3 " fill="#000000"/>
<path class="legend" d="M 108.6 233.1 Q 109.6 233.1, 110.4 233.6 Q 111.2 234.0, 111.6 234.8 Q 112.0 235.6, 112.0 236.6 Q 112.0 237.7, 111.5 238.5 Q 111.0 239.4, 110.2 239.8 Q 109.3 240.3, 108.2 240.3 Q 106.2 240.3, 105.2 239.0 Q 104.2 237.6, 104.2 234.9 Q 104.2 231.9, 105.4 230.3 Q 106.7 228.7, 109.1 228.7 Q 109.8 228.7, 110.4 228.9 Q 111.0 229.1, 111.6 229.4 L 110.9 230.5 Q 110.1 230.0, 109.1 230.0 Q 107.5 230.0, 106.7 231.1 Q 105.9 232.1, 105.8 234.2 Q 106.4 233.7, 107.1 233.4 Q 107.8 233.1, 108.6 233.1 M 108.2 239.0 Q 108.8 239.0, 109.3 238.7 Q 109.8 238.4, 110.1 237.8 Q 110.4 237.3, 110.4 236.6 Q 110.4 235.6, 109.9 235.0 Q 109.3 234.4, 108.3 234.4 Q 107.6 234.4, 106.9 234.7 Q 106.3 235.0, 105.8 235.4 Q 105.8 237.3, 106.4 238.2 Q 107.0 239.0, 108.2 239.0 " fill="#000000"/>
<path class="legend" d="M 112.9 231.0 Q 113.3 229.9, 114.3 229.4 Q 115.3 228.7, 116.7 228.7 Q 118.4 228.7, 119.4 229.7 Q 120.3 230.6, 120.3 232.2 Q 120.3 233.9, 119.1 235.5 Q 117.9 237.1, 115.3 238.9 L 120.5 238.9 L 120.5 240.2 L 112.9 240.2 L 112.9 239.1 Q 115.0 237.6, 116.3 236.5 Q 117.5 235.4, 118.1 234.4 Q 118.7 233.4, 118.7 232.3 Q 118.7 231.2, 118.2 230.6 Q 117.7 230.0, 116.7 230.0 Q 115.8 230.0, 115.2 230.4 Q 114.6 230.8, 114.1 231.6 L 112.9 231.0 " fill="#000000"/>
<path class="legend" d="M 129.7 241.0 L 129.7 242.3 L 121.5 242.3 L 121.5 241.0 L 129.7 241.0 " fill="#000000"/>
<path class="legend" d="M 135.4 234.2 Q 136.5 234.6, 137.1 235.3 Q 137.7 236.0, 137.7 237.1 Q 137.7 238.1, 137.2 238.8 Q 136.7 239.5, 135.8 240.0 Q 134.9 240.4, 133.7 240.4 Q 131.8 240.4, 130.7 239.5 Q 129.7 238.6, 129.7 237.1 Q 129.7 236.2, 130.1 235.5 Q 130.6 234.8, 131.6 234.2 Q 130.9 233.8, 130.5 233.2 Q 130.1 232.6, 130.1 231.6 Q 130.1 230.3, 131.0 229.5 Q 132.0 228.7, 133.7 228.7 Q 135.3 228.7, 136.3 229.5 Q 137.2 230.3, 137.2 231.6 Q 137.2 232.5, 136.8 233.1 Q 136.3 233.7, 135.4 234.2 M 133.7 229.9 Q 132.7 229.9, 132.2 230.4 Q 131.7 230.8, 131.7 231.6 Q 131.7 232.2, 132.0 232.6 Q 132.4 233.0, 132.9 233.2 Q 133.4 233.5, 134.4 233.8 Q 135.0 233.3, 135.3 232.8 Q 135.6 232.3, 135.6 231.6 Q 135.6 230.8, 135.1 230.4 Q 134.6 229.9, 133.7 229.9 M 133.7 239.2 Q 134.8 239.2, 135.4 238.6 Q 136.1 238.0, 136.1 237.1 Q 136.1 236.5, 135.7 236.1 Q 135.4 235.7, 134.9 235.5 Q 134.4 235.3, 133.5 235.0 L 132.8 234.7 Q 132.0 235.2, 131.6 235.8 Q 131.3 236.3, 131.3 237.1 Q 131.3 238.0, 131.9 238.6 Q 132.6 239.2, 133.7 239.2 " fill="#000000"/>
<path class="legend" d="" fill="#000000"/>
<path class="legend" d="M 144.0 235.6 Q 144.0 233.3, 144.7 231.5 Q 145.3 229.6, 146.6 227.5 L 147.5 228.1 Q 146.5 230.0, 145.9 231.7 Q 145.4 233.4, 145.4 235.6 Q 145.4 237.8, 145.9 239.5 Q 146.5 241.2, 147.5 243.2 L 146.6 243.8 Q 145.3 241.7, 144.7 239.8 Q 144.0 238.0, 144.0 235.6 " fill="#000000"/>
<path class="legend" d="M 153.4 234.2 Q 154.5 234.6, 155.1 235.2 Q 155.6 235.9, 155.6 236.9 Q 155.6 238.4, 154.6 239.3 Q 153.6 240.2, 151.7 240.2 L 147.9 240.2 L 147.9 228.9 L 151.3 228.9 Q 153.2 228.9, 154.2 229.7 Q 155.1 230.4, 155.1 231.9 Q 155.1 233.6, 153.4 234.2 M 149.4 230.2 L 149.4 233.7 L 151.3 233.7 Q 152.4 233.7, 153.0 233.3 Q 153.5 232.8, 153.5 231.9 Q 153.5 230.2, 151.3 230.2 L 149.4 230.2 M 151.7 238.9 Q 152.8 238.9, 153.4 238.4 Q 154.0 237.9, 154.0 236.9 Q 154.0 235.9, 153.4 235.5 Q 152.7 235.0, 151.5 235.0 L 149.4 235.0 L 149.4 238.9 L 151.7 238.9 " fill="#000000"/>
<path class="legend" d="M 156.3 228.1 L 157.8 228.1 L 157.8 240.2 L 156.3 240.2 L 156.3 228.1 " fill="#000000"/>
<path class="legend" d="M 166.2 232.0 L 166.2 240.2 L 165.0 240.2 L 164.8 239.1 Q 163.7 240.3, 162.0 240.3 Q 160.6 240.3, 159.9 239.6 Q 159.2 238.9, 159.2 237.4 L 159.2 232.0 L 160.7 232.0 L 160.7 237.3 Q 160.7 238.3, 161.1 238.7 Q 161.5 239.2, 162.3 239.2 Q 163.0 239.2, 163.7 238.8 Q 164.3 238.5, 164.7 237.9 L 164.7 232.0 L 166.2 232.0 " fill="#000000"/>
<path class="legend" d="M 167.5 236.1 Q 167.5 234.1, 168.5 233.0 Q 169.5 231.8, 171.4 231.8 Q 173.2 231.8, 174.0 232.9 Q 174.8 234.0, 174.8 236.0 L 174.8 236.3 L 169.0 236.3 Q 169.1 237.7, 169.7 238.4 Q 170.3 239.1, 171.5 239.1 Q 172.1 239.1, 172.7 239.0 Q 173.3 238.8, 174.0 238.5 L 174.5 239.5 Q 173.6 240.0, 172.9 240.2 Q 172.2 240.3, 171.4 240.3 Q 169.5 240.3, 168.5 239.2 Q 167.5 238.1, 167.5 236.1 M 171.4 233.0 Q 170.4 233.0, 169.8 233.6 Q 169.3 234.1, 169.1 235.2 L 173.2 235.2 Q 173.1 234.1, 172.6 233.5 Q 172.2 233.0, 171.4 233.0 " fill="#000000"/>
<path class="legend" d="M 178.9 235.6 Q 178.9 238.0, 178.2 239.8 Q 177.6 241.7, 176.3 243.8 L 175.4 243.2 Q 176.4 241.2, 176.9 239.5 Q 177.5 237.8, 177.5 235.6 Q 177.5 233.4, 176.9 231.7 Q 176.4 230.0, 175.4 228.1 L 176.3 227.5 Q 177.6 229.6, 178.2 231.5 Q 178.9 233.3, 178.9 235.6 " fill="#000000"/>
<path class="bond-4 atom-4 atom-5" d="M 327.0,63.3 L 305.8,29.6" style="fill:none;fill-rule:evenodd;stroke:#FF7F7F;stroke-width:8.5px;stroke-linecap:butt;stroke-linejoin:miter;stroke-opacity:1"/>
<ellipse cx="327.0" cy="63.3" rx="8.0" ry="8.0" class="atom-4" style="fill:#FF7F7F;fill-rule:evenodd;stroke:#FF7F7F;stroke-width:1.0px;stroke-linecap:butt;stroke-linejoin:miter;stroke-opacity:1"/>
<ellipse cx="305.8" cy="29.6" rx="8.0" ry="8.2" class="atom-5" style="fill:#FF7F7F;fill-rule:evenodd;stroke:#FF7F7F;stroke-width:1.0px;stroke-linecap:butt;stroke-linejoin:miter;stroke-opacity:1"/>
<path class="bond-0 atom-0 atom-1" d="M 444.8,95.1 L 431.9,105.2" style="fill:none;fill-rule:evenodd;stroke:#000000;stroke-width:2.0px;stroke-linecap:butt;stroke-linejoin:miter;stroke-opacity:1"/>
<path class="bond-0 atom-0 atom-1" d="M 431.9,105.2 L 419.0,115.3" style="fill:none;fill-rule:evenodd;stroke:#0000FF;stroke-width:2.0px;stroke-linecap:butt;stroke-linejoin:miter;stroke-opacity:1"/>
<path class="bond-1 atom-1 atom-2" d="M 407.8,117.4 L 392.1,111.1" style="fill:none;fill-rule:evenodd;stroke:#0000FF;stroke-width:2.0px;stroke-linecap:butt;stroke-linejoin:miter;stroke-opacity:1"/>
<path class="bond-1 atom-1 atom-2" d="M 392.1,111.1 L 376.4,104.8" style="fill:none;fill-rule:evenodd;stroke:#000000;stroke-width:2.0px;stroke-linecap:butt;stroke-linejoin:miter;stroke-opacity:1"/>
<path class="bond-1 atom-1 atom-2" d="M 406.1,108.1 L 395.1,103.7" style="fill:none;fill-rule:evenodd;stroke:#0000FF;stroke-width:2.0px;stroke-linecap:butt;stroke-linejoin:miter;stroke-opacity:1"/>
<path class="bond-1 atom-1 atom-2" d="M 395.1,103.7 L 384.1,99.3" style="fill:none;fill-rule:evenodd;stroke:#000000;stroke-width:2.0px;stroke-linecap:butt;stroke-linejoin:miter;stroke-opacity:1"/>
<path class="bond-2 atom-2 atom-3" d="M 376.4,104.8 L 372.5,89.0" style="fill:none;fill-rule:evenodd;stroke:#000000;stroke-width:2.0px;stroke-linecap:butt;stroke-linejoin:miter;stroke-opacity:1"/>
<path class="bond-2 atom-2 atom-3" d="M 372.5,89.0 L 368.6,73.3" style="fill:none;fill-rule:evenodd;stroke:#FF0000;stroke-width:2.0px;stroke-linecap:butt;stroke-linejoin:miter;stroke-opacity:1"/>
<path class="bond-3 atom-3 atom-4" d="M 360.3,65.6 L 343.6,64.5" style="fill:none;fill-rule:evenodd;stroke:#FF0000;stroke-width:2.0px;stroke-linecap:butt;stroke-linejoin:miter;stroke-opacity:1"/>
<path class="bond-3 atom-3 atom-4" d="M 343.6,64.5 L 327.0,63.3" style="fill:none;fill-rule:evenodd;stroke:#000000;stroke-width:2.0px;stroke-linecap:butt;stroke-linejoin:miter;stroke-opacity:1"/>
<path class="bond-4 atom-4 atom-5" d="M 323.6,65.5 L 315.3,52.2" style="fill:none;fill-rule:evenodd;stroke:#000000;stroke-width:2.0px;stroke-linecap:butt;stroke-linejoin:miter;stroke-opacity:1"/>
<path class="bond-4 atom-4 atom-5" d="M 315.3,52.2 L 307.0,38.9" style="fill:none;fill-rule:evenodd;stroke:#FF0000;stroke-width:2.0px;stroke-linecap:butt;stroke-linejoin:miter;stroke-opacity:1"/>
<path class="bond-4 atom-4 atom-5" d="M 330.4,61.2 L 322.0,47.9" style="fill:none;fill-rule:evenodd;stroke:#000000;stroke-width:2.0px;stroke-linecap:butt;stroke-linejoin:miter;stroke-opacity:1"/>
<path class="bond-4 atom-4 atom-5" d="M 322.0,47.9 L 313.7,34.6" style="fill:none;fill-rule:evenodd;stroke:#FF0000;stroke-width:2.0px;stroke-linecap:butt;stroke-linejoin:miter;stroke-opacity:1"/>
<path class="bond-5 atom-4 atom-6" d="M 327.0,63.3 L 312.1,100.3" style="fill:none;fill-rule:evenodd;stroke:#000000;stroke-width:2.0px;stroke-linecap:butt;stroke-linejoin:miter;stroke-opacity:1"/>
<path class="bond-6 atom-6 atom-7" d="M 312.1,100.3 L 342.7,125.9" style="fill:none;fill-rule:evenodd;stroke:#000000;stroke-width:2.0px;stroke-linecap:butt;stroke-linejoin:miter;stroke-opacity:1"/>
<path class="bond-7 atom-7 atom-8" d="M 342.7,125.9 L 352.2,138.1" style="fill:none;fill-rule:evenodd;stroke:#000000;stroke-width:2.0px;stroke-linecap:butt;stroke-linejoin:miter;stroke-opacity:1"/>
<path class="bond-7 atom-7 atom-8" d="M 352.2,138.1 L 361.8,150.4" style="fill:none;fill-rule:evenodd;stroke:#0000FF;stroke-width:2.0px;stroke-linecap:butt;stroke-linejoin:miter;stroke-opacity:1"/>
<path class="bond-8 atom-7 atom-2" d="M 342.7,125.9 L 376.4,104.8" style="fill:none;fill-rule:evenodd;stroke:#000000;stroke-width:2.0px;stroke-linecap:butt;stroke-linejoin:miter;stroke-opacity:1"/>
<path class="bond-9 atom-0 atom-9" d="M 444.8,95.1 L 470.5,75.0" style="fill:none;fill-rule:evenodd;stroke:#000000;stroke-width:2.0px;stroke-linecap:butt;stroke-linejoin:miter;stroke-opacity:1"/>
<path class="bond-10 atom-0 atom-10" d="M 444.8,95.1 L 425.7,70.7" style="fill:none;fill-rule:evenodd;stroke:#000000;stroke-width:2.0px;stroke-linecap:butt;stroke-linejoin:miter;stroke-opacity:1"/>
<path class="bond-11 atom-0 atom-11" d="M 444.8,95.1 L 464.0,119.5" style="fill:none;fill-rule:evenodd;stroke:#000000;stroke-width:2.0px;stroke-linecap:butt;stroke-linejoin:miter;stroke-opacity:1"/>
<path class="bond-12 atom-6 atom-12" d="M 312.1,100.3 L 294.5,126.4" style="fill:none;fill-rule:evenodd;stroke:#000000;stroke-width:2.0px;stroke-linecap:butt;stroke-linejoin:miter;stroke-opacity:1"/>
<path class="bond-13 atom-6 atom-13" d="M 312.1,100.3 L 282.6,84.7" style="fill:none;fill-rule:evenodd;stroke:#000000;stroke-width:2.0px;stroke-linecap:butt;stroke-linejoin:miter;stroke-opacity:1"/>
<path class="bond-14 atom-7 atom-14" d="M 342.7,125.9 L 319.7,148.1" style="fill:none;fill-rule:evenodd;stroke:#000000;stroke-width:2.0px;stroke-linecap:butt;stroke-linejoin:miter;stroke-opacity:1"/>
<path class="bond-15 atom-8 atom-15" d="M 364.4,164.3 L 359.8,175.8" style="fill:none;fill-rule:evenodd;stroke:#0000FF;stroke-width:2.0px;stroke-linecap:butt;stroke-linejoin:miter;stroke-opacity:1"/>
<path class="bond-15 atom-8 atom-15" d="M 359.8,175.8 L 355.1,187.3" style="fill:none;fill-rule:evenodd;stroke:#000000;stroke-width:2.0px;stroke-linecap:butt;stroke-linejoin:miter;stroke-opacity:1"/>
<path class="bond-16 atom-8 atom-16" d="M 372.8,156.5 L 386.9,154.5" style="fill:none;fill-rule:evenodd;stroke:#0000FF;stroke-width:2.0px;stroke-linecap:butt;stroke-linejoin:miter;stroke-opacity:1"/>
<path class="bond-16 atom-8 atom-16" d="M 386.9,154.5 L 401.0,152.5" style="fill:none;fill-rule:evenodd;stroke:#000000;stroke-width:2.0px;stroke-linecap:butt;stroke-linejoin:miter;stroke-opacity:1"/>
<path class="atom-1" d="M 410.9 114.0 L 414.6 120.0 Q 415.0 120.6, 415.6 121.7 Q 416.2 122.7, 416.2 122.8 L 416.2 114.0 L 417.7 114.0 L 417.7 125.3 L 416.2 125.3 L 412.2 118.8 Q 411.7 118.0, 411.2 117.1 Q 410.8 116.2, 410.6 116.0 L 410.6 125.3 L 409.1 125.3 L 409.1 114.0 L 410.9 114.0 " fill="#0000FF"/>
<path class="atom-3" d="M 361.6 66.1 Q 361.6 63.4, 362.9 61.9 Q 364.3 60.4, 366.8 60.4 Q 369.3 60.4, 370.6 61.9 Q 371.9 63.4, 371.9 66.1 Q 371.9 68.9, 370.6 70.4 Q 369.2 72.0, 366.8 72.0 Q 364.3 72.0, 362.9 70.4 Q 361.6 68.9, 361.6 66.1 M 366.8 70.7 Q 368.5 70.7, 369.4 69.5 Q 370.4 68.4, 370.4 66.1 Q 370.4 63.9, 369.4 62.8 Q 368.5 61.7, 366.8 61.7 Q 365.0 61.7, 364.1 62.8 Q 363.2 63.9, 363.2 66.1 Q 363.2 68.4, 364.1 69.5 Q 365.0 70.7, 366.8 70.7 " fill="#FF0000"/>
<path class="atom-5" d="M 300.6 29.6 Q 300.6 26.9, 302.0 25.4 Q 303.3 23.8, 305.8 23.8 Q 308.3 23.8, 309.7 25.4 Q 311.0 26.9, 311.0 29.6 Q 311.0 32.3, 309.7 33.9 Q 308.3 35.4, 305.8 35.4 Q 303.3 35.4, 302.0 33.9 Q 300.6 32.3, 300.6 29.6 M 305.8 34.2 Q 307.6 34.2, 308.5 33.0 Q 309.4 31.9, 309.4 29.6 Q 309.4 27.4, 308.5 26.3 Q 307.6 25.1, 305.8 25.1 Q 304.1 25.1, 303.2 26.2 Q 302.2 27.4, 302.2 29.6 Q 302.2 31.9, 303.2 33.0 Q 304.1 34.2, 305.8 34.2 " fill="#FF0000"/>
<path class="atom-8" d="M 364.7 151.7 L 368.4 157.7 Q 368.8 158.2, 369.4 159.3 Q 370.0 160.4, 370.0 160.4 L 370.0 151.7 L 371.5 151.7 L 371.5 163.0 L 370.0 163.0 L 366.0 156.4 Q 365.5 155.7, 365.0 154.8 Q 364.6 153.9, 364.4 153.6 L 364.4 163.0 L 363.0 163.0 L 363.0 151.7 L 364.7 151.7 " fill="#0000FF"/>
<path class="atom-9" d="M 471.8 64.9 L 473.3 64.9 L 473.3 69.7 L 479.1 69.7 L 479.1 64.9 L 480.6 64.9 L 480.6 76.2 L 479.1 76.2 L 479.1 70.9 L 473.3 70.9 L 473.3 76.2 L 471.8 76.2 L 471.8 64.9 " fill="#000000"/>
<path class="atom-10" d="M 415.8 58.0 L 417.4 58.0 L 417.4 62.8 L 423.1 62.8 L 423.1 58.0 L 424.7 58.0 L 424.7 69.3 L 423.1 69.3 L 423.1 64.1 L 417.4 64.1 L 417.4 69.3 L 415.8 69.3 L 415.8 58.0 " fill="#000000"/>
<path class="atom-11" d="M 465.0 120.8 L 466.5 120.8 L 466.5 125.6 L 472.3 125.6 L 472.3 120.8 L 473.8 120.8 L 473.8 132.1 L 472.3 132.1 L 472.3 126.9 L 466.5 126.9 L 466.5 132.1 L 465.0 132.1 L 465.0 120.8 " fill="#000000"/>
<path class="atom-12" d="M 285.4 127.8 L 286.9 127.8 L 286.9 132.6 L 292.7 132.6 L 292.7 127.8 L 294.2 127.8 L 294.2 139.0 L 292.7 139.0 L 292.7 133.8 L 286.9 133.8 L 286.9 139.0 L 285.4 139.0 L 285.4 127.8 " fill="#000000"/>
<path class="atom-13" d="M 272.5 76.0 L 274.0 76.0 L 274.0 80.8 L 279.8 80.8 L 279.8 76.0 L 281.3 76.0 L 281.3 87.3 L 279.8 87.3 L 279.8 82.1 L 274.0 82.1 L 274.0 87.3 L 272.5 87.3 L 272.5 76.0 " fill="#000000"/>
<path class="atom-14" d="M 309.6 148.0 L 311.1 148.0 L 311.1 152.8 L 316.9 152.8 L 316.9 148.0 L 318.4 148.0 L 318.4 159.3 L 316.9 159.3 L 316.9 154.1 L 311.1 154.1 L 311.1 159.3 L 309.6 159.3 L 309.6 148.0 " fill="#000000"/>
<path class="atom-15" d="M 347.9 188.7 L 349.5 188.7 L 349.5 193.5 L 355.2 193.5 L 355.2 188.7 L 356.8 188.7 L 356.8 199.9 L 355.2 199.9 L 355.2 194.7 L 349.5 194.7 L 349.5 199.9 L 347.9 199.9 L 347.9 188.7 " fill="#000000"/>
<path class="atom-16" d="M 402.3 146.1 L 403.8 146.1 L 403.8 150.9 L 409.6 150.9 L 409.6 146.1 L 411.1 146.1 L 411.1 157.4 L 409.6 157.4 L 409.6 152.2 L 403.8 152.2 L 403.8 157.4 L 402.3 157.4 L 402.3 146.1 " fill="#000000"/>
<path class="note" d="M 431.6 96.4 Q 430.6 96.4, 430.1 95.6 Q 429.6 94.9, 429.6 93.5 Q 429.6 92.1, 430.1 91.4 Q 430.6 90.6, 431.6 90.6 Q 432.7 90.6, 433.2 91.4 Q 433.7 92.1, 433.7 93.5 Q 433.7 94.9, 433.2 95.6 Q 432.7 96.4, 431.6 96.4 M 431.6 95.8 Q 432.2 95.8, 432.6 95.2 Q 432.9 94.6, 432.9 93.5 Q 432.9 92.4, 432.6 91.8 Q 432.2 91.3, 431.6 91.3 Q 431.0 91.3, 430.7 91.8 Q 430.4 92.4, 430.4 93.5 Q 430.4 94.6, 430.7 95.2 Q 431.0 95.8, 431.6 95.8 " fill="#000000"/>
<path class="note" d="M 413.9 135.0 L 415.1 135.0 L 415.1 130.8 L 413.8 131.2 L 413.6 130.8 L 415.3 130.0 L 415.9 130.1 L 415.9 135.0 L 417.0 135.0 L 417.0 135.7 L 413.9 135.7 L 413.9 135.0 " fill="#000000"/>
<path class="note" d="M 375.8 109.6 Q 376.0 109.0, 376.5 108.7 Q 377.0 108.4, 377.7 108.4 Q 378.6 108.4, 379.1 108.9 Q 379.5 109.4, 379.5 110.2 Q 379.5 111.0, 378.9 111.8 Q 378.3 112.6, 377.0 113.5 L 379.6 113.5 L 379.6 114.1 L 375.8 114.1 L 375.8 113.6 Q 376.9 112.9, 377.5 112.3 Q 378.1 111.7, 378.4 111.2 Q 378.7 110.7, 378.7 110.2 Q 378.7 109.7, 378.5 109.4 Q 378.2 109.1, 377.7 109.1 Q 377.3 109.1, 377.0 109.3 Q 376.7 109.4, 376.4 109.8 L 375.8 109.6 " fill="#000000"/>
<path class="note" d="M 380.1 61.4 Q 380.6 61.6, 380.9 61.9 Q 381.1 62.3, 381.1 62.8 Q 381.1 63.3, 380.9 63.7 Q 380.7 64.1, 380.2 64.3 Q 379.8 64.5, 379.2 64.5 Q 378.6 64.5, 378.2 64.3 Q 377.7 64.0, 377.4 63.6 L 377.8 63.1 Q 378.2 63.5, 378.5 63.7 Q 378.7 63.8, 379.2 63.8 Q 379.7 63.8, 380.0 63.6 Q 380.3 63.3, 380.3 62.8 Q 380.3 62.3, 380.0 62.0 Q 379.7 61.7, 379.0 61.7 L 378.6 61.7 L 378.6 61.2 L 379.0 61.2 Q 379.6 61.2, 379.9 60.9 Q 380.2 60.6, 380.2 60.1 Q 380.2 59.8, 380.0 59.5 Q 379.7 59.3, 379.2 59.3 Q 378.8 59.3, 378.5 59.5 Q 378.2 59.6, 377.9 60.1 L 377.4 59.8 Q 377.6 59.3, 378.1 59.0 Q 378.6 58.7, 379.2 58.7 Q 380.1 58.7, 380.5 59.1 Q 381.0 59.5, 381.0 60.1 Q 381.0 60.6, 380.8 60.9 Q 380.5 61.2, 380.1 61.4 " fill="#000000"/>
<path class="note" d="M 331.7 70.0 L 332.4 70.0 L 332.4 70.7 L 331.7 70.7 L 331.7 72.0 L 331.0 72.0 L 331.0 70.7 L 328.0 70.7 L 328.0 70.2 L 330.5 66.3 L 331.7 66.3 L 331.7 70.0 M 329.0 70.0 L 331.0 70.0 L 331.0 66.8 L 329.0 70.0 " fill="#000000"/>
<path class="note" d="M 298.9 17.6 Q 299.4 17.6, 299.8 17.8 Q 300.2 18.0, 300.5 18.4 Q 300.7 18.8, 300.7 19.3 Q 300.7 19.9, 300.4 20.3 Q 300.1 20.8, 299.7 21.0 Q 299.2 21.2, 298.7 21.2 Q 298.1 21.2, 297.7 21.0 Q 297.2 20.8, 296.9 20.4 L 297.3 19.9 Q 297.6 20.2, 298.0 20.4 Q 298.3 20.5, 298.7 20.5 Q 299.2 20.5, 299.5 20.2 Q 299.9 19.9, 299.9 19.3 Q 299.9 18.7, 299.5 18.5 Q 299.2 18.2, 298.6 18.2 Q 298.1 18.2, 297.6 18.4 L 297.2 18.2 L 297.4 15.5 L 300.3 15.5 L 300.3 16.1 L 298.1 16.1 L 297.9 17.8 Q 298.4 17.6, 298.9 17.6 " fill="#000000"/>
<path class="note" d="M 318.8 98.0 Q 319.3 98.0, 319.7 98.3 Q 320.1 98.5, 320.3 98.9 Q 320.5 99.3, 320.5 99.8 Q 320.5 100.3, 320.2 100.7 Q 320.0 101.2, 319.6 101.4 Q 319.1 101.6, 318.6 101.6 Q 317.6 101.6, 317.1 101.0 Q 316.6 100.3, 316.6 98.9 Q 316.6 97.4, 317.2 96.6 Q 317.8 95.9, 319.0 95.9 Q 319.4 95.9, 319.7 95.9 Q 320.0 96.0, 320.3 96.2 L 320.0 96.7 Q 319.5 96.5, 319.0 96.5 Q 318.2 96.5, 317.8 97.0 Q 317.4 97.5, 317.4 98.6 Q 317.7 98.3, 318.0 98.2 Q 318.4 98.0, 318.8 98.0 M 318.6 101.0 Q 318.9 101.0, 319.2 100.8 Q 319.4 100.7, 319.6 100.4 Q 319.7 100.1, 319.7 99.8 Q 319.7 99.3, 319.4 99.0 Q 319.1 98.7, 318.6 98.7 Q 318.3 98.7, 318.0 98.8 Q 317.6 99.0, 317.4 99.2 Q 317.4 100.1, 317.7 100.6 Q 318.0 101.0, 318.6 101.0 " fill="#000000"/>
<path class="note" d="M 330.9 127.0 L 327.9 127.0 L 327.9 126.3 L 331.6 126.3 L 331.6 126.9 L 329.4 132.0 L 328.6 132.0 L 330.9 127.0 " fill="#000000"/>
<path class="note" d="M 355.0 159.0 Q 355.5 159.3, 355.8 159.6 Q 356.1 159.9, 356.1 160.5 Q 356.1 161.0, 355.8 161.3 Q 355.6 161.7, 355.1 161.9 Q 354.7 162.1, 354.1 162.1 Q 353.2 162.1, 352.6 161.7 Q 352.1 161.2, 352.1 160.5 Q 352.1 160.0, 352.3 159.7 Q 352.6 159.3, 353.1 159.1 Q 352.7 158.9, 352.5 158.6 Q 352.3 158.2, 352.3 157.8 Q 352.3 157.1, 352.8 156.7 Q 353.3 156.3, 354.1 156.3 Q 354.9 156.3, 355.4 156.7 Q 355.9 157.1, 355.9 157.8 Q 355.9 158.2, 355.6 158.5 Q 355.4 158.8, 355.0 159.0 M 354.1 156.9 Q 353.6 156.9, 353.3 157.1 Q 353.1 157.4, 353.1 157.8 Q 353.1 158.1, 353.3 158.3 Q 353.4 158.5, 353.7 158.6 Q 353.9 158.7, 354.4 158.8 Q 354.8 158.6, 354.9 158.4 Q 355.1 158.1, 355.1 157.8 Q 355.1 157.4, 354.8 157.1 Q 354.5 156.9, 354.1 156.9 M 354.1 161.5 Q 354.6 161.5, 355.0 161.2 Q 355.3 161.0, 355.3 160.5 Q 355.3 160.2, 355.1 160.0 Q 354.9 159.8, 354.7 159.7 Q 354.4 159.6, 354.0 159.4 L 353.6 159.3 Q 353.2 159.5, 353.1 159.8 Q 352.9 160.1, 352.9 160.5 Q 352.9 161.0, 353.2 161.2 Q 353.6 161.5, 354.1 161.5 " fill="#000000"/>
<path class="note" d="M 486.6 59.5 Q 487.6 59.5, 488.1 60.1 Q 488.6 60.8, 488.6 62.2 Q 488.6 63.7, 488.0 64.5 Q 487.4 65.2, 486.2 65.2 Q 485.8 65.2, 485.5 65.2 Q 485.2 65.1, 484.9 64.9 L 485.3 64.4 Q 485.7 64.6, 486.2 64.6 Q 487.0 64.6, 487.4 64.1 Q 487.8 63.6, 487.8 62.5 Q 487.5 62.8, 487.2 62.9 Q 486.8 63.0, 486.4 63.0 Q 485.9 63.0, 485.5 62.8 Q 485.2 62.6, 484.9 62.2 Q 484.7 61.8, 484.7 61.3 Q 484.7 60.8, 485.0 60.4 Q 485.2 59.9, 485.6 59.7 Q 486.1 59.5, 486.6 59.5 M 485.5 61.3 Q 485.5 61.8, 485.8 62.1 Q 486.1 62.4, 486.6 62.4 Q 486.9 62.4, 487.2 62.3 Q 487.6 62.1, 487.8 61.9 Q 487.8 61.0, 487.5 60.5 Q 487.2 60.1, 486.6 60.1 Q 486.3 60.1, 486.1 60.3 Q 485.8 60.4, 485.7 60.7 Q 485.5 61.0, 485.5 61.3 " fill="#000000"/>
<path class="note" d="M 414.8 52.7 L 416.0 52.7 L 416.0 48.5 L 414.6 49.0 L 414.4 48.5 L 416.2 47.7 L 416.7 47.8 L 416.7 52.7 L 417.9 52.7 L 417.9 53.4 L 414.8 53.4 L 414.8 52.7 " fill="#000000"/>
<path class="note" d="M 420.3 53.5 Q 419.2 53.5, 418.7 52.7 Q 418.2 51.9, 418.2 50.6 Q 418.2 49.2, 418.7 48.4 Q 419.2 47.7, 420.3 47.7 Q 421.3 47.7, 421.8 48.4 Q 422.3 49.2, 422.3 50.6 Q 422.3 51.9, 421.8 52.7 Q 421.3 53.5, 420.3 53.5 M 420.3 52.8 Q 420.9 52.8, 421.2 52.2 Q 421.5 51.7, 421.5 50.6 Q 421.5 49.4, 421.2 48.9 Q 420.9 48.3, 420.3 48.3 Q 419.6 48.3, 419.3 48.9 Q 419.0 49.4, 419.0 50.6 Q 419.0 51.7, 419.3 52.2 Q 419.6 52.8, 420.3 52.8 " fill="#000000"/>
<path class="note" d="M 468.0 141.8 L 469.2 141.8 L 469.2 137.6 L 467.9 138.0 L 467.7 137.6 L 469.4 136.8 L 470.0 136.9 L 470.0 141.8 L 471.1 141.8 L 471.1 142.5 L 468.0 142.5 L 468.0 141.8 " fill="#000000"/>
<path class="note" d="M 471.7 141.8 L 473.0 141.8 L 473.0 137.6 L 471.6 138.0 L 471.4 137.6 L 473.2 136.8 L 473.7 136.9 L 473.7 141.8 L 474.8 141.8 L 474.8 142.5 L 471.7 142.5 L 471.7 141.8 " fill="#000000"/>
<path class="note" d="M 279.0 146.6 L 280.2 146.6 L 280.2 142.4 L 278.8 142.9 L 278.6 142.4 L 280.4 141.6 L 280.9 141.7 L 280.9 146.6 L 282.0 146.6 L 282.0 147.3 L 279.0 147.3 L 279.0 146.6 " fill="#000000"/>
<path class="note" d="M 282.4 142.7 Q 282.6 142.2, 283.1 141.9 Q 283.6 141.6, 284.3 141.6 Q 285.1 141.6, 285.6 142.0 Q 286.1 142.5, 286.1 143.3 Q 286.1 144.2, 285.5 144.9 Q 284.9 145.7, 283.6 146.6 L 286.2 146.6 L 286.2 147.3 L 282.4 147.3 L 282.4 146.7 Q 283.4 146.0, 284.1 145.4 Q 284.7 144.9, 285.0 144.4 Q 285.3 143.9, 285.3 143.4 Q 285.3 142.8, 285.0 142.5 Q 284.7 142.2, 284.3 142.2 Q 283.8 142.2, 283.5 142.4 Q 283.2 142.6, 283.0 143.0 L 282.4 142.7 " fill="#000000"/>
<path class="note" d="M 261.7 77.6 L 262.9 77.6 L 262.9 73.4 L 261.5 73.8 L 261.4 73.4 L 263.1 72.6 L 263.7 72.7 L 263.7 77.6 L 264.8 77.6 L 264.8 78.3 L 261.7 78.3 L 261.7 77.6 " fill="#000000"/>
<path class="note" d="M 267.8 75.3 Q 268.4 75.5, 268.6 75.8 Q 268.9 76.2, 268.9 76.7 Q 268.9 77.2, 268.7 77.6 Q 268.4 77.9, 268.0 78.2 Q 267.5 78.4, 267.0 78.4 Q 266.4 78.4, 265.9 78.1 Q 265.5 77.9, 265.1 77.5 L 265.6 77.0 Q 265.9 77.4, 266.2 77.6 Q 266.5 77.7, 267.0 77.7 Q 267.5 77.7, 267.8 77.4 Q 268.1 77.2, 268.1 76.7 Q 268.1 76.1, 267.8 75.9 Q 267.5 75.6, 266.8 75.6 L 266.4 75.6 L 266.4 75.1 L 266.7 75.1 Q 267.3 75.0, 267.7 74.8 Q 268.0 74.5, 268.0 74.0 Q 268.0 73.6, 267.7 73.4 Q 267.4 73.2, 267.0 73.2 Q 266.5 73.2, 266.2 73.4 Q 265.9 73.5, 265.7 74.0 L 265.2 73.7 Q 265.4 73.2, 265.8 72.9 Q 266.3 72.6, 267.0 72.6 Q 267.8 72.6, 268.3 73.0 Q 268.8 73.3, 268.8 74.0 Q 268.8 74.5, 268.5 74.8 Q 268.3 75.1, 267.8 75.3 " fill="#000000"/>
<path class="note" d="M 297.4 159.1 L 298.6 159.1 L 298.6 154.9 L 297.3 155.3 L 297.1 154.8 L 298.8 154.0 L 299.4 154.1 L 299.4 159.1 L 300.5 159.1 L 300.5 159.7 L 297.4 159.7 L 297.4 159.1 " fill="#000000"/>
<path class="note" d="M 304.5 157.8 L 305.2 157.8 L 305.2 158.4 L 304.5 158.4 L 304.5 159.7 L 303.7 159.7 L 303.7 158.4 L 300.8 158.4 L 300.8 157.9 L 303.3 154.1 L 304.5 154.1 L 304.5 157.8 M 301.7 157.8 L 303.7 157.8 L 303.7 154.6 L 301.7 157.8 " fill="#000000"/>
<path class="note" d="M 343.9 208.8 L 345.1 208.8 L 345.1 204.6 L 343.8 205.0 L 343.6 204.6 L 345.3 203.8 L 345.9 203.9 L 345.9 208.8 L 347.0 208.8 L 347.0 209.5 L 343.9 209.5 L 343.9 208.8 " fill="#000000"/>
<path class="note" d="M 349.4 205.9 Q 349.9 205.9, 350.3 206.1 Q 350.7 206.4, 350.9 206.8 Q 351.2 207.1, 351.2 207.7 Q 351.2 208.3, 350.9 208.7 Q 350.6 209.1, 350.1 209.3 Q 349.7 209.5, 349.1 209.5 Q 348.6 209.5, 348.1 209.3 Q 347.7 209.1, 347.3 208.8 L 347.8 208.3 Q 348.1 208.6, 348.4 208.7 Q 348.8 208.9, 349.2 208.9 Q 349.7 208.9, 350.0 208.6 Q 350.4 208.3, 350.4 207.7 Q 350.4 207.1, 350.0 206.8 Q 349.7 206.5, 349.1 206.5 Q 348.6 206.5, 348.1 206.7 L 347.6 206.5 L 347.9 203.8 L 350.8 203.8 L 350.7 204.5 L 348.6 204.5 L 348.4 206.1 Q 348.9 205.9, 349.4 205.9 " fill="#000000"/>
<path class="note" d="M 416.4 152.1 L 417.6 152.1 L 417.6 147.9 L 416.2 148.3 L 416.0 147.8 L 417.8 147.0 L 418.3 147.1 L 418.3 152.1 L 419.4 152.1 L 419.4 152.7 L 416.4 152.7 L 416.4 152.1 " fill="#000000"/>
<path class="note" d="M 422.0 149.2 Q 422.5 149.2, 422.9 149.4 Q 423.3 149.6, 423.5 150.0 Q 423.7 150.4, 423.7 150.9 Q 423.7 151.5, 423.5 151.9 Q 423.2 152.3, 422.8 152.5 Q 422.4 152.8, 421.8 152.8 Q 420.8 152.8, 420.3 152.1 Q 419.8 151.4, 419.8 150.1 Q 419.8 148.6, 420.4 147.8 Q 421.0 147.0, 422.2 147.0 Q 422.6 147.0, 422.9 147.1 Q 423.2 147.2, 423.5 147.3 L 423.2 147.9 Q 422.7 147.6, 422.2 147.6 Q 421.5 147.6, 421.0 148.2 Q 420.6 148.7, 420.6 149.7 Q 420.9 149.5, 421.2 149.3 Q 421.6 149.2, 422.0 149.2 M 421.8 152.1 Q 422.1 152.1, 422.4 152.0 Q 422.6 151.8, 422.8 151.5 Q 422.9 151.3, 422.9 150.9 Q 422.9 150.4, 422.6 150.1 Q 422.3 149.8, 421.8 149.8 Q 421.5 149.8, 421.2 150.0 Q 420.8 150.1, 420.6 150.4 Q 420.6 151.3, 420.9 151.7 Q 421.2 152.1, 421.8 152.1 " fill="#000000"/>
<path class="legend" d="M 329.5 228.7 Q 331.6 228.7, 332.6 230.1 Q 333.6 231.5, 333.6 234.2 Q 333.6 237.2, 332.3 238.8 Q 331.1 240.3, 328.7 240.3 Q 328.0 240.3, 327.3 240.2 Q 326.8 240.0, 326.2 239.7 L 326.8 238.6 Q 327.6 239.0, 328.6 239.0 Q 330.2 239.0, 331.1 238.0 Q 331.9 237.0, 332.0 234.9 Q 331.4 235.4, 330.7 235.7 Q 329.9 235.9, 329.2 235.9 Q 328.2 235.9, 327.4 235.5 Q 326.6 235.1, 326.2 234.3 Q 325.7 233.5, 325.7 232.5 Q 325.7 231.4, 326.2 230.6 Q 326.7 229.7, 327.6 229.2 Q 328.4 228.7, 329.5 228.7 M 327.3 232.5 Q 327.3 233.5, 327.9 234.1 Q 328.5 234.7, 329.4 234.7 Q 330.1 234.7, 330.8 234.4 Q 331.5 234.1, 332.0 233.6 Q 331.9 231.8, 331.3 230.9 Q 330.7 230.1, 329.5 230.1 Q 328.9 230.1, 328.4 230.4 Q 327.9 230.7, 327.6 231.3 Q 327.3 231.8, 327.3 232.5 " fill="#000000"/>
<path class="legend" d="M 339.1 233.1 Q 340.1 233.1, 340.9 233.6 Q 341.7 234.0, 342.1 234.8 Q 342.5 235.6, 342.5 236.6 Q 342.5 237.7, 342.0 238.5 Q 341.6 239.4, 340.7 239.8 Q 339.8 240.3, 338.7 240.3 Q 336.7 240.3, 335.7 239.0 Q 334.7 237.6, 334.7 234.9 Q 334.7 231.9, 335.9 230.3 Q 337.2 228.7, 339.6 228.7 Q 340.3 228.7, 340.9 228.9 Q 341.5 229.1, 342.1 229.4 L 341.5 230.5 Q 340.6 230.0, 339.6 230.0 Q 338.0 230.0, 337.2 231.1 Q 336.4 232.1, 336.3 234.2 Q 336.9 233.7, 337.6 233.4 Q 338.3 233.1, 339.1 233.1 M 338.7 239.0 Q 339.3 239.0, 339.8 238.7 Q 340.4 238.4, 340.6 237.8 Q 340.9 237.3, 340.9 236.6 Q 340.9 235.6, 340.4 235.0 Q 339.8 234.4, 338.8 234.4 Q 338.1 234.4, 337.4 234.7 Q 336.8 235.0, 336.3 235.4 Q 336.4 237.3, 336.9 238.2 Q 337.5 239.0, 338.7 239.0 " fill="#000000"/>
<path class="legend" d="M 349.2 234.2 Q 350.2 234.6, 350.8 235.3 Q 351.4 236.0, 351.4 237.1 Q 351.4 238.1, 350.9 238.8 Q 350.4 239.5, 349.5 240.0 Q 348.6 240.4, 347.5 240.4 Q 345.6 240.4, 344.5 239.5 Q 343.4 238.6, 343.4 237.1 Q 343.4 236.2, 343.9 235.5 Q 344.4 234.8, 345.4 234.2 Q 344.6 233.8, 344.2 233.2 Q 343.8 232.6, 343.8 231.6 Q 343.8 230.3, 344.8 229.5 Q 345.8 228.7, 347.4 228.7 Q 349.1 228.7, 350.0 229.5 Q 351.0 230.3, 351.0 231.6 Q 351.0 232.5, 350.5 233.1 Q 350.1 233.7, 349.2 234.2 M 347.4 229.9 Q 346.5 229.9, 345.9 230.4 Q 345.4 230.8, 345.4 231.6 Q 345.4 232.2, 345.8 232.6 Q 346.1 233.0, 346.6 233.2 Q 347.1 233.5, 348.1 233.8 Q 348.8 233.3, 349.1 232.8 Q 349.4 232.3, 349.4 231.6 Q 349.4 230.8, 348.9 230.4 Q 348.4 229.9, 347.4 229.9 M 347.5 239.2 Q 348.5 239.2, 349.2 238.6 Q 349.8 238.0, 349.8 237.1 Q 349.8 236.5, 349.5 236.1 Q 349.1 235.7, 348.6 235.5 Q 348.1 235.3, 347.2 235.0 L 346.5 234.7 Q 345.7 235.2, 345.4 235.8 Q 345.0 236.3, 345.0 237.1 Q 345.0 238.0, 345.7 238.6 Q 346.4 239.2, 347.5 239.2 " fill="#000000"/>
<path class="legend" d="M 353.0 238.9 L 355.5 238.9 L 355.5 230.5 L 352.8 231.3 L 352.4 230.4 L 355.9 228.8 L 357.0 229.0 L 357.0 238.9 L 359.3 238.9 L 359.3 240.2 L 353.0 240.2 L 353.0 238.9 " fill="#000000"/>
<path class="legend" d="M 360.5 238.9 L 363.0 238.9 L 363.0 230.5 L 360.3 231.3 L 359.9 230.4 L 363.4 228.8 L 364.5 229.0 L 364.5 238.9 L 366.8 238.9 L 366.8 240.2 L 360.5 240.2 L 360.5 238.9 " fill="#000000"/>
<path class="legend" d="M 375.6 241.0 L 375.6 242.3 L 367.4 242.3 L 367.4 241.0 L 375.6 241.0 " fill="#000000"/>
<path class="legend" d="M 379.7 233.1 Q 380.7 233.1, 381.5 233.5 Q 382.3 234.0, 382.8 234.8 Q 383.3 235.5, 383.3 236.6 Q 383.3 237.8, 382.7 238.6 Q 382.1 239.5, 381.2 239.9 Q 380.3 240.3, 379.2 240.3 Q 378.2 240.3, 377.2 239.9 Q 376.2 239.6, 375.6 238.8 L 376.5 237.8 Q 377.1 238.4, 377.8 238.7 Q 378.5 239.0, 379.3 239.0 Q 380.3 239.0, 380.9 238.4 Q 381.7 237.8, 381.7 236.6 Q 381.7 235.4, 380.9 234.9 Q 380.3 234.3, 379.2 234.3 Q 378.2 234.3, 377.1 234.7 L 376.2 234.3 L 376.7 228.9 L 382.5 228.9 L 382.4 230.2 L 378.0 230.2 L 377.7 233.5 Q 378.7 233.1, 379.7 233.1 " fill="#000000"/>
<path class="legend" d="" fill="#000000"/>
<path class="legend" d="M 389.4 235.6 Q 389.4 233.3, 390.0 231.5 Q 390.7 229.6, 392.0 227.5 L 392.9 228.1 Q 391.8 230.0, 391.3 231.7 Q 390.8 233.4, 390.8 235.6 Q 390.8 237.8, 391.3 239.5 Q 391.8 241.2, 392.9 243.2 L 392.0 243.8 Q 390.7 241.7, 390.0 239.8 Q 389.4 238.0, 389.4 235.6 " fill="#000000"/>
<path class="legend" d="M 398.8 234.2 Q 399.9 234.6, 400.4 235.2 Q 401.0 235.9, 401.0 236.9 Q 401.0 238.4, 400.0 239.3 Q 399.0 240.2, 397.1 240.2 L 393.3 240.2 L 393.3 228.9 L 396.6 228.9 Q 398.6 228.9, 399.5 229.7 Q 400.5 230.4, 400.5 231.9 Q 400.5 233.6, 398.8 234.2 M 394.8 230.2 L 394.8 233.7 L 396.6 233.7 Q 397.7 233.7, 398.3 233.3 Q 398.9 232.8, 398.9 231.9 Q 398.9 230.2, 396.6 230.2 L 394.8 230.2 M 397.1 238.9 Q 398.2 238.9, 398.8 238.4 Q 399.4 237.9, 399.4 236.9 Q 399.4 235.9, 398.7 235.5 Q 398.1 235.0, 396.8 235.0 L 394.8 235.0 L 394.8 238.9 L 397.1 238.9 " fill="#000000"/>
<path class="legend" d="M 401.7 228.1 L 403.2 228.1 L 403.2 240.2 L 401.7 240.2 L 401.7 228.1 " fill="#000000"/>
<path class="legend" d="M 411.5 232.0 L 411.5 240.2 L 410.3 240.2 L 410.1 239.1 Q 409.1 240.3, 407.4 240.3 Q 406.0 240.3, 405.3 239.6 Q 404.6 238.9, 404.6 237.4 L 404.6 232.0 L 406.1 232.0 L 406.1 237.3 Q 406.1 238.3, 406.4 238.7 Q 406.8 239.2, 407.6 239.2 Q 408.4 239.2, 409.0 238.8 Q 409.6 238.5, 410.0 237.9 L 410.0 232.0 L 411.5 232.0 " fill="#000000"/>
<path class="legend" d="M 412.9 236.1 Q 412.9 234.1, 413.9 233.0 Q 414.9 231.8, 416.7 231.8 Q 418.5 231.8, 419.3 232.9 Q 420.1 234.0, 420.1 236.0 L 420.1 236.3 L 414.4 236.3 Q 414.4 237.7, 415.1 238.4 Q 415.7 239.1, 416.8 239.1 Q 417.5 239.1, 418.1 239.0 Q 418.7 238.8, 419.4 238.5 L 419.8 239.5 Q 419.0 240.0, 418.3 240.2 Q 417.5 240.3, 416.8 240.3 Q 414.9 240.3, 413.9 239.2 Q 412.9 238.1, 412.9 236.1 M 416.7 233.0 Q 415.8 233.0, 415.2 233.6 Q 414.6 234.1, 414.5 235.2 L 418.6 235.2 Q 418.4 234.1, 418.0 233.5 Q 417.5 233.0, 416.7 233.0 " fill="#000000"/>
<path class="legend" d="M 424.3 235.6 Q 424.3 238.0, 423.6 239.8 Q 422.9 241.7, 421.6 243.8 L 420.7 243.2 Q 421.8 241.2, 422.3 239.5 Q 422.8 237.8, 422.8 235.6 Q 422.8 233.4, 422.3 231.7 Q 421.8 230.0, 420.7 228.1 L 421.6 227.5 Q 422.9 229.6, 423.6 231.5 Q 424.3 233.3, 424.3 235.6 " fill="#000000"/>
<path class="bond-4 atom-4 atom-5" d="M 661.9,61.8 L 691.7,35.4" style="fill:none;fill-rule:evenodd;stroke:#FF7F7F;stroke-width:8.5px;stroke-linecap:butt;stroke-linejoin:miter;stroke-opacity:1"/>
<ellipse cx="661.9" cy="61.8" rx="8.0" ry="8.0" class="atom-4" style="fill:#FF7F7F;fill-rule:evenodd;stroke:#FF7F7F;stroke-width:1.0px;stroke-linecap:butt;stroke-linejoin:miter;stroke-opacity:1"/>
<ellipse cx="691.7" cy="35.5" rx="8.0" ry="8.2" class="atom-5" style="fill:#FF7F7F;fill-rule:evenodd;stroke:#FF7F7F;stroke-width:1.0px;stroke-linecap:butt;stroke-linejoin:miter;stroke-opacity:1"/>
<path class="bond-0 atom-0 atom-1" d="M 648.8,152.1 L 629.2,117.4" style="fill:none;fill-rule:evenodd;stroke:#000000;stroke-width:2.0px;stroke-linecap:butt;stroke-linejoin:miter;stroke-opacity:1"/>
<path class="bond-1 atom-1 atom-2" d="M 629.2,117.4 L 596.7,140.6" style="fill:none;fill-rule:evenodd;stroke:#000000;stroke-width:2.0px;stroke-linecap:butt;stroke-linejoin:miter;stroke-opacity:1"/>
<path class="bond-2 atom-1 atom-3" d="M 629.2,117.4 L 665.7,101.5" style="fill:none;fill-rule:evenodd;stroke:#000000;stroke-width:2.0px;stroke-linecap:butt;stroke-linejoin:miter;stroke-opacity:1"/>
<path class="bond-3 atom-3 atom-4" d="M 665.7,101.5 L 661.9,61.8" style="fill:none;fill-rule:evenodd;stroke:#000000;stroke-width:2.0px;stroke-linecap:butt;stroke-linejoin:miter;stroke-opacity:1"/>
<path class="bond-4 atom-4 atom-5" d="M 659.2,58.8 L 670.9,48.5" style="fill:none;fill-rule:evenodd;stroke:#000000;stroke-width:2.0px;stroke-linecap:butt;stroke-linejoin:miter;stroke-opacity:1"/>
<path class="bond-4 atom-4 atom-5" d="M 670.9,48.5 L 682.6,38.1" style="fill:none;fill-rule:evenodd;stroke:#FF0000;stroke-width:2.0px;stroke-linecap:butt;stroke-linejoin:miter;stroke-opacity:1"/>
<path class="bond-4 atom-4 atom-5" d="M 664.5,64.8 L 676.2,54.4" style="fill:none;fill-rule:evenodd;stroke:#000000;stroke-width:2.0px;stroke-linecap:butt;stroke-linejoin:miter;stroke-opacity:1"/>
<path class="bond-4 atom-4 atom-5" d="M 676.2,54.4 L 687.9,44.0" style="fill:none;fill-rule:evenodd;stroke:#FF0000;stroke-width:2.0px;stroke-linecap:butt;stroke-linejoin:miter;stroke-opacity:1"/>
<path class="bond-5 atom-4 atom-6" d="M 661.9,61.8 L 645.6,58.2" style="fill:none;fill-rule:evenodd;stroke:#000000;stroke-width:2.0px;stroke-linecap:butt;stroke-linejoin:miter;stroke-opacity:1"/>
<path class="bond-5 atom-4 atom-6" d="M 645.6,58.2 L 629.4,54.6" style="fill:none;fill-rule:evenodd;stroke:#FF0000;stroke-width:2.0px;stroke-linecap:butt;stroke-linejoin:miter;stroke-opacity:1"/>
<path class="bond-6 atom-6 atom-7" d="M 618.8,60.3 L 610.7,73.9" style="fill:none;fill-rule:evenodd;stroke:#FF0000;stroke-width:2.0px;stroke-linecap:butt;stroke-linejoin:miter;stroke-opacity:1"/>
<path class="bond-6 atom-6 atom-7" d="M 610.7,73.9 L 602.7,87.6" style="fill:none;fill-rule:evenodd;stroke:#000000;stroke-width:2.0px;stroke-linecap:butt;stroke-linejoin:miter;stroke-opacity:1"/>
<path class="bond-7 atom-7 atom-8" d="M 602.7,87.6 L 585.7,89.2" style="fill:none;fill-rule:evenodd;stroke:#000000;stroke-width:2.0px;stroke-linecap:butt;stroke-linejoin:miter;stroke-opacity:1"/>
<path class="bond-7 atom-7 atom-8" d="M 585.7,89.2 L 568.6,90.9" style="fill:none;fill-rule:evenodd;stroke:#0000FF;stroke-width:2.0px;stroke-linecap:butt;stroke-linejoin:miter;stroke-opacity:1"/>
<path class="bond-7 atom-7 atom-8" d="M 596.8,80.1 L 584.9,81.3" style="fill:none;fill-rule:evenodd;stroke:#000000;stroke-width:2.0px;stroke-linecap:butt;stroke-linejoin:miter;stroke-opacity:1"/>
<path class="bond-7 atom-7 atom-8" d="M 584.9,81.3 L 572.9,82.4" style="fill:none;fill-rule:evenodd;stroke:#0000FF;stroke-width:2.0px;stroke-linecap:butt;stroke-linejoin:miter;stroke-opacity:1"/>
<path class="bond-8 atom-7 atom-1" d="M 602.7,87.6 L 629.2,117.4" style="fill:none;fill-rule:evenodd;stroke:#000000;stroke-width:2.0px;stroke-linecap:butt;stroke-linejoin:miter;stroke-opacity:1"/>
<path class="bond-9 atom-0 atom-9" d="M 648.8,152.1 L 664.6,179.9" style="fill:none;fill-rule:evenodd;stroke:#000000;stroke-width:2.0px;stroke-linecap:butt;stroke-linejoin:miter;stroke-opacity:1"/>
<path class="bond-10 atom-0 atom-10" d="M 648.8,152.1 L 680.0,139.2" style="fill:none;fill-rule:evenodd;stroke:#000000;stroke-width:2.0px;stroke-linecap:butt;stroke-linejoin:miter;stroke-opacity:1"/>
<path class="bond-11 atom-0 atom-11" d="M 648.8,152.1 L 637.5,160.5" style="fill:none;fill-rule:evenodd;stroke:#000000;stroke-width:2.0px;stroke-linecap:butt;stroke-linejoin:miter;stroke-opacity:1"/>
<path class="bond-12 atom-2 atom-12" d="M 596.7,140.6 L 570.0,159.7" style="fill:none;fill-rule:evenodd;stroke:#000000;stroke-width:2.0px;stroke-linecap:butt;stroke-linejoin:miter;stroke-opacity:1"/>
<path class="bond-13 atom-2 atom-13" d="M 596.7,140.6 L 603.1,152.3" style="fill:none;fill-rule:evenodd;stroke:#000000;stroke-width:2.0px;stroke-linecap:butt;stroke-linejoin:miter;stroke-opacity:1"/>
<path class="bond-14 atom-2 atom-14" d="M 596.7,140.6 L 572.1,119.5" style="fill:none;fill-rule:evenodd;stroke:#000000;stroke-width:2.0px;stroke-linecap:butt;stroke-linejoin:miter;stroke-opacity:1"/>
<path class="bond-15 atom-3 atom-15" d="M 665.7,101.5 L 699.1,94.7" style="fill:none;fill-rule:evenodd;stroke:#000000;stroke-width:2.0px;stroke-linecap:butt;stroke-linejoin:miter;stroke-opacity:1"/>
<path class="bond-16 atom-3 atom-16" d="M 665.7,101.5 L 679.1,130.9" style="fill:none;fill-rule:evenodd;stroke:#000000;stroke-width:2.0px;stroke-linecap:butt;stroke-linejoin:miter;stroke-opacity:1"/>
<path class="bond-17 atom-8 atom-17" d="M 558.1,84.5 L 551.5,75.2" style="fill:none;fill-rule:evenodd;stroke:#0000FF;stroke-width:2.0px;stroke-linecap:butt;stroke-linejoin:miter;stroke-opacity:1"/>
<path class="bond-17 atom-8 atom-17" d="M 551.5,75.2 L 544.8,65.9" style="fill:none;fill-rule:evenodd;stroke:#000000;stroke-width:2.0px;stroke-linecap:butt;stroke-linejoin:miter;stroke-opacity:1"/>
<path class="atom-5" d="M 686.5 35.4 Q 686.5 32.7, 687.9 31.2 Q 689.2 29.7, 691.7 29.7 Q 694.2 29.7, 695.6 31.2 Q 696.9 32.7, 696.9 35.4 Q 696.9 38.1, 695.5 39.7 Q 694.2 41.3, 691.7 41.3 Q 689.2 41.3, 687.9 39.7 Q 686.5 38.2, 686.5 35.4 M 691.7 40.0 Q 693.4 40.0, 694.4 38.8 Q 695.3 37.7, 695.3 35.4 Q 695.3 33.2, 694.4 32.1 Q 693.4 30.9, 691.7 30.9 Q 690.0 30.9, 689.1 32.1 Q 688.1 33.2, 688.1 35.4 Q 688.1 37.7, 689.1 38.8 Q 690.0 40.0, 691.7 40.0 " fill="#FF0000"/>
<path class="atom-6" d="M 617.8 53.2 Q 617.8 50.5, 619.1 49.0 Q 620.4 47.5, 622.9 47.5 Q 625.5 47.5, 626.8 49.0 Q 628.1 50.5, 628.1 53.2 Q 628.1 56.0, 626.8 57.5 Q 625.4 59.1, 622.9 59.1 Q 620.5 59.1, 619.1 57.5 Q 617.8 56.0, 617.8 53.2 M 622.9 57.8 Q 624.7 57.8, 625.6 56.7 Q 626.5 55.5, 626.5 53.2 Q 626.5 51.0, 625.6 49.9 Q 624.7 48.8, 622.9 48.8 Q 621.2 48.8, 620.3 49.9 Q 619.4 51.0, 619.4 53.2 Q 619.4 55.5, 620.3 56.7 Q 621.2 57.8, 622.9 57.8 " fill="#FF0000"/>
<path class="atom-8" d="M 560.6 85.8 L 564.3 91.7 Q 564.6 92.3, 565.2 93.4 Q 565.8 94.5, 565.8 94.5 L 565.8 85.8 L 567.3 85.8 L 567.3 97.1 L 565.8 97.1 L 561.8 90.5 Q 561.4 89.8, 560.9 88.9 Q 560.4 88.0, 560.2 87.7 L 560.2 97.1 L 558.8 97.1 L 558.8 85.8 L 560.6 85.8 " fill="#0000FF"/>
<path class="atom-9" d="M 664.1 181.1 L 665.6 181.1 L 665.6 185.9 L 671.4 185.9 L 671.4 181.1 L 672.9 181.1 L 672.9 192.4 L 671.4 192.4 L 671.4 187.2 L 665.6 187.2 L 665.6 192.4 L 664.1 192.4 L 664.1 181.1 " fill="#000000"/>
<path class="atom-10" d="M 681.2 131.2 L 682.8 131.2 L 682.8 136.0 L 688.5 136.0 L 688.5 131.2 L 690.1 131.2 L 690.1 142.5 L 688.5 142.5 L 688.5 137.2 L 682.8 137.2 L 682.8 142.5 L 681.2 142.5 L 681.2 131.2 " fill="#000000"/>
<path class="atom-11" d="M 627.4 159.1 L 628.9 159.1 L 628.9 163.9 L 634.7 163.9 L 634.7 159.1 L 636.2 159.1 L 636.2 170.4 L 634.7 170.4 L 634.7 165.1 L 628.9 165.1 L 628.9 170.4 L 627.4 170.4 L 627.4 159.1 " fill="#000000"/>
<path class="atom-12" d="M 559.9 158.1 L 561.4 158.1 L 561.4 162.9 L 567.2 162.9 L 567.2 158.1 L 568.7 158.1 L 568.7 169.4 L 567.2 169.4 L 567.2 164.2 L 561.4 164.2 L 561.4 169.4 L 559.9 169.4 L 559.9 158.1 " fill="#000000"/>
<path class="atom-13" d="M 602.4 153.6 L 604.0 153.6 L 604.0 158.4 L 609.7 158.4 L 609.7 153.6 L 611.3 153.6 L 611.3 164.8 L 609.7 164.8 L 609.7 159.6 L 604.0 159.6 L 604.0 164.8 L 602.4 164.8 L 602.4 153.6 " fill="#000000"/>
<path class="atom-14" d="M 562.0 109.1 L 563.5 109.1 L 563.5 113.9 L 569.3 113.9 L 569.3 109.1 L 570.8 109.1 L 570.8 120.4 L 569.3 120.4 L 569.3 115.1 L 563.5 115.1 L 563.5 120.4 L 562.0 120.4 L 562.0 109.1 " fill="#000000"/>
<path class="atom-15" d="M 700.4 87.9 L 701.9 87.9 L 701.9 92.7 L 707.7 92.7 L 707.7 87.9 L 709.2 87.9 L 709.2 99.2 L 707.7 99.2 L 707.7 93.9 L 701.9 93.9 L 701.9 99.2 L 700.4 99.2 L 700.4 87.9 " fill="#000000"/>
<path class="atom-16" d="M 677.9 132.1 L 679.4 132.1 L 679.4 136.9 L 685.2 136.9 L 685.2 132.1 L 686.7 132.1 L 686.7 143.4 L 685.2 143.4 L 685.2 138.2 L 679.4 138.2 L 679.4 143.4 L 677.9 143.4 L 677.9 132.1 " fill="#000000"/>
<path class="atom-17" d="M 535.5 53.3 L 537.0 53.3 L 537.0 58.1 L 542.8 58.1 L 542.8 53.3 L 544.3 53.3 L 544.3 64.6 L 542.8 64.6 L 542.8 59.4 L 537.0 59.4 L 537.0 64.6 L 535.5 64.6 L 535.5 53.3 " fill="#000000"/>
<path class="note" d="M 651.0 148.7 Q 649.9 148.7, 649.4 148.0 Q 648.9 147.2, 648.9 145.8 Q 648.9 144.5, 649.4 143.7 Q 649.9 143.0, 651.0 143.0 Q 652.0 143.0, 652.5 143.7 Q 653.1 144.5, 653.1 145.8 Q 653.1 147.2, 652.5 148.0 Q 652.0 148.7, 651.0 148.7 M 651.0 148.1 Q 651.6 148.1, 651.9 147.5 Q 652.3 147.0, 652.3 145.8 Q 652.3 144.7, 651.9 144.2 Q 651.6 143.6, 651.0 143.6 Q 650.4 143.6, 650.0 144.2 Q 649.7 144.7, 649.7 145.8 Q 649.7 147.0, 650.0 147.5 Q 650.4 148.1, 651.0 148.1 " fill="#000000"/>
<path class="note" d="M 629.2 113.1 L 630.5 113.1 L 630.5 108.9 L 629.1 109.3 L 628.9 108.9 L 630.6 108.1 L 631.2 108.2 L 631.2 113.1 L 632.3 113.1 L 632.3 113.8 L 629.2 113.8 L 629.2 113.1 " fill="#000000"/>
<path class="note" d="M 601.3 140.4 Q 601.5 139.8, 602.0 139.5 Q 602.5 139.2, 603.2 139.2 Q 604.1 139.2, 604.5 139.7 Q 605.0 140.1, 605.0 141.0 Q 605.0 141.8, 604.4 142.6 Q 603.8 143.4, 602.5 144.3 L 605.1 144.3 L 605.1 144.9 L 601.3 144.9 L 601.3 144.4 Q 602.4 143.6, 603.0 143.1 Q 603.6 142.5, 603.9 142.0 Q 604.2 141.5, 604.2 141.0 Q 604.2 140.5, 603.9 140.2 Q 603.7 139.9, 603.2 139.9 Q 602.7 139.9, 602.4 140.0 Q 602.1 140.2, 601.9 140.6 L 601.3 140.4 " fill="#000000"/>
<path class="note" d="M 660.8 98.0 Q 661.4 98.2, 661.6 98.5 Q 661.9 98.9, 661.9 99.4 Q 661.9 99.9, 661.7 100.3 Q 661.4 100.6, 661.0 100.9 Q 660.5 101.1, 660.0 101.1 Q 659.4 101.1, 658.9 100.8 Q 658.5 100.6, 658.1 100.2 L 658.6 99.7 Q 658.9 100.1, 659.2 100.3 Q 659.5 100.4, 660.0 100.4 Q 660.5 100.4, 660.8 100.1 Q 661.1 99.9, 661.1 99.4 Q 661.1 98.8, 660.8 98.6 Q 660.5 98.3, 659.8 98.3 L 659.4 98.3 L 659.4 97.8 L 659.7 97.8 Q 660.3 97.7, 660.7 97.5 Q 661.0 97.2, 661.0 96.7 Q 661.0 96.3, 660.7 96.1 Q 660.4 95.9, 660.0 95.9 Q 659.5 95.9, 659.2 96.1 Q 658.9 96.2, 658.7 96.7 L 658.1 96.4 Q 658.3 95.9, 658.8 95.6 Q 659.3 95.3, 660.0 95.3 Q 660.8 95.3, 661.3 95.7 Q 661.8 96.0, 661.8 96.7 Q 661.8 97.2, 661.5 97.5 Q 661.3 97.8, 660.8 98.0 " fill="#000000"/>
<path class="note" d="M 658.2 66.8 L 658.9 66.8 L 658.9 67.5 L 658.2 67.5 L 658.2 68.8 L 657.4 68.8 L 657.4 67.5 L 654.5 67.5 L 654.5 67.0 L 657.0 63.1 L 658.2 63.1 L 658.2 66.8 M 655.4 66.8 L 657.4 66.8 L 657.4 63.6 L 655.4 66.8 " fill="#000000"/>
<path class="note" d="M 701.8 25.8 Q 702.3 25.8, 702.7 26.1 Q 703.1 26.3, 703.3 26.7 Q 703.6 27.1, 703.6 27.6 Q 703.6 28.2, 703.3 28.6 Q 703.0 29.0, 702.5 29.2 Q 702.1 29.4, 701.6 29.4 Q 701.0 29.4, 700.6 29.3 Q 700.1 29.1, 699.8 28.7 L 700.2 28.2 Q 700.5 28.5, 700.9 28.6 Q 701.2 28.8, 701.6 28.8 Q 702.1 28.8, 702.4 28.5 Q 702.8 28.2, 702.8 27.6 Q 702.8 27.0, 702.4 26.7 Q 702.1 26.4, 701.5 26.4 Q 701.0 26.4, 700.5 26.7 L 700.1 26.5 L 700.3 23.7 L 703.2 23.7 L 703.1 24.4 L 701.0 24.4 L 700.8 26.0 Q 701.3 25.8, 701.8 25.8 " fill="#000000"/>
<path class="note" d="M 617.9 40.3 Q 618.4 40.3, 618.8 40.6 Q 619.2 40.8, 619.4 41.2 Q 619.6 41.6, 619.6 42.1 Q 619.6 42.6, 619.4 43.0 Q 619.1 43.5, 618.7 43.7 Q 618.3 43.9, 617.7 43.9 Q 616.7 43.9, 616.2 43.3 Q 615.7 42.6, 615.7 41.2 Q 615.7 39.7, 616.3 38.9 Q 616.9 38.2, 618.1 38.2 Q 618.5 38.2, 618.8 38.2 Q 619.1 38.3, 619.4 38.5 L 619.1 39.0 Q 618.7 38.8, 618.1 38.8 Q 617.4 38.8, 616.9 39.3 Q 616.5 39.8, 616.5 40.9 Q 616.8 40.6, 617.1 40.5 Q 617.5 40.3, 617.9 40.3 M 617.7 43.3 Q 618.0 43.3, 618.3 43.1 Q 618.5 43.0, 618.7 42.7 Q 618.8 42.4, 618.8 42.1 Q 618.8 41.6, 618.5 41.3 Q 618.2 41.0, 617.7 41.0 Q 617.4 41.0, 617.1 41.1 Q 616.7 41.3, 616.5 41.5 Q 616.5 42.4, 616.8 42.9 Q 617.1 43.3, 617.7 43.3 " fill="#000000"/>
<path class="note" d="M 610.5 85.1 L 607.5 85.1 L 607.5 84.4 L 611.2 84.4 L 611.2 85.0 L 609.0 90.1 L 608.2 90.1 L 610.5 85.1 " fill="#000000"/>
<path class="note" d="M 558.4 103.4 Q 559.0 103.6, 559.2 103.9 Q 559.5 104.3, 559.5 104.8 Q 559.5 105.3, 559.3 105.7 Q 559.0 106.0, 558.6 106.2 Q 558.2 106.4, 557.6 106.4 Q 556.6 106.4, 556.1 106.0 Q 555.6 105.6, 555.6 104.8 Q 555.6 104.4, 555.8 104.0 Q 556.0 103.7, 556.5 103.4 Q 556.2 103.2, 556.0 102.9 Q 555.8 102.6, 555.8 102.1 Q 555.8 101.4, 556.2 101.0 Q 556.7 100.7, 557.5 100.7 Q 558.4 100.7, 558.8 101.0 Q 559.3 101.4, 559.3 102.1 Q 559.3 102.5, 559.1 102.8 Q 558.9 103.1, 558.4 103.4 M 557.5 101.3 Q 557.1 101.3, 556.8 101.5 Q 556.6 101.7, 556.6 102.1 Q 556.6 102.4, 556.7 102.6 Q 556.9 102.8, 557.2 102.9 Q 557.4 103.0, 557.9 103.2 Q 558.2 102.9, 558.4 102.7 Q 558.5 102.4, 558.5 102.1 Q 558.5 101.7, 558.3 101.5 Q 558.0 101.3, 557.5 101.3 M 557.6 105.8 Q 558.1 105.8, 558.4 105.6 Q 558.7 105.3, 558.7 104.8 Q 558.7 104.5, 558.6 104.3 Q 558.4 104.1, 558.2 104.0 Q 557.9 103.9, 557.5 103.8 L 557.1 103.6 Q 556.7 103.9, 556.5 104.2 Q 556.4 104.4, 556.4 104.8 Q 556.4 105.3, 556.7 105.6 Q 557.0 105.8, 557.6 105.8 " fill="#000000"/>
<path class="note" d="M 675.0 195.5 Q 676.0 195.5, 676.5 196.2 Q 677.0 196.9, 677.0 198.2 Q 677.0 199.7, 676.4 200.5 Q 675.7 201.3, 674.5 201.3 Q 674.2 201.3, 673.9 201.2 Q 673.6 201.1, 673.3 200.9 L 673.6 200.4 Q 674.0 200.6, 674.5 200.6 Q 675.3 200.6, 675.7 200.1 Q 676.1 199.6, 676.2 198.5 Q 675.9 198.8, 675.5 198.9 Q 675.2 199.1, 674.8 199.1 Q 674.3 199.1, 673.9 198.9 Q 673.5 198.7, 673.3 198.3 Q 673.1 197.9, 673.1 197.4 Q 673.1 196.8, 673.3 196.4 Q 673.6 196.0, 674.0 195.7 Q 674.4 195.5, 675.0 195.5 M 673.9 197.4 Q 673.9 197.9, 674.2 198.2 Q 674.4 198.4, 674.9 198.4 Q 675.3 198.4, 675.6 198.3 Q 675.9 198.2, 676.2 197.9 Q 676.2 197.0, 675.9 196.6 Q 675.6 196.1, 675.0 196.1 Q 674.7 196.1, 674.4 196.3 Q 674.2 196.5, 674.0 196.7 Q 673.9 197.0, 673.9 197.4 " fill="#000000"/>
<path class="note" d="M 694.3 133.9 L 695.5 133.9 L 695.5 129.7 L 694.2 130.1 L 694.0 129.7 L 695.7 128.9 L 696.3 129.0 L 696.3 133.9 L 697.4 133.9 L 697.4 134.6 L 694.3 134.6 L 694.3 133.9 " fill="#000000"/>
<path class="note" d="M 699.8 134.6 Q 698.8 134.6, 698.2 133.9 Q 697.7 133.1, 697.7 131.7 Q 697.7 130.4, 698.2 129.6 Q 698.8 128.9, 699.8 128.9 Q 700.8 128.9, 701.4 129.6 Q 701.9 130.4, 701.9 131.7 Q 701.9 133.1, 701.3 133.9 Q 700.8 134.6, 699.8 134.6 M 699.8 134.0 Q 700.4 134.0, 700.7 133.4 Q 701.1 132.9, 701.1 131.7 Q 701.1 130.6, 700.7 130.1 Q 700.4 129.5, 699.8 129.5 Q 699.2 129.5, 698.9 130.1 Q 698.5 130.6, 698.5 131.7 Q 698.5 132.9, 698.9 133.4 Q 699.2 134.0, 699.8 134.0 " fill="#000000"/>
<path class="note" d="M 617.9 174.8 L 619.1 174.8 L 619.1 170.6 L 617.7 171.0 L 617.6 170.6 L 619.3 169.8 L 619.8 169.9 L 619.8 174.8 L 621.0 174.8 L 621.0 175.5 L 617.9 175.5 L 617.9 174.8 " fill="#000000"/>
<path class="note" d="M 621.6 174.8 L 622.8 174.8 L 622.8 170.6 L 621.5 171.0 L 621.3 170.6 L 623.0 169.8 L 623.6 169.9 L 623.6 174.8 L 624.7 174.8 L 624.7 175.5 L 621.6 175.5 L 621.6 174.8 " fill="#000000"/>
<path class="note" d="M 550.0 173.7 L 551.2 173.7 L 551.2 169.5 L 549.9 169.9 L 549.7 169.4 L 551.4 168.7 L 552.0 168.8 L 552.0 173.7 L 553.1 173.7 L 553.1 174.3 L 550.0 174.3 L 550.0 173.7 " fill="#000000"/>
<path class="note" d="M 553.5 169.8 Q 553.7 169.2, 554.2 168.9 Q 554.7 168.6, 555.3 168.6 Q 556.2 168.6, 556.7 169.1 Q 557.1 169.5, 557.1 170.4 Q 557.1 171.2, 556.5 172.0 Q 555.9 172.8, 554.6 173.7 L 557.2 173.7 L 557.2 174.3 L 553.4 174.3 L 553.4 173.8 Q 554.5 173.0, 555.1 172.5 Q 555.7 171.9, 556.0 171.4 Q 556.3 170.9, 556.3 170.4 Q 556.3 169.9, 556.1 169.6 Q 555.8 169.3, 555.3 169.3 Q 554.9 169.3, 554.6 169.4 Q 554.3 169.6, 554.1 170.0 L 553.5 169.8 " fill="#000000"/>
<path class="note" d="M 603.1 174.7 L 604.3 174.7 L 604.3 170.5 L 602.9 170.9 L 602.7 170.4 L 604.5 169.7 L 605.0 169.8 L 605.0 174.7 L 606.1 174.7 L 606.1 175.3 L 603.1 175.3 L 603.1 174.7 " fill="#000000"/>
<path class="note" d="M 609.2 172.4 Q 609.7 172.5, 610.0 172.9 Q 610.3 173.2, 610.3 173.8 Q 610.3 174.3, 610.0 174.6 Q 609.8 175.0, 609.4 175.2 Q 608.9 175.4, 608.3 175.4 Q 607.7 175.4, 607.3 175.2 Q 606.8 175.0, 606.5 174.6 L 606.9 174.1 Q 607.3 174.5, 607.6 174.6 Q 607.9 174.8, 608.3 174.8 Q 608.9 174.8, 609.2 174.5 Q 609.5 174.2, 609.5 173.8 Q 609.5 173.2, 609.2 173.0 Q 608.8 172.7, 608.1 172.7 L 607.7 172.7 L 607.7 172.1 L 608.1 172.1 Q 608.7 172.1, 609.0 171.8 Q 609.4 171.6, 609.4 171.1 Q 609.4 170.7, 609.1 170.5 Q 608.8 170.3, 608.4 170.3 Q 607.9 170.3, 607.6 170.4 Q 607.3 170.6, 607.1 171.0 L 606.5 170.7 Q 606.7 170.3, 607.2 169.9 Q 607.7 169.6, 608.4 169.6 Q 609.2 169.6, 609.7 170.0 Q 610.2 170.4, 610.2 171.1 Q 610.2 171.5, 609.9 171.9 Q 609.7 172.2, 609.2 172.4 " fill="#000000"/>
<path class="note" d="M 575.2 112.5 L 576.4 112.5 L 576.4 108.2 L 575.1 108.7 L 574.9 108.2 L 576.6 107.4 L 577.2 107.5 L 577.2 112.5 L 578.3 112.5 L 578.3 113.1 L 575.2 113.1 L 575.2 112.5 " fill="#000000"/>
<path class="note" d="M 582.3 111.2 L 583.0 111.2 L 583.0 111.8 L 582.3 111.8 L 582.3 113.1 L 581.5 113.1 L 581.5 111.8 L 578.6 111.8 L 578.6 111.3 L 581.1 107.5 L 582.3 107.5 L 582.3 111.2 M 579.5 111.2 L 581.5 111.2 L 581.5 108.0 L 579.5 111.2 " fill="#000000"/>
<path class="note" d="M 714.3 93.1 L 715.6 93.1 L 715.6 88.8 L 714.2 89.3 L 714.0 88.8 L 715.8 88.0 L 716.3 88.1 L 716.3 93.1 L 717.4 93.1 L 717.4 93.7 L 714.3 93.7 L 714.3 93.1 " fill="#000000"/>
<path class="note" d="M 719.8 90.2 Q 720.3 90.2, 720.7 90.4 Q 721.1 90.6, 721.4 91.0 Q 721.6 91.4, 721.6 91.9 Q 721.6 92.5, 721.3 92.9 Q 721.0 93.3, 720.6 93.5 Q 720.1 93.8, 719.6 93.8 Q 719.1 93.8, 718.6 93.6 Q 718.1 93.4, 717.8 93.0 L 718.2 92.5 Q 718.5 92.8, 718.9 93.0 Q 719.2 93.1, 719.6 93.1 Q 720.1 93.1, 720.4 92.8 Q 720.8 92.5, 720.8 91.9 Q 720.8 91.3, 720.4 91.0 Q 720.1 90.8, 719.5 90.8 Q 719.1 90.8, 718.5 91.0 L 718.1 90.8 L 718.3 88.1 L 721.2 88.1 L 721.2 88.7 L 719.0 88.7 L 718.8 90.4 Q 719.3 90.2, 719.8 90.2 " fill="#000000"/>
<path class="note" d="M 684.3 152.1 L 685.5 152.1 L 685.5 147.8 L 684.2 148.3 L 684.0 147.8 L 685.7 147.0 L 686.3 147.1 L 686.3 152.1 L 687.4 152.1 L 687.4 152.7 L 684.3 152.7 L 684.3 152.1 " fill="#000000"/>
<path class="note" d="M 689.9 149.2 Q 690.4 149.2, 690.8 149.4 Q 691.2 149.6, 691.4 150.0 Q 691.6 150.4, 691.6 150.9 Q 691.6 151.4, 691.4 151.9 Q 691.1 152.3, 690.7 152.5 Q 690.3 152.8, 689.7 152.8 Q 688.7 152.8, 688.2 152.1 Q 687.7 151.4, 687.7 150.0 Q 687.7 148.5, 688.3 147.8 Q 689.0 147.0, 690.2 147.0 Q 690.5 147.0, 690.8 147.1 Q 691.1 147.2, 691.4 147.3 L 691.1 147.9 Q 690.7 147.6, 690.2 147.6 Q 689.4 147.6, 689.0 148.1 Q 688.6 148.7, 688.5 149.7 Q 688.8 149.5, 689.2 149.3 Q 689.5 149.2, 689.9 149.2 M 689.7 152.1 Q 690.0 152.1, 690.3 152.0 Q 690.5 151.8, 690.7 151.5 Q 690.8 151.2, 690.8 150.9 Q 690.8 150.4, 690.6 150.1 Q 690.3 149.8, 689.8 149.8 Q 689.4 149.8, 689.1 150.0 Q 688.8 150.1, 688.5 150.3 Q 688.6 151.3, 688.8 151.7 Q 689.1 152.1, 689.7 152.1 " fill="#000000"/>
<path class="note" d="M 528.7 50.4 L 530.0 50.4 L 530.0 46.1 L 528.6 46.6 L 528.4 46.1 L 530.1 45.3 L 530.7 45.4 L 530.7 50.4 L 531.8 50.4 L 531.8 51.0 L 528.7 51.0 L 528.7 50.4 " fill="#000000"/>
<path class="note" d="M 535.1 46.0 L 532.2 46.0 L 532.2 45.3 L 535.9 45.3 L 535.9 45.9 L 533.6 51.0 L 532.9 51.0 L 535.1 46.0 " fill="#000000"/>
<path class="legend" d="M 579.1 233.1 Q 580.1 233.1, 580.9 233.6 Q 581.7 234.0, 582.1 234.8 Q 582.6 235.6, 582.6 236.6 Q 582.6 237.7, 582.1 238.5 Q 581.6 239.4, 580.7 239.8 Q 579.9 240.3, 578.8 240.3 Q 576.7 240.3, 575.7 239.0 Q 574.7 237.6, 574.7 234.9 Q 574.7 231.9, 576.0 230.3 Q 577.2 228.7, 579.6 228.7 Q 580.3 228.7, 580.9 228.9 Q 581.5 229.1, 582.1 229.4 L 581.5 230.5 Q 580.7 230.0, 579.7 230.0 Q 578.1 230.0, 577.2 231.1 Q 576.4 232.1, 576.3 234.2 Q 576.9 233.7, 577.6 233.4 Q 578.4 233.1, 579.1 233.1 M 578.8 239.0 Q 579.4 239.0, 579.9 238.7 Q 580.4 238.4, 580.7 237.8 Q 581.0 237.3, 581.0 236.6 Q 581.0 235.6, 580.4 235.0 Q 579.8 234.4, 578.9 234.4 Q 578.2 234.4, 577.5 234.7 Q 576.8 235.0, 576.3 235.4 Q 576.4 237.3, 577.0 238.2 Q 577.6 239.0, 578.8 239.0 " fill="#000000"/>
<path class="legend" d="M 588.9 234.2 Q 590.0 234.6, 590.5 235.3 Q 591.1 236.0, 591.1 237.1 Q 591.1 238.1, 590.6 238.8 Q 590.1 239.5, 589.2 240.0 Q 588.3 240.4, 587.2 240.4 Q 586.0 240.4, 585.1 239.9 Q 584.2 239.5, 583.4 238.6 L 584.4 237.7 Q 585.1 238.5, 585.7 238.8 Q 586.2 239.1, 587.2 239.1 Q 588.2 239.1, 588.8 238.5 Q 589.5 238.0, 589.5 237.1 Q 589.5 235.9, 588.8 235.4 Q 588.2 234.9, 586.8 234.9 L 586.0 234.9 L 586.0 233.7 L 586.7 233.7 Q 587.9 233.7, 588.6 233.2 Q 589.2 232.6, 589.2 231.6 Q 589.2 230.9, 588.7 230.5 Q 588.1 230.0, 587.2 230.0 Q 586.3 230.0, 585.7 230.4 Q 585.1 230.7, 584.6 231.5 L 583.5 231.0 Q 583.9 230.0, 584.9 229.4 Q 585.9 228.7, 587.2 228.7 Q 588.9 228.7, 589.8 229.5 Q 590.8 230.3, 590.8 231.6 Q 590.8 232.6, 590.3 233.2 Q 589.8 233.9, 588.9 234.2 " fill="#000000"/>
<path class="legend" d="M 597.4 234.2 Q 598.5 234.6, 599.1 235.3 Q 599.6 236.0, 599.6 237.1 Q 599.6 238.1, 599.1 238.8 Q 598.7 239.5, 597.8 240.0 Q 596.9 240.4, 595.7 240.4 Q 594.5 240.4, 593.6 239.9 Q 592.7 239.5, 592.0 238.6 L 592.9 237.7 Q 593.6 238.5, 594.2 238.8 Q 594.8 239.1, 595.7 239.1 Q 596.8 239.1, 597.4 238.5 Q 598.0 238.0, 598.0 237.1 Q 598.0 235.9, 597.4 235.4 Q 596.7 234.9, 595.3 234.9 L 594.5 234.9 L 594.5 233.7 L 595.2 233.7 Q 596.5 233.7, 597.1 233.2 Q 597.8 232.6, 597.8 231.6 Q 597.8 230.9, 597.2 230.5 Q 596.7 230.0, 595.8 230.0 Q 594.8 230.0, 594.2 230.4 Q 593.7 230.7, 593.2 231.5 L 592.1 231.0 Q 592.5 230.0, 593.5 229.4 Q 594.4 228.7, 595.8 228.7 Q 597.4 228.7, 598.4 229.5 Q 599.4 230.3, 599.4 231.6 Q 599.4 232.6, 598.9 233.2 Q 598.4 233.9, 597.4 234.2 " fill="#000000"/>
<path class="legend" d="M 606.0 234.2 Q 607.1 234.6, 607.6 235.3 Q 608.2 236.0, 608.2 237.1 Q 608.2 238.1, 607.7 238.8 Q 607.2 239.5, 606.3 240.0 Q 605.5 240.4, 604.3 240.4 Q 603.1 240.4, 602.2 239.9 Q 601.3 239.5, 600.6 238.6 L 601.5 237.7 Q 602.2 238.5, 602.8 238.8 Q 603.4 239.1, 604.3 239.1 Q 605.3 239.1, 606.0 238.5 Q 606.6 238.0, 606.6 237.1 Q 606.6 235.9, 605.9 235.4 Q 605.3 234.9, 603.9 234.9 L 603.1 234.9 L 603.1 233.7 L 603.8 233.7 Q 605.0 233.7, 605.7 233.2 Q 606.3 232.6, 606.3 231.6 Q 606.3 230.9, 605.8 230.5 Q 605.3 230.0, 604.3 230.0 Q 603.4 230.0, 602.8 230.4 Q 602.2 230.7, 601.8 231.5 L 600.7 231.0 Q 601.1 230.0, 602.0 229.4 Q 603.0 228.7, 604.3 228.7 Q 606.0 228.7, 607.0 229.5 Q 607.9 230.3, 607.9 231.6 Q 607.9 232.6, 607.4 233.2 Q 606.9 233.9, 606.0 234.2 " fill="#000000"/>
<path class="legend" d="M 613.3 240.3 Q 611.2 240.3, 610.1 238.8 Q 609.1 237.3, 609.1 234.5 Q 609.1 231.8, 610.1 230.3 Q 611.2 228.7, 613.3 228.7 Q 615.4 228.7, 616.4 230.3 Q 617.4 231.8, 617.4 234.5 Q 617.4 237.3, 616.4 238.8 Q 615.3 240.3, 613.3 240.3 M 613.3 239.0 Q 614.5 239.0, 615.2 237.9 Q 615.8 236.8, 615.8 234.5 Q 615.8 232.3, 615.2 231.2 Q 614.5 230.0, 613.3 230.0 Q 612.1 230.0, 611.4 231.2 Q 610.7 232.3, 610.7 234.5 Q 610.7 236.8, 611.4 237.9 Q 612.1 239.0, 613.3 239.0 " fill="#000000"/>
<path class="legend" d="M 626.6 241.0 L 626.6 242.3 L 618.5 242.3 L 618.5 241.0 L 626.6 241.0 " fill="#000000"/>
<path class="legend" d="M 630.7 233.1 Q 631.7 233.1, 632.5 233.5 Q 633.3 234.0, 633.8 234.8 Q 634.3 235.5, 634.3 236.6 Q 634.3 237.8, 633.7 238.6 Q 633.1 239.5, 632.2 239.9 Q 631.3 240.3, 630.2 240.3 Q 629.2 240.3, 628.2 239.9 Q 627.3 239.6, 626.6 238.8 L 627.6 237.8 Q 628.1 238.4, 628.8 238.7 Q 629.5 239.0, 630.3 239.0 Q 631.3 239.0, 632.0 238.4 Q 632.7 237.8, 632.7 236.6 Q 632.7 235.4, 632.0 234.9 Q 631.3 234.3, 630.2 234.3 Q 629.2 234.3, 628.1 234.7 L 627.2 234.3 L 627.7 228.9 L 633.6 228.9 L 633.4 230.2 L 629.1 230.2 L 628.7 233.5 Q 629.7 233.1, 630.7 233.1 " fill="#000000"/>
<path class="legend" d="" fill="#000000"/>
<path class="legend" d="M 640.4 235.6 Q 640.4 233.3, 641.0 231.5 Q 641.7 229.6, 643.0 227.5 L 643.9 228.1 Q 642.9 230.0, 642.3 231.7 Q 641.8 233.4, 641.8 235.6 Q 641.8 237.8, 642.3 239.5 Q 642.9 241.2, 643.9 243.2 L 643.0 243.8 Q 641.7 241.7, 641.0 239.8 Q 640.4 238.0, 640.4 235.6 " fill="#000000"/>
<path class="legend" d="M 649.8 234.2 Q 650.9 234.6, 651.4 235.2 Q 652.0 235.9, 652.0 236.9 Q 652.0 238.4, 651.0 239.3 Q 650.0 240.2, 648.1 240.2 L 644.3 240.2 L 644.3 228.9 L 647.6 228.9 Q 649.6 228.9, 650.6 229.7 Q 651.5 230.4, 651.5 231.9 Q 651.5 233.6, 649.8 234.2 M 645.8 230.2 L 645.8 233.7 L 647.6 233.7 Q 648.8 233.7, 649.3 233.3 Q 649.9 232.8, 649.9 231.9 Q 649.9 230.2, 647.6 230.2 L 645.8 230.2 M 648.1 238.9 Q 649.2 238.9, 649.8 238.4 Q 650.4 237.9, 650.4 236.9 Q 650.4 235.9, 649.7 235.5 Q 649.1 235.0, 647.9 235.0 L 645.8 235.0 L 645.8 238.9 L 648.1 238.9 " fill="#000000"/>
<path class="legend" d="M 652.7 228.1 L 654.2 228.1 L 654.2 240.2 L 652.7 240.2 L 652.7 228.1 " fill="#000000"/>
<path class="legend" d="M 662.6 232.0 L 662.6 240.2 L 661.3 240.2 L 661.2 239.1 Q 660.1 240.3, 658.4 240.3 Q 657.0 240.3, 656.3 239.6 Q 655.6 238.9, 655.6 237.4 L 655.6 232.0 L 657.1 232.0 L 657.1 237.3 Q 657.1 238.3, 657.5 238.7 Q 657.8 239.2, 658.7 239.2 Q 659.4 239.2, 660.0 238.8 Q 660.7 238.5, 661.1 237.9 L 661.1 232.0 L 662.6 232.0 " fill="#000000"/>
<path class="legend" d="M 663.9 236.1 Q 663.9 234.1, 664.9 233.0 Q 665.9 231.8, 667.7 231.8 Q 669.5 231.8, 670.3 232.9 Q 671.2 234.0, 671.2 236.0 L 671.2 236.3 L 665.4 236.3 Q 665.5 237.7, 666.1 238.4 Q 666.7 239.1, 667.9 239.1 Q 668.5 239.1, 669.1 239.0 Q 669.7 238.8, 670.4 238.5 L 670.8 239.5 Q 670.0 240.0, 669.3 240.2 Q 668.6 240.3, 667.8 240.3 Q 665.9 240.3, 664.9 239.2 Q 663.9 238.1, 663.9 236.1 M 667.7 233.0 Q 666.8 233.0, 666.2 233.6 Q 665.7 234.1, 665.5 235.2 L 669.6 235.2 Q 669.5 234.1, 669.0 233.5 Q 668.6 233.0, 667.7 233.0 " fill="#000000"/>
<path class="legend" d="M 675.3 235.6 Q 675.3 238.0, 674.6 239.8 Q 674.0 241.7, 672.7 243.8 L 671.8 243.2 Q 672.8 241.2, 673.3 239.5 Q 673.9 237.8, 673.9 235.6 Q 673.9 233.4, 673.3 231.7 Q 672.8 230.0, 671.8 228.1 L 672.7 227.5 Q 674.0 229.6, 674.6 231.5 Q 675.3 233.3, 675.3 235.6 " fill="#000000"/>
</svg>