<svg xmlns="http://www.w3.org/2000/svg" xmlns:rdkit="http://www.rdkit.org/xml" xmlns:xlink="http://www.w3.org/1999/xlink" version="1.1" baseProfile="full" xml:space="preserve" width="750px" height="250px" viewBox="0 0 750 250">
<!-- END OF HEADER -->
<rect style="opacity:1.0;fill:#FFFFFF;stroke:none" width="750.0" height="250.0" x="0.0" y="0.0"> </rect>
<path class="bond-2 atom-2 atom-3" d="M 157.0,117.4 L 182.3,103.9" style="fill:none;fill-rule:evenodd;stroke:#FF7F7F;stroke-width:6.1px;stroke-linecap:butt;stroke-linejoin:miter;stroke-opacity:1"/>
<path class="bond-14 atom-3 atom-15" d="M 182.3,103.9 L 206.6,119.0" style="fill:none;fill-rule:evenodd;stroke:#FF7F7F;stroke-width:6.1px;stroke-linecap:butt;stroke-linejoin:miter;stroke-opacity:1"/>
<ellipse cx="157.0" cy="117.4" rx="5.7" ry="5.7" class="atom-2" style="fill:#FF7F7F;fill-rule:evenodd;stroke:#FF7F7F;stroke-width:1.0px;stroke-linecap:butt;stroke-linejoin:miter;stroke-opacity:1"/>
<ellipse cx="182.3" cy="104.0" rx="5.7" ry="5.9" class="atom-3" style="fill:#FF7F7F;fill-rule:evenodd;stroke:#FF7F7F;stroke-width:1.0px;stroke-linecap:butt;stroke-linejoin:miter;stroke-opacity:1"/>
<ellipse cx="206.6" cy="119.0" rx="5.7" ry="5.7" class="atom-15" style="fill:#FF7F7F;fill-rule:evenodd;stroke:#FF7F7F;stroke-width:1.0px;stroke-linecap:butt;stroke-linejoin:miter;stroke-opacity:1"/>
<path class="bond-0 atom-0 atom-1" d="M 106.5,144.5 L 131.8,131.0" style="fill:none;fill-rule:evenodd;stroke:#000000;stroke-width:2.0px;stroke-linecap:butt;stroke-linejoin:miter;stroke-opacity:1"/>
<path class="bond-1 atom-1 atom-2" d="M 131.8,131.0 L 157.0,117.4" style="fill:none;fill-rule:evenodd;stroke:#000000;stroke-width:2.0px;stroke-linecap:butt;stroke-linejoin:miter;stroke-opacity:1"/>
<path class="bond-2 atom-2 atom-3" d="M 157.0,117.4 L 167.3,111.9" style="fill:none;fill-rule:evenodd;stroke:#000000;stroke-width:2.0px;stroke-linecap:butt;stroke-linejoin:miter;stroke-opacity:1"/>
<path class="bond-2 atom-2 atom-3" d="M 167.3,111.9 L 177.6,106.4" style="fill:none;fill-rule:evenodd;stroke:#FF0000;stroke-width:2.0px;stroke-linecap:butt;stroke-linejoin:miter;stroke-opacity:1"/>
<path class="bond-3 atom-1 atom-4" d="M 131.8,131.0 L 118.3,105.7" style="fill:none;fill-rule:evenodd;stroke:#000000;stroke-width:2.0px;stroke-linecap:butt;stroke-linejoin:miter;stroke-opacity:1"/>
<path class="bond-4 atom-4 atom-5" d="M 118.3,105.7 L 93.0,119.2" style="fill:none;fill-rule:evenodd;stroke:#000000;stroke-width:2.0px;stroke-linecap:butt;stroke-linejoin:miter;stroke-opacity:1"/>
<path class="bond-5 atom-5 atom-6" d="M 93.0,119.2 L 82.7,124.7" style="fill:none;fill-rule:evenodd;stroke:#000000;stroke-width:2.0px;stroke-linecap:butt;stroke-linejoin:miter;stroke-opacity:1"/>
<path class="bond-5 atom-5 atom-6" d="M 82.7,124.7 L 72.4,130.3" style="fill:none;fill-rule:evenodd;stroke:#FF0000;stroke-width:2.0px;stroke-linecap:butt;stroke-linejoin:miter;stroke-opacity:1"/>
<path class="bond-6 atom-4 atom-7" d="M 118.3,105.7 L 104.7,80.5" style="fill:none;fill-rule:evenodd;stroke:#000000;stroke-width:2.0px;stroke-linecap:butt;stroke-linejoin:miter;stroke-opacity:1"/>
<path class="bond-7 atom-7 atom-8" d="M 104.7,80.5 L 99.3,70.3" style="fill:none;fill-rule:evenodd;stroke:#000000;stroke-width:2.0px;stroke-linecap:butt;stroke-linejoin:miter;stroke-opacity:1"/>
<path class="bond-7 atom-7 atom-8" d="M 99.3,70.3 L 93.9,60.2" style="fill:none;fill-rule:evenodd;stroke:#0000FF;stroke-width:2.0px;stroke-linecap:butt;stroke-linejoin:miter;stroke-opacity:1"/>
<path class="bond-7 atom-7 atom-8" d="M 98.1,80.1 L 93.5,71.5" style="fill:none;fill-rule:evenodd;stroke:#000000;stroke-width:2.0px;stroke-linecap:butt;stroke-linejoin:miter;stroke-opacity:1"/>
<path class="bond-7 atom-7 atom-8" d="M 93.5,71.5 L 88.8,62.9" style="fill:none;fill-rule:evenodd;stroke:#0000FF;stroke-width:2.0px;stroke-linecap:butt;stroke-linejoin:miter;stroke-opacity:1"/>
<path class="bond-7 atom-7 atom-8" d="M 108.2,74.7 L 103.6,66.1" style="fill:none;fill-rule:evenodd;stroke:#000000;stroke-width:2.0px;stroke-linecap:butt;stroke-linejoin:miter;stroke-opacity:1"/>
<path class="bond-7 atom-7 atom-8" d="M 103.6,66.1 L 98.9,57.5" style="fill:none;fill-rule:evenodd;stroke:#0000FF;stroke-width:2.0px;stroke-linecap:butt;stroke-linejoin:miter;stroke-opacity:1"/>
<path class="bond-8 atom-0 atom-9" d="M 106.5,144.5 L 85.4,155.8" style="fill:none;fill-rule:evenodd;stroke:#000000;stroke-width:2.0px;stroke-linecap:butt;stroke-linejoin:miter;stroke-opacity:1"/>
<path class="bond-9 atom-0 atom-10" d="M 106.5,144.5 L 117.4,164.7" style="fill:none;fill-rule:evenodd;stroke:#000000;stroke-width:2.0px;stroke-linecap:butt;stroke-linejoin:miter;stroke-opacity:1"/>
<path class="bond-10 atom-0 atom-11" d="M 106.5,144.5 L 100.4,137.7" style="fill:none;fill-rule:evenodd;stroke:#000000;stroke-width:2.0px;stroke-linecap:butt;stroke-linejoin:miter;stroke-opacity:1"/>
<path class="bond-11 atom-1 atom-12" d="M 131.8,131.0 L 142.6,151.2" style="fill:none;fill-rule:evenodd;stroke:#000000;stroke-width:2.0px;stroke-linecap:butt;stroke-linejoin:miter;stroke-opacity:1"/>
<path class="bond-12 atom-2 atom-13" d="M 157.0,117.4 L 167.9,137.7" style="fill:none;fill-rule:evenodd;stroke:#000000;stroke-width:2.0px;stroke-linecap:butt;stroke-linejoin:miter;stroke-opacity:1"/>
<path class="bond-13 atom-2 atom-14" d="M 157.0,117.4 L 148.6,95.7" style="fill:none;fill-rule:evenodd;stroke:#000000;stroke-width:2.0px;stroke-linecap:butt;stroke-linejoin:miter;stroke-opacity:1"/>
<path class="bond-14 atom-3 atom-15" d="M 186.9,106.8 L 194.7,111.6" style="fill:none;fill-rule:evenodd;stroke:#FF0000;stroke-width:2.0px;stroke-linecap:butt;stroke-linejoin:miter;stroke-opacity:1"/>
<path class="bond-14 atom-3 atom-15" d="M 194.7,111.6 L 202.5,116.5" style="fill:none;fill-rule:evenodd;stroke:#000000;stroke-width:2.0px;stroke-linecap:butt;stroke-linejoin:miter;stroke-opacity:1"/>
<path class="bond-15 atom-4 atom-16" d="M 118.3,105.7 L 137.6,92.1" style="fill:none;fill-rule:evenodd;stroke:#000000;stroke-width:2.0px;stroke-linecap:butt;stroke-linejoin:miter;stroke-opacity:1"/>
<path class="bond-16 atom-5 atom-17" d="M 93.0,119.2 L 98.8,142.0" style="fill:none;fill-rule:evenodd;stroke:#000000;stroke-width:2.0px;stroke-linecap:butt;stroke-linejoin:miter;stroke-opacity:1"/>
<path class="bond-17 atom-5 atom-18" d="M 93.0,119.2 L 82.2,99.0" style="fill:none;fill-rule:evenodd;stroke:#000000;stroke-width:2.0px;stroke-linecap:butt;stroke-linejoin:miter;stroke-opacity:1"/>
<path class="bond-18 atom-6 atom-19" d="M 63.1,129.9 L 55.3,125.0" style="fill:none;fill-rule:evenodd;stroke:#FF0000;stroke-width:2.0px;stroke-linecap:butt;stroke-linejoin:miter;stroke-opacity:1"/>
<path class="bond-18 atom-6 atom-19" d="M 55.3,125.0 L 47.6,120.2" style="fill:none;fill-rule:evenodd;stroke:#000000;stroke-width:2.0px;stroke-linecap:butt;stroke-linejoin:miter;stroke-opacity:1"/>
<path class="atom-3" d="M 178.5 104.0 Q 178.5 102.0, 179.5 100.9 Q 180.5 99.8, 182.3 99.8 Q 184.1 99.8, 185.0 100.9 Q 186.0 102.0, 186.0 104.0 Q 186.0 105.9, 185.0 107.0 Q 184.0 108.2, 182.3 108.2 Q 180.5 108.2, 179.5 107.0 Q 178.5 105.9, 178.5 104.0 M 182.3 107.2 Q 183.5 107.2, 184.2 106.4 Q 184.8 105.6, 184.8 104.0 Q 184.8 102.4, 184.2 101.6 Q 183.5 100.7, 182.3 100.7 Q 181.0 100.7, 180.3 101.5 Q 179.7 102.3, 179.7 104.0 Q 179.7 105.6, 180.3 106.4 Q 181.0 107.2, 182.3 107.2 " fill="#FF0000"/>
<path class="atom-6" d="M 64.1 132.8 Q 64.1 130.8, 65.0 129.7 Q 66.0 128.7, 67.8 128.7 Q 69.6 128.7, 70.5 129.7 Q 71.5 130.8, 71.5 132.8 Q 71.5 134.7, 70.5 135.9 Q 69.6 137.0, 67.8 137.0 Q 66.0 137.0, 65.0 135.9 Q 64.1 134.8, 64.1 132.8 M 67.8 136.1 Q 69.0 136.1, 69.7 135.2 Q 70.4 134.4, 70.4 132.8 Q 70.4 131.2, 69.7 130.4 Q 69.0 129.6, 67.8 129.6 Q 66.5 129.6, 65.9 130.4 Q 65.2 131.2, 65.2 132.8 Q 65.2 134.4, 65.9 135.2 Q 66.5 136.1, 67.8 136.1 " fill="#FF0000"/>
<path class="atom-8" d="M 89.4 51.2 L 92.1 55.5 Q 92.4 55.9, 92.8 56.7 Q 93.2 57.4, 93.2 57.5 L 93.2 51.2 L 94.3 51.2 L 94.3 59.3 L 93.2 59.3 L 90.3 54.6 Q 90.0 54.1, 89.7 53.4 Q 89.3 52.8, 89.2 52.6 L 89.2 59.3 L 88.2 59.3 L 88.2 51.2 L 89.4 51.2 " fill="#0000FF"/>
<path class="atom-9" d="M 78.1 153.9 L 79.2 153.9 L 79.2 157.4 L 83.4 157.4 L 83.4 153.9 L 84.5 153.9 L 84.5 162.0 L 83.4 162.0 L 83.4 158.3 L 79.2 158.3 L 79.2 162.0 L 78.1 162.0 L 78.1 153.9 " fill="#000000"/>
<path class="atom-10" d="M 116.9 165.7 L 118.0 165.7 L 118.0 169.1 L 122.1 169.1 L 122.1 165.7 L 123.2 165.7 L 123.2 173.8 L 122.1 173.8 L 122.1 170.0 L 118.0 170.0 L 118.0 173.8 L 116.9 173.8 L 116.9 165.7 " fill="#000000"/>
<path class="atom-11" d="M 93.1 129.1 L 94.2 129.1 L 94.2 132.6 L 98.4 132.6 L 98.4 129.1 L 99.5 129.1 L 99.5 137.3 L 98.4 137.3 L 98.4 133.5 L 94.2 133.5 L 94.2 137.3 L 93.1 137.3 L 93.1 129.1 " fill="#000000"/>
<path class="atom-12" d="M 142.1 152.1 L 143.2 152.1 L 143.2 155.6 L 147.4 155.6 L 147.4 152.1 L 148.5 152.1 L 148.5 160.3 L 147.4 160.3 L 147.4 156.5 L 143.2 156.5 L 143.2 160.3 L 142.1 160.3 L 142.1 152.1 " fill="#000000"/>
<path class="atom-13" d="M 167.4 138.6 L 168.5 138.6 L 168.5 142.1 L 172.6 142.1 L 172.6 138.6 L 173.7 138.6 L 173.7 146.7 L 172.6 146.7 L 172.6 143.0 L 168.5 143.0 L 168.5 146.7 L 167.4 146.7 L 167.4 138.6 " fill="#000000"/>
<path class="atom-14" d="M 143.5 86.7 L 144.6 86.7 L 144.6 90.1 L 148.7 90.1 L 148.7 86.7 L 149.8 86.7 L 149.8 94.8 L 148.7 94.8 L 148.7 91.1 L 144.6 91.1 L 144.6 94.8 L 143.5 94.8 L 143.5 86.7 " fill="#000000"/>
<path class="atom-15" d="M 203.4 115.0 L 204.5 115.0 L 204.5 118.4 L 208.6 118.4 L 208.6 115.0 L 209.7 115.0 L 209.7 123.1 L 208.6 123.1 L 208.6 119.3 L 204.5 119.3 L 204.5 123.1 L 203.4 123.1 L 203.4 115.0 " fill="#000000"/>
<path class="atom-16" d="M 138.5 85.2 L 139.6 85.2 L 139.6 88.6 L 143.7 88.6 L 143.7 85.2 L 144.8 85.2 L 144.8 93.3 L 143.7 93.3 L 143.7 89.5 L 139.6 89.5 L 139.6 93.3 L 138.5 93.3 L 138.5 85.2 " fill="#000000"/>
<path class="atom-17" d="M 96.9 142.9 L 98.0 142.9 L 98.0 146.4 L 102.1 146.4 L 102.1 142.9 L 103.2 142.9 L 103.2 151.0 L 102.1 151.0 L 102.1 147.3 L 98.0 147.3 L 98.0 151.0 L 96.9 151.0 L 96.9 142.9 " fill="#000000"/>
<path class="atom-18" d="M 76.3 89.9 L 77.4 89.9 L 77.4 93.4 L 81.6 93.4 L 81.6 89.9 L 82.7 89.9 L 82.7 98.0 L 81.6 98.0 L 81.6 94.3 L 77.4 94.3 L 77.4 98.0 L 76.3 98.0 L 76.3 89.9 " fill="#000000"/>
<path class="atom-19" d="M 40.3 113.6 L 41.4 113.6 L 41.4 117.0 L 45.5 117.0 L 45.5 113.6 L 46.6 113.6 L 46.6 121.7 L 45.5 121.7 L 45.5 118.0 L 41.4 118.0 L 41.4 121.7 L 40.3 121.7 L 40.3 113.6 " fill="#000000"/>
<path class="note" d="M 115.7 149.3 Q 114.9 149.3, 114.6 148.8 Q 114.2 148.2, 114.2 147.3 Q 114.2 146.3, 114.6 145.7 Q 114.9 145.2, 115.7 145.2 Q 116.4 145.2, 116.8 145.7 Q 117.2 146.3, 117.2 147.3 Q 117.2 148.2, 116.8 148.8 Q 116.4 149.3, 115.7 149.3 M 115.7 148.9 Q 116.1 148.9, 116.3 148.5 Q 116.6 148.1, 116.6 147.3 Q 116.6 146.5, 116.3 146.1 Q 116.1 145.6, 115.7 145.6 Q 115.2 145.6, 115.0 146.1 Q 114.8 146.5, 114.8 147.3 Q 114.8 148.1, 115.0 148.5 Q 115.2 148.9, 115.7 148.9 " fill="#000000"/>
<path class="note" d="M 130.8 142.1 L 131.7 142.1 L 131.7 139.1 L 130.7 139.4 L 130.6 139.0 L 131.8 138.5 L 132.2 138.5 L 132.2 142.1 L 133.0 142.1 L 133.0 142.5 L 130.8 142.5 L 130.8 142.1 " fill="#000000"/>
<path class="note" d="M nan nan Q nan nan, nan nan Q nan nan, nan nan Q nan nan, nan nan Q nan nan, nan nan Q nan nan, nan nan Q nan nan, nan nan L nan nan L nan nan L nan nan L nan nan Q nan nan, nan nan Q nan nan, nan nan Q nan nan, nan nan Q nan nan, nan nan Q nan nan, nan nan Q nan nan, nan nan Q nan nan, nan nan L nan nan " fill="#000000"/>
<path class="note" d="M 183.1 94.3 Q 183.5 94.4, 183.7 94.7 Q 183.9 94.9, 183.9 95.3 Q 183.9 95.7, 183.7 95.9 Q 183.6 96.2, 183.3 96.4 Q 182.9 96.5, 182.5 96.5 Q 182.1 96.5, 181.8 96.3 Q 181.5 96.2, 181.2 95.9 L 181.5 95.6 Q 181.8 95.8, 182.0 95.9 Q 182.2 96.0, 182.5 96.0 Q 182.9 96.0, 183.1 95.8 Q 183.3 95.6, 183.3 95.3 Q 183.3 94.9, 183.1 94.7 Q 182.9 94.5, 182.4 94.5 L 182.1 94.5 L 182.1 94.1 L 182.4 94.1 Q 182.8 94.1, 183.0 93.9 Q 183.3 93.7, 183.3 93.4 Q 183.3 93.1, 183.1 93.0 Q 182.9 92.8, 182.5 92.8 Q 182.2 92.8, 182.0 92.9 Q 181.8 93.0, 181.6 93.3 L 181.2 93.1 Q 181.4 92.8, 181.7 92.6 Q 182.1 92.3, 182.5 92.3 Q 183.1 92.3, 183.5 92.6 Q 183.8 92.9, 183.8 93.4 Q 183.8 93.7, 183.7 93.9 Q 183.5 94.2, 183.1 94.3 " fill="#000000"/>
<path class="note" d="M 123.9 107.7 L 124.4 107.7 L 124.4 108.2 L 123.9 108.2 L 123.9 109.1 L 123.4 109.1 L 123.4 108.2 L 121.3 108.2 L 121.3 107.8 L 123.0 105.1 L 123.9 105.1 L 123.9 107.7 M 121.9 107.7 L 123.4 107.7 L 123.4 105.4 L 121.9 107.7 " fill="#000000"/>
<path class="note" d="M 97.5 120.7 Q 97.8 120.7, 98.1 120.8 Q 98.4 121.0, 98.6 121.2 Q 98.8 121.5, 98.8 121.9 Q 98.8 122.3, 98.6 122.6 Q 98.4 122.9, 98.0 123.1 Q 97.7 123.2, 97.3 123.2 Q 96.9 123.2, 96.6 123.1 Q 96.2 123.0, 96.0 122.7 L 96.4 122.3 Q 96.5 122.5, 96.8 122.7 Q 97.1 122.8, 97.3 122.8 Q 97.7 122.8, 97.9 122.5 Q 98.2 122.3, 98.2 121.9 Q 98.2 121.5, 97.9 121.3 Q 97.7 121.1, 97.3 121.1 Q 96.9 121.1, 96.5 121.2 L 96.2 121.1 L 96.4 119.1 L 98.5 119.1 L 98.4 119.6 L 96.9 119.6 L 96.8 120.8 Q 97.1 120.7, 97.5 120.7 " fill="#000000"/>
<path class="note" d="M 67.7 141.8 Q 68.0 141.8, 68.3 142.0 Q 68.6 142.1, 68.7 142.4 Q 68.9 142.7, 68.9 143.0 Q 68.9 143.4, 68.7 143.7 Q 68.5 144.0, 68.2 144.2 Q 67.9 144.4, 67.5 144.4 Q 66.8 144.4, 66.4 143.9 Q 66.1 143.4, 66.1 142.4 Q 66.1 141.4, 66.5 140.8 Q 67.0 140.2, 67.8 140.2 Q 68.1 140.2, 68.3 140.3 Q 68.5 140.4, 68.7 140.5 L 68.5 140.9 Q 68.2 140.7, 67.8 140.7 Q 67.3 140.7, 67.0 141.1 Q 66.7 141.4, 66.6 142.2 Q 66.9 142.0, 67.1 141.9 Q 67.4 141.8, 67.7 141.8 M 67.5 143.9 Q 67.7 143.9, 67.9 143.8 Q 68.1 143.7, 68.2 143.5 Q 68.3 143.3, 68.3 143.0 Q 68.3 142.7, 68.1 142.5 Q 67.9 142.3, 67.6 142.3 Q 67.3 142.3, 67.1 142.4 Q 66.8 142.5, 66.6 142.6 Q 66.7 143.3, 66.9 143.6 Q 67.1 143.9, 67.5 143.9 " fill="#000000"/>
<path class="note" d="M 101.3 81.2 L 99.2 81.2 L 99.2 80.7 L 101.9 80.7 L 101.9 81.1 L 100.2 84.8 L 99.7 84.8 L 101.3 81.2 " fill="#000000"/>
<path class="note" d="M 87.4 46.7 Q 87.7 46.9, 87.9 47.1 Q 88.2 47.4, 88.2 47.8 Q 88.2 48.1, 88.0 48.4 Q 87.8 48.6, 87.5 48.8 Q 87.2 48.9, 86.7 48.9 Q 86.1 48.9, 85.7 48.6 Q 85.3 48.3, 85.3 47.8 Q 85.3 47.4, 85.5 47.2 Q 85.6 46.9, 86.0 46.7 Q 85.7 46.6, 85.6 46.4 Q 85.4 46.2, 85.4 45.8 Q 85.4 45.3, 85.8 45.1 Q 86.1 44.8, 86.7 44.8 Q 87.3 44.8, 87.7 45.1 Q 88.0 45.3, 88.0 45.8 Q 88.0 46.1, 87.8 46.3 Q 87.7 46.6, 87.4 46.7 M 86.7 45.2 Q 86.4 45.2, 86.2 45.4 Q 86.0 45.5, 86.0 45.8 Q 86.0 46.0, 86.1 46.2 Q 86.3 46.3, 86.4 46.4 Q 86.6 46.5, 87.0 46.6 Q 87.2 46.4, 87.3 46.2 Q 87.4 46.0, 87.4 45.8 Q 87.4 45.5, 87.2 45.4 Q 87.1 45.2, 86.7 45.2 M 86.7 48.5 Q 87.1 48.5, 87.4 48.3 Q 87.6 48.1, 87.6 47.8 Q 87.6 47.5, 87.5 47.4 Q 87.3 47.3, 87.2 47.2 Q 87.0 47.1, 86.7 47.0 L 86.4 46.9 Q 86.1 47.1, 86.0 47.3 Q 85.9 47.5, 85.9 47.8 Q 85.9 48.1, 86.1 48.3 Q 86.3 48.5, 86.7 48.5 " fill="#000000"/>
<path class="note" d="M 72.8 160.4 Q 73.6 160.4, 73.9 160.9 Q 74.3 161.4, 74.3 162.4 Q 74.3 163.5, 73.8 164.0 Q 73.4 164.6, 72.5 164.6 Q 72.3 164.6, 72.1 164.5 Q 71.8 164.5, 71.6 164.4 L 71.9 164.0 Q 72.2 164.1, 72.5 164.1 Q 73.1 164.1, 73.4 163.8 Q 73.7 163.4, 73.7 162.6 Q 73.5 162.8, 73.2 162.9 Q 73.0 163.0, 72.7 163.0 Q 72.3 163.0, 72.1 162.9 Q 71.8 162.7, 71.6 162.4 Q 71.5 162.2, 71.5 161.8 Q 71.5 161.4, 71.7 161.1 Q 71.8 160.8, 72.1 160.6 Q 72.4 160.4, 72.8 160.4 M 72.1 161.8 Q 72.1 162.2, 72.3 162.4 Q 72.5 162.6, 72.8 162.6 Q 73.1 162.6, 73.3 162.5 Q 73.5 162.4, 73.7 162.2 Q 73.7 161.5, 73.5 161.2 Q 73.3 160.9, 72.8 160.9 Q 72.6 160.9, 72.4 161.0 Q 72.3 161.1, 72.2 161.3 Q 72.1 161.5, 72.1 161.8 " fill="#000000"/>
<path class="note" d="M 122.0 179.7 L 122.8 179.7 L 122.8 176.7 L 121.9 177.0 L 121.7 176.7 L 123.0 176.1 L 123.4 176.2 L 123.4 179.7 L 124.2 179.7 L 124.2 180.2 L 122.0 180.2 L 122.0 179.7 " fill="#000000"/>
<path class="note" d="M 125.9 180.2 Q 125.2 180.2, 124.8 179.7 Q 124.4 179.1, 124.4 178.1 Q 124.4 177.2, 124.8 176.6 Q 125.1 176.1, 125.9 176.1 Q 126.6 176.1, 127.0 176.6 Q 127.4 177.2, 127.4 178.1 Q 127.4 179.1, 127.0 179.7 Q 126.6 180.2, 125.9 180.2 M 125.9 179.8 Q 126.3 179.8, 126.6 179.4 Q 126.8 178.9, 126.8 178.1 Q 126.8 177.3, 126.6 176.9 Q 126.3 176.5, 125.9 176.5 Q 125.5 176.5, 125.2 176.9 Q 125.0 177.3, 125.0 178.1 Q 125.0 178.9, 125.2 179.4 Q 125.5 179.8, 125.9 179.8 " fill="#000000"/>
<path class="note" d="M 103.3 132.8 L 104.2 132.8 L 104.2 129.7 L 103.2 130.0 L 103.1 129.7 L 104.3 129.1 L 104.7 129.2 L 104.7 132.8 L 105.5 132.8 L 105.5 133.2 L 103.3 133.2 L 103.3 132.8 " fill="#000000"/>
<path class="note" d="M 106.0 132.8 L 106.9 132.8 L 106.9 129.7 L 105.9 130.0 L 105.8 129.7 L 107.0 129.1 L 107.4 129.2 L 107.4 132.8 L 108.2 132.8 L 108.2 133.2 L 106.0 133.2 L 106.0 132.8 " fill="#000000"/>
<path class="note" d="M 147.3 166.2 L 148.2 166.2 L 148.2 163.2 L 147.2 163.5 L 147.1 163.1 L 148.3 162.6 L 148.7 162.7 L 148.7 166.2 L 149.5 166.2 L 149.5 166.7 L 147.3 166.7 L 147.3 166.2 " fill="#000000"/>
<path class="note" d="M 149.8 163.4 Q 149.9 163.0, 150.3 162.8 Q 150.6 162.6, 151.1 162.6 Q 151.7 162.6, 152.1 162.9 Q 152.4 163.2, 152.4 163.8 Q 152.4 164.4, 152.0 165.0 Q 151.5 165.5, 150.6 166.2 L 152.5 166.2 L 152.5 166.7 L 149.8 166.7 L 149.8 166.3 Q 150.5 165.7, 151.0 165.3 Q 151.4 164.9, 151.6 164.6 Q 151.9 164.2, 151.9 163.8 Q 151.9 163.5, 151.7 163.2 Q 151.5 163.0, 151.1 163.0 Q 150.8 163.0, 150.6 163.1 Q 150.4 163.3, 150.2 163.6 L 149.8 163.4 " fill="#000000"/>
<path class="note" d="M 172.6 152.7 L 173.4 152.7 L 173.4 149.7 L 172.5 150.0 L 172.3 149.6 L 173.6 149.1 L 174.0 149.1 L 174.0 152.7 L 174.8 152.7 L 174.8 153.1 L 172.6 153.1 L 172.6 152.7 " fill="#000000"/>
<path class="note" d="M 177.0 151.0 Q 177.4 151.1, 177.5 151.4 Q 177.7 151.6, 177.7 152.0 Q 177.7 152.4, 177.6 152.6 Q 177.4 152.9, 177.1 153.1 Q 176.8 153.2, 176.4 153.2 Q 175.9 153.2, 175.6 153.1 Q 175.3 152.9, 175.0 152.6 L 175.3 152.3 Q 175.6 152.5, 175.8 152.6 Q 176.0 152.7, 176.4 152.7 Q 176.7 152.7, 176.9 152.5 Q 177.2 152.3, 177.2 152.0 Q 177.2 151.6, 176.9 151.4 Q 176.7 151.2, 176.2 151.2 L 175.9 151.2 L 175.9 150.8 L 176.2 150.8 Q 176.6 150.8, 176.8 150.6 Q 177.1 150.4, 177.1 150.1 Q 177.1 149.8, 176.9 149.7 Q 176.7 149.5, 176.4 149.5 Q 176.0 149.5, 175.8 149.6 Q 175.6 149.7, 175.4 150.0 L 175.0 149.8 Q 175.2 149.5, 175.5 149.3 Q 175.9 149.0, 176.4 149.0 Q 177.0 149.0, 177.3 149.3 Q 177.7 149.6, 177.7 150.1 Q 177.7 150.4, 177.5 150.6 Q 177.3 150.9, 177.0 151.0 " fill="#000000"/>
<path class="note" d="M 145.5 82.9 L 146.3 82.9 L 146.3 79.9 L 145.4 80.2 L 145.2 79.8 L 146.5 79.3 L 146.9 79.3 L 146.9 82.9 L 147.7 82.9 L 147.7 83.4 L 145.5 83.4 L 145.5 82.9 " fill="#000000"/>
<path class="note" d="M 150.6 82.0 L 151.0 82.0 L 151.0 82.4 L 150.6 82.4 L 150.6 83.4 L 150.0 83.4 L 150.0 82.4 L 147.9 82.4 L 147.9 82.1 L 149.7 79.3 L 150.6 79.3 L 150.6 82.0 M 148.6 82.0 L 150.0 82.0 L 150.0 79.7 L 148.6 82.0 " fill="#000000"/>
<path class="note" d="M 212.2 125.6 L 213.1 125.6 L 213.1 122.6 L 212.1 122.9 L 212.0 122.6 L 213.2 122.0 L 213.6 122.1 L 213.6 125.6 L 214.4 125.6 L 214.4 126.1 L 212.2 126.1 L 212.2 125.6 " fill="#000000"/>
<path class="note" d="M 216.1 123.6 Q 216.5 123.6, 216.8 123.7 Q 217.1 123.9, 217.2 124.2 Q 217.4 124.4, 217.4 124.8 Q 217.4 125.2, 217.2 125.5 Q 217.0 125.8, 216.7 126.0 Q 216.3 126.1, 216.0 126.1 Q 215.6 126.1, 215.2 126.0 Q 214.9 125.9, 214.7 125.6 L 215.0 125.3 Q 215.2 125.5, 215.4 125.6 Q 215.7 125.7, 216.0 125.7 Q 216.3 125.7, 216.6 125.5 Q 216.8 125.2, 216.8 124.8 Q 216.8 124.4, 216.6 124.2 Q 216.3 124.0, 215.9 124.0 Q 215.6 124.0, 215.2 124.1 L 214.9 124.0 L 215.1 122.0 L 217.1 122.0 L 217.1 122.5 L 215.5 122.5 L 215.4 123.7 Q 215.8 123.6, 216.1 123.6 " fill="#000000"/>
<path class="note" d="M 140.0 100.3 L 140.9 100.3 L 140.9 97.3 L 139.9 97.6 L 139.8 97.3 L 141.0 96.7 L 141.4 96.8 L 141.4 100.3 L 142.2 100.3 L 142.2 100.8 L 140.0 100.8 L 140.0 100.3 " fill="#000000"/>
<path class="note" d="M 144.0 98.3 Q 144.4 98.3, 144.7 98.4 Q 145.0 98.6, 145.1 98.8 Q 145.3 99.1, 145.3 99.5 Q 145.3 99.9, 145.1 100.2 Q 144.9 100.5, 144.6 100.7 Q 144.3 100.8, 143.9 100.8 Q 143.2 100.8, 142.8 100.3 Q 142.5 99.8, 142.5 98.9 Q 142.5 97.8, 142.9 97.2 Q 143.4 96.7, 144.2 96.7 Q 144.5 96.7, 144.7 96.7 Q 144.9 96.8, 145.1 96.9 L 144.9 97.3 Q 144.6 97.1, 144.2 97.1 Q 143.7 97.1, 143.4 97.5 Q 143.1 97.9, 143.0 98.6 Q 143.2 98.5, 143.5 98.4 Q 143.8 98.3, 144.0 98.3 M 143.9 100.4 Q 144.1 100.4, 144.3 100.2 Q 144.5 100.1, 144.6 99.9 Q 144.7 99.7, 144.7 99.5 Q 144.7 99.1, 144.5 98.9 Q 144.3 98.7, 143.9 98.7 Q 143.7 98.7, 143.5 98.8 Q 143.2 98.9, 143.0 99.1 Q 143.1 99.8, 143.3 100.1 Q 143.5 100.4, 143.9 100.4 " fill="#000000"/>
<path class="note" d="M 99.9 157.8 L 100.8 157.8 L 100.8 154.8 L 99.8 155.1 L 99.7 154.8 L 100.9 154.2 L 101.3 154.3 L 101.3 157.8 L 102.1 157.8 L 102.1 158.3 L 99.9 158.3 L 99.9 157.8 " fill="#000000"/>
<path class="note" d="M 104.5 154.7 L 102.4 154.7 L 102.4 154.2 L 105.1 154.2 L 105.1 154.6 L 103.4 158.3 L 102.9 158.3 L 104.5 154.7 " fill="#000000"/>
<path class="note" d="M 72.4 87.2 L 73.3 87.2 L 73.3 84.1 L 72.4 84.4 L 72.2 84.1 L 73.5 83.6 L 73.9 83.6 L 73.9 87.2 L 74.7 87.2 L 74.7 87.6 L 72.4 87.6 L 72.4 87.2 " fill="#000000"/>
<path class="note" d="M 77.0 85.5 Q 77.4 85.6, 77.6 85.9 Q 77.8 86.1, 77.8 86.5 Q 77.8 86.9, 77.6 87.1 Q 77.4 87.4, 77.1 87.5 Q 76.8 87.7, 76.4 87.7 Q 75.7 87.7, 75.3 87.4 Q 74.9 87.1, 74.9 86.5 Q 74.9 86.2, 75.1 85.9 Q 75.3 85.7, 75.6 85.5 Q 75.3 85.4, 75.2 85.1 Q 75.1 84.9, 75.1 84.6 Q 75.1 84.1, 75.4 83.8 Q 75.8 83.5, 76.3 83.5 Q 76.9 83.5, 77.3 83.8 Q 77.6 84.1, 77.6 84.6 Q 77.6 84.9, 77.5 85.1 Q 77.3 85.3, 77.0 85.5 M 76.3 84.0 Q 76.0 84.0, 75.8 84.1 Q 75.6 84.3, 75.6 84.6 Q 75.6 84.8, 75.8 84.9 Q 75.9 85.1, 76.1 85.1 Q 76.2 85.2, 76.6 85.3 Q 76.8 85.2, 76.9 85.0 Q 77.1 84.8, 77.1 84.6 Q 77.1 84.3, 76.9 84.1 Q 76.7 84.0, 76.3 84.0 M 76.4 87.3 Q 76.7 87.3, 77.0 87.1 Q 77.2 86.9, 77.2 86.5 Q 77.2 86.3, 77.1 86.2 Q 77.0 86.0, 76.8 85.9 Q 76.6 85.9, 76.3 85.8 L 76.0 85.7 Q 75.7 85.8, 75.6 86.1 Q 75.5 86.3, 75.5 86.5 Q 75.5 86.9, 75.7 87.1 Q 76.0 87.3, 76.4 87.3 " fill="#000000"/>
<path class="note" d="M 32.8 114.2 L 33.7 114.2 L 33.7 111.2 L 32.7 111.5 L 32.6 111.1 L 33.8 110.6 L 34.2 110.7 L 34.2 114.2 L 35.0 114.2 L 35.0 114.7 L 32.8 114.7 L 32.8 114.2 " fill="#000000"/>
<path class="note" d="M 36.6 110.6 Q 37.4 110.6, 37.7 111.1 Q 38.1 111.5, 38.1 112.5 Q 38.1 113.6, 37.6 114.2 Q 37.2 114.7, 36.3 114.7 Q 36.1 114.7, 35.9 114.7 Q 35.7 114.6, 35.4 114.5 L 35.7 114.1 Q 36.0 114.3, 36.3 114.3 Q 36.9 114.3, 37.2 113.9 Q 37.5 113.5, 37.5 112.8 Q 37.3 112.9, 37.1 113.0 Q 36.8 113.1, 36.5 113.1 Q 36.2 113.1, 35.9 113.0 Q 35.6 112.8, 35.4 112.6 Q 35.3 112.3, 35.3 111.9 Q 35.3 111.5, 35.5 111.2 Q 35.6 110.9, 35.9 110.7 Q 36.3 110.6, 36.6 110.6 M 35.9 111.9 Q 35.9 112.3, 36.1 112.5 Q 36.3 112.7, 36.6 112.7 Q 36.9 112.7, 37.1 112.6 Q 37.3 112.5, 37.5 112.3 Q 37.5 111.6, 37.3 111.3 Q 37.1 111.0, 36.6 111.0 Q 36.4 111.0, 36.2 111.2 Q 36.1 111.3, 36.0 111.5 Q 35.9 111.7, 35.9 111.9 " fill="#000000"/>
<path class="legend" d="M 65.3 238.9 L 67.8 238.9 L 67.8 230.5 L 65.0 231.3 L 64.7 230.4 L 68.1 228.8 L 69.3 229.0 L 69.3 238.9 L 71.5 238.9 L 71.5 240.2 L 65.3 240.2 L 65.3 238.9 " fill="#000000"/>
<path class="legend" d="M 76.3 240.3 Q 74.2 240.3, 73.2 238.8 Q 72.2 237.3, 72.2 234.5 Q 72.2 231.8, 73.2 230.3 Q 74.2 228.7, 76.3 228.7 Q 78.4 228.7, 79.4 230.3 Q 80.5 231.8, 80.5 234.5 Q 80.5 237.3, 79.4 238.8 Q 78.4 240.3, 76.3 240.3 M 76.3 239.0 Q 77.6 239.0, 78.2 237.9 Q 78.9 236.8, 78.9 234.5 Q 78.9 232.3, 78.2 231.2 Q 77.6 230.0, 76.3 230.0 Q 75.1 230.0, 74.4 231.2 Q 73.8 232.3, 73.8 234.5 Q 73.8 236.8, 74.4 237.9 Q 75.1 239.0, 76.3 239.0 " fill="#000000"/>
<path class="legend" d="M 85.7 240.3 Q 83.6 240.3, 82.5 238.8 Q 81.5 237.3, 81.5 234.5 Q 81.5 231.8, 82.5 230.3 Q 83.6 228.7, 85.7 228.7 Q 87.7 228.7, 88.8 230.3 Q 89.8 231.8, 89.8 234.5 Q 89.8 237.3, 88.8 238.8 Q 87.7 240.3, 85.7 240.3 M 85.7 239.0 Q 86.9 239.0, 87.5 237.9 Q 88.2 236.8, 88.2 234.5 Q 88.2 232.3, 87.5 231.2 Q 86.9 230.0, 85.7 230.0 Q 84.4 230.0, 83.8 231.2 Q 83.1 232.3, 83.1 234.5 Q 83.1 236.8, 83.8 237.9 Q 84.4 239.0, 85.7 239.0 " fill="#000000"/>
<path class="legend" d="M 96.6 234.2 Q 97.7 234.6, 98.2 235.3 Q 98.8 236.0, 98.8 237.1 Q 98.8 238.1, 98.3 238.8 Q 97.8 239.5, 96.9 240.0 Q 96.1 240.4, 94.9 240.4 Q 93.0 240.4, 91.9 239.5 Q 90.8 238.6, 90.8 237.1 Q 90.8 236.2, 91.3 235.5 Q 91.8 234.8, 92.8 234.2 Q 92.1 233.8, 91.7 233.2 Q 91.3 232.6, 91.3 231.6 Q 91.3 230.3, 92.2 229.5 Q 93.2 228.7, 94.8 228.7 Q 96.5 228.7, 97.4 229.5 Q 98.4 230.3, 98.4 231.6 Q 98.4 232.5, 98.0 233.1 Q 97.5 233.7, 96.6 234.2 M 94.8 229.9 Q 93.9 229.9, 93.4 230.4 Q 92.9 230.8, 92.9 231.6 Q 92.9 232.2, 93.2 232.6 Q 93.6 233.0, 94.1 233.2 Q 94.6 233.5, 95.5 233.8 Q 96.2 233.3, 96.5 232.8 Q 96.8 232.3, 96.8 231.6 Q 96.8 230.8, 96.3 230.4 Q 95.8 229.9, 94.8 229.9 M 94.9 239.2 Q 96.0 239.2, 96.6 238.6 Q 97.2 238.0, 97.2 237.1 Q 97.2 236.5, 96.9 236.1 Q 96.6 235.7, 96.1 235.5 Q 95.6 235.3, 94.7 235.0 L 93.9 234.7 Q 93.1 235.2, 92.8 235.8 Q 92.4 236.3, 92.4 237.1 Q 92.4 238.0, 93.1 238.6 Q 93.8 239.2, 94.9 239.2 " fill="#000000"/>
<path class="legend" d="M 104.3 233.1 Q 105.3 233.1, 106.1 233.6 Q 106.8 234.0, 107.3 234.8 Q 107.7 235.6, 107.7 236.6 Q 107.7 237.7, 107.2 238.5 Q 106.7 239.4, 105.9 239.8 Q 105.0 240.3, 103.9 240.3 Q 101.9 240.3, 100.9 239.0 Q 99.8 237.6, 99.8 234.9 Q 99.8 231.9, 101.1 230.3 Q 102.4 228.7, 104.8 228.7 Q 105.5 228.7, 106.1 228.9 Q 106.7 229.1, 107.3 229.4 L 106.6 230.5 Q 105.8 230.0, 104.8 230.0 Q 103.2 230.0, 102.4 231.1 Q 101.6 232.1, 101.5 234.2 Q 102.0 233.7, 102.8 233.4 Q 103.5 233.1, 104.3 233.1 M 103.9 239.0 Q 104.5 239.0, 105.0 238.7 Q 105.5 238.4, 105.8 237.8 Q 106.1 237.3, 106.1 236.6 Q 106.1 235.6, 105.5 235.0 Q 105.0 234.4, 104.0 234.4 Q 103.3 234.4, 102.6 234.7 Q 101.9 235.0, 101.5 235.4 Q 101.5 237.3, 102.1 238.2 Q 102.7 239.0, 103.9 239.0 " fill="#000000"/>
<path class="legend" d="M 114.5 230.2 L 108.6 230.2 L 108.6 228.9 L 116.1 228.9 L 116.1 230.0 L 111.5 240.2 L 110.0 240.2 L 114.5 230.2 " fill="#000000"/>
<path class="legend" d="M 124.7 241.0 L 124.7 242.3 L 116.6 242.3 L 116.6 241.0 L 124.7 241.0 " fill="#000000"/>
<path class="legend" d="M 130.2 234.2 Q 131.3 234.6, 131.8 235.3 Q 132.3 236.0, 132.3 237.1 Q 132.3 238.1, 131.9 238.8 Q 131.4 239.5, 130.5 240.0 Q 129.6 240.4, 128.5 240.4 Q 127.3 240.4, 126.3 239.9 Q 125.4 239.5, 124.7 238.6 L 125.6 237.7 Q 126.3 238.5, 126.9 238.8 Q 127.5 239.1, 128.5 239.1 Q 129.5 239.1, 130.1 238.5 Q 130.7 238.0, 130.7 237.1 Q 130.7 235.9, 130.1 235.4 Q 129.4 234.9, 128.1 234.9 L 127.2 234.9 L 127.2 233.7 L 128.0 233.7 Q 129.2 233.7, 129.8 233.2 Q 130.5 232.6, 130.5 231.6 Q 130.5 230.9, 130.0 230.5 Q 129.4 230.0, 128.5 230.0 Q 127.5 230.0, 126.9 230.4 Q 126.4 230.7, 125.9 231.5 L 124.8 231.0 Q 125.2 230.0, 126.2 229.4 Q 127.1 228.7, 128.5 228.7 Q 130.1 228.7, 131.1 229.5 Q 132.1 230.3, 132.1 231.6 Q 132.1 232.6, 131.6 233.2 Q 131.1 233.9, 130.2 234.2 " fill="#000000"/>
<path class="legend" d="" fill="#000000"/>
<path class="legend" d="M 138.6 235.6 Q 138.6 233.3, 139.3 231.5 Q 139.9 229.6, 141.2 227.5 L 142.1 228.1 Q 141.1 230.0, 140.6 231.7 Q 140.1 233.4, 140.1 235.6 Q 140.1 237.8, 140.6 239.5 Q 141.1 241.2, 142.1 243.2 L 141.2 243.8 Q 139.9 241.7, 139.3 239.8 Q 138.6 238.0, 138.6 235.6 " fill="#000000"/>
<path class="legend" d="M 151.6 234.6 L 151.6 239.4 Q 150.0 240.3, 147.6 240.3 Q 145.2 240.3, 143.9 238.8 Q 142.5 237.3, 142.5 234.5 Q 142.5 231.7, 143.9 230.2 Q 145.2 228.7, 147.7 228.7 Q 149.0 228.7, 150.0 229.2 Q 150.9 229.6, 151.6 230.4 L 150.6 231.3 Q 149.5 230.0, 147.7 230.0 Q 146.0 230.0, 145.1 231.2 Q 144.2 232.3, 144.2 234.5 Q 144.2 236.8, 145.1 237.9 Q 146.0 239.1, 147.9 239.1 Q 149.1 239.1, 150.1 238.7 L 150.1 234.6 L 151.6 234.6 " fill="#000000"/>
<path class="legend" d="M 154.1 232.0 L 154.2 233.1 Q 155.1 231.8, 156.5 231.8 Q 157.0 231.8, 157.6 232.0 L 157.3 233.3 Q 156.6 233.2, 156.3 233.2 Q 155.6 233.2, 155.1 233.4 Q 154.7 233.7, 154.3 234.3 L 154.3 240.2 L 152.8 240.2 L 152.8 232.0 L 154.1 232.0 " fill="#000000"/>
<path class="legend" d="M 157.8 236.1 Q 157.8 234.1, 158.8 233.0 Q 159.8 231.8, 161.7 231.8 Q 163.5 231.8, 164.3 232.9 Q 165.1 234.0, 165.1 236.0 L 165.1 236.3 L 159.3 236.3 Q 159.4 237.7, 160.0 238.4 Q 160.6 239.1, 161.8 239.1 Q 162.4 239.1, 163.0 239.0 Q 163.6 238.8, 164.3 238.5 L 164.8 239.5 Q 163.9 240.0, 163.2 240.2 Q 162.5 240.3, 161.7 240.3 Q 159.9 240.3, 158.8 239.2 Q 157.8 238.1, 157.8 236.1 M 161.7 233.0 Q 160.7 233.0, 160.1 233.6 Q 159.6 234.1, 159.4 235.2 L 163.5 235.2 Q 163.4 234.1, 162.9 233.5 Q 162.5 233.0, 161.7 233.0 " fill="#000000"/>
<path class="legend" d="M 165.7 236.1 Q 165.7 234.1, 166.7 233.0 Q 167.7 231.8, 169.5 231.8 Q 171.4 231.8, 172.2 232.9 Q 173.0 234.0, 173.0 236.0 L 173.0 236.3 L 167.2 236.3 Q 167.3 237.7, 167.9 238.4 Q 168.5 239.1, 169.7 239.1 Q 170.3 239.1, 170.9 239.0 Q 171.5 238.8, 172.2 238.5 L 172.7 239.5 Q 171.8 240.0, 171.1 240.2 Q 170.4 240.3, 169.6 240.3 Q 167.7 240.3, 166.7 239.2 Q 165.7 238.1, 165.7 236.1 M 169.5 233.0 Q 168.6 233.0, 168.0 233.6 Q 167.5 234.1, 167.3 235.2 L 171.4 235.2 Q 171.3 234.1, 170.8 233.5 Q 170.4 233.0, 169.5 233.0 " fill="#000000"/>
<path class="legend" d="M 177.9 231.8 Q 179.2 231.8, 179.9 232.6 Q 180.6 233.3, 180.6 234.8 L 180.6 240.2 L 179.1 240.2 L 179.1 234.9 Q 179.1 233.9, 178.7 233.5 Q 178.3 233.0, 177.5 233.0 Q 176.7 233.0, 176.1 233.4 Q 175.5 233.7, 175.1 234.3 L 175.1 240.2 L 173.6 240.2 L 173.6 232.0 L 174.8 232.0 L 175.0 233.1 Q 176.1 231.8, 177.9 231.8 " fill="#000000"/>
<path class="legend" d="M 185.3 235.6 Q 185.3 238.0, 184.7 239.8 Q 184.0 241.7, 182.7 243.8 L 181.8 243.2 Q 182.8 241.2, 183.4 239.5 Q 183.9 237.8, 183.9 235.6 Q 183.9 233.4, 183.4 231.7 Q 182.8 230.0, 181.8 228.1 L 182.7 227.5 Q 184.0 229.6, 184.7 231.5 Q 185.3 233.3, 185.3 235.6 " fill="#000000"/>
<path class="bond-5 atom-5 atom-6" d="M 343.0,119.2 L 317.8,132.8" style="fill:none;fill-rule:evenodd;stroke:#FF7F7F;stroke-width:6.1px;stroke-linecap:butt;stroke-linejoin:miter;stroke-opacity:1"/>
<path class="bond-18 atom-6 atom-19" d="M 317.8,132.8 L 293.5,117.7" style="fill:none;fill-rule:evenodd;stroke:#FF7F7F;stroke-width:6.1px;stroke-linecap:butt;stroke-linejoin:miter;stroke-opacity:1"/>
<ellipse cx="343.0" cy="119.2" rx="5.7" ry="5.7" class="atom-5" style="fill:#FF7F7F;fill-rule:evenodd;stroke:#FF7F7F;stroke-width:1.0px;stroke-linecap:butt;stroke-linejoin:miter;stroke-opacity:1"/>
<ellipse cx="317.8" cy="132.8" rx="5.7" ry="5.9" class="atom-6" style="fill:#FF7F7F;fill-rule:evenodd;stroke:#FF7F7F;stroke-width:1.0px;stroke-linecap:butt;stroke-linejoin:miter;stroke-opacity:1"/>
<ellipse cx="293.5" cy="117.7" rx="5.7" ry="5.7" class="atom-19" style="fill:#FF7F7F;fill-rule:evenodd;stroke:#FF7F7F;stroke-width:1.0px;stroke-linecap:butt;stroke-linejoin:miter;stroke-opacity:1"/>
<path class="bond-0 atom-0 atom-1" d="M 356.5,144.5 L 381.8,131.0" style="fill:none;fill-rule:evenodd;stroke:#000000;stroke-width:2.0px;stroke-linecap:butt;stroke-linejoin:miter;stroke-opacity:1"/>
<path class="bond-1 atom-1 atom-2" d="M 381.8,131.0 L 407.0,117.4" style="fill:none;fill-rule:evenodd;stroke:#000000;stroke-width:2.0px;stroke-linecap:butt;stroke-linejoin:miter;stroke-opacity:1"/>
<path class="bond-2 atom-2 atom-3" d="M 407.0,117.4 L 417.3,111.9" style="fill:none;fill-rule:evenodd;stroke:#000000;stroke-width:2.0px;stroke-linecap:butt;stroke-linejoin:miter;stroke-opacity:1"/>
<path class="bond-2 atom-2 atom-3" d="M 417.3,111.9 L 427.6,106.4" style="fill:none;fill-rule:evenodd;stroke:#FF0000;stroke-width:2.0px;stroke-linecap:butt;stroke-linejoin:miter;stroke-opacity:1"/>
<path class="bond-3 atom-1 atom-4" d="M 381.8,131.0 L 368.3,105.7" style="fill:none;fill-rule:evenodd;stroke:#000000;stroke-width:2.0px;stroke-linecap:butt;stroke-linejoin:miter;stroke-opacity:1"/>
<path class="bond-4 atom-4 atom-5" d="M 368.3,105.7 L 343.0,119.2" style="fill:none;fill-rule:evenodd;stroke:#000000;stroke-width:2.0px;stroke-linecap:butt;stroke-linejoin:miter;stroke-opacity:1"/>
<path class="bond-5 atom-5 atom-6" d="M 343.0,119.2 L 332.7,124.7" style="fill:none;fill-rule:evenodd;stroke:#000000;stroke-width:2.0px;stroke-linecap:butt;stroke-linejoin:miter;stroke-opacity:1"/>
<path class="bond-5 atom-5 atom-6" d="M 332.7,124.7 L 322.4,130.3" style="fill:none;fill-rule:evenodd;stroke:#FF0000;stroke-width:2.0px;stroke-linecap:butt;stroke-linejoin:miter;stroke-opacity:1"/>
<path class="bond-6 atom-4 atom-7" d="M 368.3,105.7 L 354.7,80.5" style="fill:none;fill-rule:evenodd;stroke:#000000;stroke-width:2.0px;stroke-linecap:butt;stroke-linejoin:miter;stroke-opacity:1"/>
<path class="bond-7 atom-7 atom-8" d="M 354.7,80.5 L 349.3,70.3" style="fill:none;fill-rule:evenodd;stroke:#000000;stroke-width:2.0px;stroke-linecap:butt;stroke-linejoin:miter;stroke-opacity:1"/>
<path class="bond-7 atom-7 atom-8" d="M 349.3,70.3 L 343.9,60.2" style="fill:none;fill-rule:evenodd;stroke:#0000FF;stroke-width:2.0px;stroke-linecap:butt;stroke-linejoin:miter;stroke-opacity:1"/>
<path class="bond-7 atom-7 atom-8" d="M 348.1,80.1 L 343.5,71.5" style="fill:none;fill-rule:evenodd;stroke:#000000;stroke-width:2.0px;stroke-linecap:butt;stroke-linejoin:miter;stroke-opacity:1"/>
<path class="bond-7 atom-7 atom-8" d="M 343.5,71.5 L 338.8,62.9" style="fill:none;fill-rule:evenodd;stroke:#0000FF;stroke-width:2.0px;stroke-linecap:butt;stroke-linejoin:miter;stroke-opacity:1"/>
<path class="bond-7 atom-7 atom-8" d="M 358.2,74.7 L 353.6,66.1" style="fill:none;fill-rule:evenodd;stroke:#000000;stroke-width:2.0px;stroke-linecap:butt;stroke-linejoin:miter;stroke-opacity:1"/>
<path class="bond-7 atom-7 atom-8" d="M 353.6,66.1 L 348.9,57.5" style="fill:none;fill-rule:evenodd;stroke:#0000FF;stroke-width:2.0px;stroke-linecap:butt;stroke-linejoin:miter;stroke-opacity:1"/>
<path class="bond-8 atom-0 atom-9" d="M 356.5,144.5 L 335.4,155.8" style="fill:none;fill-rule:evenodd;stroke:#000000;stroke-width:2.0px;stroke-linecap:butt;stroke-linejoin:miter;stroke-opacity:1"/>
<path class="bond-9 atom-0 atom-10" d="M 356.5,144.5 L 367.4,164.7" style="fill:none;fill-rule:evenodd;stroke:#000000;stroke-width:2.0px;stroke-linecap:butt;stroke-linejoin:miter;stroke-opacity:1"/>
<path class="bond-10 atom-0 atom-11" d="M 356.5,144.5 L 350.4,137.7" style="fill:none;fill-rule:evenodd;stroke:#000000;stroke-width:2.0px;stroke-linecap:butt;stroke-linejoin:miter;stroke-opacity:1"/>
<path class="bond-11 atom-1 atom-12" d="M 381.8,131.0 L 392.6,151.2" style="fill:none;fill-rule:evenodd;stroke:#000000;stroke-width:2.0px;stroke-linecap:butt;stroke-linejoin:miter;stroke-opacity:1"/>
<path class="bond-12 atom-2 atom-13" d="M 407.0,117.4 L 417.9,137.7" style="fill:none;fill-rule:evenodd;stroke:#000000;stroke-width:2.0px;stroke-linecap:butt;stroke-linejoin:miter;stroke-opacity:1"/>
<path class="bond-13 atom-2 atom-14" d="M 407.0,117.4 L 398.6,95.7" style="fill:none;fill-rule:evenodd;stroke:#000000;stroke-width:2.0px;stroke-linecap:butt;stroke-linejoin:miter;stroke-opacity:1"/>
<path class="bond-14 atom-3 atom-15" d="M 436.9,106.8 L 444.7,111.6" style="fill:none;fill-rule:evenodd;stroke:#FF0000;stroke-width:2.0px;stroke-linecap:butt;stroke-linejoin:miter;stroke-opacity:1"/>
<path class="bond-14 atom-3 atom-15" d="M 444.7,111.6 L 452.5,116.5" style="fill:none;fill-rule:evenodd;stroke:#000000;stroke-width:2.0px;stroke-linecap:butt;stroke-linejoin:miter;stroke-opacity:1"/>
<path class="bond-15 atom-4 atom-16" d="M 368.3,105.7 L 387.6,92.1" style="fill:none;fill-rule:evenodd;stroke:#000000;stroke-width:2.0px;stroke-linecap:butt;stroke-linejoin:miter;stroke-opacity:1"/>
<path class="bond-16 atom-5 atom-17" d="M 343.0,119.2 L 348.8,142.0" style="fill:none;fill-rule:evenodd;stroke:#000000;stroke-width:2.0px;stroke-linecap:butt;stroke-linejoin:miter;stroke-opacity:1"/>
<path class="bond-17 atom-5 atom-18" d="M 343.0,119.2 L 332.2,99.0" style="fill:none;fill-rule:evenodd;stroke:#000000;stroke-width:2.0px;stroke-linecap:butt;stroke-linejoin:miter;stroke-opacity:1"/>
<path class="bond-18 atom-6 atom-19" d="M 313.1,129.9 L 305.3,125.0" style="fill:none;fill-rule:evenodd;stroke:#FF0000;stroke-width:2.0px;stroke-linecap:butt;stroke-linejoin:miter;stroke-opacity:1"/>
<path class="bond-18 atom-6 atom-19" d="M 305.3,125.0 L 297.6,120.2" style="fill:none;fill-rule:evenodd;stroke:#000000;stroke-width:2.0px;stroke-linecap:butt;stroke-linejoin:miter;stroke-opacity:1"/>
<path class="atom-3" d="M 428.5 104.0 Q 428.5 102.0, 429.5 100.9 Q 430.5 99.8, 432.3 99.8 Q 434.1 99.8, 435.0 100.9 Q 436.0 102.0, 436.0 104.0 Q 436.0 105.9, 435.0 107.0 Q 434.0 108.2, 432.3 108.2 Q 430.5 108.2, 429.5 107.0 Q 428.5 105.9, 428.5 104.0 M 432.3 107.2 Q 433.5 107.2, 434.2 106.4 Q 434.8 105.6, 434.8 104.0 Q 434.8 102.4, 434.2 101.6 Q 433.5 100.7, 432.3 100.7 Q 431.0 100.7, 430.3 101.5 Q 429.7 102.3, 429.7 104.0 Q 429.7 105.6, 430.3 106.4 Q 431.0 107.2, 432.3 107.2 " fill="#FF0000"/>
<path class="atom-6" d="M 314.1 132.8 Q 314.1 130.8, 315.0 129.7 Q 316.0 128.7, 317.8 128.7 Q 319.6 128.7, 320.5 129.7 Q 321.5 130.8, 321.5 132.8 Q 321.5 134.7, 320.5 135.9 Q 319.6 137.0, 317.8 137.0 Q 316.0 137.0, 315.0 135.9 Q 314.1 134.8, 314.1 132.8 M 317.8 136.1 Q 319.0 136.1, 319.7 135.2 Q 320.4 134.4, 320.4 132.8 Q 320.4 131.2, 319.7 130.4 Q 319.0 129.6, 317.8 129.6 Q 316.5 129.6, 315.9 130.4 Q 315.2 131.2, 315.2 132.8 Q 315.2 134.4, 315.9 135.2 Q 316.5 136.1, 317.8 136.1 " fill="#FF0000"/>
<path class="atom-8" d="M 339.4 51.2 L 342.1 55.5 Q 342.4 55.9, 342.8 56.7 Q 343.2 57.4, 343.2 57.5 L 343.2 51.2 L 344.3 51.2 L 344.3 59.3 L 343.2 59.3 L 340.3 54.6 Q 340.0 54.1, 339.7 53.4 Q 339.3 52.8, 339.2 52.6 L 339.2 59.3 L 338.2 59.3 L 338.2 51.2 L 339.4 51.2 " fill="#0000FF"/>
<path class="atom-9" d="M 328.1 153.9 L 329.2 153.9 L 329.2 157.4 L 333.4 157.4 L 333.4 153.9 L 334.5 153.9 L 334.5 162.0 L 333.4 162.0 L 333.4 158.3 L 329.2 158.3 L 329.2 162.0 L 328.1 162.0 L 328.1 153.9 " fill="#000000"/>
<path class="atom-10" d="M 366.9 165.7 L 368.0 165.7 L 368.0 169.1 L 372.1 169.1 L 372.1 165.7 L 373.2 165.7 L 373.2 173.8 L 372.1 173.8 L 372.1 170.0 L 368.0 170.0 L 368.0 173.8 L 366.9 173.8 L 366.9 165.7 " fill="#000000"/>
<path class="atom-11" d="M 343.1 129.1 L 344.2 129.1 L 344.2 132.6 L 348.4 132.6 L 348.4 129.1 L 349.5 129.1 L 349.5 137.3 L 348.4 137.3 L 348.4 133.5 L 344.2 133.5 L 344.2 137.3 L 343.1 137.3 L 343.1 129.1 " fill="#000000"/>
<path class="atom-12" d="M 392.1 152.1 L 393.2 152.1 L 393.2 155.6 L 397.4 155.6 L 397.4 152.1 L 398.5 152.1 L 398.5 160.3 L 397.4 160.3 L 397.4 156.5 L 393.2 156.5 L 393.2 160.3 L 392.1 160.3 L 392.1 152.1 " fill="#000000"/>
<path class="atom-13" d="M 417.4 138.6 L 418.5 138.6 L 418.5 142.1 L 422.6 142.1 L 422.6 138.6 L 423.7 138.6 L 423.7 146.7 L 422.6 146.7 L 422.6 143.0 L 418.5 143.0 L 418.5 146.7 L 417.4 146.7 L 417.4 138.6 " fill="#000000"/>
<path class="atom-14" d="M 393.5 86.7 L 394.6 86.7 L 394.6 90.1 L 398.7 90.1 L 398.7 86.7 L 399.8 86.7 L 399.8 94.8 L 398.7 94.8 L 398.7 91.1 L 394.6 91.1 L 394.6 94.8 L 393.5 94.8 L 393.5 86.7 " fill="#000000"/>
<path class="atom-15" d="M 453.4 115.0 L 454.5 115.0 L 454.5 118.4 L 458.6 118.4 L 458.6 115.0 L 459.7 115.0 L 459.7 123.1 L 458.6 123.1 L 458.6 119.3 L 454.5 119.3 L 454.5 123.1 L 453.4 123.1 L 453.4 115.0 " fill="#000000"/>
<path class="atom-16" d="M 388.5 85.2 L 389.6 85.2 L 389.6 88.6 L 393.7 88.6 L 393.7 85.2 L 394.8 85.2 L 394.8 93.3 L 393.7 93.3 L 393.7 89.5 L 389.6 89.5 L 389.6 93.3 L 388.5 93.3 L 388.5 85.2 " fill="#000000"/>
<path class="atom-17" d="M 346.9 142.9 L 348.0 142.9 L 348.0 146.4 L 352.1 146.4 L 352.1 142.9 L 353.2 142.9 L 353.2 151.0 L 352.1 151.0 L 352.1 147.3 L 348.0 147.3 L 348.0 151.0 L 346.9 151.0 L 346.9 142.9 " fill="#000000"/>
<path class="atom-18" d="M 326.3 89.9 L 327.4 89.9 L 327.4 93.4 L 331.6 93.4 L 331.6 89.9 L 332.7 89.9 L 332.7 98.0 L 331.6 98.0 L 331.6 94.3 L 327.4 94.3 L 327.4 98.0 L 326.3 98.0 L 326.3 89.9 " fill="#000000"/>
<path class="atom-19" d="M 290.3 113.6 L 291.4 113.6 L 291.4 117.0 L 295.5 117.0 L 295.5 113.6 L 296.6 113.6 L 296.6 121.7 L 295.5 121.7 L 295.5 118.0 L 291.4 118.0 L 291.4 121.7 L 290.3 121.7 L 290.3 113.6 " fill="#000000"/>
<path class="note" d="M 365.7 149.3 Q 364.9 149.3, 364.6 148.8 Q 364.2 148.2, 364.2 147.3 Q 364.2 146.3, 364.6 145.7 Q 364.9 145.2, 365.7 145.2 Q 366.4 145.2, 366.8 145.7 Q 367.2 146.3, 367.2 147.3 Q 367.2 148.2, 366.8 148.8 Q 366.4 149.3, 365.7 149.3 M 365.7 148.9 Q 366.1 148.9, 366.3 148.5 Q 366.6 148.1, 366.6 147.3 Q 366.6 146.5, 366.3 146.1 Q 366.1 145.6, 365.7 145.6 Q 365.2 145.6, 365.0 146.1 Q 364.8 146.5, 364.8 147.3 Q 364.8 148.1, 365.0 148.5 Q 365.2 148.9, 365.7 148.9 " fill="#000000"/>
<path class="note" d="M 380.8 142.1 L 381.7 142.1 L 381.7 139.1 L 380.7 139.4 L 380.6 139.0 L 381.8 138.5 L 382.2 138.5 L 382.2 142.1 L 383.0 142.1 L 383.0 142.5 L 380.8 142.5 L 380.8 142.1 " fill="#000000"/>
<path class="note" d="M nan nan Q nan nan, nan nan Q nan nan, nan nan Q nan nan, nan nan Q nan nan, nan nan Q nan nan, nan nan Q nan nan, nan nan L nan nan L nan nan L nan nan L nan nan Q nan nan, nan nan Q nan nan, nan nan Q nan nan, nan nan Q nan nan, nan nan Q nan nan, nan nan Q nan nan, nan nan Q nan nan, nan nan L nan nan " fill="#000000"/>
<path class="note" d="M 433.1 94.3 Q 433.5 94.4, 433.7 94.7 Q 433.9 94.9, 433.9 95.3 Q 433.9 95.7, 433.7 95.9 Q 433.6 96.2, 433.3 96.4 Q 432.9 96.5, 432.5 96.5 Q 432.1 96.5, 431.8 96.3 Q 431.5 96.2, 431.2 95.9 L 431.5 95.6 Q 431.8 95.8, 432.0 95.9 Q 432.2 96.0, 432.5 96.0 Q 432.9 96.0, 433.1 95.8 Q 433.3 95.6, 433.3 95.3 Q 433.3 94.9, 433.1 94.7 Q 432.9 94.5, 432.4 94.5 L 432.1 94.5 L 432.1 94.1 L 432.4 94.1 Q 432.8 94.1, 433.0 93.9 Q 433.3 93.7, 433.3 93.4 Q 433.3 93.1, 433.1 93.0 Q 432.9 92.8, 432.5 92.8 Q 432.2 92.8, 432.0 92.9 Q 431.8 93.0, 431.6 93.3 L 431.2 93.1 Q 431.4 92.8, 431.7 92.6 Q 432.1 92.3, 432.5 92.3 Q 433.1 92.3, 433.5 92.6 Q 433.8 92.9, 433.8 93.4 Q 433.8 93.7, 433.7 93.9 Q 433.5 94.2, 433.1 94.3 " fill="#000000"/>
<path class="note" d="M 373.9 107.7 L 374.4 107.7 L 374.4 108.2 L 373.9 108.2 L 373.9 109.1 L 373.4 109.1 L 373.4 108.2 L 371.3 108.2 L 371.3 107.8 L 373.0 105.1 L 373.9 105.1 L 373.9 107.7 M 371.9 107.7 L 373.4 107.7 L 373.4 105.4 L 371.9 107.7 " fill="#000000"/>
<path class="note" d="M 347.5 120.7 Q 347.8 120.7, 348.1 120.8 Q 348.4 121.0, 348.6 121.2 Q 348.8 121.5, 348.8 121.9 Q 348.8 122.3, 348.6 122.6 Q 348.4 122.9, 348.0 123.1 Q 347.7 123.2, 347.3 123.2 Q 346.9 123.2, 346.6 123.1 Q 346.2 123.0, 346.0 122.7 L 346.4 122.3 Q 346.5 122.5, 346.8 122.7 Q 347.1 122.8, 347.3 122.8 Q 347.7 122.8, 347.9 122.5 Q 348.2 122.3, 348.2 121.9 Q 348.2 121.5, 347.9 121.3 Q 347.7 121.1, 347.3 121.1 Q 346.9 121.1, 346.5 121.2 L 346.2 121.1 L 346.4 119.1 L 348.5 119.1 L 348.4 119.6 L 346.9 119.6 L 346.8 120.8 Q 347.1 120.7, 347.5 120.7 " fill="#000000"/>
<path class="note" d="M 317.7 141.8 Q 318.0 141.8, 318.3 142.0 Q 318.6 142.1, 318.7 142.4 Q 318.9 142.7, 318.9 143.0 Q 318.9 143.4, 318.7 143.7 Q 318.5 144.0, 318.2 144.2 Q 317.9 144.4, 317.5 144.4 Q 316.8 144.4, 316.4 143.9 Q 316.1 143.4, 316.1 142.4 Q 316.1 141.4, 316.5 140.8 Q 317.0 140.2, 317.8 140.2 Q 318.1 140.2, 318.3 140.3 Q 318.5 140.4, 318.7 140.5 L 318.5 140.9 Q 318.2 140.7, 317.8 140.7 Q 317.3 140.7, 317.0 141.1 Q 316.7 141.4, 316.6 142.2 Q 316.9 142.0, 317.1 141.9 Q 317.4 141.8, 317.7 141.8 M 317.5 143.9 Q 317.7 143.9, 317.9 143.8 Q 318.1 143.7, 318.2 143.5 Q 318.3 143.3, 318.3 143.0 Q 318.3 142.7, 318.1 142.5 Q 317.9 142.3, 317.6 142.3 Q 317.3 142.3, 317.1 142.4 Q 316.8 142.5, 316.6 142.6 Q 316.7 143.3, 316.9 143.6 Q 317.1 143.9, 317.5 143.9 " fill="#000000"/>
<path class="note" d="M 351.3 81.2 L 349.2 81.2 L 349.2 80.7 L 351.9 80.7 L 351.9 81.1 L 350.2 84.8 L 349.7 84.8 L 351.3 81.2 " fill="#000000"/>
<path class="note" d="M 337.4 46.7 Q 337.7 46.9, 337.9 47.1 Q 338.2 47.4, 338.2 47.8 Q 338.2 48.1, 338.0 48.4 Q 337.8 48.6, 337.5 48.8 Q 337.2 48.9, 336.7 48.9 Q 336.1 48.9, 335.7 48.6 Q 335.3 48.3, 335.3 47.8 Q 335.3 47.4, 335.5 47.2 Q 335.6 46.9, 336.0 46.7 Q 335.7 46.6, 335.6 46.4 Q 335.4 46.2, 335.4 45.8 Q 335.4 45.3, 335.8 45.1 Q 336.1 44.8, 336.7 44.8 Q 337.3 44.8, 337.7 45.1 Q 338.0 45.3, 338.0 45.8 Q 338.0 46.1, 337.8 46.3 Q 337.7 46.6, 337.4 46.7 M 336.7 45.2 Q 336.4 45.2, 336.2 45.4 Q 336.0 45.5, 336.0 45.8 Q 336.0 46.0, 336.1 46.2 Q 336.3 46.3, 336.4 46.4 Q 336.6 46.5, 337.0 46.6 Q 337.2 46.4, 337.3 46.2 Q 337.4 46.0, 337.4 45.8 Q 337.4 45.5, 337.2 45.4 Q 337.1 45.2, 336.7 45.2 M 336.7 48.5 Q 337.1 48.5, 337.4 48.3 Q 337.6 48.1, 337.6 47.8 Q 337.6 47.5, 337.5 47.4 Q 337.3 47.3, 337.2 47.2 Q 337.0 47.1, 336.7 47.0 L 336.4 46.9 Q 336.1 47.1, 336.0 47.3 Q 335.9 47.5, 335.9 47.8 Q 335.9 48.1, 336.1 48.3 Q 336.3 48.5, 336.7 48.5 " fill="#000000"/>
<path class="note" d="M 322.8 160.4 Q 323.6 160.4, 323.9 160.9 Q 324.3 161.4, 324.3 162.4 Q 324.3 163.5, 323.8 164.0 Q 323.4 164.6, 322.5 164.6 Q 322.3 164.6, 322.1 164.5 Q 321.8 164.5, 321.6 164.4 L 321.9 164.0 Q 322.2 164.1, 322.5 164.1 Q 323.1 164.1, 323.4 163.8 Q 323.7 163.4, 323.7 162.6 Q 323.5 162.8, 323.2 162.9 Q 323.0 163.0, 322.7 163.0 Q 322.3 163.0, 322.1 162.9 Q 321.8 162.7, 321.6 162.4 Q 321.5 162.2, 321.5 161.8 Q 321.5 161.4, 321.7 161.1 Q 321.8 160.8, 322.1 160.6 Q 322.4 160.4, 322.8 160.4 M 322.1 161.8 Q 322.1 162.2, 322.3 162.4 Q 322.5 162.6, 322.8 162.6 Q 323.1 162.6, 323.3 162.5 Q 323.5 162.4, 323.7 162.2 Q 323.7 161.5, 323.5 161.2 Q 323.3 160.9, 322.8 160.9 Q 322.6 160.9, 322.4 161.0 Q 322.3 161.1, 322.2 161.3 Q 322.1 161.5, 322.1 161.8 " fill="#000000"/>
<path class="note" d="M 372.0 179.7 L 372.8 179.7 L 372.8 176.7 L 371.9 177.0 L 371.7 176.7 L 373.0 176.1 L 373.4 176.2 L 373.4 179.7 L 374.2 179.7 L 374.2 180.2 L 372.0 180.2 L 372.0 179.7 " fill="#000000"/>
<path class="note" d="M 375.9 180.2 Q 375.2 180.2, 374.8 179.7 Q 374.4 179.1, 374.4 178.1 Q 374.4 177.2, 374.8 176.6 Q 375.1 176.1, 375.9 176.1 Q 376.6 176.1, 377.0 176.6 Q 377.4 177.2, 377.4 178.1 Q 377.4 179.1, 377.0 179.7 Q 376.6 180.2, 375.9 180.2 M 375.9 179.8 Q 376.3 179.8, 376.6 179.4 Q 376.8 178.9, 376.8 178.1 Q 376.8 177.3, 376.6 176.9 Q 376.3 176.5, 375.9 176.5 Q 375.5 176.5, 375.2 176.9 Q 375.0 177.3, 375.0 178.1 Q 375.0 178.9, 375.2 179.4 Q 375.5 179.8, 375.9 179.8 " fill="#000000"/>
<path class="note" d="M 353.3 132.8 L 354.2 132.8 L 354.2 129.7 L 353.2 130.0 L 353.1 129.7 L 354.3 129.1 L 354.7 129.2 L 354.7 132.8 L 355.5 132.8 L 355.5 133.2 L 353.3 133.2 L 353.3 132.8 " fill="#000000"/>
<path class="note" d="M 356.0 132.8 L 356.9 132.8 L 356.9 129.7 L 355.9 130.0 L 355.8 129.7 L 357.0 129.1 L 357.4 129.2 L 357.4 132.8 L 358.2 132.8 L 358.2 133.2 L 356.0 133.2 L 356.0 132.8 " fill="#000000"/>
<path class="note" d="M 397.3 166.2 L 398.2 166.2 L 398.2 163.2 L 397.2 163.5 L 397.1 163.1 L 398.3 162.6 L 398.7 162.7 L 398.7 166.2 L 399.5 166.2 L 399.5 166.7 L 397.3 166.7 L 397.3 166.2 " fill="#000000"/>
<path class="note" d="M 399.8 163.4 Q 399.9 163.0, 400.3 162.8 Q 400.6 162.6, 401.1 162.6 Q 401.7 162.6, 402.1 162.9 Q 402.4 163.2, 402.4 163.8 Q 402.4 164.4, 402.0 165.0 Q 401.5 165.5, 400.6 166.2 L 402.5 166.2 L 402.5 166.7 L 399.8 166.7 L 399.8 166.3 Q 400.5 165.7, 401.0 165.3 Q 401.4 164.9, 401.6 164.6 Q 401.9 164.2, 401.9 163.8 Q 401.9 163.5, 401.7 163.2 Q 401.5 163.0, 401.1 163.0 Q 400.8 163.0, 400.6 163.1 Q 400.4 163.3, 400.2 163.6 L 399.8 163.4 " fill="#000000"/>
<path class="note" d="M 422.6 152.7 L 423.4 152.7 L 423.4 149.7 L 422.5 150.0 L 422.3 149.6 L 423.6 149.1 L 424.0 149.1 L 424.0 152.7 L 424.8 152.7 L 424.8 153.1 L 422.6 153.1 L 422.6 152.7 " fill="#000000"/>
<path class="note" d="M 427.0 151.0 Q 427.4 151.1, 427.5 151.4 Q 427.7 151.6, 427.7 152.0 Q 427.7 152.4, 427.6 152.6 Q 427.4 152.9, 427.1 153.1 Q 426.8 153.2, 426.4 153.2 Q 425.9 153.2, 425.6 153.1 Q 425.3 152.9, 425.0 152.6 L 425.3 152.3 Q 425.6 152.5, 425.8 152.6 Q 426.0 152.7, 426.4 152.7 Q 426.7 152.7, 426.9 152.5 Q 427.2 152.3, 427.2 152.0 Q 427.2 151.6, 426.9 151.4 Q 426.7 151.2, 426.2 151.2 L 425.9 151.2 L 425.9 150.8 L 426.2 150.8 Q 426.6 150.8, 426.8 150.6 Q 427.1 150.4, 427.1 150.1 Q 427.1 149.8, 426.9 149.7 Q 426.7 149.5, 426.4 149.5 Q 426.0 149.5, 425.8 149.6 Q 425.6 149.7, 425.4 150.0 L 425.0 149.8 Q 425.2 149.5, 425.5 149.3 Q 425.9 149.0, 426.4 149.0 Q 427.0 149.0, 427.3 149.3 Q 427.7 149.6, 427.7 150.1 Q 427.7 150.4, 427.5 150.6 Q 427.3 150.9, 427.0 151.0 " fill="#000000"/>
<path class="note" d="M 395.5 82.9 L 396.3 82.9 L 396.3 79.9 L 395.4 80.2 L 395.2 79.8 L 396.5 79.3 L 396.9 79.3 L 396.9 82.9 L 397.7 82.9 L 397.7 83.4 L 395.5 83.4 L 395.5 82.9 " fill="#000000"/>
<path class="note" d="M 400.6 82.0 L 401.0 82.0 L 401.0 82.4 L 400.6 82.4 L 400.6 83.4 L 400.0 83.4 L 400.0 82.4 L 397.9 82.4 L 397.9 82.1 L 399.7 79.3 L 400.6 79.3 L 400.6 82.0 M 398.6 82.0 L 400.0 82.0 L 400.0 79.7 L 398.6 82.0 " fill="#000000"/>
<path class="note" d="M 462.2 125.6 L 463.1 125.6 L 463.1 122.6 L 462.1 122.9 L 462.0 122.6 L 463.2 122.0 L 463.6 122.1 L 463.6 125.6 L 464.4 125.6 L 464.4 126.1 L 462.2 126.1 L 462.2 125.6 " fill="#000000"/>
<path class="note" d="M 466.1 123.6 Q 466.5 123.6, 466.8 123.7 Q 467.1 123.9, 467.2 124.2 Q 467.4 124.4, 467.4 124.8 Q 467.4 125.2, 467.2 125.5 Q 467.0 125.8, 466.7 126.0 Q 466.3 126.1, 466.0 126.1 Q 465.6 126.1, 465.2 126.0 Q 464.9 125.9, 464.7 125.6 L 465.0 125.3 Q 465.2 125.5, 465.4 125.6 Q 465.7 125.7, 466.0 125.7 Q 466.3 125.7, 466.6 125.5 Q 466.8 125.2, 466.8 124.8 Q 466.8 124.4, 466.6 124.2 Q 466.3 124.0, 465.9 124.0 Q 465.6 124.0, 465.2 124.1 L 464.9 124.0 L 465.1 122.0 L 467.1 122.0 L 467.1 122.5 L 465.5 122.5 L 465.4 123.7 Q 465.8 123.6, 466.1 123.6 " fill="#000000"/>
<path class="note" d="M 390.0 100.3 L 390.9 100.3 L 390.9 97.3 L 389.9 97.6 L 389.8 97.3 L 391.0 96.7 L 391.4 96.8 L 391.4 100.3 L 392.2 100.3 L 392.2 100.8 L 390.0 100.8 L 390.0 100.3 " fill="#000000"/>
<path class="note" d="M 394.0 98.3 Q 394.4 98.3, 394.7 98.4 Q 395.0 98.6, 395.1 98.8 Q 395.3 99.1, 395.3 99.5 Q 395.3 99.9, 395.1 100.2 Q 394.9 100.5, 394.6 100.7 Q 394.3 100.8, 393.9 100.8 Q 393.2 100.8, 392.8 100.3 Q 392.5 99.8, 392.5 98.9 Q 392.5 97.8, 392.9 97.2 Q 393.4 96.7, 394.2 96.7 Q 394.5 96.7, 394.7 96.7 Q 394.9 96.8, 395.1 96.9 L 394.9 97.3 Q 394.6 97.1, 394.2 97.1 Q 393.7 97.1, 393.4 97.5 Q 393.1 97.9, 393.0 98.6 Q 393.2 98.5, 393.5 98.4 Q 393.8 98.3, 394.0 98.3 M 393.9 100.4 Q 394.1 100.4, 394.3 100.2 Q 394.5 100.1, 394.6 99.9 Q 394.7 99.7, 394.7 99.5 Q 394.7 99.1, 394.5 98.9 Q 394.3 98.7, 393.9 98.7 Q 393.7 98.7, 393.5 98.8 Q 393.2 98.9, 393.0 99.1 Q 393.1 99.8, 393.3 100.1 Q 393.5 100.4, 393.9 100.4 " fill="#000000"/>
<path class="note" d="M 349.9 157.8 L 350.8 157.8 L 350.8 154.8 L 349.8 155.1 L 349.7 154.8 L 350.9 154.2 L 351.3 154.3 L 351.3 157.8 L 352.1 157.8 L 352.1 158.3 L 349.9 158.3 L 349.9 157.8 " fill="#000000"/>
<path class="note" d="M 354.5 154.7 L 352.4 154.7 L 352.4 154.2 L 355.1 154.2 L 355.1 154.6 L 353.4 158.3 L 352.9 158.3 L 354.5 154.7 " fill="#000000"/>
<path class="note" d="M 322.4 87.2 L 323.3 87.2 L 323.3 84.1 L 322.4 84.4 L 322.2 84.1 L 323.5 83.6 L 323.9 83.6 L 323.9 87.2 L 324.7 87.2 L 324.7 87.6 L 322.4 87.6 L 322.4 87.2 " fill="#000000"/>
<path class="note" d="M 327.0 85.5 Q 327.4 85.6, 327.6 85.9 Q 327.8 86.1, 327.8 86.5 Q 327.8 86.9, 327.6 87.1 Q 327.4 87.4, 327.1 87.5 Q 326.8 87.7, 326.4 87.7 Q 325.7 87.7, 325.3 87.4 Q 324.9 87.1, 324.9 86.5 Q 324.9 86.2, 325.1 85.9 Q 325.3 85.7, 325.6 85.5 Q 325.3 85.4, 325.2 85.1 Q 325.1 84.9, 325.1 84.6 Q 325.1 84.1, 325.4 83.8 Q 325.8 83.5, 326.3 83.5 Q 326.9 83.5, 327.3 83.8 Q 327.6 84.1, 327.6 84.6 Q 327.6 84.9, 327.5 85.1 Q 327.3 85.3, 327.0 85.5 M 326.3 84.0 Q 326.0 84.0, 325.8 84.1 Q 325.6 84.3, 325.6 84.6 Q 325.6 84.8, 325.8 84.9 Q 325.9 85.1, 326.1 85.1 Q 326.2 85.2, 326.6 85.3 Q 326.8 85.2, 326.9 85.0 Q 327.1 84.8, 327.1 84.6 Q 327.1 84.3, 326.9 84.1 Q 326.7 84.0, 326.3 84.0 M 326.4 87.3 Q 326.7 87.3, 327.0 87.1 Q 327.2 86.9, 327.2 86.5 Q 327.2 86.3, 327.1 86.2 Q 327.0 86.0, 326.8 85.9 Q 326.6 85.9, 326.3 85.8 L 326.0 85.7 Q 325.7 85.8, 325.6 86.1 Q 325.5 86.3, 325.5 86.5 Q 325.5 86.9, 325.7 87.1 Q 326.0 87.3, 326.4 87.3 " fill="#000000"/>
<path class="note" d="M 282.8 114.2 L 283.7 114.2 L 283.7 111.2 L 282.7 111.5 L 282.6 111.1 L 283.8 110.6 L 284.2 110.7 L 284.2 114.2 L 285.0 114.2 L 285.0 114.7 L 282.8 114.7 L 282.8 114.2 " fill="#000000"/>
<path class="note" d="M 286.6 110.6 Q 287.4 110.6, 287.7 111.1 Q 288.1 111.5, 288.1 112.5 Q 288.1 113.6, 287.6 114.2 Q 287.2 114.7, 286.3 114.7 Q 286.1 114.7, 285.9 114.7 Q 285.7 114.6, 285.4 114.5 L 285.7 114.1 Q 286.0 114.3, 286.3 114.3 Q 286.9 114.3, 287.2 113.9 Q 287.5 113.5, 287.5 112.8 Q 287.3 112.9, 287.1 113.0 Q 286.8 113.1, 286.5 113.1 Q 286.2 113.1, 285.9 113.0 Q 285.6 112.8, 285.4 112.6 Q 285.3 112.3, 285.3 111.9 Q 285.3 111.5, 285.5 111.2 Q 285.6 110.9, 285.9 110.7 Q 286.3 110.6, 286.6 110.6 M 285.9 111.9 Q 285.9 112.3, 286.1 112.5 Q 286.3 112.7, 286.6 112.7 Q 286.9 112.7, 287.1 112.6 Q 287.3 112.5, 287.5 112.3 Q 287.5 111.6, 287.3 111.3 Q 287.1 111.0, 286.6 111.0 Q 286.4 111.0, 286.2 111.2 Q 286.1 111.3, 286.0 111.5 Q 285.9 111.7, 285.9 111.9 " fill="#000000"/>
<path class="legend" d="M 315.2 238.9 L 317.7 238.9 L 317.7 230.5 L 315.0 231.3 L 314.6 230.4 L 318.1 228.8 L 319.2 229.0 L 319.2 238.9 L 321.4 238.9 L 321.4 240.2 L 315.2 240.2 L 315.2 238.9 " fill="#000000"/>
<path class="legend" d="M 326.2 240.3 Q 324.2 240.3, 323.1 238.8 Q 322.1 237.3, 322.1 234.5 Q 322.1 231.8, 323.1 230.3 Q 324.1 228.7, 326.2 228.7 Q 328.3 228.7, 329.4 230.3 Q 330.4 231.8, 330.4 234.5 Q 330.4 237.3, 329.3 238.8 Q 328.3 240.3, 326.2 240.3 M 326.2 239.0 Q 327.5 239.0, 328.1 237.9 Q 328.8 236.8, 328.8 234.5 Q 328.8 232.3, 328.1 231.2 Q 327.5 230.0, 326.2 230.0 Q 325.0 230.0, 324.3 231.2 Q 323.7 232.3, 323.7 234.5 Q 323.7 236.8, 324.3 237.9 Q 325.0 239.0, 326.2 239.0 " fill="#000000"/>
<path class="legend" d="M 335.6 240.3 Q 333.5 240.3, 332.4 238.8 Q 331.4 237.3, 331.4 234.5 Q 331.4 231.8, 332.4 230.3 Q 333.5 228.7, 335.6 228.7 Q 337.7 228.7, 338.7 230.3 Q 339.7 231.8, 339.7 234.5 Q 339.7 237.3, 338.7 238.8 Q 337.6 240.3, 335.6 240.3 M 335.6 239.0 Q 336.8 239.0, 337.5 237.9 Q 338.1 236.8, 338.1 234.5 Q 338.1 232.3, 337.5 231.2 Q 336.8 230.0, 335.6 230.0 Q 334.3 230.0, 333.7 231.2 Q 333.0 232.3, 333.0 234.5 Q 333.0 236.8, 333.7 237.9 Q 334.3 239.0, 335.6 239.0 " fill="#000000"/>
<path class="legend" d="M 346.5 234.2 Q 347.6 234.6, 348.2 235.3 Q 348.7 236.0, 348.7 237.1 Q 348.7 238.1, 348.3 238.8 Q 347.8 239.5, 346.9 240.0 Q 346.0 240.4, 344.8 240.4 Q 342.9 240.4, 341.8 239.5 Q 340.7 238.6, 340.7 237.1 Q 340.7 236.2, 341.2 235.5 Q 341.7 234.8, 342.7 234.2 Q 342.0 233.8, 341.6 233.2 Q 341.2 232.6, 341.2 231.6 Q 341.2 230.3, 342.1 229.5 Q 343.1 228.7, 344.7 228.7 Q 346.4 228.7, 347.4 229.5 Q 348.3 230.3, 348.3 231.6 Q 348.3 232.5, 347.9 233.1 Q 347.4 233.7, 346.5 234.2 M 344.7 229.9 Q 343.8 229.9, 343.3 230.4 Q 342.8 230.8, 342.8 231.6 Q 342.8 232.2, 343.1 232.6 Q 343.5 233.0, 344.0 233.2 Q 344.5 233.5, 345.5 233.8 Q 346.1 233.3, 346.4 232.8 Q 346.7 232.3, 346.7 231.6 Q 346.7 230.8, 346.2 230.4 Q 345.7 229.9, 344.7 229.9 M 344.8 239.2 Q 345.9 239.2, 346.5 238.6 Q 347.1 238.0, 347.1 237.1 Q 347.1 236.5, 346.8 236.1 Q 346.5 235.7, 346.0 235.5 Q 345.5 235.3, 344.6 235.0 L 343.9 234.7 Q 343.1 235.2, 342.7 235.8 Q 342.3 236.3, 342.3 237.1 Q 342.3 238.0, 343.0 238.6 Q 343.7 239.2, 344.8 239.2 " fill="#000000"/>
<path class="legend" d="M 354.2 233.1 Q 355.2 233.1, 356.0 233.6 Q 356.7 234.0, 357.2 234.8 Q 357.6 235.6, 357.6 236.6 Q 357.6 237.7, 357.1 238.5 Q 356.6 239.4, 355.8 239.8 Q 354.9 240.3, 353.8 240.3 Q 351.8 240.3, 350.8 239.0 Q 349.8 237.6, 349.8 234.9 Q 349.8 231.9, 351.0 230.3 Q 352.3 228.7, 354.7 228.7 Q 355.4 228.7, 356.0 228.9 Q 356.6 229.1, 357.2 229.4 L 356.5 230.5 Q 355.7 230.0, 354.7 230.0 Q 353.1 230.0, 352.3 231.1 Q 351.5 232.1, 351.4 234.2 Q 351.9 233.7, 352.7 233.4 Q 353.4 233.1, 354.2 233.1 M 353.8 239.0 Q 354.4 239.0, 354.9 238.7 Q 355.4 238.4, 355.7 237.8 Q 356.0 237.3, 356.0 236.6 Q 356.0 235.6, 355.5 235.0 Q 354.9 234.4, 353.9 234.4 Q 353.2 234.4, 352.5 234.7 Q 351.9 235.0, 351.4 235.4 Q 351.4 237.3, 352.0 238.2 Q 352.6 239.0, 353.8 239.0 " fill="#000000"/>
<path class="legend" d="M 364.4 230.2 L 358.5 230.2 L 358.5 228.9 L 366.0 228.9 L 366.0 230.0 L 361.4 240.2 L 359.9 240.2 L 364.4 230.2 " fill="#000000"/>
<path class="legend" d="M 374.6 241.0 L 374.6 242.3 L 366.5 242.3 L 366.5 241.0 L 374.6 241.0 " fill="#000000"/>
<path class="legend" d="M 379.1 233.1 Q 380.1 233.1, 380.8 233.6 Q 381.6 234.0, 382.1 234.8 Q 382.5 235.6, 382.5 236.6 Q 382.5 237.7, 382.0 238.5 Q 381.5 239.4, 380.7 239.8 Q 379.8 240.3, 378.7 240.3 Q 376.7 240.3, 375.6 239.0 Q 374.6 237.6, 374.6 234.9 Q 374.6 231.9, 375.9 230.3 Q 377.1 228.7, 379.6 228.7 Q 380.3 228.7, 380.9 228.9 Q 381.5 229.1, 382.0 229.4 L 381.4 230.5 Q 380.6 230.0, 379.6 230.0 Q 378.0 230.0, 377.2 231.1 Q 376.3 232.1, 376.3 234.2 Q 376.8 233.7, 377.5 233.4 Q 378.3 233.1, 379.1 233.1 M 378.7 239.0 Q 379.3 239.0, 379.8 238.7 Q 380.3 238.4, 380.6 237.8 Q 380.9 237.3, 380.9 236.6 Q 380.9 235.6, 380.3 235.0 Q 379.8 234.4, 378.8 234.4 Q 378.1 234.4, 377.4 234.7 Q 376.7 235.0, 376.3 235.4 Q 376.3 237.3, 376.9 238.2 Q 377.5 239.0, 378.7 239.0 " fill="#000000"/>
<path class="legend" d="" fill="#000000"/>
<path class="legend" d="M 388.7 235.6 Q 388.7 233.3, 389.4 231.5 Q 390.0 229.6, 391.3 227.5 L 392.2 228.1 Q 391.2 230.0, 390.7 231.7 Q 390.1 233.4, 390.1 235.6 Q 390.1 237.8, 390.7 239.5 Q 391.2 241.2, 392.2 243.2 L 391.3 243.8 Q 390.0 241.7, 389.4 239.8 Q 388.7 238.0, 388.7 235.6 " fill="#000000"/>
<path class="legend" d="M 401.7 234.6 L 401.7 239.4 Q 400.1 240.3, 397.7 240.3 Q 395.3 240.3, 393.9 238.8 Q 392.6 237.3, 392.6 234.5 Q 392.6 231.7, 393.9 230.2 Q 395.3 228.7, 397.8 228.7 Q 399.1 228.7, 400.1 229.2 Q 401.0 229.6, 401.7 230.4 L 400.6 231.3 Q 399.6 230.0, 397.8 230.0 Q 396.1 230.0, 395.2 231.2 Q 394.3 232.3, 394.3 234.5 Q 394.3 236.8, 395.2 237.9 Q 396.1 239.1, 398.0 239.1 Q 399.1 239.1, 400.2 238.7 L 400.2 234.6 L 401.7 234.6 " fill="#000000"/>
<path class="legend" d="M 404.1 232.0 L 404.3 233.1 Q 405.2 231.8, 406.6 231.8 Q 407.0 231.8, 407.7 232.0 L 407.4 233.3 Q 406.7 233.2, 406.3 233.2 Q 405.7 233.2, 405.2 233.4 Q 404.8 233.7, 404.4 234.3 L 404.4 240.2 L 402.9 240.2 L 402.9 232.0 L 404.1 232.0 " fill="#000000"/>
<path class="legend" d="M 407.9 236.1 Q 407.9 234.1, 408.9 233.0 Q 409.9 231.8, 411.7 231.8 Q 413.6 231.8, 414.4 232.9 Q 415.2 234.0, 415.2 236.0 L 415.2 236.3 L 409.4 236.3 Q 409.5 237.7, 410.1 238.4 Q 410.7 239.1, 411.9 239.1 Q 412.5 239.1, 413.1 239.0 Q 413.7 238.8, 414.4 238.5 L 414.9 239.5 Q 414.0 240.0, 413.3 240.2 Q 412.6 240.3, 411.8 240.3 Q 409.9 240.3, 408.9 239.2 Q 407.9 238.1, 407.9 236.1 M 411.7 233.0 Q 410.8 233.0, 410.2 233.6 Q 409.7 234.1, 409.5 235.2 L 413.6 235.2 Q 413.5 234.1, 413.0 233.5 Q 412.6 233.0, 411.7 233.0 " fill="#000000"/>
<path class="legend" d="M 415.8 236.1 Q 415.8 234.1, 416.8 233.0 Q 417.8 231.8, 419.6 231.8 Q 421.4 231.8, 422.2 232.9 Q 423.1 234.0, 423.1 236.0 L 423.1 236.3 L 417.3 236.3 Q 417.3 237.7, 418.0 238.4 Q 418.6 239.1, 419.8 239.1 Q 420.4 239.1, 421.0 239.0 Q 421.6 238.8, 422.3 238.5 L 422.7 239.5 Q 421.9 240.0, 421.2 240.2 Q 420.5 240.3, 419.7 240.3 Q 417.8 240.3, 416.8 239.2 Q 415.8 238.1, 415.8 236.1 M 419.6 233.0 Q 418.7 233.0, 418.1 233.6 Q 417.6 234.1, 417.4 235.2 L 421.5 235.2 Q 421.4 234.1, 420.9 233.5 Q 420.5 233.0, 419.6 233.0 " fill="#000000"/>
<path class="legend" d="M 428.0 231.8 Q 429.3 231.8, 430.0 232.6 Q 430.7 233.3, 430.7 234.8 L 430.7 240.2 L 429.2 240.2 L 429.2 234.9 Q 429.2 233.9, 428.8 233.5 Q 428.4 233.0, 427.6 233.0 Q 426.8 233.0, 426.2 233.4 Q 425.6 233.7, 425.2 234.3 L 425.2 240.2 L 423.7 240.2 L 423.7 232.0 L 424.9 232.0 L 425.1 233.1 Q 426.2 231.8, 428.0 231.8 " fill="#000000"/>
<path class="legend" d="M 435.4 235.6 Q 435.4 238.0, 434.7 239.8 Q 434.1 241.7, 432.8 243.8 L 431.9 243.2 Q 432.9 241.2, 433.4 239.5 Q 434.0 237.8, 434.0 235.6 Q 434.0 233.4, 433.4 231.7 Q 432.9 230.0, 431.9 228.1 L 432.8 227.5 Q 434.1 229.6, 434.7 231.5 Q 435.4 233.3, 435.4 235.6 " fill="#000000"/>
<path class="bond-0 atom-0 atom-1" d="M 710.7,122.7 L 682.9,115.7" style="fill:none;fill-rule:evenodd;stroke:#FF7F7F;stroke-width:6.1px;stroke-linecap:butt;stroke-linejoin:miter;stroke-opacity:1"/>
<path class="bond-9 atom-0 atom-9" d="M 710.7,122.7 L 730.6,102.2" style="fill:none;fill-rule:evenodd;stroke:#FF7F7F;stroke-width:6.1px;stroke-linecap:butt;stroke-linejoin:miter;stroke-opacity:1"/>
<ellipse cx="710.7" cy="122.8" rx="5.7" ry="5.9" class="atom-0" style="fill:#FF7F7F;fill-rule:evenodd;stroke:#FF7F7F;stroke-width:1.0px;stroke-linecap:butt;stroke-linejoin:miter;stroke-opacity:1"/>
<ellipse cx="682.9" cy="115.7" rx="5.7" ry="5.7" class="atom-1" style="fill:#FF7F7F;fill-rule:evenodd;stroke:#FF7F7F;stroke-width:1.0px;stroke-linecap:butt;stroke-linejoin:miter;stroke-opacity:1"/>
<ellipse cx="730.6" cy="102.2" rx="5.7" ry="5.7" class="atom-9" style="fill:#FF7F7F;fill-rule:evenodd;stroke:#FF7F7F;stroke-width:1.0px;stroke-linecap:butt;stroke-linejoin:miter;stroke-opacity:1"/>
<path class="bond-0 atom-0 atom-1" d="M 706.0,121.6 L 694.4,118.6" style="fill:none;fill-rule:evenodd;stroke:#FF0000;stroke-width:2.0px;stroke-linecap:butt;stroke-linejoin:miter;stroke-opacity:1"/>
<path class="bond-0 atom-0 atom-1" d="M 694.4,118.6 L 682.9,115.7" style="fill:none;fill-rule:evenodd;stroke:#000000;stroke-width:2.0px;stroke-linecap:butt;stroke-linejoin:miter;stroke-opacity:1"/>
<path class="bond-1 atom-1 atom-2" d="M 682.9,115.7 L 655.1,108.8" style="fill:none;fill-rule:evenodd;stroke:#000000;stroke-width:2.0px;stroke-linecap:butt;stroke-linejoin:miter;stroke-opacity:1"/>
<path class="bond-2 atom-2 atom-3" d="M 655.1,108.8 L 643.6,105.8" style="fill:none;fill-rule:evenodd;stroke:#000000;stroke-width:2.0px;stroke-linecap:butt;stroke-linejoin:miter;stroke-opacity:1"/>
<path class="bond-2 atom-2 atom-3" d="M 643.6,105.8 L 632.0,102.9" style="fill:none;fill-rule:evenodd;stroke:#FF0000;stroke-width:2.0px;stroke-linecap:butt;stroke-linejoin:miter;stroke-opacity:1"/>
<path class="bond-3 atom-3 atom-4" d="M 622.7,106.6 L 615.1,114.5" style="fill:none;fill-rule:evenodd;stroke:#FF0000;stroke-width:2.0px;stroke-linecap:butt;stroke-linejoin:miter;stroke-opacity:1"/>
<path class="bond-3 atom-3 atom-4" d="M 615.1,114.5 L 607.4,122.3" style="fill:none;fill-rule:evenodd;stroke:#000000;stroke-width:2.0px;stroke-linecap:butt;stroke-linejoin:miter;stroke-opacity:1"/>
<path class="bond-4 atom-4 atom-5" d="M 610.2,121.5 L 613.4,132.8" style="fill:none;fill-rule:evenodd;stroke:#000000;stroke-width:2.0px;stroke-linecap:butt;stroke-linejoin:miter;stroke-opacity:1"/>
<path class="bond-4 atom-4 atom-5" d="M 613.4,132.8 L 616.6,144.0" style="fill:none;fill-rule:evenodd;stroke:#FF0000;stroke-width:2.0px;stroke-linecap:butt;stroke-linejoin:miter;stroke-opacity:1"/>
<path class="bond-4 atom-4 atom-5" d="M 604.7,123.1 L 607.9,134.4" style="fill:none;fill-rule:evenodd;stroke:#000000;stroke-width:2.0px;stroke-linecap:butt;stroke-linejoin:miter;stroke-opacity:1"/>
<path class="bond-4 atom-4 atom-5" d="M 607.9,134.4 L 611.1,145.6" style="fill:none;fill-rule:evenodd;stroke:#FF0000;stroke-width:2.0px;stroke-linecap:butt;stroke-linejoin:miter;stroke-opacity:1"/>
<path class="bond-5 atom-4 atom-6" d="M 607.4,122.3 L 595.6,119.3" style="fill:none;fill-rule:evenodd;stroke:#000000;stroke-width:2.0px;stroke-linecap:butt;stroke-linejoin:miter;stroke-opacity:1"/>
<path class="bond-5 atom-4 atom-6" d="M 595.6,119.3 L 583.7,116.3" style="fill:none;fill-rule:evenodd;stroke:#0000FF;stroke-width:2.0px;stroke-linecap:butt;stroke-linejoin:miter;stroke-opacity:1"/>
<path class="bond-6 atom-6 atom-7" d="M 575.6,111.4 L 567.4,103.4" style="fill:none;fill-rule:evenodd;stroke:#0000FF;stroke-width:2.0px;stroke-linecap:butt;stroke-linejoin:miter;stroke-opacity:1"/>
<path class="bond-6 atom-6 atom-7" d="M 567.4,103.4 L 559.1,95.4" style="fill:none;fill-rule:evenodd;stroke:#000000;stroke-width:2.0px;stroke-linecap:butt;stroke-linejoin:miter;stroke-opacity:1"/>
<path class="bond-7 atom-7 atom-8" d="M 559.1,95.4 L 552.1,123.2" style="fill:none;fill-rule:evenodd;stroke:#000000;stroke-width:2.0px;stroke-linecap:butt;stroke-linejoin:miter;stroke-opacity:1"/>
<path class="bond-8 atom-8 atom-6" d="M 552.1,123.2 L 563.9,119.8" style="fill:none;fill-rule:evenodd;stroke:#000000;stroke-width:2.0px;stroke-linecap:butt;stroke-linejoin:miter;stroke-opacity:1"/>
<path class="bond-8 atom-8 atom-6" d="M 563.9,119.8 L 575.6,116.5" style="fill:none;fill-rule:evenodd;stroke:#0000FF;stroke-width:2.0px;stroke-linecap:butt;stroke-linejoin:miter;stroke-opacity:1"/>
<path class="bond-9 atom-0 atom-9" d="M 715.3,117.9 L 720.9,112.2" style="fill:none;fill-rule:evenodd;stroke:#FF0000;stroke-width:2.0px;stroke-linecap:butt;stroke-linejoin:miter;stroke-opacity:1"/>
<path class="bond-9 atom-0 atom-9" d="M 720.9,112.2 L 726.5,106.4" style="fill:none;fill-rule:evenodd;stroke:#000000;stroke-width:2.0px;stroke-linecap:butt;stroke-linejoin:miter;stroke-opacity:1"/>
<path class="bond-10 atom-1 atom-10" d="M 682.9,115.7 L 677.2,138.5" style="fill:none;fill-rule:evenodd;stroke:#000000;stroke-width:2.0px;stroke-linecap:butt;stroke-linejoin:miter;stroke-opacity:1"/>
<path class="bond-11 atom-1 atom-11" d="M 682.9,115.7 L 688.6,93.0" style="fill:none;fill-rule:evenodd;stroke:#000000;stroke-width:2.0px;stroke-linecap:butt;stroke-linejoin:miter;stroke-opacity:1"/>
<path class="bond-12 atom-2 atom-12" d="M 655.1,108.8 L 649.4,131.5" style="fill:none;fill-rule:evenodd;stroke:#000000;stroke-width:2.0px;stroke-linecap:butt;stroke-linejoin:miter;stroke-opacity:1"/>
<path class="bond-13 atom-2 atom-13" d="M 655.1,108.8 L 660.9,86.0" style="fill:none;fill-rule:evenodd;stroke:#000000;stroke-width:2.0px;stroke-linecap:butt;stroke-linejoin:miter;stroke-opacity:1"/>
<path class="bond-14 atom-7 atom-14" d="M 559.1,95.4 L 537.1,85.5" style="fill:none;fill-rule:evenodd;stroke:#000000;stroke-width:2.0px;stroke-linecap:butt;stroke-linejoin:miter;stroke-opacity:1"/>
<path class="bond-15 atom-7 atom-15" d="M 559.1,95.4 L 571.8,76.7" style="fill:none;fill-rule:evenodd;stroke:#000000;stroke-width:2.0px;stroke-linecap:butt;stroke-linejoin:miter;stroke-opacity:1"/>
<path class="bond-16 atom-8 atom-16" d="M 552.1,123.2 L 554.5,146.6" style="fill:none;fill-rule:evenodd;stroke:#000000;stroke-width:2.0px;stroke-linecap:butt;stroke-linejoin:miter;stroke-opacity:1"/>
<path class="bond-17 atom-8 atom-17" d="M 552.1,123.2 L 527.7,121.4" style="fill:none;fill-rule:evenodd;stroke:#000000;stroke-width:2.0px;stroke-linecap:butt;stroke-linejoin:miter;stroke-opacity:1"/>
<path class="atom-0" d="M 706.9 122.8 Q 706.9 120.8, 707.9 119.7 Q 708.9 118.6, 710.7 118.6 Q 712.5 118.6, 713.4 119.7 Q 714.4 120.8, 714.4 122.8 Q 714.4 124.7, 713.4 125.8 Q 712.4 127.0, 710.7 127.0 Q 708.9 127.0, 707.9 125.8 Q 706.9 124.7, 706.9 122.8 M 710.7 126.0 Q 711.9 126.0, 712.6 125.2 Q 713.2 124.4, 713.2 122.8 Q 713.2 121.2, 712.6 120.4 Q 711.9 119.5, 710.7 119.5 Q 709.4 119.5, 708.7 120.3 Q 708.1 121.1, 708.1 122.8 Q 708.1 124.4, 708.7 125.2 Q 709.4 126.0, 710.7 126.0 " fill="#FF0000"/>
<path class="atom-3" d="M 623.6 101.8 Q 623.6 99.8, 624.6 98.8 Q 625.6 97.7, 627.4 97.7 Q 629.2 97.7, 630.1 98.8 Q 631.1 99.8, 631.1 101.8 Q 631.1 103.8, 630.1 104.9 Q 629.1 106.0, 627.4 106.0 Q 625.6 106.0, 624.6 104.9 Q 623.6 103.8, 623.6 101.8 M 627.4 105.1 Q 628.6 105.1, 629.3 104.3 Q 629.9 103.4, 629.9 101.8 Q 629.9 100.2, 629.3 99.4 Q 628.6 98.6, 627.4 98.6 Q 626.1 98.6, 625.4 99.4 Q 624.8 100.2, 624.8 101.8 Q 624.8 103.4, 625.4 104.3 Q 626.1 105.1, 627.4 105.1 " fill="#FF0000"/>
<path class="atom-5" d="M 611.5 149.9 Q 611.5 147.9, 612.5 146.8 Q 613.5 145.8, 615.3 145.8 Q 617.1 145.8, 618.0 146.8 Q 619.0 147.9, 619.0 149.9 Q 619.0 151.9, 618.0 153.0 Q 617.0 154.1, 615.3 154.1 Q 613.5 154.1, 612.5 153.0 Q 611.5 151.9, 611.5 149.9 M 615.3 153.2 Q 616.5 153.2, 617.2 152.3 Q 617.8 151.5, 617.8 149.9 Q 617.8 148.3, 617.2 147.5 Q 616.5 146.7, 615.3 146.7 Q 614.0 146.7, 613.3 147.5 Q 612.7 148.3, 612.7 149.9 Q 612.7 151.5, 613.3 152.3 Q 614.0 153.2, 615.3 153.2 " fill="#FF0000"/>
<path class="atom-6" d="M 577.9 111.3 L 580.5 115.6 Q 580.8 116.0, 581.2 116.8 Q 581.6 117.5, 581.7 117.6 L 581.7 111.3 L 582.7 111.3 L 582.7 119.4 L 581.6 119.4 L 578.8 114.7 Q 578.4 114.1, 578.1 113.5 Q 577.7 112.9, 577.6 112.7 L 577.6 119.4 L 576.6 119.4 L 576.6 111.3 L 577.9 111.3 " fill="#0000FF"/>
<path class="atom-9" d="M 727.4 98.1 L 728.5 98.1 L 728.5 101.6 L 732.7 101.6 L 732.7 98.1 L 733.8 98.1 L 733.8 106.2 L 732.7 106.2 L 732.7 102.5 L 728.5 102.5 L 728.5 106.2 L 727.4 106.2 L 727.4 98.1 " fill="#000000"/>
<path class="atom-10" d="M 672.7 139.5 L 673.8 139.5 L 673.8 142.9 L 678.0 142.9 L 678.0 139.5 L 679.1 139.5 L 679.1 147.6 L 678.0 147.6 L 678.0 143.8 L 673.8 143.8 L 673.8 147.6 L 672.7 147.6 L 672.7 139.5 " fill="#000000"/>
<path class="atom-11" d="M 686.7 83.9 L 687.8 83.9 L 687.8 87.4 L 691.9 87.4 L 691.9 83.9 L 693.0 83.9 L 693.0 92.0 L 691.9 92.0 L 691.9 88.3 L 687.8 88.3 L 687.8 92.0 L 686.7 92.0 L 686.7 83.9 " fill="#000000"/>
<path class="atom-12" d="M 645.0 132.5 L 646.1 132.5 L 646.1 135.9 L 650.2 135.9 L 650.2 132.5 L 651.3 132.5 L 651.3 140.6 L 650.2 140.6 L 650.2 136.8 L 646.1 136.8 L 646.1 140.6 L 645.0 140.6 L 645.0 132.5 " fill="#000000"/>
<path class="atom-13" d="M 658.9 76.9 L 660.0 76.9 L 660.0 80.4 L 664.2 80.4 L 664.2 76.9 L 665.3 76.9 L 665.3 85.0 L 664.2 85.0 L 664.2 81.3 L 660.0 81.3 L 660.0 85.0 L 658.9 85.0 L 658.9 76.9 " fill="#000000"/>
<path class="atom-14" d="M 529.8 79.6 L 530.9 79.6 L 530.9 83.1 L 535.1 83.1 L 535.1 79.6 L 536.2 79.6 L 536.2 87.8 L 535.1 87.8 L 535.1 84.0 L 530.9 84.0 L 530.9 87.8 L 529.8 87.8 L 529.8 79.6 " fill="#000000"/>
<path class="atom-15" d="M 572.0 67.6 L 573.1 67.6 L 573.1 71.1 L 577.2 71.1 L 577.2 67.6 L 578.3 67.6 L 578.3 75.8 L 577.2 75.8 L 577.2 72.0 L 573.1 72.0 L 573.1 75.8 L 572.0 75.8 L 572.0 67.6 " fill="#000000"/>
<path class="atom-16" d="M 551.9 147.6 L 553.0 147.6 L 553.0 151.0 L 557.1 151.0 L 557.1 147.6 L 558.2 147.6 L 558.2 155.7 L 557.1 155.7 L 557.1 152.0 L 553.0 152.0 L 553.0 155.7 L 551.9 155.7 L 551.9 147.6 " fill="#000000"/>
<path class="atom-17" d="M 520.4 117.1 L 521.5 117.1 L 521.5 120.5 L 525.6 120.5 L 525.6 117.1 L 526.7 117.1 L 526.7 125.2 L 525.6 125.2 L 525.6 121.4 L 521.5 121.4 L 521.5 125.2 L 520.4 125.2 L 520.4 117.1 " fill="#000000"/>
<path class="note" d="M 713.3 134.0 Q 712.5 134.0, 712.1 133.5 Q 711.8 132.9, 711.8 131.9 Q 711.8 130.9, 712.1 130.4 Q 712.5 129.9, 713.3 129.9 Q 714.0 129.9, 714.4 130.4 Q 714.7 130.9, 714.7 131.9 Q 714.7 132.9, 714.4 133.5 Q 714.0 134.0, 713.3 134.0 M 713.3 133.5 Q 713.7 133.5, 713.9 133.1 Q 714.2 132.7, 714.2 131.9 Q 714.2 131.1, 713.9 130.7 Q 713.7 130.3, 713.3 130.3 Q 712.8 130.3, 712.6 130.7 Q 712.4 131.1, 712.4 131.9 Q 712.4 132.7, 712.6 133.1 Q 712.8 133.5, 713.3 133.5 " fill="#000000"/>
<path class="note" d="M 684.3 121.4 L 685.2 121.4 L 685.2 118.4 L 684.2 118.7 L 684.1 118.4 L 685.4 117.8 L 685.8 117.9 L 685.8 121.4 L 686.6 121.4 L 686.6 121.9 L 684.3 121.9 L 684.3 121.4 " fill="#000000"/>
<path class="note" d="M 656.2 111.6 Q 656.4 111.2, 656.7 111.0 Q 657.1 110.8, 657.6 110.8 Q 658.2 110.8, 658.5 111.1 Q 658.9 111.5, 658.9 112.1 Q 658.9 112.7, 658.4 113.2 Q 658.0 113.8, 657.1 114.4 L 658.9 114.4 L 658.9 114.9 L 656.2 114.9 L 656.2 114.5 Q 657.0 114.0, 657.4 113.6 Q 657.9 113.2, 658.1 112.8 Q 658.3 112.5, 658.3 112.1 Q 658.3 111.7, 658.1 111.5 Q 657.9 111.3, 657.6 111.3 Q 657.2 111.3, 657.0 111.4 Q 656.8 111.5, 656.7 111.8 L 656.2 111.6 " fill="#000000"/>
<path class="note" d="M 625.3 92.5 Q 625.7 92.6, 625.9 92.9 Q 626.1 93.1, 626.1 93.5 Q 626.1 93.9, 625.9 94.1 Q 625.8 94.4, 625.5 94.6 Q 625.1 94.7, 624.7 94.7 Q 624.3 94.7, 624.0 94.5 Q 623.6 94.4, 623.4 94.1 L 623.7 93.8 Q 624.0 94.0, 624.2 94.1 Q 624.4 94.2, 624.7 94.2 Q 625.1 94.2, 625.3 94.0 Q 625.5 93.8, 625.5 93.5 Q 625.5 93.1, 625.3 92.9 Q 625.1 92.7, 624.6 92.7 L 624.3 92.7 L 624.3 92.3 L 624.5 92.3 Q 625.0 92.3, 625.2 92.1 Q 625.5 91.9, 625.5 91.6 Q 625.5 91.3, 625.3 91.2 Q 625.1 91.0, 624.7 91.0 Q 624.4 91.0, 624.2 91.1 Q 624.0 91.2, 623.8 91.5 L 623.4 91.3 Q 623.6 91.0, 623.9 90.8 Q 624.3 90.5, 624.7 90.5 Q 625.3 90.5, 625.7 90.8 Q 626.0 91.1, 626.0 91.6 Q 626.0 91.9, 625.8 92.1 Q 625.7 92.4, 625.3 92.5 " fill="#000000"/>
<path class="note" d="M 607.2 118.4 L 607.7 118.4 L 607.7 118.8 L 607.2 118.8 L 607.2 119.8 L 606.7 119.8 L 606.7 118.8 L 604.6 118.8 L 604.6 118.5 L 606.3 115.7 L 607.2 115.7 L 607.2 118.4 M 605.2 118.4 L 606.7 118.4 L 606.7 116.1 L 605.2 118.4 " fill="#000000"/>
<path class="note" d="M 618.0 158.5 Q 618.3 158.5, 618.6 158.7 Q 618.9 158.8, 619.1 159.1 Q 619.2 159.4, 619.2 159.8 Q 619.2 160.2, 619.0 160.5 Q 618.8 160.8, 618.5 161.0 Q 618.2 161.1, 617.8 161.1 Q 617.4 161.1, 617.1 161.0 Q 616.7 160.8, 616.5 160.6 L 616.8 160.2 Q 617.0 160.4, 617.3 160.5 Q 617.5 160.6, 617.8 160.6 Q 618.2 160.6, 618.4 160.4 Q 618.7 160.2, 618.7 159.8 Q 618.7 159.4, 618.4 159.2 Q 618.2 159.0, 617.8 159.0 Q 617.4 159.0, 617.0 159.1 L 616.7 159.0 L 616.9 157.0 L 619.0 157.0 L 618.9 157.5 L 617.4 157.5 L 617.3 158.7 Q 617.6 158.5, 618.0 158.5 " fill="#000000"/>
<path class="note" d="M 584.5 106.5 Q 584.8 106.5, 585.1 106.7 Q 585.4 106.8, 585.6 107.1 Q 585.7 107.4, 585.7 107.7 Q 585.7 108.1, 585.5 108.4 Q 585.4 108.8, 585.1 108.9 Q 584.7 109.1, 584.4 109.1 Q 583.6 109.1, 583.3 108.6 Q 582.9 108.1, 582.9 107.1 Q 582.9 106.1, 583.3 105.5 Q 583.8 104.9, 584.7 104.9 Q 584.9 104.9, 585.1 105.0 Q 585.3 105.1, 585.6 105.2 L 585.3 105.6 Q 585.0 105.4, 584.7 105.4 Q 584.1 105.4, 583.8 105.8 Q 583.5 106.1, 583.5 106.9 Q 583.7 106.7, 583.9 106.6 Q 584.2 106.5, 584.5 106.5 M 584.4 108.6 Q 584.6 108.6, 584.8 108.5 Q 584.9 108.4, 585.0 108.2 Q 585.1 108.0, 585.1 107.7 Q 585.1 107.4, 584.9 107.2 Q 584.7 107.0, 584.4 107.0 Q 584.1 107.0, 583.9 107.1 Q 583.7 107.2, 583.5 107.3 Q 583.5 108.0, 583.7 108.3 Q 583.9 108.6, 584.4 108.6 " fill="#000000"/>
<path class="note" d="M 558.6 89.2 L 556.5 89.2 L 556.5 88.8 L 559.2 88.8 L 559.2 89.2 L 557.5 92.8 L 557.0 92.8 L 558.6 89.2 " fill="#000000"/>
<path class="note" d="M 556.2 126.4 Q 556.6 126.6, 556.8 126.8 Q 557.0 127.0, 557.0 127.4 Q 557.0 127.8, 556.8 128.0 Q 556.6 128.3, 556.3 128.5 Q 556.0 128.6, 555.6 128.6 Q 554.9 128.6, 554.5 128.3 Q 554.1 128.0, 554.1 127.4 Q 554.1 127.1, 554.3 126.9 Q 554.5 126.6, 554.8 126.4 Q 554.6 126.3, 554.4 126.0 Q 554.3 125.8, 554.3 125.5 Q 554.3 125.0, 554.6 124.7 Q 555.0 124.4, 555.6 124.4 Q 556.1 124.4, 556.5 124.7 Q 556.8 125.0, 556.8 125.5 Q 556.8 125.8, 556.7 126.0 Q 556.5 126.2, 556.2 126.4 M 555.6 124.9 Q 555.2 124.9, 555.0 125.0 Q 554.8 125.2, 554.8 125.5 Q 554.8 125.7, 555.0 125.8 Q 555.1 126.0, 555.3 126.0 Q 555.5 126.1, 555.8 126.2 Q 556.0 126.1, 556.2 125.9 Q 556.3 125.7, 556.3 125.5 Q 556.3 125.2, 556.1 125.0 Q 555.9 124.9, 555.6 124.9 M 555.6 128.2 Q 556.0 128.2, 556.2 128.0 Q 556.4 127.8, 556.4 127.4 Q 556.4 127.2, 556.3 127.1 Q 556.2 126.9, 556.0 126.9 Q 555.8 126.8, 555.5 126.7 L 555.2 126.6 Q 554.9 126.8, 554.8 127.0 Q 554.7 127.2, 554.7 127.4 Q 554.7 127.8, 554.9 128.0 Q 555.2 128.2, 555.6 128.2 " fill="#000000"/>
<path class="note" d="M 737.2 93.3 Q 737.9 93.3, 738.3 93.8 Q 738.6 94.3, 738.6 95.2 Q 738.6 96.3, 738.2 96.9 Q 737.7 97.4, 736.9 97.4 Q 736.6 97.4, 736.4 97.4 Q 736.2 97.3, 736.0 97.2 L 736.2 96.8 Q 736.5 97.0, 736.9 97.0 Q 737.4 97.0, 737.7 96.6 Q 738.0 96.2, 738.1 95.5 Q 737.9 95.7, 737.6 95.8 Q 737.3 95.9, 737.1 95.9 Q 736.7 95.9, 736.4 95.7 Q 736.1 95.5, 736.0 95.3 Q 735.8 95.0, 735.8 94.6 Q 735.8 94.2, 736.0 93.9 Q 736.2 93.6, 736.5 93.4 Q 736.8 93.3, 737.2 93.3 M 736.4 94.6 Q 736.4 95.0, 736.6 95.2 Q 736.8 95.4, 737.2 95.4 Q 737.4 95.4, 737.6 95.3 Q 737.9 95.2, 738.1 95.0 Q 738.0 94.4, 737.8 94.0 Q 737.6 93.7, 737.2 93.7 Q 737.0 93.7, 736.8 93.9 Q 736.6 94.0, 736.5 94.2 Q 736.4 94.4, 736.4 94.6 " fill="#000000"/>
<path class="note" d="M 671.0 154.4 L 671.9 154.4 L 671.9 151.3 L 670.9 151.6 L 670.7 151.3 L 672.0 150.7 L 672.4 150.8 L 672.4 154.4 L 673.2 154.4 L 673.2 154.8 L 671.0 154.8 L 671.0 154.4 " fill="#000000"/>
<path class="note" d="M 674.9 154.9 Q 674.2 154.9, 673.8 154.3 Q 673.4 153.8, 673.4 152.8 Q 673.4 151.8, 673.8 151.3 Q 674.2 150.7, 674.9 150.7 Q 675.7 150.7, 676.0 151.3 Q 676.4 151.8, 676.4 152.8 Q 676.4 153.8, 676.0 154.3 Q 675.7 154.9, 674.9 154.9 M 674.9 154.4 Q 675.4 154.4, 675.6 154.0 Q 675.8 153.6, 675.8 152.8 Q 675.8 152.0, 675.6 151.6 Q 675.4 151.2, 674.9 151.2 Q 674.5 151.2, 674.2 151.6 Q 674.0 152.0, 674.0 152.8 Q 674.0 153.6, 674.2 154.0 Q 674.5 154.4, 674.9 154.4 " fill="#000000"/>
<path class="note" d="M 689.9 80.3 L 690.8 80.3 L 690.8 77.3 L 689.8 77.6 L 689.6 77.2 L 690.9 76.7 L 691.3 76.8 L 691.3 80.3 L 692.1 80.3 L 692.1 80.8 L 689.9 80.8 L 689.9 80.3 " fill="#000000"/>
<path class="note" d="M 692.5 80.3 L 693.4 80.3 L 693.4 77.3 L 692.5 77.6 L 692.3 77.2 L 693.6 76.7 L 694.0 76.8 L 694.0 80.3 L 694.8 80.3 L 694.8 80.8 L 692.5 80.8 L 692.5 80.3 " fill="#000000"/>
<path class="note" d="M 643.3 147.4 L 644.2 147.4 L 644.2 144.3 L 643.2 144.6 L 643.1 144.3 L 644.3 143.7 L 644.8 143.8 L 644.8 147.4 L 645.5 147.4 L 645.5 147.8 L 643.3 147.8 L 643.3 147.4 " fill="#000000"/>
<path class="note" d="M 645.8 144.5 Q 645.9 144.2, 646.3 143.9 Q 646.7 143.7, 647.2 143.7 Q 647.8 143.7, 648.1 144.1 Q 648.5 144.4, 648.5 145.0 Q 648.5 145.6, 648.0 146.1 Q 647.6 146.7, 646.6 147.4 L 648.5 147.4 L 648.5 147.8 L 645.8 147.8 L 645.8 147.4 Q 646.5 146.9, 647.0 146.5 Q 647.4 146.1, 647.7 145.7 Q 647.9 145.4, 647.9 145.0 Q 647.9 144.6, 647.7 144.4 Q 647.5 144.2, 647.2 144.2 Q 646.8 144.2, 646.6 144.3 Q 646.4 144.4, 646.2 144.7 L 645.8 144.5 " fill="#000000"/>
<path class="note" d="M 662.0 73.3 L 662.8 73.3 L 662.8 70.3 L 661.9 70.6 L 661.7 70.3 L 663.0 69.7 L 663.4 69.8 L 663.4 73.3 L 664.2 73.3 L 664.2 73.8 L 662.0 73.8 L 662.0 73.3 " fill="#000000"/>
<path class="note" d="M 666.4 71.7 Q 666.8 71.8, 667.0 72.0 Q 667.1 72.3, 667.1 72.7 Q 667.1 73.0, 667.0 73.3 Q 666.8 73.6, 666.5 73.7 Q 666.2 73.8, 665.8 73.8 Q 665.3 73.8, 665.0 73.7 Q 664.7 73.5, 664.4 73.2 L 664.7 72.9 Q 665.0 73.2, 665.2 73.3 Q 665.4 73.4, 665.8 73.4 Q 666.1 73.4, 666.3 73.2 Q 666.6 73.0, 666.6 72.7 Q 666.6 72.3, 666.3 72.1 Q 666.1 71.9, 665.6 71.9 L 665.3 71.9 L 665.3 71.5 L 665.6 71.5 Q 666.0 71.5, 666.3 71.3 Q 666.5 71.1, 666.5 70.7 Q 666.5 70.5, 666.3 70.3 Q 666.1 70.1, 665.8 70.1 Q 665.4 70.1, 665.2 70.3 Q 665.0 70.4, 664.8 70.7 L 664.5 70.5 Q 664.6 70.1, 664.9 69.9 Q 665.3 69.7, 665.8 69.7 Q 666.4 69.7, 666.7 70.0 Q 667.1 70.2, 667.1 70.7 Q 667.1 71.0, 666.9 71.3 Q 666.7 71.5, 666.4 71.7 " fill="#000000"/>
<path class="note" d="M 521.6 81.4 L 522.5 81.4 L 522.5 78.4 L 521.5 78.7 L 521.4 78.3 L 522.6 77.8 L 523.0 77.8 L 523.0 81.4 L 523.8 81.4 L 523.8 81.8 L 521.6 81.8 L 521.6 81.4 " fill="#000000"/>
<path class="note" d="M 526.7 80.4 L 527.2 80.4 L 527.2 80.9 L 526.7 80.9 L 526.7 81.8 L 526.2 81.8 L 526.2 80.9 L 524.1 80.9 L 524.1 80.5 L 525.8 77.8 L 526.7 77.8 L 526.7 80.4 M 524.7 80.4 L 526.2 80.4 L 526.2 78.2 L 524.7 80.4 " fill="#000000"/>
<path class="note" d="M 578.0 65.4 L 578.9 65.4 L 578.9 62.4 L 577.9 62.7 L 577.8 62.3 L 579.1 61.8 L 579.5 61.8 L 579.5 65.4 L 580.3 65.4 L 580.3 65.8 L 578.0 65.8 L 578.0 65.4 " fill="#000000"/>
<path class="note" d="M 582.0 63.3 Q 582.3 63.3, 582.6 63.5 Q 582.9 63.6, 583.1 63.9 Q 583.2 64.2, 583.2 64.6 Q 583.2 65.0, 583.0 65.3 Q 582.8 65.6, 582.5 65.7 Q 582.2 65.9, 581.8 65.9 Q 581.4 65.9, 581.1 65.7 Q 580.7 65.6, 580.5 65.3 L 580.8 65.0 Q 581.0 65.2, 581.3 65.3 Q 581.5 65.4, 581.8 65.4 Q 582.2 65.4, 582.4 65.2 Q 582.7 65.0, 582.7 64.6 Q 582.7 64.1, 582.4 63.9 Q 582.2 63.7, 581.8 63.7 Q 581.4 63.7, 581.0 63.9 L 580.7 63.7 L 580.9 61.8 L 583.0 61.8 L 582.9 62.2 L 581.4 62.2 L 581.3 63.4 Q 581.6 63.3, 582.0 63.3 " fill="#000000"/>
<path class="note" d="M 553.5 162.7 L 554.4 162.7 L 554.4 159.7 L 553.4 160.0 L 553.3 159.7 L 554.5 159.1 L 554.9 159.2 L 554.9 162.7 L 555.7 162.7 L 555.7 163.2 L 553.5 163.2 L 553.5 162.7 " fill="#000000"/>
<path class="note" d="M 557.6 160.7 Q 557.9 160.7, 558.2 160.8 Q 558.5 161.0, 558.6 161.2 Q 558.8 161.5, 558.8 161.9 Q 558.8 162.3, 558.6 162.6 Q 558.4 162.9, 558.1 163.1 Q 557.8 163.2, 557.4 163.2 Q 556.7 163.2, 556.3 162.7 Q 556.0 162.3, 556.0 161.3 Q 556.0 160.2, 556.4 159.7 Q 556.9 159.1, 557.7 159.1 Q 558.0 159.1, 558.2 159.1 Q 558.4 159.2, 558.6 159.3 L 558.4 159.7 Q 558.1 159.5, 557.7 159.5 Q 557.2 159.5, 556.9 159.9 Q 556.6 160.3, 556.6 161.0 Q 556.8 160.9, 557.0 160.8 Q 557.3 160.7, 557.6 160.7 M 557.4 162.8 Q 557.6 162.8, 557.8 162.7 Q 558.0 162.5, 558.1 162.3 Q 558.2 162.1, 558.2 161.9 Q 558.2 161.5, 558.0 161.3 Q 557.8 161.1, 557.5 161.1 Q 557.2 161.1, 557.0 161.2 Q 556.7 161.3, 556.6 161.5 Q 556.6 162.2, 556.8 162.5 Q 557.0 162.8, 557.4 162.8 " fill="#000000"/>
<path class="note" d="M 511.6 122.0 L 512.5 122.0 L 512.5 119.0 L 511.5 119.3 L 511.4 118.9 L 512.6 118.4 L 513.0 118.5 L 513.0 122.0 L 513.8 122.0 L 513.8 122.5 L 511.6 122.5 L 511.6 122.0 " fill="#000000"/>
<path class="note" d="M 516.2 118.9 L 514.0 118.9 L 514.0 118.4 L 516.7 118.4 L 516.7 118.8 L 515.1 122.5 L 514.6 122.5 L 516.2 118.9 " fill="#000000"/>
<path class="legend" d="M 566.9 238.9 L 569.4 238.9 L 569.4 230.5 L 566.7 231.3 L 566.3 230.4 L 569.8 228.8 L 570.9 229.0 L 570.9 238.9 L 573.2 238.9 L 573.2 240.2 L 566.9 240.2 L 566.9 238.9 " fill="#000000"/>
<path class="legend" d="M 573.9 231.0 Q 574.3 229.9, 575.3 229.4 Q 576.3 228.7, 577.6 228.7 Q 579.3 228.7, 580.3 229.7 Q 581.3 230.6, 581.3 232.2 Q 581.3 233.9, 580.0 235.5 Q 578.8 237.1, 576.2 238.9 L 581.5 238.9 L 581.5 240.2 L 573.8 240.2 L 573.8 239.1 Q 575.9 237.6, 577.2 236.5 Q 578.5 235.4, 579.1 234.4 Q 579.7 233.4, 579.7 232.3 Q 579.7 231.2, 579.1 230.6 Q 578.6 230.0, 577.6 230.0 Q 576.7 230.0, 576.1 230.4 Q 575.5 230.8, 575.1 231.6 L 573.9 231.0 " fill="#000000"/>
<path class="legend" d="M 583.0 238.9 L 585.5 238.9 L 585.5 230.5 L 582.8 231.3 L 582.4 230.4 L 585.9 228.8 L 587.0 229.0 L 587.0 238.9 L 589.3 238.9 L 589.3 240.2 L 583.0 240.2 L 583.0 238.9 " fill="#000000"/>
<path class="legend" d="M 594.4 233.1 Q 595.3 233.1, 596.1 233.6 Q 596.9 234.0, 597.3 234.8 Q 597.8 235.6, 597.8 236.6 Q 597.8 237.7, 597.3 238.5 Q 596.8 239.4, 595.9 239.8 Q 595.1 240.3, 594.0 240.3 Q 592.0 240.3, 590.9 239.0 Q 589.9 237.6, 589.9 234.9 Q 589.9 231.9, 591.2 230.3 Q 592.4 228.7, 594.9 228.7 Q 595.6 228.7, 596.1 228.9 Q 596.8 229.1, 597.3 229.4 L 596.7 230.5 Q 595.9 230.0, 594.9 230.0 Q 593.3 230.0, 592.5 231.1 Q 591.6 232.1, 591.5 234.2 Q 592.1 233.7, 592.8 233.4 Q 593.6 233.1, 594.4 233.1 M 594.0 239.0 Q 594.6 239.0, 595.1 238.7 Q 595.6 238.4, 595.9 237.8 Q 596.2 237.3, 596.2 236.6 Q 596.2 235.6, 595.6 235.0 Q 595.1 234.4, 594.1 234.4 Q 593.4 234.4, 592.7 234.7 Q 592.0 235.0, 591.5 235.4 Q 591.6 237.3, 592.2 238.2 Q 592.8 239.0, 594.0 239.0 " fill="#000000"/>
<path class="legend" d="M 604.6 230.2 L 598.7 230.2 L 598.7 228.9 L 606.2 228.9 L 606.2 230.0 L 601.6 240.2 L 600.1 240.2 L 604.6 230.2 " fill="#000000"/>
<path class="legend" d="M 607.3 238.9 L 609.7 238.9 L 609.7 230.5 L 607.0 231.3 L 606.6 230.4 L 610.1 228.8 L 611.3 229.0 L 611.3 238.9 L 613.5 238.9 L 613.5 240.2 L 607.3 240.2 L 607.3 238.9 " fill="#000000"/>
<path class="legend" d="M 622.3 241.0 L 622.3 242.3 L 614.1 242.3 L 614.1 241.0 L 622.3 241.0 " fill="#000000"/>
<path class="legend" d="M 626.5 240.3 Q 624.4 240.3, 623.3 238.8 Q 622.3 237.3, 622.3 234.5 Q 622.3 231.8, 623.3 230.3 Q 624.4 228.7, 626.5 228.7 Q 628.5 228.7, 629.6 230.3 Q 630.6 231.8, 630.6 234.5 Q 630.6 237.3, 629.6 238.8 Q 628.5 240.3, 626.5 240.3 M 626.5 239.0 Q 627.7 239.0, 628.3 237.9 Q 629.0 236.8, 629.0 234.5 Q 629.0 232.3, 628.3 231.2 Q 627.7 230.0, 626.5 230.0 Q 625.2 230.0, 624.6 231.2 Q 623.9 232.3, 623.9 234.5 Q 623.9 236.8, 624.6 237.9 Q 625.2 239.0, 626.5 239.0 " fill="#000000"/>
<path class="legend" d="" fill="#000000"/>
<path class="legend" d="M 637.0 235.6 Q 637.0 233.3, 637.6 231.5 Q 638.3 229.6, 639.6 227.5 L 640.5 228.1 Q 639.5 230.0, 638.9 231.7 Q 638.4 233.4, 638.4 235.6 Q 638.4 237.8, 638.9 239.5 Q 639.5 241.2, 640.5 243.2 L 639.6 243.8 Q 638.3 241.7, 637.6 239.8 Q 637.0 238.0, 637.0 235.6 " fill="#000000"/>
<path class="legend" d="M 650.0 234.6 L 650.0 239.4 Q 648.4 240.3, 646.0 240.3 Q 643.5 240.3, 642.2 238.8 Q 640.9 237.3, 640.9 234.5 Q 640.9 231.7, 642.2 230.2 Q 643.5 228.7, 646.0 228.7 Q 647.4 228.7, 648.3 229.2 Q 649.3 229.6, 649.9 230.4 L 648.9 231.3 Q 647.9 230.0, 646.0 230.0 Q 644.3 230.0, 643.4 231.2 Q 642.5 232.3, 642.5 234.5 Q 642.5 236.8, 643.5 237.9 Q 644.4 239.1, 646.2 239.1 Q 647.4 239.1, 648.5 238.7 L 648.5 234.6 L 650.0 234.6 " fill="#000000"/>
<path class="legend" d="M 652.4 232.0 L 652.6 233.1 Q 653.5 231.8, 654.9 231.8 Q 655.3 231.8, 655.9 232.0 L 655.7 233.3 Q 655.0 233.2, 654.6 233.2 Q 653.9 233.2, 653.5 233.4 Q 653.1 233.7, 652.7 234.3 L 652.7 240.2 L 651.2 240.2 L 651.2 232.0 L 652.4 232.0 " fill="#000000"/>
<path class="legend" d="M 656.2 236.1 Q 656.2 234.1, 657.2 233.0 Q 658.2 231.8, 660.0 231.8 Q 661.8 231.8, 662.6 232.9 Q 663.4 234.0, 663.4 236.0 L 663.4 236.3 L 657.7 236.3 Q 657.7 237.7, 658.3 238.4 Q 659.0 239.1, 660.1 239.1 Q 660.8 239.1, 661.4 239.0 Q 662.0 238.8, 662.7 238.5 L 663.1 239.5 Q 662.3 240.0, 661.6 240.2 Q 660.8 240.3, 660.1 240.3 Q 658.2 240.3, 657.2 239.2 Q 656.2 238.1, 656.2 236.1 M 660.0 233.0 Q 659.1 233.0, 658.5 233.6 Q 657.9 234.1, 657.8 235.2 L 661.9 235.2 Q 661.7 234.1, 661.3 233.5 Q 660.8 233.0, 660.0 233.0 " fill="#000000"/>
<path class="legend" d="M 664.0 236.1 Q 664.0 234.1, 665.1 233.0 Q 666.1 231.8, 667.9 231.8 Q 669.7 231.8, 670.5 232.9 Q 671.3 234.0, 671.3 236.0 L 671.3 236.3 L 665.6 236.3 Q 665.6 237.7, 666.2 238.4 Q 666.9 239.1, 668.0 239.1 Q 668.7 239.1, 669.3 239.0 Q 669.9 238.8, 670.6 238.5 L 671.0 239.5 Q 670.2 240.0, 669.5 240.2 Q 668.7 240.3, 667.9 240.3 Q 666.1 240.3, 665.1 239.2 Q 664.0 238.1, 664.0 236.1 M 667.9 233.0 Q 667.0 233.0, 666.4 233.6 Q 665.8 234.1, 665.6 235.2 L 669.7 235.2 Q 669.6 234.1, 669.2 233.5 Q 668.7 233.0, 667.9 233.0 " fill="#000000"/>
<path class="legend" d="M 676.2 231.8 Q 677.5 231.8, 678.2 232.6 Q 678.9 233.3, 678.9 234.8 L 678.9 240.2 L 677.4 240.2 L 677.4 234.9 Q 677.4 233.9, 677.0 233.5 Q 676.7 233.0, 675.8 233.0 Q 675.1 233.0, 674.5 233.4 Q 673.8 233.7, 673.4 234.3 L 673.4 240.2 L 671.9 240.2 L 671.9 232.0 L 673.2 232.0 L 673.3 233.1 Q 674.4 231.8, 676.2 231.8 " fill="#000000"/>
<path class="legend" d="M 683.7 235.6 Q 683.7 238.0, 683.0 239.8 Q 682.3 241.7, 681.1 243.8 L 680.2 243.2 Q 681.2 241.2, 681.7 239.5 Q 682.2 237.8, 682.2 235.6 Q 682.2 233.4, 681.7 231.7 Q 681.2 230.0, 680.2 228.1 L 681.1 227.5 Q 682.3 229.6, 683.0 231.5 Q 683.7 233.3, 683.7 235.6 " fill="#000000"/>
</svg>