<svg xmlns="http://www.w3.org/2000/svg" xmlns:rdkit="http://www.rdkit.org/xml" xmlns:xlink="http://www.w3.org/1999/xlink" version="1.1" baseProfile="full" xml:space="preserve" width="750px" height="250px" viewBox="0 0 750 250">
<!-- END OF HEADER -->
<rect style="opacity:1.0;fill:#FFFFFF;stroke:none" width="750.0" height="250.0" x="0.0" y="0.0"> </rect>
<path class="bond-4 atom-4 atom-5" d="M 132.5,157.2 L 167.2,138.0" style="fill:none;fill-rule:evenodd;stroke:#FF7F7F;stroke-width:8.5px;stroke-linecap:butt;stroke-linejoin:miter;stroke-opacity:1"/>
<path class="bond-5 atom-5 atom-6" d="M 167.2,138.0 L 168.0,98.2" style="fill:none;fill-rule:evenodd;stroke:#FF7F7F;stroke-width:8.5px;stroke-linecap:butt;stroke-linejoin:miter;stroke-opacity:1"/>
<ellipse cx="132.5" cy="157.2" rx="7.9" ry="7.9" class="atom-4" style="fill:#FF7F7F;fill-rule:evenodd;stroke:#FF7F7F;stroke-width:1.0px;stroke-linecap:butt;stroke-linejoin:miter;stroke-opacity:1"/>
<ellipse cx="167.2" cy="138.0" rx="7.9" ry="8.2" class="atom-5" style="fill:#FF7F7F;fill-rule:evenodd;stroke:#FF7F7F;stroke-width:1.0px;stroke-linecap:butt;stroke-linejoin:miter;stroke-opacity:1"/>
<ellipse cx="168.0" cy="98.2" rx="7.9" ry="7.9" class="atom-6" style="fill:#FF7F7F;fill-rule:evenodd;stroke:#FF7F7F;stroke-width:1.0px;stroke-linecap:butt;stroke-linejoin:miter;stroke-opacity:1"/>
<path class="bond-0 atom-0 atom-1" d="M 84.2,41.7 L 90.4,56.4" style="fill:none;fill-rule:evenodd;stroke:#FF0000;stroke-width:2.0px;stroke-linecap:butt;stroke-linejoin:miter;stroke-opacity:1"/>
<path class="bond-0 atom-0 atom-1" d="M 90.4,56.4 L 96.6,71.1" style="fill:none;fill-rule:evenodd;stroke:#000000;stroke-width:2.0px;stroke-linecap:butt;stroke-linejoin:miter;stroke-opacity:1"/>
<path class="bond-0 atom-0 atom-1" d="M 76.9,44.8 L 83.1,59.5" style="fill:none;fill-rule:evenodd;stroke:#FF0000;stroke-width:2.0px;stroke-linecap:butt;stroke-linejoin:miter;stroke-opacity:1"/>
<path class="bond-0 atom-0 atom-1" d="M 83.1,59.5 L 89.3,74.2" style="fill:none;fill-rule:evenodd;stroke:#000000;stroke-width:2.0px;stroke-linecap:butt;stroke-linejoin:miter;stroke-opacity:1"/>
<path class="bond-1 atom-1 atom-2" d="M 93.0,72.6 L 72.5,106.7" style="fill:none;fill-rule:evenodd;stroke:#000000;stroke-width:2.0px;stroke-linecap:butt;stroke-linejoin:miter;stroke-opacity:1"/>
<path class="bond-2 atom-2 atom-3" d="M 72.5,106.7 L 98.5,136.7" style="fill:none;fill-rule:evenodd;stroke:#000000;stroke-width:2.0px;stroke-linecap:butt;stroke-linejoin:miter;stroke-opacity:1"/>
<path class="bond-3 atom-3 atom-4" d="M 98.5,136.7 L 132.5,157.2" style="fill:none;fill-rule:evenodd;stroke:#000000;stroke-width:2.0px;stroke-linecap:butt;stroke-linejoin:miter;stroke-opacity:1"/>
<path class="bond-4 atom-4 atom-5" d="M 132.5,157.2 L 146.6,149.3" style="fill:none;fill-rule:evenodd;stroke:#000000;stroke-width:2.0px;stroke-linecap:butt;stroke-linejoin:miter;stroke-opacity:1"/>
<path class="bond-4 atom-4 atom-5" d="M 146.6,149.3 L 160.8,141.5" style="fill:none;fill-rule:evenodd;stroke:#FF0000;stroke-width:2.0px;stroke-linecap:butt;stroke-linejoin:miter;stroke-opacity:1"/>
<path class="bond-5 atom-5 atom-6" d="M 167.4,131.0 L 167.7,114.6" style="fill:none;fill-rule:evenodd;stroke:#FF0000;stroke-width:2.0px;stroke-linecap:butt;stroke-linejoin:miter;stroke-opacity:1"/>
<path class="bond-5 atom-5 atom-6" d="M 167.7,114.6 L 168.0,98.2" style="fill:none;fill-rule:evenodd;stroke:#000000;stroke-width:2.0px;stroke-linecap:butt;stroke-linejoin:miter;stroke-opacity:1"/>
<path class="bond-6 atom-6 atom-7" d="M 168.0,98.2 L 134.0,77.7" style="fill:none;fill-rule:evenodd;stroke:#000000;stroke-width:2.0px;stroke-linecap:butt;stroke-linejoin:miter;stroke-opacity:1"/>
<path class="bond-7 atom-7 atom-8" d="M 134.0,77.7 L 119.8,85.6" style="fill:none;fill-rule:evenodd;stroke:#000000;stroke-width:2.0px;stroke-linecap:butt;stroke-linejoin:miter;stroke-opacity:1"/>
<path class="bond-7 atom-7 atom-8" d="M 119.8,85.6 L 105.7,93.4" style="fill:none;fill-rule:evenodd;stroke:#FF0000;stroke-width:2.0px;stroke-linecap:butt;stroke-linejoin:miter;stroke-opacity:1"/>
<path class="bond-8 atom-7 atom-1" d="M 134.0,77.7 L 93.0,72.6" style="fill:none;fill-rule:evenodd;stroke:#000000;stroke-width:2.0px;stroke-linecap:butt;stroke-linejoin:miter;stroke-opacity:1"/>
<path class="bond-9 atom-8 atom-3" d="M 99.1,104.1 L 98.8,120.4" style="fill:none;fill-rule:evenodd;stroke:#FF0000;stroke-width:2.0px;stroke-linecap:butt;stroke-linejoin:miter;stroke-opacity:1"/>
<path class="bond-9 atom-8 atom-3" d="M 98.8,120.4 L 98.5,136.7" style="fill:none;fill-rule:evenodd;stroke:#000000;stroke-width:2.0px;stroke-linecap:butt;stroke-linejoin:miter;stroke-opacity:1"/>
<path class="bond-10 atom-2 atom-9" d="M 72.5,106.7 L 51.0,129.5" style="fill:none;fill-rule:evenodd;stroke:#000000;stroke-width:2.0px;stroke-linecap:butt;stroke-linejoin:miter;stroke-opacity:1"/>
<path class="bond-11 atom-2 atom-10" d="M 72.5,106.7 L 46.5,87.0" style="fill:none;fill-rule:evenodd;stroke:#000000;stroke-width:2.0px;stroke-linecap:butt;stroke-linejoin:miter;stroke-opacity:1"/>
<path class="bond-12 atom-3 atom-11" d="M 98.5,136.7 L 69.4,152.7" style="fill:none;fill-rule:evenodd;stroke:#000000;stroke-width:2.0px;stroke-linecap:butt;stroke-linejoin:miter;stroke-opacity:1"/>
<path class="bond-13 atom-4 atom-12" d="M 132.5,157.2 L 151.8,181.1" style="fill:none;fill-rule:evenodd;stroke:#000000;stroke-width:2.0px;stroke-linecap:butt;stroke-linejoin:miter;stroke-opacity:1"/>
<path class="bond-14 atom-4 atom-13" d="M 132.5,157.2 L 112.1,180.5" style="fill:none;fill-rule:evenodd;stroke:#000000;stroke-width:2.0px;stroke-linecap:butt;stroke-linejoin:miter;stroke-opacity:1"/>
<path class="bond-15 atom-6 atom-14" d="M 168.0,98.2 L 179.6,68.1" style="fill:none;fill-rule:evenodd;stroke:#000000;stroke-width:2.0px;stroke-linecap:butt;stroke-linejoin:miter;stroke-opacity:1"/>
<path class="bond-16 atom-6 atom-15" d="M 168.0,98.2 L 201.2,104.8" style="fill:none;fill-rule:evenodd;stroke:#000000;stroke-width:2.0px;stroke-linecap:butt;stroke-linejoin:miter;stroke-opacity:1"/>
<path class="bond-17 atom-7 atom-16" d="M 134.0,77.7 L 134.6,45.0" style="fill:none;fill-rule:evenodd;stroke:#000000;stroke-width:2.0px;stroke-linecap:butt;stroke-linejoin:miter;stroke-opacity:1"/>
<path class="atom-0" d="M 72.3 36.1 Q 72.3 33.4, 73.7 31.9 Q 75.0 30.4, 77.5 30.4 Q 80.0 30.4, 81.3 31.9 Q 82.6 33.4, 82.6 36.1 Q 82.6 38.8, 81.3 40.4 Q 79.9 41.9, 77.5 41.9 Q 75.0 41.9, 73.7 40.4 Q 72.3 38.8, 72.3 36.1 M 77.5 40.7 Q 79.2 40.7, 80.1 39.5 Q 81.1 38.3, 81.1 36.1 Q 81.1 33.9, 80.1 32.8 Q 79.2 31.6, 77.5 31.6 Q 75.8 31.6, 74.8 32.8 Q 73.9 33.9, 73.9 36.1 Q 73.9 38.4, 74.8 39.5 Q 75.8 40.7, 77.5 40.7 " fill="#FF0000"/>
<path class="atom-5" d="M 162.1 138.0 Q 162.1 135.3, 163.4 133.8 Q 164.7 132.3, 167.2 132.3 Q 169.7 132.3, 171.1 133.8 Q 172.4 135.3, 172.4 138.0 Q 172.4 140.7, 171.1 142.3 Q 169.7 143.8, 167.2 143.8 Q 164.8 143.8, 163.4 142.3 Q 162.1 140.7, 162.1 138.0 M 167.2 142.5 Q 169.0 142.5, 169.9 141.4 Q 170.8 140.2, 170.8 138.0 Q 170.8 135.8, 169.9 134.7 Q 169.0 133.5, 167.2 133.5 Q 165.5 133.5, 164.6 134.6 Q 163.7 135.8, 163.7 138.0 Q 163.7 140.3, 164.6 141.4 Q 165.5 142.5, 167.2 142.5 " fill="#FF0000"/>
<path class="atom-8" d="M 94.0 97.0 Q 94.0 94.3, 95.4 92.8 Q 96.7 91.3, 99.2 91.3 Q 101.7 91.3, 103.0 92.8 Q 104.4 94.3, 104.4 97.0 Q 104.4 99.7, 103.0 101.3 Q 101.7 102.8, 99.2 102.8 Q 96.7 102.8, 95.4 101.3 Q 94.0 99.7, 94.0 97.0 M 99.2 101.5 Q 100.9 101.5, 101.8 100.4 Q 102.8 99.2, 102.8 97.0 Q 102.8 94.8, 101.8 93.7 Q 100.9 92.5, 99.2 92.5 Q 97.5 92.5, 96.6 93.6 Q 95.6 94.8, 95.6 97.0 Q 95.6 99.3, 96.6 100.4 Q 97.5 101.5, 99.2 101.5 " fill="#FF0000"/>
<path class="atom-9" d="M 40.9 130.0 L 42.5 130.0 L 42.5 134.8 L 48.2 134.8 L 48.2 130.0 L 49.7 130.0 L 49.7 141.3 L 48.2 141.3 L 48.2 136.1 L 42.5 136.1 L 42.5 141.3 L 40.9 141.3 L 40.9 130.0 " fill="#000000"/>
<path class="atom-10" d="M 36.4 77.1 L 37.9 77.1 L 37.9 81.9 L 43.6 81.9 L 43.6 77.1 L 45.2 77.1 L 45.2 88.3 L 43.6 88.3 L 43.6 83.1 L 37.9 83.1 L 37.9 88.3 L 36.4 88.3 L 36.4 77.1 " fill="#000000"/>
<path class="atom-11" d="M 59.3 150.2 L 60.8 150.2 L 60.8 155.0 L 66.6 155.0 L 66.6 150.2 L 68.1 150.2 L 68.1 161.5 L 66.6 161.5 L 66.6 156.3 L 60.8 156.3 L 60.8 161.5 L 59.3 161.5 L 59.3 150.2 " fill="#000000"/>
<path class="atom-12" d="M 153.0 182.4 L 154.6 182.4 L 154.6 187.2 L 160.3 187.2 L 160.3 182.4 L 161.8 182.4 L 161.8 193.7 L 160.3 193.7 L 160.3 188.5 L 154.6 188.5 L 154.6 193.7 L 153.0 193.7 L 153.0 182.4 " fill="#000000"/>
<path class="atom-13" d="M 102.0 181.5 L 103.5 181.5 L 103.5 186.3 L 109.3 186.3 L 109.3 181.5 L 110.8 181.5 L 110.8 192.7 L 109.3 192.7 L 109.3 187.5 L 103.5 187.5 L 103.5 192.7 L 102.0 192.7 L 102.0 181.5 " fill="#000000"/>
<path class="atom-14" d="M 177.9 55.6 L 179.4 55.6 L 179.4 60.3 L 185.1 60.3 L 185.1 55.6 L 186.7 55.6 L 186.7 66.8 L 185.1 66.8 L 185.1 61.6 L 179.4 61.6 L 179.4 66.8 L 177.9 66.8 L 177.9 55.6 " fill="#000000"/>
<path class="atom-15" d="M 202.6 100.3 L 204.1 100.3 L 204.1 105.0 L 209.8 105.0 L 209.8 100.3 L 211.4 100.3 L 211.4 111.5 L 209.8 111.5 L 209.8 106.3 L 204.1 106.3 L 204.1 111.5 L 202.6 111.5 L 202.6 100.3 " fill="#000000"/>
<path class="atom-16" d="M 130.3 32.4 L 131.8 32.4 L 131.8 37.2 L 137.6 37.2 L 137.6 32.4 L 139.1 32.4 L 139.1 43.7 L 137.6 43.7 L 137.6 38.5 L 131.8 38.5 L 131.8 43.7 L 130.3 43.7 L 130.3 32.4 " fill="#000000"/>
<path class="note" d="M 72.3 26.8 Q 71.3 26.8, 70.8 26.0 Q 70.3 25.2, 70.3 23.9 Q 70.3 22.5, 70.8 21.8 Q 71.3 21.0, 72.3 21.0 Q 73.4 21.0, 73.9 21.8 Q 74.4 22.5, 74.4 23.9 Q 74.4 25.2, 73.9 26.0 Q 73.4 26.8, 72.3 26.8 M 72.3 26.1 Q 72.9 26.1, 73.3 25.6 Q 73.6 25.0, 73.6 23.9 Q 73.6 22.8, 73.3 22.2 Q 72.9 21.7, 72.3 21.7 Q 71.7 21.7, 71.4 22.2 Q 71.1 22.8, 71.1 23.9 Q 71.1 25.0, 71.4 25.6 Q 71.7 26.1, 72.3 26.1 " fill="#000000"/>
<path class="note" d="M 94.5 80.8 L 95.7 80.8 L 95.7 76.6 L 94.3 77.0 L 94.1 76.5 L 95.9 75.8 L 96.4 75.9 L 96.4 80.8 L 97.5 80.8 L 97.5 81.4 L 94.5 81.4 L 94.5 80.8 " fill="#000000"/>
<path class="note" d="M 77.2 104.4 Q 77.4 103.8, 77.9 103.5 Q 78.4 103.2, 79.0 103.2 Q 79.9 103.2, 80.4 103.7 Q 80.8 104.2, 80.8 105.0 Q 80.8 105.8, 80.2 106.6 Q 79.6 107.4, 78.3 108.3 L 80.9 108.3 L 80.9 108.9 L 77.2 108.9 L 77.2 108.4 Q 78.2 107.6, 78.8 107.1 Q 79.4 106.5, 79.7 106.0 Q 80.1 105.5, 80.1 105.0 Q 80.1 104.5, 79.8 104.2 Q 79.5 103.9, 79.0 103.9 Q 78.6 103.9, 78.3 104.1 Q 78.0 104.2, 77.8 104.6 L 77.2 104.4 " fill="#000000"/>
<path class="note" d="M 103.5 131.5 Q 104.1 131.6, 104.3 132.0 Q 104.6 132.3, 104.6 132.9 Q 104.6 133.4, 104.4 133.7 Q 104.1 134.1, 103.7 134.3 Q 103.3 134.5, 102.7 134.5 Q 102.1 134.5, 101.6 134.3 Q 101.2 134.1, 100.8 133.7 L 101.3 133.2 Q 101.6 133.6, 101.9 133.7 Q 102.2 133.9, 102.7 133.9 Q 103.2 133.9, 103.5 133.6 Q 103.8 133.3, 103.8 132.9 Q 103.8 132.3, 103.5 132.1 Q 103.2 131.8, 102.5 131.8 L 102.1 131.8 L 102.1 131.2 L 102.4 131.2 Q 103.1 131.2, 103.4 131.0 Q 103.7 130.7, 103.7 130.2 Q 103.7 129.8, 103.4 129.6 Q 103.2 129.4, 102.7 129.4 Q 102.2 129.4, 101.9 129.6 Q 101.7 129.7, 101.4 130.1 L 100.9 129.8 Q 101.1 129.4, 101.6 129.1 Q 102.0 128.7, 102.7 128.7 Q 103.5 128.7, 104.0 129.1 Q 104.5 129.5, 104.5 130.2 Q 104.5 130.6, 104.3 131.0 Q 104.0 131.3, 103.5 131.5 " fill="#000000"/>
<path class="note" d="M 134.1 151.4 L 134.8 151.4 L 134.8 152.1 L 134.1 152.1 L 134.1 153.4 L 133.3 153.4 L 133.3 152.1 L 130.4 152.1 L 130.4 151.6 L 132.9 147.7 L 134.1 147.7 L 134.1 151.4 M 131.4 151.4 L 133.3 151.4 L 133.3 148.2 L 131.4 151.4 " fill="#000000"/>
<path class="note" d="M 178.7 144.1 Q 179.2 144.1, 179.6 144.3 Q 180.0 144.5, 180.2 144.9 Q 180.5 145.3, 180.5 145.8 Q 180.5 146.4, 180.2 146.8 Q 179.9 147.2, 179.5 147.4 Q 179.0 147.7, 178.5 147.7 Q 178.0 147.7, 177.5 147.5 Q 177.0 147.3, 176.7 146.9 L 177.2 146.4 Q 177.4 146.7, 177.8 146.9 Q 178.1 147.0, 178.5 147.0 Q 179.0 147.0, 179.3 146.7 Q 179.7 146.4, 179.7 145.8 Q 179.7 145.2, 179.3 145.0 Q 179.0 144.7, 178.4 144.7 Q 178.0 144.7, 177.4 144.9 L 177.0 144.7 L 177.2 142.0 L 180.1 142.0 L 180.0 142.6 L 177.9 142.6 L 177.7 144.3 Q 178.2 144.1, 178.7 144.1 " fill="#000000"/>
<path class="note" d="M 162.4 100.8 Q 162.9 100.8, 163.3 101.0 Q 163.7 101.2, 163.9 101.6 Q 164.1 102.0, 164.1 102.5 Q 164.1 103.0, 163.9 103.5 Q 163.7 103.9, 163.2 104.1 Q 162.8 104.4, 162.3 104.4 Q 161.3 104.4, 160.7 103.7 Q 160.2 103.0, 160.2 101.6 Q 160.2 100.2, 160.9 99.4 Q 161.5 98.6, 162.7 98.6 Q 163.0 98.6, 163.3 98.7 Q 163.6 98.8, 163.9 98.9 L 163.6 99.5 Q 163.2 99.2, 162.7 99.2 Q 161.9 99.2, 161.5 99.8 Q 161.1 100.3, 161.0 101.3 Q 161.3 101.1, 161.7 100.9 Q 162.1 100.8, 162.4 100.8 M 162.3 103.7 Q 162.6 103.7, 162.8 103.5 Q 163.1 103.4, 163.2 103.1 Q 163.3 102.8, 163.3 102.5 Q 163.3 102.0, 163.1 101.7 Q 162.8 101.4, 162.3 101.4 Q 162.0 101.4, 161.6 101.6 Q 161.3 101.7, 161.0 101.9 Q 161.1 102.9, 161.4 103.3 Q 161.7 103.7, 162.3 103.7 " fill="#000000"/>
<path class="note" d="M 134.9 82.2 L 132.0 82.2 L 132.0 81.6 L 135.7 81.6 L 135.7 82.1 L 133.4 87.2 L 132.7 87.2 L 134.9 82.2 " fill="#000000"/>
<path class="note" d="M 88.8 90.0 Q 89.3 90.2, 89.6 90.5 Q 89.9 90.9, 89.9 91.4 Q 89.9 91.9, 89.6 92.3 Q 89.4 92.6, 88.9 92.8 Q 88.5 93.0, 87.9 93.0 Q 87.0 93.0, 86.4 92.6 Q 85.9 92.2, 85.9 91.4 Q 85.9 91.0, 86.1 90.6 Q 86.4 90.3, 86.9 90.0 Q 86.5 89.8, 86.3 89.5 Q 86.1 89.2, 86.1 88.7 Q 86.1 88.1, 86.6 87.7 Q 87.1 87.3, 87.9 87.3 Q 88.7 87.3, 89.2 87.7 Q 89.7 88.1, 89.7 88.7 Q 89.7 89.1, 89.4 89.4 Q 89.2 89.7, 88.8 90.0 M 87.9 87.9 Q 87.4 87.9, 87.1 88.1 Q 86.9 88.3, 86.9 88.7 Q 86.9 89.0, 87.1 89.2 Q 87.2 89.4, 87.5 89.5 Q 87.7 89.6, 88.2 89.8 Q 88.6 89.5, 88.7 89.3 Q 88.9 89.0, 88.9 88.7 Q 88.9 88.3, 88.6 88.1 Q 88.3 87.9, 87.9 87.9 M 87.9 92.4 Q 88.4 92.4, 88.7 92.2 Q 89.1 91.9, 89.1 91.4 Q 89.1 91.1, 88.9 90.9 Q 88.7 90.7, 88.5 90.6 Q 88.2 90.5, 87.8 90.4 L 87.4 90.2 Q 87.0 90.5, 86.9 90.8 Q 86.7 91.0, 86.7 91.4 Q 86.7 91.9, 87.0 92.2 Q 87.3 92.4, 87.9 92.4 " fill="#000000"/>
<path class="note" d="M 36.2 142.5 Q 37.2 142.5, 37.7 143.2 Q 38.2 143.8, 38.2 145.2 Q 38.2 146.7, 37.6 147.5 Q 37.0 148.2, 35.8 148.2 Q 35.4 148.2, 35.1 148.2 Q 34.8 148.1, 34.6 147.9 L 34.9 147.4 Q 35.3 147.6, 35.8 147.6 Q 36.6 147.6, 37.0 147.1 Q 37.4 146.6, 37.4 145.5 Q 37.1 145.8, 36.8 145.9 Q 36.4 146.1, 36.0 146.1 Q 35.5 146.1, 35.2 145.8 Q 34.8 145.6, 34.6 145.2 Q 34.3 144.9, 34.3 144.4 Q 34.3 143.8, 34.6 143.4 Q 34.8 143.0, 35.2 142.7 Q 35.7 142.5, 36.2 142.5 M 35.1 144.4 Q 35.1 144.9, 35.4 145.1 Q 35.7 145.4, 36.2 145.4 Q 36.5 145.4, 36.9 145.3 Q 37.2 145.1, 37.4 144.9 Q 37.4 144.0, 37.1 143.6 Q 36.8 143.1, 36.2 143.1 Q 35.9 143.1, 35.7 143.3 Q 35.4 143.5, 35.3 143.7 Q 35.1 144.0, 35.1 144.4 " fill="#000000"/>
<path class="note" d="M 26.6 76.9 L 27.8 76.9 L 27.8 72.7 L 26.5 73.2 L 26.3 72.7 L 28.0 71.9 L 28.6 72.0 L 28.6 76.9 L 29.7 76.9 L 29.7 77.6 L 26.6 77.6 L 26.6 76.9 " fill="#000000"/>
<path class="note" d="M 32.1 77.6 Q 31.0 77.6, 30.5 76.9 Q 30.0 76.1, 30.0 74.8 Q 30.0 73.4, 30.5 72.6 Q 31.0 71.9, 32.1 71.9 Q 33.1 71.9, 33.6 72.6 Q 34.1 73.4, 34.1 74.8 Q 34.1 76.1, 33.6 76.9 Q 33.1 77.6, 32.1 77.6 M 32.1 77.0 Q 32.7 77.0, 33.0 76.4 Q 33.3 75.9, 33.3 74.8 Q 33.3 73.6, 33.0 73.1 Q 32.7 72.5, 32.1 72.5 Q 31.5 72.5, 31.1 73.1 Q 30.8 73.6, 30.8 74.8 Q 30.8 75.9, 31.1 76.4 Q 31.5 77.0, 32.1 77.0 " fill="#000000"/>
<path class="note" d="M 48.9 164.5 L 50.1 164.5 L 50.1 160.3 L 48.7 160.7 L 48.6 160.2 L 50.3 159.4 L 50.8 159.5 L 50.8 164.5 L 52.0 164.5 L 52.0 165.1 L 48.9 165.1 L 48.9 164.5 " fill="#000000"/>
<path class="note" d="M 52.6 164.5 L 53.8 164.5 L 53.8 160.3 L 52.5 160.7 L 52.3 160.2 L 54.0 159.4 L 54.6 159.5 L 54.6 164.5 L 55.7 164.5 L 55.7 165.1 L 52.6 165.1 L 52.6 164.5 " fill="#000000"/>
<path class="note" d="M 156.0 203.3 L 157.3 203.3 L 157.3 199.1 L 155.9 199.6 L 155.7 199.1 L 157.4 198.3 L 158.0 198.4 L 158.0 203.3 L 159.1 203.3 L 159.1 204.0 L 156.0 204.0 L 156.0 203.3 " fill="#000000"/>
<path class="note" d="M 159.5 199.4 Q 159.7 198.9, 160.2 198.6 Q 160.7 198.3, 161.3 198.3 Q 162.2 198.3, 162.7 198.7 Q 163.1 199.2, 163.1 200.0 Q 163.1 200.9, 162.5 201.6 Q 161.9 202.4, 160.6 203.3 L 163.2 203.3 L 163.2 204.0 L 159.4 204.0 L 159.4 203.4 Q 160.5 202.7, 161.1 202.1 Q 161.7 201.6, 162.0 201.1 Q 162.3 200.6, 162.3 200.1 Q 162.3 199.5, 162.1 199.2 Q 161.8 198.9, 161.3 198.9 Q 160.9 198.9, 160.6 199.1 Q 160.3 199.3, 160.1 199.7 L 159.5 199.4 " fill="#000000"/>
<path class="note" d="M 90.4 193.6 L 91.6 193.6 L 91.6 189.4 L 90.3 189.8 L 90.1 189.3 L 91.8 188.6 L 92.4 188.7 L 92.4 193.6 L 93.5 193.6 L 93.5 194.2 L 90.4 194.2 L 90.4 193.6 " fill="#000000"/>
<path class="note" d="M 96.5 191.3 Q 97.1 191.4, 97.3 191.8 Q 97.6 192.1, 97.6 192.7 Q 97.6 193.2, 97.4 193.5 Q 97.1 193.9, 96.7 194.1 Q 96.3 194.3, 95.7 194.3 Q 95.1 194.3, 94.6 194.1 Q 94.2 193.9, 93.8 193.5 L 94.3 193.0 Q 94.6 193.4, 94.9 193.5 Q 95.2 193.7, 95.7 193.7 Q 96.2 193.7, 96.5 193.4 Q 96.8 193.1, 96.8 192.7 Q 96.8 192.1, 96.5 191.9 Q 96.2 191.6, 95.5 191.6 L 95.1 191.6 L 95.1 191.0 L 95.4 191.0 Q 96.0 191.0, 96.4 190.8 Q 96.7 190.5, 96.7 190.0 Q 96.7 189.6, 96.4 189.4 Q 96.2 189.2, 95.7 189.2 Q 95.2 189.2, 94.9 189.3 Q 94.7 189.5, 94.4 189.9 L 93.9 189.6 Q 94.1 189.2, 94.6 188.9 Q 95.0 188.5, 95.7 188.5 Q 96.5 188.5, 97.0 188.9 Q 97.5 189.3, 97.5 190.0 Q 97.5 190.4, 97.2 190.8 Q 97.0 191.1, 96.5 191.3 " fill="#000000"/>
<path class="note" d="M 183.3 51.0 L 184.5 51.0 L 184.5 46.8 L 183.2 47.2 L 183.0 46.8 L 184.7 46.0 L 185.3 46.1 L 185.3 51.0 L 186.4 51.0 L 186.4 51.7 L 183.3 51.7 L 183.3 51.0 " fill="#000000"/>
<path class="note" d="M 190.4 49.7 L 191.1 49.7 L 191.1 50.4 L 190.4 50.4 L 190.4 51.7 L 189.6 51.7 L 189.6 50.4 L 186.7 50.4 L 186.7 49.9 L 189.2 46.0 L 190.4 46.0 L 190.4 49.7 M 187.6 49.7 L 189.6 49.7 L 189.6 46.5 L 187.6 49.7 " fill="#000000"/>
<path class="note" d="M 216.5 110.6 L 217.7 110.6 L 217.7 106.4 L 216.4 106.8 L 216.2 106.4 L 217.9 105.6 L 218.5 105.7 L 218.5 110.6 L 219.6 110.6 L 219.6 111.2 L 216.5 111.2 L 216.5 110.6 " fill="#000000"/>
<path class="note" d="M 222.0 107.7 Q 222.4 107.7, 222.8 107.9 Q 223.3 108.1, 223.5 108.5 Q 223.7 108.9, 223.7 109.5 Q 223.7 110.0, 223.4 110.5 Q 223.2 110.9, 222.7 111.1 Q 222.2 111.3, 221.7 111.3 Q 221.2 111.3, 220.7 111.1 Q 220.2 110.9, 219.9 110.6 L 220.4 110.1 Q 220.6 110.4, 221.0 110.5 Q 221.4 110.7, 221.7 110.7 Q 222.2 110.7, 222.6 110.4 Q 222.9 110.0, 222.9 109.5 Q 222.9 108.9, 222.6 108.6 Q 222.2 108.3, 221.7 108.3 Q 221.2 108.3, 220.6 108.5 L 220.2 108.3 L 220.5 105.6 L 223.4 105.6 L 223.3 106.3 L 221.1 106.3 L 221.0 107.9 Q 221.5 107.7, 222.0 107.7 " fill="#000000"/>
<path class="note" d="M 131.5 27.0 L 132.7 27.0 L 132.7 22.8 L 131.3 23.2 L 131.2 22.8 L 132.9 22.0 L 133.4 22.1 L 133.4 27.0 L 134.5 27.0 L 134.5 27.6 L 131.5 27.6 L 131.5 27.0 " fill="#000000"/>
<path class="note" d="M 137.1 24.1 Q 137.6 24.1, 138.0 24.4 Q 138.4 24.6, 138.6 25.0 Q 138.8 25.3, 138.8 25.8 Q 138.8 26.4, 138.5 26.8 Q 138.3 27.2, 137.9 27.5 Q 137.4 27.7, 136.9 27.7 Q 135.9 27.7, 135.4 27.0 Q 134.9 26.4, 134.9 25.0 Q 134.9 23.5, 135.5 22.7 Q 136.1 22.0, 137.3 22.0 Q 137.7 22.0, 138.0 22.0 Q 138.3 22.1, 138.6 22.3 L 138.2 22.8 Q 137.8 22.6, 137.3 22.6 Q 136.5 22.6, 136.1 23.1 Q 135.7 23.6, 135.7 24.7 Q 136.0 24.4, 136.3 24.3 Q 136.7 24.1, 137.1 24.1 M 136.9 27.1 Q 137.2 27.1, 137.4 26.9 Q 137.7 26.7, 137.8 26.5 Q 138.0 26.2, 138.0 25.8 Q 138.0 25.3, 137.7 25.1 Q 137.4 24.8, 136.9 24.8 Q 136.6 24.8, 136.3 24.9 Q 135.9 25.0, 135.7 25.3 Q 135.7 26.2, 136.0 26.6 Q 136.3 27.1, 136.9 27.1 " fill="#000000"/>
<path class="legend" d="M 71.0 235.8 L 72.3 235.8 L 72.3 237.1 L 71.0 237.1 L 71.0 239.7 L 69.5 239.7 L 69.5 237.1 L 63.6 237.1 L 63.6 236.1 L 68.6 228.4 L 71.0 228.4 L 71.0 235.8 M 65.5 235.8 L 69.5 235.8 L 69.5 229.4 L 65.5 235.8 " fill="#000000"/>
<path class="legend" d="M 80.5 235.8 L 81.8 235.8 L 81.8 237.1 L 80.5 237.1 L 80.5 239.7 L 79.0 239.7 L 79.0 237.1 L 73.1 237.1 L 73.1 236.1 L 78.1 228.4 L 80.5 228.4 L 80.5 235.8 M 75.0 235.8 L 79.0 235.8 L 79.0 229.4 L 75.0 235.8 " fill="#000000"/>
<path class="legend" d="M 86.4 228.3 Q 88.4 228.3, 89.4 229.7 Q 90.5 231.0, 90.5 233.7 Q 90.5 236.7, 89.2 238.3 Q 87.9 239.9, 85.5 239.9 Q 84.8 239.9, 84.2 239.7 Q 83.6 239.5, 83.1 239.2 L 83.7 238.1 Q 84.5 238.6, 85.5 238.6 Q 87.1 238.6, 87.9 237.6 Q 88.7 236.5, 88.8 234.4 Q 88.3 234.9, 87.5 235.2 Q 86.8 235.5, 86.0 235.5 Q 85.0 235.5, 84.3 235.0 Q 83.5 234.6, 83.0 233.8 Q 82.6 233.0, 82.6 232.1 Q 82.6 231.0, 83.1 230.1 Q 83.6 229.2, 84.4 228.8 Q 85.3 228.3, 86.4 228.3 M 84.2 232.0 Q 84.2 233.0, 84.8 233.6 Q 85.3 234.2, 86.3 234.2 Q 87.0 234.2, 87.7 233.9 Q 88.4 233.6, 88.8 233.2 Q 88.8 231.3, 88.2 230.4 Q 87.6 229.6, 86.4 229.6 Q 85.8 229.6, 85.3 229.9 Q 84.8 230.2, 84.5 230.8 Q 84.2 231.3, 84.2 232.0 " fill="#000000"/>
<path class="legend" d="M 95.7 232.6 Q 96.7 232.6, 97.5 233.1 Q 98.3 233.5, 98.7 234.3 Q 99.2 235.1, 99.2 236.2 Q 99.2 237.3, 98.6 238.2 Q 98.1 239.0, 97.1 239.4 Q 96.2 239.9, 95.2 239.9 Q 94.1 239.9, 93.2 239.5 Q 92.2 239.1, 91.5 238.4 L 92.5 237.4 Q 93.0 237.9, 93.8 238.3 Q 94.5 238.6, 95.2 238.6 Q 96.2 238.6, 96.9 237.9 Q 97.6 237.3, 97.6 236.2 Q 97.6 235.0, 96.9 234.4 Q 96.2 233.8, 95.1 233.8 Q 94.1 233.8, 93.0 234.3 L 92.1 233.9 L 92.7 228.4 L 98.5 228.4 L 98.3 229.7 L 94.0 229.7 L 93.7 233.0 Q 94.7 232.6, 95.7 232.6 " fill="#000000"/>
<path class="legend" d="M 105.9 229.7 L 100.0 229.7 L 100.0 228.4 L 107.5 228.4 L 107.5 229.5 L 102.9 239.7 L 101.4 239.7 L 105.9 229.7 " fill="#000000"/>
<path class="legend" d="M 116.1 240.5 L 116.1 241.8 L 108.0 241.8 L 108.0 240.5 L 116.1 240.5 " fill="#000000"/>
<path class="legend" d="M 120.2 232.6 Q 121.2 232.6, 122.0 233.1 Q 122.9 233.5, 123.3 234.3 Q 123.8 235.1, 123.8 236.2 Q 123.8 237.3, 123.2 238.2 Q 122.7 239.0, 121.7 239.4 Q 120.8 239.9, 119.7 239.9 Q 118.7 239.9, 117.7 239.5 Q 116.8 239.1, 116.1 238.4 L 117.1 237.4 Q 117.6 237.9, 118.3 238.3 Q 119.1 238.6, 119.8 238.6 Q 120.8 238.6, 121.5 237.9 Q 122.2 237.3, 122.2 236.2 Q 122.2 235.0, 121.5 234.4 Q 120.8 233.8, 119.7 233.8 Q 118.7 233.8, 117.6 234.3 L 116.7 233.9 L 117.3 228.4 L 123.1 228.4 L 122.9 229.7 L 118.6 229.7 L 118.2 233.0 Q 119.2 232.6, 120.2 232.6 " fill="#000000"/>
<path class="legend" d="" fill="#000000"/>
<path class="legend" d="M 129.9 235.2 Q 129.9 232.9, 130.5 231.0 Q 131.2 229.1, 132.5 227.1 L 133.4 227.6 Q 132.4 229.5, 131.8 231.3 Q 131.3 233.0, 131.3 235.2 Q 131.3 237.3, 131.8 239.0 Q 132.4 240.7, 133.4 242.7 L 132.5 243.3 Q 131.2 241.3, 130.5 239.4 Q 129.9 237.5, 129.9 235.2 " fill="#000000"/>
<path class="legend" d="M 133.8 234.0 Q 133.8 231.3, 135.2 229.8 Q 136.5 228.3, 139.0 228.3 Q 141.5 228.3, 142.9 229.8 Q 144.2 231.3, 144.2 234.0 Q 144.2 236.8, 142.9 238.4 Q 141.5 239.9, 139.0 239.9 Q 136.5 239.9, 135.2 238.4 Q 133.8 236.8, 133.8 234.0 M 139.0 238.6 Q 140.7 238.6, 141.7 237.5 Q 142.6 236.3, 142.6 234.0 Q 142.6 231.8, 141.7 230.7 Q 140.7 229.6, 139.0 229.6 Q 137.3 229.6, 136.3 230.7 Q 135.4 231.8, 135.4 234.0 Q 135.4 236.3, 136.3 237.5 Q 137.3 238.6, 139.0 238.6 " fill="#000000"/>
<path class="legend" d="M 146.2 231.5 L 146.4 232.6 Q 147.3 231.4, 148.7 231.4 Q 149.1 231.4, 149.7 231.5 L 149.5 232.9 Q 148.8 232.7, 148.4 232.7 Q 147.7 232.7, 147.3 233.0 Q 146.9 233.2, 146.5 233.9 L 146.5 239.7 L 145.0 239.7 L 145.0 231.5 L 146.2 231.5 " fill="#000000"/>
<path class="legend" d="M 150.0 237.5 Q 150.0 236.2, 151.0 235.5 Q 152.1 234.8, 154.0 234.8 L 155.2 234.8 L 155.2 234.4 Q 155.2 233.4, 154.8 233.0 Q 154.4 232.6, 153.4 232.6 Q 152.7 232.6, 152.2 232.7 Q 151.7 232.8, 150.9 233.1 L 150.4 232.1 Q 151.9 231.4, 153.4 231.4 Q 155.1 231.4, 155.9 232.1 Q 156.7 232.9, 156.7 234.5 L 156.7 239.7 L 155.6 239.7 Q 155.6 239.7, 155.5 239.4 Q 155.5 239.2, 155.4 238.8 Q 154.2 239.9, 152.7 239.9 Q 151.4 239.9, 150.7 239.3 Q 150.0 238.6, 150.0 237.5 M 151.5 237.5 Q 151.5 238.1, 151.9 238.4 Q 152.2 238.7, 153.0 238.7 Q 153.6 238.7, 154.2 238.5 Q 154.8 238.2, 155.2 237.6 L 155.2 235.9 L 154.1 235.9 Q 152.8 235.9, 152.1 236.3 Q 151.5 236.7, 151.5 237.5 " fill="#000000"/>
<path class="legend" d="M 162.3 231.4 Q 163.6 231.4, 164.3 232.1 Q 165.0 232.9, 165.0 234.3 L 165.0 239.7 L 163.5 239.7 L 163.5 234.4 Q 163.5 233.4, 163.1 233.0 Q 162.7 232.6, 161.9 232.6 Q 161.1 232.6, 160.5 232.9 Q 159.9 233.2, 159.5 233.8 L 159.5 239.7 L 158.0 239.7 L 158.0 231.5 L 159.2 231.5 L 159.4 232.7 Q 160.5 231.4, 162.3 231.4 " fill="#000000"/>
<path class="legend" d="M 173.7 231.5 L 173.7 240.2 Q 173.7 243.8, 169.9 243.8 Q 168.1 243.8, 166.5 242.9 L 167.0 241.8 Q 167.9 242.2, 168.5 242.4 Q 169.1 242.6, 169.9 242.6 Q 171.1 242.6, 171.6 242.0 Q 172.2 241.5, 172.2 240.2 L 172.2 238.8 Q 171.3 239.9, 169.8 239.9 Q 168.1 239.9, 167.1 238.8 Q 166.2 237.7, 166.2 235.8 Q 166.2 233.7, 167.3 232.5 Q 168.5 231.4, 170.4 231.4 Q 171.5 231.4, 172.4 231.7 L 172.5 231.5 L 173.7 231.5 M 169.9 238.7 Q 170.7 238.7, 171.3 238.2 Q 171.9 237.8, 172.2 237.0 L 172.2 232.8 Q 171.3 232.6, 170.4 232.6 Q 169.2 232.6, 168.5 233.4 Q 167.7 234.2, 167.7 235.8 Q 167.7 237.2, 168.3 237.9 Q 168.9 238.7, 169.9 238.7 " fill="#000000"/>
<path class="legend" d="M 175.0 235.6 Q 175.0 233.6, 176.0 232.5 Q 177.0 231.4, 178.9 231.4 Q 180.7 231.4, 181.5 232.5 Q 182.3 233.5, 182.3 235.6 L 182.3 235.8 L 176.5 235.8 Q 176.6 237.2, 177.2 237.9 Q 177.8 238.7, 179.0 238.7 Q 179.6 238.7, 180.2 238.5 Q 180.8 238.4, 181.5 238.1 L 182.0 239.1 Q 181.1 239.5, 180.4 239.7 Q 179.7 239.9, 178.9 239.9 Q 177.0 239.9, 176.0 238.7 Q 175.0 237.6, 175.0 235.6 M 178.9 232.6 Q 177.9 232.6, 177.3 233.1 Q 176.8 233.6, 176.6 234.7 L 180.7 234.7 Q 180.6 233.6, 180.1 233.1 Q 179.7 232.6, 178.9 232.6 " fill="#000000"/>
<path class="legend" d="M 186.4 235.2 Q 186.4 237.5, 185.7 239.4 Q 185.1 241.3, 183.8 243.3 L 182.9 242.7 Q 183.9 240.7, 184.4 239.0 Q 185.0 237.3, 185.0 235.2 Q 185.0 233.0, 184.4 231.3 Q 183.9 229.5, 182.9 227.6 L 183.8 227.1 Q 185.1 229.1, 185.7 231.0 Q 186.4 232.9, 186.4 235.2 " fill="#000000"/>
<path class="bond-1 atom-1 atom-2" d="M 376.7,107.4 L 366.5,145.8" style="fill:none;fill-rule:evenodd;stroke:#FF7F7F;stroke-width:8.5px;stroke-linecap:butt;stroke-linejoin:miter;stroke-opacity:1"/>
<path class="bond-2 atom-2 atom-3" d="M 366.5,145.8 L 326.8,147.9" style="fill:none;fill-rule:evenodd;stroke:#FF7F7F;stroke-width:8.5px;stroke-linecap:butt;stroke-linejoin:miter;stroke-opacity:1"/>
<ellipse cx="376.7" cy="107.4" rx="7.9" ry="7.9" class="atom-1" style="fill:#FF7F7F;fill-rule:evenodd;stroke:#FF7F7F;stroke-width:1.0px;stroke-linecap:butt;stroke-linejoin:miter;stroke-opacity:1"/>
<ellipse cx="366.5" cy="145.9" rx="7.9" ry="8.2" class="atom-2" style="fill:#FF7F7F;fill-rule:evenodd;stroke:#FF7F7F;stroke-width:1.0px;stroke-linecap:butt;stroke-linejoin:miter;stroke-opacity:1"/>
<ellipse cx="326.8" cy="147.9" rx="7.9" ry="7.9" class="atom-3" style="fill:#FF7F7F;fill-rule:evenodd;stroke:#FF7F7F;stroke-width:1.0px;stroke-linecap:butt;stroke-linejoin:miter;stroke-opacity:1"/>
<path class="bond-0 atom-0 atom-1" d="M 394.7,72.0 L 376.7,107.4" style="fill:none;fill-rule:evenodd;stroke:#000000;stroke-width:2.0px;stroke-linecap:butt;stroke-linejoin:miter;stroke-opacity:1"/>
<path class="bond-1 atom-1 atom-2" d="M 376.7,107.4 L 372.5,123.1" style="fill:none;fill-rule:evenodd;stroke:#000000;stroke-width:2.0px;stroke-linecap:butt;stroke-linejoin:miter;stroke-opacity:1"/>
<path class="bond-1 atom-1 atom-2" d="M 372.5,123.1 L 368.3,138.8" style="fill:none;fill-rule:evenodd;stroke:#FF0000;stroke-width:2.0px;stroke-linecap:butt;stroke-linejoin:miter;stroke-opacity:1"/>
<path class="bond-2 atom-2 atom-3" d="M 360.1,146.1 L 343.4,147.0" style="fill:none;fill-rule:evenodd;stroke:#FF0000;stroke-width:2.0px;stroke-linecap:butt;stroke-linejoin:miter;stroke-opacity:1"/>
<path class="bond-2 atom-2 atom-3" d="M 343.4,147.0 L 326.8,147.9" style="fill:none;fill-rule:evenodd;stroke:#000000;stroke-width:2.0px;stroke-linecap:butt;stroke-linejoin:miter;stroke-opacity:1"/>
<path class="bond-3 atom-3 atom-4" d="M 326.8,147.9 L 312.5,110.9" style="fill:none;fill-rule:evenodd;stroke:#000000;stroke-width:2.0px;stroke-linecap:butt;stroke-linejoin:miter;stroke-opacity:1"/>
<path class="bond-4 atom-4 atom-5" d="M 312.5,110.9 L 324.7,101.0" style="fill:none;fill-rule:evenodd;stroke:#000000;stroke-width:2.0px;stroke-linecap:butt;stroke-linejoin:miter;stroke-opacity:1"/>
<path class="bond-4 atom-4 atom-5" d="M 324.7,101.0 L 336.9,91.0" style="fill:none;fill-rule:evenodd;stroke:#FF0000;stroke-width:2.0px;stroke-linecap:butt;stroke-linejoin:miter;stroke-opacity:1"/>
<path class="bond-5 atom-1 atom-6" d="M 376.7,107.4 L 413.8,121.6" style="fill:none;fill-rule:evenodd;stroke:#000000;stroke-width:2.0px;stroke-linecap:butt;stroke-linejoin:miter;stroke-opacity:1"/>
<path class="bond-6 atom-6 atom-7" d="M 413.8,121.6 L 443.8,147.6" style="fill:none;fill-rule:evenodd;stroke:#000000;stroke-width:2.0px;stroke-linecap:butt;stroke-linejoin:miter;stroke-opacity:1"/>
<path class="bond-7 atom-7 atom-8" d="M 443.8,147.6 L 428.3,153.0" style="fill:none;fill-rule:evenodd;stroke:#000000;stroke-width:2.0px;stroke-linecap:butt;stroke-linejoin:miter;stroke-opacity:1"/>
<path class="bond-7 atom-7 atom-8" d="M 428.3,153.0 L 412.7,158.4" style="fill:none;fill-rule:evenodd;stroke:#FF0000;stroke-width:2.0px;stroke-linecap:butt;stroke-linejoin:miter;stroke-opacity:1"/>
<path class="bond-8 atom-5 atom-1" d="M 349.8,90.0 L 363.2,98.7" style="fill:none;fill-rule:evenodd;stroke:#FF0000;stroke-width:2.0px;stroke-linecap:butt;stroke-linejoin:miter;stroke-opacity:1"/>
<path class="bond-8 atom-5 atom-1" d="M 363.2,98.7 L 376.7,107.4" style="fill:none;fill-rule:evenodd;stroke:#000000;stroke-width:2.0px;stroke-linecap:butt;stroke-linejoin:miter;stroke-opacity:1"/>
<path class="bond-9 atom-8 atom-6" d="M 407.6,153.6 L 410.7,137.6" style="fill:none;fill-rule:evenodd;stroke:#FF0000;stroke-width:2.0px;stroke-linecap:butt;stroke-linejoin:miter;stroke-opacity:1"/>
<path class="bond-9 atom-8 atom-6" d="M 410.7,137.6 L 413.8,121.6" style="fill:none;fill-rule:evenodd;stroke:#000000;stroke-width:2.0px;stroke-linecap:butt;stroke-linejoin:miter;stroke-opacity:1"/>
<path class="bond-10 atom-0 atom-9" d="M 394.7,72.0 L 409.2,43.5" style="fill:none;fill-rule:evenodd;stroke:#000000;stroke-width:2.0px;stroke-linecap:butt;stroke-linejoin:miter;stroke-opacity:1"/>
<path class="bond-11 atom-0 atom-10" d="M 394.7,72.0 L 364.9,56.9" style="fill:none;fill-rule:evenodd;stroke:#000000;stroke-width:2.0px;stroke-linecap:butt;stroke-linejoin:miter;stroke-opacity:1"/>
<path class="bond-12 atom-0 atom-11" d="M 394.7,72.0 L 411.1,77.9" style="fill:none;fill-rule:evenodd;stroke:#000000;stroke-width:2.0px;stroke-linecap:butt;stroke-linejoin:miter;stroke-opacity:1"/>
<path class="bond-13 atom-3 atom-12" d="M 326.8,147.9 L 332.0,180.3" style="fill:none;fill-rule:evenodd;stroke:#000000;stroke-width:2.0px;stroke-linecap:butt;stroke-linejoin:miter;stroke-opacity:1"/>
<path class="bond-14 atom-3 atom-13" d="M 326.8,147.9 L 294.1,156.7" style="fill:none;fill-rule:evenodd;stroke:#000000;stroke-width:2.0px;stroke-linecap:butt;stroke-linejoin:miter;stroke-opacity:1"/>
<path class="bond-15 atom-4 atom-14" d="M 312.5,110.9 L 282.8,126.1" style="fill:none;fill-rule:evenodd;stroke:#000000;stroke-width:2.0px;stroke-linecap:butt;stroke-linejoin:miter;stroke-opacity:1"/>
<path class="bond-16 atom-4 atom-15" d="M 312.5,110.9 L 295.3,84.5" style="fill:none;fill-rule:evenodd;stroke:#000000;stroke-width:2.0px;stroke-linecap:butt;stroke-linejoin:miter;stroke-opacity:1"/>
<path class="bond-17 atom-6 atom-16" d="M 413.8,121.6 L 422.8,110.0" style="fill:none;fill-rule:evenodd;stroke:#000000;stroke-width:2.0px;stroke-linecap:butt;stroke-linejoin:miter;stroke-opacity:1"/>
<path class="bond-18 atom-7 atom-17" d="M 443.8,147.6 L 469.0,127.2" style="fill:none;fill-rule:evenodd;stroke:#000000;stroke-width:2.0px;stroke-linecap:butt;stroke-linejoin:miter;stroke-opacity:1"/>
<path class="bond-19 atom-7 atom-18" d="M 443.8,147.6 L 459.3,175.4" style="fill:none;fill-rule:evenodd;stroke:#000000;stroke-width:2.0px;stroke-linecap:butt;stroke-linejoin:miter;stroke-opacity:1"/>
<path class="atom-2" d="M 361.3 145.8 Q 361.3 143.1, 362.6 141.6 Q 364.0 140.1, 366.5 140.1 Q 369.0 140.1, 370.3 141.6 Q 371.6 143.1, 371.6 145.8 Q 371.6 148.6, 370.3 150.1 Q 368.9 151.7, 366.5 151.7 Q 364.0 151.7, 362.6 150.1 Q 361.3 148.6, 361.3 145.8 M 366.5 150.4 Q 368.2 150.4, 369.1 149.2 Q 370.1 148.1, 370.1 145.8 Q 370.1 143.6, 369.1 142.5 Q 368.2 141.4, 366.5 141.4 Q 364.8 141.4, 363.8 142.5 Q 362.9 143.6, 362.9 145.8 Q 362.9 148.1, 363.8 149.2 Q 364.8 150.4, 366.5 150.4 " fill="#FF0000"/>
<path class="atom-5" d="M 338.2 85.9 Q 338.2 83.2, 339.5 81.7 Q 340.9 80.1, 343.4 80.1 Q 345.9 80.1, 347.2 81.7 Q 348.5 83.2, 348.5 85.9 Q 348.5 88.6, 347.2 90.2 Q 345.8 91.7, 343.4 91.7 Q 340.9 91.7, 339.5 90.2 Q 338.2 88.6, 338.2 85.9 M 343.4 90.4 Q 345.1 90.4, 346.0 89.3 Q 346.9 88.1, 346.9 85.9 Q 346.9 83.7, 346.0 82.5 Q 345.1 81.4, 343.4 81.4 Q 341.6 81.4, 340.7 82.5 Q 339.8 83.6, 339.8 85.9 Q 339.8 88.1, 340.7 89.3 Q 341.6 90.4, 343.4 90.4 " fill="#FF0000"/>
<path class="atom-8" d="M 401.1 160.6 Q 401.1 157.9, 402.4 156.4 Q 403.8 154.9, 406.3 154.9 Q 408.8 154.9, 410.1 156.4 Q 411.4 157.9, 411.4 160.6 Q 411.4 163.3, 410.1 164.9 Q 408.7 166.4, 406.3 166.4 Q 403.8 166.4, 402.4 164.9 Q 401.1 163.4, 401.1 160.6 M 406.3 165.2 Q 408.0 165.2, 408.9 164.0 Q 409.9 162.9, 409.9 160.6 Q 409.9 158.4, 408.9 157.3 Q 408.0 156.2, 406.3 156.2 Q 404.6 156.2, 403.6 157.3 Q 402.7 158.4, 402.7 160.6 Q 402.7 162.9, 403.6 164.0 Q 404.6 165.2, 406.3 165.2 " fill="#FF0000"/>
<path class="atom-9" d="M 408.2 31.0 L 409.8 31.0 L 409.8 35.7 L 415.5 35.7 L 415.5 31.0 L 417.0 31.0 L 417.0 42.2 L 415.5 42.2 L 415.5 37.0 L 409.8 37.0 L 409.8 42.2 L 408.2 42.2 L 408.2 31.0 " fill="#000000"/>
<path class="atom-10" d="M 354.9 48.4 L 356.4 48.4 L 356.4 53.2 L 362.1 53.2 L 362.1 48.4 L 363.7 48.4 L 363.7 59.6 L 362.1 59.6 L 362.1 54.5 L 356.4 54.5 L 356.4 59.6 L 354.9 59.6 L 354.9 48.4 " fill="#000000"/>
<path class="atom-11" d="M 412.3 74.4 L 413.8 74.4 L 413.8 79.1 L 419.6 79.1 L 419.6 74.4 L 421.1 74.4 L 421.1 85.6 L 419.6 85.6 L 419.6 80.4 L 413.8 80.4 L 413.8 85.6 L 412.3 85.6 L 412.3 74.4 " fill="#000000"/>
<path class="atom-12" d="M 328.7 181.5 L 330.2 181.5 L 330.2 186.3 L 336.0 186.3 L 336.0 181.5 L 337.5 181.5 L 337.5 192.8 L 336.0 192.8 L 336.0 187.6 L 330.2 187.6 L 330.2 192.8 L 328.7 192.8 L 328.7 181.5 " fill="#000000"/>
<path class="atom-13" d="M 284.1 152.6 L 285.6 152.6 L 285.6 157.4 L 291.4 157.4 L 291.4 152.6 L 292.9 152.6 L 292.9 163.9 L 291.4 163.9 L 291.4 158.7 L 285.6 158.7 L 285.6 163.9 L 284.1 163.9 L 284.1 152.6 " fill="#000000"/>
<path class="atom-14" d="M 272.8 123.3 L 274.3 123.3 L 274.3 128.1 L 280.1 128.1 L 280.1 123.3 L 281.6 123.3 L 281.6 134.6 L 280.1 134.6 L 280.1 129.4 L 274.3 129.4 L 274.3 134.6 L 272.8 134.6 L 272.8 123.3 " fill="#000000"/>
<path class="atom-15" d="M 286.5 72.0 L 288.0 72.0 L 288.0 76.8 L 293.7 76.8 L 293.7 72.0 L 295.3 72.0 L 295.3 83.2 L 293.7 83.2 L 293.7 78.0 L 288.0 78.0 L 288.0 83.2 L 286.5 83.2 L 286.5 72.0 " fill="#000000"/>
<path class="atom-16" d="M 423.8 97.5 L 425.3 97.5 L 425.3 102.2 L 431.1 102.2 L 431.1 97.5 L 432.6 97.5 L 432.6 108.7 L 431.1 108.7 L 431.1 103.5 L 425.3 103.5 L 425.3 108.7 L 423.8 108.7 L 423.8 97.5 " fill="#000000"/>
<path class="atom-17" d="M 470.2 116.9 L 471.8 116.9 L 471.8 121.7 L 477.5 121.7 L 477.5 116.9 L 479.0 116.9 L 479.0 128.2 L 477.5 128.2 L 477.5 123.0 L 471.8 123.0 L 471.8 128.2 L 470.2 128.2 L 470.2 116.9 " fill="#000000"/>
<path class="atom-18" d="M 458.7 176.7 L 460.2 176.7 L 460.2 181.5 L 466.0 181.5 L 466.0 176.7 L 467.5 176.7 L 467.5 187.9 L 466.0 187.9 L 466.0 182.7 L 460.2 182.7 L 460.2 187.9 L 458.7 187.9 L 458.7 176.7 " fill="#000000"/>
<path class="note" d="M 396.7 81.2 Q 395.7 81.2, 395.2 80.4 Q 394.7 79.7, 394.7 78.3 Q 394.7 77.0, 395.2 76.2 Q 395.7 75.4, 396.7 75.4 Q 397.8 75.4, 398.3 76.2 Q 398.8 77.0, 398.8 78.3 Q 398.8 79.7, 398.3 80.4 Q 397.8 81.2, 396.7 81.2 M 396.7 80.6 Q 397.3 80.6, 397.7 80.0 Q 398.0 79.4, 398.0 78.3 Q 398.0 77.2, 397.7 76.6 Q 397.3 76.1, 396.7 76.1 Q 396.1 76.1, 395.8 76.6 Q 395.5 77.2, 395.5 78.3 Q 395.5 79.4, 395.8 80.0 Q 396.1 80.6, 396.7 80.6 " fill="#000000"/>
<path class="note" d="M 370.2 113.8 L 371.4 113.8 L 371.4 109.6 L 370.0 110.0 L 369.9 109.5 L 371.6 108.8 L 372.2 108.9 L 372.2 113.8 L 373.3 113.8 L 373.3 114.4 L 370.2 114.4 L 370.2 113.8 " fill="#000000"/>
<path class="note" d="M 366.7 157.1 Q 366.9 156.6, 367.4 156.3 Q 367.9 156.0, 368.6 156.0 Q 369.4 156.0, 369.9 156.5 Q 370.4 156.9, 370.4 157.8 Q 370.4 158.6, 369.7 159.4 Q 369.1 160.1, 367.9 161.1 L 370.5 161.1 L 370.5 161.7 L 366.7 161.7 L 366.7 161.2 Q 367.7 160.4, 368.3 159.9 Q 369.0 159.3, 369.3 158.8 Q 369.6 158.3, 369.6 157.8 Q 369.6 157.3, 369.3 157.0 Q 369.0 156.7, 368.6 156.7 Q 368.1 156.7, 367.8 156.8 Q 367.5 157.0, 367.3 157.4 L 366.7 157.1 " fill="#000000"/>
<path class="note" d="M 331.2 142.3 Q 331.8 142.4, 332.0 142.8 Q 332.3 143.1, 332.3 143.7 Q 332.3 144.2, 332.1 144.5 Q 331.8 144.9, 331.4 145.1 Q 331.0 145.3, 330.4 145.3 Q 329.8 145.3, 329.3 145.1 Q 328.9 144.9, 328.5 144.4 L 329.0 144.0 Q 329.3 144.4, 329.6 144.5 Q 329.9 144.7, 330.4 144.7 Q 330.9 144.7, 331.2 144.4 Q 331.5 144.1, 331.5 143.7 Q 331.5 143.1, 331.2 142.8 Q 330.9 142.6, 330.2 142.6 L 329.8 142.6 L 329.8 142.0 L 330.1 142.0 Q 330.7 142.0, 331.1 141.7 Q 331.4 141.5, 331.4 141.0 Q 331.4 140.6, 331.1 140.4 Q 330.9 140.2, 330.4 140.2 Q 329.9 140.2, 329.6 140.3 Q 329.3 140.5, 329.1 140.9 L 328.6 140.6 Q 328.8 140.2, 329.3 139.8 Q 329.7 139.5, 330.4 139.5 Q 331.2 139.5, 331.7 139.9 Q 332.2 140.3, 332.2 141.0 Q 332.2 141.4, 331.9 141.7 Q 331.7 142.1, 331.2 142.3 " fill="#000000"/>
<path class="note" d="M 320.4 113.5 L 321.1 113.5 L 321.1 114.1 L 320.4 114.1 L 320.4 115.4 L 319.7 115.4 L 319.7 114.1 L 316.8 114.1 L 316.8 113.6 L 319.2 109.8 L 320.4 109.8 L 320.4 113.5 M 317.7 113.5 L 319.7 113.5 L 319.7 110.3 L 317.7 113.5 " fill="#000000"/>
<path class="note" d="M 342.8 71.9 Q 343.3 71.9, 343.7 72.1 Q 344.1 72.3, 344.3 72.7 Q 344.5 73.1, 344.5 73.6 Q 344.5 74.2, 344.3 74.6 Q 344.0 75.1, 343.5 75.3 Q 343.1 75.5, 342.5 75.5 Q 342.0 75.5, 341.5 75.3 Q 341.1 75.1, 340.7 74.7 L 341.2 74.3 Q 341.5 74.5, 341.8 74.7 Q 342.2 74.8, 342.6 74.8 Q 343.1 74.8, 343.4 74.5 Q 343.8 74.2, 343.8 73.7 Q 343.8 73.1, 343.4 72.8 Q 343.1 72.5, 342.5 72.5 Q 342.0 72.5, 341.5 72.7 L 341.0 72.5 L 341.3 69.8 L 344.2 69.8 L 344.1 70.4 L 342.0 70.4 L 341.8 72.1 Q 342.3 71.9, 342.8 71.9 " fill="#000000"/>
<path class="note" d="M 408.3 124.1 Q 408.8 124.1, 409.1 124.4 Q 409.5 124.6, 409.7 125.0 Q 410.0 125.3, 410.0 125.8 Q 410.0 126.4, 409.7 126.8 Q 409.5 127.2, 409.0 127.5 Q 408.6 127.7, 408.1 127.7 Q 407.1 127.7, 406.6 127.0 Q 406.1 126.4, 406.1 125.0 Q 406.1 123.5, 406.7 122.7 Q 407.3 122.0, 408.5 122.0 Q 408.9 122.0, 409.2 122.0 Q 409.5 122.1, 409.7 122.3 L 409.4 122.8 Q 409.0 122.6, 408.5 122.6 Q 407.7 122.6, 407.3 123.1 Q 406.9 123.6, 406.9 124.7 Q 407.1 124.4, 407.5 124.3 Q 407.9 124.1, 408.3 124.1 M 408.1 127.1 Q 408.4 127.1, 408.6 126.9 Q 408.9 126.7, 409.0 126.5 Q 409.2 126.2, 409.2 125.8 Q 409.2 125.3, 408.9 125.1 Q 408.6 124.8, 408.1 124.8 Q 407.8 124.8, 407.4 124.9 Q 407.1 125.1, 406.9 125.3 Q 406.9 126.2, 407.2 126.6 Q 407.5 127.1, 408.1 127.1 " fill="#000000"/>
<path class="note" d="M 451.4 146.7 L 448.4 146.7 L 448.4 146.0 L 452.2 146.0 L 452.2 146.6 L 449.9 151.7 L 449.1 151.7 L 451.4 146.7 " fill="#000000"/>
<path class="note" d="M 394.6 164.8 Q 395.2 165.0, 395.5 165.3 Q 395.8 165.7, 395.8 166.2 Q 395.8 166.7, 395.5 167.1 Q 395.3 167.4, 394.8 167.6 Q 394.4 167.8, 393.8 167.8 Q 392.9 167.8, 392.3 167.4 Q 391.8 167.0, 391.8 166.2 Q 391.8 165.8, 392.0 165.4 Q 392.3 165.1, 392.8 164.8 Q 392.4 164.6, 392.2 164.3 Q 392.0 164.0, 392.0 163.5 Q 392.0 162.8, 392.5 162.5 Q 392.9 162.1, 393.8 162.1 Q 394.6 162.1, 395.1 162.5 Q 395.5 162.8, 395.5 163.5 Q 395.5 163.9, 395.3 164.2 Q 395.1 164.5, 394.6 164.8 M 393.8 162.7 Q 393.3 162.7, 393.0 162.9 Q 392.8 163.1, 392.8 163.5 Q 392.8 163.8, 393.0 164.0 Q 393.1 164.2, 393.4 164.3 Q 393.6 164.4, 394.1 164.6 Q 394.5 164.3, 394.6 164.1 Q 394.8 163.8, 394.8 163.5 Q 394.8 163.1, 394.5 162.9 Q 394.2 162.7, 393.8 162.7 M 393.8 167.2 Q 394.3 167.2, 394.6 167.0 Q 395.0 166.7, 395.0 166.2 Q 395.0 165.9, 394.8 165.7 Q 394.6 165.5, 394.4 165.4 Q 394.1 165.3, 393.7 165.2 L 393.3 165.0 Q 392.9 165.3, 392.8 165.6 Q 392.6 165.8, 392.6 166.2 Q 392.6 166.7, 392.9 167.0 Q 393.2 167.2, 393.8 167.2 " fill="#000000"/>
<path class="note" d="M 418.6 21.9 Q 419.6 21.9, 420.1 22.6 Q 420.6 23.3, 420.6 24.7 Q 420.6 26.1, 420.0 26.9 Q 419.3 27.7, 418.1 27.7 Q 417.8 27.7, 417.5 27.6 Q 417.2 27.5, 416.9 27.4 L 417.2 26.8 Q 417.6 27.1, 418.1 27.1 Q 418.9 27.1, 419.3 26.5 Q 419.7 26.0, 419.8 25.0 Q 419.5 25.2, 419.1 25.4 Q 418.8 25.5, 418.4 25.5 Q 417.9 25.5, 417.5 25.3 Q 417.1 25.1, 416.9 24.7 Q 416.7 24.3, 416.7 23.8 Q 416.7 23.3, 416.9 22.8 Q 417.2 22.4, 417.6 22.2 Q 418.0 21.9, 418.6 21.9 M 417.5 23.8 Q 417.5 24.3, 417.8 24.6 Q 418.0 24.9, 418.5 24.9 Q 418.9 24.9, 419.2 24.7 Q 419.6 24.6, 419.8 24.4 Q 419.8 23.4, 419.5 23.0 Q 419.2 22.6, 418.6 22.6 Q 418.3 22.6, 418.0 22.8 Q 417.8 22.9, 417.6 23.2 Q 417.5 23.5, 417.5 23.8 " fill="#000000"/>
<path class="note" d="M 343.8 50.2 L 345.1 50.2 L 345.1 46.0 L 343.7 46.5 L 343.5 46.0 L 345.3 45.2 L 345.8 45.3 L 345.8 50.2 L 346.9 50.2 L 346.9 50.9 L 343.8 50.9 L 343.8 50.2 " fill="#000000"/>
<path class="note" d="M 349.3 50.9 Q 348.3 50.9, 347.8 50.2 Q 347.3 49.4, 347.3 48.1 Q 347.3 46.7, 347.8 45.9 Q 348.3 45.2, 349.3 45.2 Q 350.4 45.2, 350.9 45.9 Q 351.4 46.7, 351.4 48.1 Q 351.4 49.4, 350.9 50.2 Q 350.4 50.9, 349.3 50.9 M 349.3 50.3 Q 349.9 50.3, 350.3 49.7 Q 350.6 49.2, 350.6 48.1 Q 350.6 47.0, 350.3 46.4 Q 349.9 45.8, 349.3 45.8 Q 348.7 45.8, 348.4 46.4 Q 348.1 47.0, 348.1 48.1 Q 348.1 49.2, 348.4 49.7 Q 348.7 50.3, 349.3 50.3 " fill="#000000"/>
<path class="note" d="M 425.9 86.7 L 427.2 86.7 L 427.2 82.5 L 425.8 82.9 L 425.6 82.4 L 427.3 81.7 L 427.9 81.8 L 427.9 86.7 L 429.0 86.7 L 429.0 87.3 L 425.9 87.3 L 425.9 86.7 " fill="#000000"/>
<path class="note" d="M 429.6 86.7 L 430.9 86.7 L 430.9 82.5 L 429.5 82.9 L 429.3 82.4 L 431.1 81.7 L 431.6 81.8 L 431.6 86.7 L 432.7 86.7 L 432.7 87.3 L 429.6 87.3 L 429.6 86.7 " fill="#000000"/>
<path class="note" d="M 331.7 202.4 L 333.0 202.4 L 333.0 198.2 L 331.6 198.6 L 331.4 198.2 L 333.2 197.4 L 333.7 197.5 L 333.7 202.4 L 334.8 202.4 L 334.8 203.1 L 331.7 203.1 L 331.7 202.4 " fill="#000000"/>
<path class="note" d="M 335.2 198.5 Q 335.4 198.0, 335.9 197.7 Q 336.4 197.4, 337.0 197.4 Q 337.9 197.4, 338.4 197.8 Q 338.8 198.3, 338.8 199.1 Q 338.8 199.9, 338.2 200.7 Q 337.6 201.5, 336.3 202.4 L 338.9 202.4 L 338.9 203.1 L 335.2 203.1 L 335.2 202.5 Q 336.2 201.8, 336.8 201.2 Q 337.4 200.7, 337.8 200.2 Q 338.1 199.7, 338.1 199.2 Q 338.1 198.6, 337.8 198.3 Q 337.5 198.0, 337.0 198.0 Q 336.6 198.0, 336.3 198.2 Q 336.0 198.4, 335.8 198.8 L 335.2 198.5 " fill="#000000"/>
<path class="note" d="M 272.3 163.9 L 273.5 163.9 L 273.5 159.7 L 272.1 160.1 L 271.9 159.7 L 273.7 158.9 L 274.2 159.0 L 274.2 163.9 L 275.3 163.9 L 275.3 164.6 L 272.3 164.6 L 272.3 163.9 " fill="#000000"/>
<path class="note" d="M 278.4 161.6 Q 278.9 161.8, 279.2 162.1 Q 279.4 162.5, 279.4 163.0 Q 279.4 163.5, 279.2 163.9 Q 279.0 164.2, 278.5 164.4 Q 278.1 164.6, 277.5 164.6 Q 276.9 164.6, 276.5 164.4 Q 276.0 164.2, 275.7 163.8 L 276.1 163.3 Q 276.5 163.7, 276.8 163.9 Q 277.1 164.0, 277.5 164.0 Q 278.0 164.0, 278.3 163.7 Q 278.7 163.5, 278.7 163.0 Q 278.7 162.4, 278.3 162.2 Q 278.0 161.9, 277.3 161.9 L 276.9 161.9 L 276.9 161.3 L 277.3 161.3 Q 277.9 161.3, 278.2 161.1 Q 278.5 160.8, 278.5 160.3 Q 278.5 159.9, 278.3 159.7 Q 278.0 159.5, 277.5 159.5 Q 277.1 159.5, 276.8 159.7 Q 276.5 159.8, 276.3 160.3 L 275.7 160.0 Q 275.9 159.5, 276.4 159.2 Q 276.9 158.9, 277.5 158.9 Q 278.4 158.9, 278.8 159.3 Q 279.3 159.6, 279.3 160.3 Q 279.3 160.8, 279.1 161.1 Q 278.8 161.4, 278.4 161.6 " fill="#000000"/>
<path class="note" d="M 261.7 137.2 L 262.9 137.2 L 262.9 133.0 L 261.5 133.4 L 261.4 132.9 L 263.1 132.2 L 263.7 132.3 L 263.7 137.2 L 264.8 137.2 L 264.8 137.8 L 261.7 137.8 L 261.7 137.2 " fill="#000000"/>
<path class="note" d="M 268.7 135.9 L 269.4 135.9 L 269.4 136.5 L 268.7 136.5 L 268.7 137.8 L 268.0 137.8 L 268.0 136.5 L 265.1 136.5 L 265.1 136.0 L 267.6 132.2 L 268.7 132.2 L 268.7 135.9 M 266.0 135.9 L 268.0 135.9 L 268.0 132.7 L 266.0 135.9 " fill="#000000"/>
<path class="note" d="M 280.2 68.7 L 281.4 68.7 L 281.4 64.5 L 280.0 64.9 L 279.9 64.5 L 281.6 63.7 L 282.1 63.8 L 282.1 68.7 L 283.3 68.7 L 283.3 69.3 L 280.2 69.3 L 280.2 68.7 " fill="#000000"/>
<path class="note" d="M 285.6 65.8 Q 286.1 65.8, 286.5 66.0 Q 286.9 66.2, 287.2 66.6 Q 287.4 67.0, 287.4 67.6 Q 287.4 68.1, 287.1 68.6 Q 286.8 69.0, 286.4 69.2 Q 285.9 69.4, 285.4 69.4 Q 284.9 69.4, 284.4 69.2 Q 283.9 69.0, 283.6 68.7 L 284.1 68.2 Q 284.3 68.4, 284.7 68.6 Q 285.0 68.8, 285.4 68.8 Q 285.9 68.8, 286.2 68.4 Q 286.6 68.1, 286.6 67.6 Q 286.6 67.0, 286.2 66.7 Q 285.9 66.4, 285.4 66.4 Q 284.9 66.4, 284.3 66.6 L 283.9 66.4 L 284.2 63.7 L 287.0 63.7 L 287.0 64.3 L 284.8 64.3 L 284.6 66.0 Q 285.1 65.8, 285.6 65.8 " fill="#000000"/>
<path class="note" d="M 437.0 100.3 L 438.2 100.3 L 438.2 96.1 L 436.8 96.5 L 436.7 96.1 L 438.4 95.3 L 438.9 95.4 L 438.9 100.3 L 440.1 100.3 L 440.1 101.0 L 437.0 101.0 L 437.0 100.3 " fill="#000000"/>
<path class="note" d="M 442.6 97.4 Q 443.1 97.4, 443.5 97.7 Q 443.9 97.9, 444.1 98.3 Q 444.3 98.7, 444.3 99.1 Q 444.3 99.7, 444.0 100.1 Q 443.8 100.5, 443.4 100.8 Q 442.9 101.0, 442.4 101.0 Q 441.4 101.0, 440.9 100.3 Q 440.4 99.7, 440.4 98.3 Q 440.4 96.8, 441.0 96.0 Q 441.6 95.3, 442.8 95.3 Q 443.2 95.3, 443.5 95.3 Q 443.8 95.4, 444.1 95.6 L 443.8 96.1 Q 443.3 95.9, 442.8 95.9 Q 442.0 95.9, 441.6 96.4 Q 441.2 96.9, 441.2 98.0 Q 441.5 97.7, 441.8 97.6 Q 442.2 97.4, 442.6 97.4 M 442.4 100.4 Q 442.7 100.4, 442.9 100.2 Q 443.2 100.0, 443.3 99.8 Q 443.5 99.5, 443.5 99.2 Q 443.5 98.7, 443.2 98.4 Q 442.9 98.1, 442.4 98.1 Q 442.1 98.1, 441.8 98.2 Q 441.4 98.4, 441.2 98.6 Q 441.2 99.5, 441.5 99.9 Q 441.8 100.4, 442.4 100.4 " fill="#000000"/>
<path class="note" d="M 481.5 116.4 L 482.7 116.4 L 482.7 112.2 L 481.4 112.6 L 481.2 112.2 L 482.9 111.4 L 483.5 111.5 L 483.5 116.4 L 484.6 116.4 L 484.6 117.0 L 481.5 117.0 L 481.5 116.4 " fill="#000000"/>
<path class="note" d="M 487.9 112.1 L 484.9 112.1 L 484.9 111.4 L 488.6 111.4 L 488.6 112.0 L 486.4 117.0 L 485.6 117.0 L 487.9 112.1 " fill="#000000"/>
<path class="note" d="M 466.0 196.1 L 467.2 196.1 L 467.2 191.9 L 465.9 192.3 L 465.7 191.8 L 467.4 191.1 L 468.0 191.2 L 468.0 196.1 L 469.1 196.1 L 469.1 196.7 L 466.0 196.7 L 466.0 196.1 " fill="#000000"/>
<path class="note" d="M 472.3 193.7 Q 472.8 194.0, 473.1 194.3 Q 473.4 194.6, 473.4 195.2 Q 473.4 195.7, 473.2 196.0 Q 472.9 196.4, 472.5 196.6 Q 472.0 196.8, 471.4 196.8 Q 470.5 196.8, 470.0 196.4 Q 469.4 195.9, 469.4 195.2 Q 469.4 194.7, 469.7 194.4 Q 469.9 194.0, 470.4 193.8 Q 470.0 193.6, 469.8 193.3 Q 469.6 192.9, 469.6 192.5 Q 469.6 191.8, 470.1 191.4 Q 470.6 191.0, 471.4 191.0 Q 472.2 191.0, 472.7 191.4 Q 473.2 191.8, 473.2 192.5 Q 473.2 192.9, 473.0 193.2 Q 472.7 193.5, 472.3 193.7 M 471.4 191.6 Q 470.9 191.6, 470.7 191.8 Q 470.4 192.1, 470.4 192.5 Q 470.4 192.8, 470.6 193.0 Q 470.8 193.1, 471.0 193.3 Q 471.3 193.4, 471.8 193.5 Q 472.1 193.3, 472.2 193.0 Q 472.4 192.8, 472.4 192.5 Q 472.4 192.1, 472.1 191.8 Q 471.9 191.6, 471.4 191.6 M 471.4 196.2 Q 472.0 196.2, 472.3 195.9 Q 472.6 195.6, 472.6 195.2 Q 472.6 194.9, 472.4 194.7 Q 472.3 194.5, 472.0 194.4 Q 471.8 194.3, 471.3 194.1 L 471.0 194.0 Q 470.6 194.2, 470.4 194.5 Q 470.2 194.8, 470.2 195.2 Q 470.2 195.6, 470.6 195.9 Q 470.9 196.2, 471.4 196.2 " fill="#000000"/>
<path class="legend" d="M 317.8 232.7 Q 318.8 232.7, 319.6 233.1 Q 320.4 233.5, 320.8 234.3 Q 321.3 235.1, 321.3 236.1 Q 321.3 237.2, 320.8 238.1 Q 320.3 238.9, 319.4 239.4 Q 318.6 239.9, 317.5 239.9 Q 315.4 239.9, 314.4 238.5 Q 313.4 237.1, 313.4 234.4 Q 313.4 231.4, 314.7 229.8 Q 315.9 228.3, 318.3 228.3 Q 319.0 228.3, 319.6 228.4 Q 320.2 228.6, 320.8 228.9 L 320.2 230.0 Q 319.4 229.6, 318.4 229.6 Q 316.8 229.6, 315.9 230.6 Q 315.1 231.6, 315.0 233.8 Q 315.6 233.2, 316.3 233.0 Q 317.1 232.7, 317.8 232.7 M 317.5 238.6 Q 318.1 238.6, 318.6 238.2 Q 319.1 237.9, 319.4 237.4 Q 319.7 236.8, 319.7 236.1 Q 319.7 235.1, 319.1 234.5 Q 318.5 233.9, 317.6 233.9 Q 316.9 233.9, 316.2 234.2 Q 315.5 234.5, 315.0 235.0 Q 315.1 236.9, 315.7 237.7 Q 316.3 238.6, 317.5 238.6 " fill="#000000"/>
<path class="legend" d="M 326.6 232.7 Q 327.6 232.7, 328.4 233.1 Q 329.1 233.5, 329.6 234.3 Q 330.0 235.1, 330.0 236.1 Q 330.0 237.2, 329.5 238.1 Q 329.0 238.9, 328.2 239.4 Q 327.3 239.9, 326.2 239.9 Q 324.2 239.9, 323.2 238.5 Q 322.1 237.1, 322.1 234.4 Q 322.1 231.4, 323.4 229.8 Q 324.7 228.3, 327.1 228.3 Q 327.8 228.3, 328.4 228.4 Q 329.0 228.6, 329.6 228.9 L 328.9 230.0 Q 328.1 229.6, 327.1 229.6 Q 325.5 229.6, 324.7 230.6 Q 323.9 231.6, 323.8 233.8 Q 324.3 233.2, 325.1 233.0 Q 325.8 232.7, 326.6 232.7 M 326.2 238.6 Q 326.8 238.6, 327.3 238.2 Q 327.8 237.9, 328.1 237.4 Q 328.4 236.8, 328.4 236.1 Q 328.4 235.1, 327.8 234.5 Q 327.3 233.9, 326.3 233.9 Q 325.6 233.9, 324.9 234.2 Q 324.2 234.5, 323.8 235.0 Q 323.8 236.9, 324.4 237.7 Q 325.0 238.6, 326.2 238.6 " fill="#000000"/>
<path class="legend" d="M 330.9 230.6 Q 331.3 229.5, 332.3 228.9 Q 333.3 228.3, 334.7 228.3 Q 336.4 228.3, 337.4 229.2 Q 338.3 230.1, 338.3 231.8 Q 338.3 233.5, 337.1 235.0 Q 335.8 236.6, 333.3 238.5 L 338.5 238.5 L 338.5 239.7 L 330.9 239.7 L 330.9 238.7 Q 333.0 237.2, 334.2 236.0 Q 335.5 234.9, 336.1 233.9 Q 336.7 232.9, 336.7 231.9 Q 336.7 230.8, 336.2 230.2 Q 335.6 229.6, 334.7 229.6 Q 333.8 229.6, 333.2 229.9 Q 332.6 230.3, 332.1 231.1 L 330.9 230.6 " fill="#000000"/>
<path class="legend" d="M 346.8 235.8 L 348.2 235.8 L 348.2 237.1 L 346.8 237.1 L 346.8 239.7 L 345.3 239.7 L 345.3 237.1 L 339.5 237.1 L 339.5 236.1 L 344.4 228.4 L 346.8 228.4 L 346.8 235.8 M 341.3 235.8 L 345.3 235.8 L 345.3 229.4 L 341.3 235.8 " fill="#000000"/>
<path class="legend" d="M 354.8 233.7 Q 355.8 234.2, 356.4 234.9 Q 357.0 235.5, 357.0 236.6 Q 357.0 237.6, 356.5 238.3 Q 356.0 239.1, 355.1 239.5 Q 354.2 239.9, 353.0 239.9 Q 351.2 239.9, 350.1 239.0 Q 349.0 238.2, 349.0 236.6 Q 349.0 235.7, 349.5 235.0 Q 349.9 234.3, 350.9 233.8 Q 350.2 233.4, 349.8 232.8 Q 349.4 232.1, 349.4 231.2 Q 349.4 229.8, 350.4 229.1 Q 351.3 228.3, 353.0 228.3 Q 354.6 228.3, 355.6 229.1 Q 356.6 229.8, 356.6 231.2 Q 356.6 232.0, 356.1 232.6 Q 355.7 233.2, 354.8 233.7 M 353.0 229.5 Q 352.0 229.5, 351.5 229.9 Q 351.0 230.4, 351.0 231.2 Q 351.0 231.8, 351.3 232.2 Q 351.7 232.6, 352.2 232.8 Q 352.7 233.0, 353.7 233.3 Q 354.4 232.9, 354.7 232.3 Q 355.0 231.8, 355.0 231.2 Q 355.0 230.4, 354.4 229.9 Q 353.9 229.5, 353.0 229.5 M 353.0 238.7 Q 354.1 238.7, 354.7 238.1 Q 355.4 237.6, 355.4 236.6 Q 355.4 236.0, 355.0 235.6 Q 354.7 235.2, 354.2 235.0 Q 353.7 234.8, 352.8 234.5 L 352.1 234.3 Q 351.3 234.7, 350.9 235.3 Q 350.6 235.9, 350.6 236.6 Q 350.6 237.6, 351.3 238.1 Q 351.9 238.7, 353.0 238.7 " fill="#000000"/>
<path class="legend" d="M 366.1 240.5 L 366.1 241.8 L 358.0 241.8 L 358.0 240.5 L 366.1 240.5 " fill="#000000"/>
<path class="legend" d="M 366.2 230.6 Q 366.6 229.5, 367.6 228.9 Q 368.6 228.3, 370.0 228.3 Q 371.7 228.3, 372.6 229.2 Q 373.6 230.1, 373.6 231.8 Q 373.6 233.5, 372.3 235.0 Q 371.1 236.6, 368.5 238.5 L 373.8 238.5 L 373.8 239.7 L 366.1 239.7 L 366.1 238.7 Q 368.3 237.2, 369.5 236.0 Q 370.8 234.9, 371.4 233.9 Q 372.0 232.9, 372.0 231.9 Q 372.0 230.8, 371.4 230.2 Q 370.9 229.6, 370.0 229.6 Q 369.0 229.6, 368.4 229.9 Q 367.8 230.3, 367.4 231.1 L 366.2 230.6 " fill="#000000"/>
<path class="legend" d="" fill="#000000"/>
<path class="legend" d="M 380.1 235.2 Q 380.1 232.9, 380.7 231.0 Q 381.4 229.1, 382.7 227.1 L 383.6 227.6 Q 382.6 229.5, 382.0 231.3 Q 381.5 233.0, 381.5 235.2 Q 381.5 237.3, 382.0 239.0 Q 382.6 240.7, 383.6 242.7 L 382.7 243.3 Q 381.4 241.3, 380.7 239.4 Q 380.1 237.5, 380.1 235.2 " fill="#000000"/>
<path class="legend" d="M 384.0 234.0 Q 384.0 231.3, 385.3 229.8 Q 386.7 228.3, 389.2 228.3 Q 391.7 228.3, 393.1 229.8 Q 394.4 231.3, 394.4 234.0 Q 394.4 236.8, 393.0 238.4 Q 391.7 239.9, 389.2 239.9 Q 386.7 239.9, 385.3 238.4 Q 384.0 236.8, 384.0 234.0 M 389.2 238.6 Q 390.9 238.6, 391.9 237.5 Q 392.8 236.3, 392.8 234.0 Q 392.8 231.8, 391.9 230.7 Q 390.9 229.6, 389.2 229.6 Q 387.5 229.6, 386.5 230.7 Q 385.6 231.8, 385.6 234.0 Q 385.6 236.3, 386.5 237.5 Q 387.5 238.6, 389.2 238.6 " fill="#000000"/>
<path class="legend" d="M 396.4 231.5 L 396.6 232.6 Q 397.5 231.4, 398.9 231.4 Q 399.3 231.4, 399.9 231.5 L 399.7 232.9 Q 399.0 232.7, 398.6 232.7 Q 397.9 232.7, 397.5 233.0 Q 397.1 233.2, 396.7 233.9 L 396.7 239.7 L 395.2 239.7 L 395.2 231.5 L 396.4 231.5 " fill="#000000"/>
<path class="legend" d="M 400.2 237.5 Q 400.2 236.2, 401.2 235.5 Q 402.3 234.8, 404.2 234.8 L 405.4 234.8 L 405.4 234.4 Q 405.4 233.4, 405.0 233.0 Q 404.6 232.6, 403.5 232.6 Q 402.9 232.6, 402.4 232.7 Q 401.9 232.8, 401.1 233.1 L 400.6 232.1 Q 402.1 231.4, 403.6 231.4 Q 405.3 231.4, 406.1 232.1 Q 406.9 232.9, 406.9 234.5 L 406.9 239.7 L 405.8 239.7 Q 405.7 239.7, 405.7 239.4 Q 405.6 239.2, 405.5 238.8 Q 404.4 239.9, 402.9 239.9 Q 401.6 239.9, 400.9 239.3 Q 400.2 238.6, 400.2 237.5 M 401.7 237.5 Q 401.7 238.1, 402.0 238.4 Q 402.4 238.7, 403.1 238.7 Q 403.8 238.7, 404.4 238.5 Q 405.0 238.2, 405.4 237.6 L 405.4 235.9 L 404.3 235.9 Q 403.0 235.9, 402.3 236.3 Q 401.7 236.7, 401.7 237.5 " fill="#000000"/>
<path class="legend" d="M 412.4 231.4 Q 413.8 231.4, 414.4 232.1 Q 415.1 232.9, 415.1 234.3 L 415.1 239.7 L 413.6 239.7 L 413.6 234.4 Q 413.6 233.4, 413.3 233.0 Q 412.9 232.6, 412.1 232.6 Q 411.3 232.6, 410.7 232.9 Q 410.1 233.2, 409.7 233.8 L 409.7 239.7 L 408.2 239.7 L 408.2 231.5 L 409.4 231.5 L 409.6 232.7 Q 410.7 231.4, 412.4 231.4 " fill="#000000"/>
<path class="legend" d="M 423.9 231.5 L 423.9 240.2 Q 423.9 243.8, 420.1 243.8 Q 418.3 243.8, 416.7 242.9 L 417.2 241.8 Q 418.1 242.2, 418.7 242.4 Q 419.3 242.6, 420.1 242.6 Q 421.3 242.6, 421.8 242.0 Q 422.3 241.5, 422.3 240.2 L 422.3 238.8 Q 421.5 239.9, 420.0 239.9 Q 418.3 239.9, 417.3 238.8 Q 416.4 237.7, 416.4 235.8 Q 416.4 233.7, 417.5 232.5 Q 418.6 231.4, 420.6 231.4 Q 421.6 231.4, 422.6 231.7 L 422.7 231.5 L 423.9 231.5 M 420.1 238.7 Q 420.9 238.7, 421.5 238.2 Q 422.1 237.8, 422.3 237.0 L 422.3 232.8 Q 421.5 232.6, 420.6 232.6 Q 419.4 232.6, 418.6 233.4 Q 417.9 234.2, 417.9 235.8 Q 417.9 237.2, 418.5 237.9 Q 419.1 238.7, 420.1 238.7 " fill="#000000"/>
<path class="legend" d="M 425.2 235.6 Q 425.2 233.6, 426.2 232.5 Q 427.2 231.4, 429.0 231.4 Q 430.8 231.4, 431.6 232.5 Q 432.5 233.5, 432.5 235.6 L 432.5 235.8 L 426.7 235.8 Q 426.7 237.2, 427.4 237.9 Q 428.0 238.7, 429.2 238.7 Q 429.8 238.7, 430.4 238.5 Q 431.0 238.4, 431.7 238.1 L 432.1 239.1 Q 431.3 239.5, 430.6 239.7 Q 429.9 239.9, 429.1 239.9 Q 427.2 239.9, 426.2 238.7 Q 425.2 237.6, 425.2 235.6 M 429.0 232.6 Q 428.1 232.6, 427.5 233.1 Q 427.0 233.6, 426.8 234.7 L 430.9 234.7 Q 430.8 233.6, 430.3 233.1 Q 429.9 232.6, 429.0 232.6 " fill="#000000"/>
<path class="legend" d="M 436.6 235.2 Q 436.6 237.5, 435.9 239.4 Q 435.3 241.3, 434.0 243.3 L 433.1 242.7 Q 434.1 240.7, 434.6 239.0 Q 435.1 237.3, 435.1 235.2 Q 435.1 233.0, 434.6 231.3 Q 434.1 229.5, 433.1 227.6 L 434.0 227.1 Q 435.3 229.1, 435.9 231.0 Q 436.6 232.9, 436.6 235.2 " fill="#000000"/>
<path class="bond-8 atom-1 atom-5" d="M 626.7,107.4 L 593.4,85.8" style="fill:none;fill-rule:evenodd;stroke:#FF7F7F;stroke-width:8.5px;stroke-linecap:butt;stroke-linejoin:miter;stroke-opacity:1"/>
<path class="bond-4 atom-4 atom-5" d="M 562.5,110.9 L 593.4,85.8" style="fill:none;fill-rule:evenodd;stroke:#FF7F7F;stroke-width:8.5px;stroke-linecap:butt;stroke-linejoin:miter;stroke-opacity:1"/>
<ellipse cx="626.7" cy="107.4" rx="7.9" ry="7.9" class="atom-1" style="fill:#FF7F7F;fill-rule:evenodd;stroke:#FF7F7F;stroke-width:1.0px;stroke-linecap:butt;stroke-linejoin:miter;stroke-opacity:1"/>
<ellipse cx="562.5" cy="110.9" rx="7.9" ry="7.9" class="atom-4" style="fill:#FF7F7F;fill-rule:evenodd;stroke:#FF7F7F;stroke-width:1.0px;stroke-linecap:butt;stroke-linejoin:miter;stroke-opacity:1"/>
<ellipse cx="593.4" cy="85.9" rx="7.9" ry="8.2" class="atom-5" style="fill:#FF7F7F;fill-rule:evenodd;stroke:#FF7F7F;stroke-width:1.0px;stroke-linecap:butt;stroke-linejoin:miter;stroke-opacity:1"/>
<path class="bond-0 atom-0 atom-1" d="M 644.7,72.0 L 626.7,107.4" style="fill:none;fill-rule:evenodd;stroke:#000000;stroke-width:2.0px;stroke-linecap:butt;stroke-linejoin:miter;stroke-opacity:1"/>
<path class="bond-1 atom-1 atom-2" d="M 626.7,107.4 L 622.5,123.1" style="fill:none;fill-rule:evenodd;stroke:#000000;stroke-width:2.0px;stroke-linecap:butt;stroke-linejoin:miter;stroke-opacity:1"/>
<path class="bond-1 atom-1 atom-2" d="M 622.5,123.1 L 618.3,138.8" style="fill:none;fill-rule:evenodd;stroke:#FF0000;stroke-width:2.0px;stroke-linecap:butt;stroke-linejoin:miter;stroke-opacity:1"/>
<path class="bond-2 atom-2 atom-3" d="M 610.1,146.1 L 593.4,147.0" style="fill:none;fill-rule:evenodd;stroke:#FF0000;stroke-width:2.0px;stroke-linecap:butt;stroke-linejoin:miter;stroke-opacity:1"/>
<path class="bond-2 atom-2 atom-3" d="M 593.4,147.0 L 576.8,147.9" style="fill:none;fill-rule:evenodd;stroke:#000000;stroke-width:2.0px;stroke-linecap:butt;stroke-linejoin:miter;stroke-opacity:1"/>
<path class="bond-3 atom-3 atom-4" d="M 576.8,147.9 L 562.5,110.9" style="fill:none;fill-rule:evenodd;stroke:#000000;stroke-width:2.0px;stroke-linecap:butt;stroke-linejoin:miter;stroke-opacity:1"/>
<path class="bond-4 atom-4 atom-5" d="M 562.5,110.9 L 574.7,101.0" style="fill:none;fill-rule:evenodd;stroke:#000000;stroke-width:2.0px;stroke-linecap:butt;stroke-linejoin:miter;stroke-opacity:1"/>
<path class="bond-4 atom-4 atom-5" d="M 574.7,101.0 L 586.9,91.0" style="fill:none;fill-rule:evenodd;stroke:#FF0000;stroke-width:2.0px;stroke-linecap:butt;stroke-linejoin:miter;stroke-opacity:1"/>
<path class="bond-5 atom-1 atom-6" d="M 626.7,107.4 L 663.8,121.6" style="fill:none;fill-rule:evenodd;stroke:#000000;stroke-width:2.0px;stroke-linecap:butt;stroke-linejoin:miter;stroke-opacity:1"/>
<path class="bond-6 atom-6 atom-7" d="M 663.8,121.6 L 693.8,147.6" style="fill:none;fill-rule:evenodd;stroke:#000000;stroke-width:2.0px;stroke-linecap:butt;stroke-linejoin:miter;stroke-opacity:1"/>
<path class="bond-7 atom-7 atom-8" d="M 693.8,147.6 L 678.3,153.0" style="fill:none;fill-rule:evenodd;stroke:#000000;stroke-width:2.0px;stroke-linecap:butt;stroke-linejoin:miter;stroke-opacity:1"/>
<path class="bond-7 atom-7 atom-8" d="M 678.3,153.0 L 662.7,158.4" style="fill:none;fill-rule:evenodd;stroke:#FF0000;stroke-width:2.0px;stroke-linecap:butt;stroke-linejoin:miter;stroke-opacity:1"/>
<path class="bond-8 atom-5 atom-1" d="M 599.8,90.0 L 613.2,98.7" style="fill:none;fill-rule:evenodd;stroke:#FF0000;stroke-width:2.0px;stroke-linecap:butt;stroke-linejoin:miter;stroke-opacity:1"/>
<path class="bond-8 atom-5 atom-1" d="M 613.2,98.7 L 626.7,107.4" style="fill:none;fill-rule:evenodd;stroke:#000000;stroke-width:2.0px;stroke-linecap:butt;stroke-linejoin:miter;stroke-opacity:1"/>
<path class="bond-9 atom-8 atom-6" d="M 657.6,153.6 L 660.7,137.6" style="fill:none;fill-rule:evenodd;stroke:#FF0000;stroke-width:2.0px;stroke-linecap:butt;stroke-linejoin:miter;stroke-opacity:1"/>
<path class="bond-9 atom-8 atom-6" d="M 660.7,137.6 L 663.8,121.6" style="fill:none;fill-rule:evenodd;stroke:#000000;stroke-width:2.0px;stroke-linecap:butt;stroke-linejoin:miter;stroke-opacity:1"/>
<path class="bond-10 atom-0 atom-9" d="M 644.7,72.0 L 659.2,43.5" style="fill:none;fill-rule:evenodd;stroke:#000000;stroke-width:2.0px;stroke-linecap:butt;stroke-linejoin:miter;stroke-opacity:1"/>
<path class="bond-11 atom-0 atom-10" d="M 644.7,72.0 L 614.9,56.9" style="fill:none;fill-rule:evenodd;stroke:#000000;stroke-width:2.0px;stroke-linecap:butt;stroke-linejoin:miter;stroke-opacity:1"/>
<path class="bond-12 atom-0 atom-11" d="M 644.7,72.0 L 661.1,77.9" style="fill:none;fill-rule:evenodd;stroke:#000000;stroke-width:2.0px;stroke-linecap:butt;stroke-linejoin:miter;stroke-opacity:1"/>
<path class="bond-13 atom-3 atom-12" d="M 576.8,147.9 L 582.0,180.3" style="fill:none;fill-rule:evenodd;stroke:#000000;stroke-width:2.0px;stroke-linecap:butt;stroke-linejoin:miter;stroke-opacity:1"/>
<path class="bond-14 atom-3 atom-13" d="M 576.8,147.9 L 544.1,156.7" style="fill:none;fill-rule:evenodd;stroke:#000000;stroke-width:2.0px;stroke-linecap:butt;stroke-linejoin:miter;stroke-opacity:1"/>
<path class="bond-15 atom-4 atom-14" d="M 562.5,110.9 L 532.8,126.1" style="fill:none;fill-rule:evenodd;stroke:#000000;stroke-width:2.0px;stroke-linecap:butt;stroke-linejoin:miter;stroke-opacity:1"/>
<path class="bond-16 atom-4 atom-15" d="M 562.5,110.9 L 545.3,84.5" style="fill:none;fill-rule:evenodd;stroke:#000000;stroke-width:2.0px;stroke-linecap:butt;stroke-linejoin:miter;stroke-opacity:1"/>
<path class="bond-17 atom-6 atom-16" d="M 663.8,121.6 L 672.8,110.0" style="fill:none;fill-rule:evenodd;stroke:#000000;stroke-width:2.0px;stroke-linecap:butt;stroke-linejoin:miter;stroke-opacity:1"/>
<path class="bond-18 atom-7 atom-17" d="M 693.8,147.6 L 719.0,127.2" style="fill:none;fill-rule:evenodd;stroke:#000000;stroke-width:2.0px;stroke-linecap:butt;stroke-linejoin:miter;stroke-opacity:1"/>
<path class="bond-19 atom-7 atom-18" d="M 693.8,147.6 L 709.3,175.4" style="fill:none;fill-rule:evenodd;stroke:#000000;stroke-width:2.0px;stroke-linecap:butt;stroke-linejoin:miter;stroke-opacity:1"/>
<path class="atom-2" d="M 611.3 145.8 Q 611.3 143.1, 612.6 141.6 Q 614.0 140.1, 616.5 140.1 Q 619.0 140.1, 620.3 141.6 Q 621.6 143.1, 621.6 145.8 Q 621.6 148.6, 620.3 150.1 Q 618.9 151.7, 616.5 151.7 Q 614.0 151.7, 612.6 150.1 Q 611.3 148.6, 611.3 145.8 M 616.5 150.4 Q 618.2 150.4, 619.1 149.2 Q 620.1 148.1, 620.1 145.8 Q 620.1 143.6, 619.1 142.5 Q 618.2 141.4, 616.5 141.4 Q 614.8 141.4, 613.8 142.5 Q 612.9 143.6, 612.9 145.8 Q 612.9 148.1, 613.8 149.2 Q 614.8 150.4, 616.5 150.4 " fill="#FF0000"/>
<path class="atom-5" d="M 588.2 85.9 Q 588.2 83.2, 589.5 81.7 Q 590.9 80.1, 593.4 80.1 Q 595.9 80.1, 597.2 81.7 Q 598.5 83.2, 598.5 85.9 Q 598.5 88.6, 597.2 90.2 Q 595.8 91.7, 593.4 91.7 Q 590.9 91.7, 589.5 90.2 Q 588.2 88.6, 588.2 85.9 M 593.4 90.4 Q 595.1 90.4, 596.0 89.3 Q 596.9 88.1, 596.9 85.9 Q 596.9 83.7, 596.0 82.5 Q 595.1 81.4, 593.4 81.4 Q 591.6 81.4, 590.7 82.5 Q 589.8 83.6, 589.8 85.9 Q 589.8 88.1, 590.7 89.3 Q 591.6 90.4, 593.4 90.4 " fill="#FF0000"/>
<path class="atom-8" d="M 651.1 160.6 Q 651.1 157.9, 652.4 156.4 Q 653.8 154.9, 656.3 154.9 Q 658.8 154.9, 660.1 156.4 Q 661.4 157.9, 661.4 160.6 Q 661.4 163.3, 660.1 164.9 Q 658.7 166.4, 656.3 166.4 Q 653.8 166.4, 652.4 164.9 Q 651.1 163.4, 651.1 160.6 M 656.3 165.2 Q 658.0 165.2, 658.9 164.0 Q 659.9 162.9, 659.9 160.6 Q 659.9 158.4, 658.9 157.3 Q 658.0 156.2, 656.3 156.2 Q 654.6 156.2, 653.6 157.3 Q 652.7 158.4, 652.7 160.6 Q 652.7 162.9, 653.6 164.0 Q 654.6 165.2, 656.3 165.2 " fill="#FF0000"/>
<path class="atom-9" d="M 658.2 31.0 L 659.8 31.0 L 659.8 35.7 L 665.5 35.7 L 665.5 31.0 L 667.0 31.0 L 667.0 42.2 L 665.5 42.2 L 665.5 37.0 L 659.8 37.0 L 659.8 42.2 L 658.2 42.2 L 658.2 31.0 " fill="#000000"/>
<path class="atom-10" d="M 604.9 48.4 L 606.4 48.4 L 606.4 53.2 L 612.1 53.2 L 612.1 48.4 L 613.7 48.4 L 613.7 59.6 L 612.1 59.6 L 612.1 54.5 L 606.4 54.5 L 606.4 59.6 L 604.9 59.6 L 604.9 48.4 " fill="#000000"/>
<path class="atom-11" d="M 662.3 74.4 L 663.8 74.4 L 663.8 79.1 L 669.6 79.1 L 669.6 74.4 L 671.1 74.4 L 671.1 85.6 L 669.6 85.6 L 669.6 80.4 L 663.8 80.4 L 663.8 85.6 L 662.3 85.6 L 662.3 74.4 " fill="#000000"/>
<path class="atom-12" d="M 578.7 181.5 L 580.2 181.5 L 580.2 186.3 L 586.0 186.3 L 586.0 181.5 L 587.5 181.5 L 587.5 192.8 L 586.0 192.8 L 586.0 187.6 L 580.2 187.6 L 580.2 192.8 L 578.7 192.8 L 578.7 181.5 " fill="#000000"/>
<path class="atom-13" d="M 534.1 152.6 L 535.6 152.6 L 535.6 157.4 L 541.4 157.4 L 541.4 152.6 L 542.9 152.6 L 542.9 163.9 L 541.4 163.9 L 541.4 158.7 L 535.6 158.7 L 535.6 163.9 L 534.1 163.9 L 534.1 152.6 " fill="#000000"/>
<path class="atom-14" d="M 522.8 123.3 L 524.3 123.3 L 524.3 128.1 L 530.1 128.1 L 530.1 123.3 L 531.6 123.3 L 531.6 134.6 L 530.1 134.6 L 530.1 129.4 L 524.3 129.4 L 524.3 134.6 L 522.8 134.6 L 522.8 123.3 " fill="#000000"/>
<path class="atom-15" d="M 536.5 72.0 L 538.0 72.0 L 538.0 76.8 L 543.7 76.8 L 543.7 72.0 L 545.3 72.0 L 545.3 83.2 L 543.7 83.2 L 543.7 78.0 L 538.0 78.0 L 538.0 83.2 L 536.5 83.2 L 536.5 72.0 " fill="#000000"/>
<path class="atom-16" d="M 673.8 97.5 L 675.3 97.5 L 675.3 102.2 L 681.1 102.2 L 681.1 97.5 L 682.6 97.5 L 682.6 108.7 L 681.1 108.7 L 681.1 103.5 L 675.3 103.5 L 675.3 108.7 L 673.8 108.7 L 673.8 97.5 " fill="#000000"/>
<path class="atom-17" d="M 720.2 116.9 L 721.8 116.9 L 721.8 121.7 L 727.5 121.7 L 727.5 116.9 L 729.0 116.9 L 729.0 128.2 L 727.5 128.2 L 727.5 123.0 L 721.8 123.0 L 721.8 128.2 L 720.2 128.2 L 720.2 116.9 " fill="#000000"/>
<path class="atom-18" d="M 708.7 176.7 L 710.2 176.7 L 710.2 181.5 L 716.0 181.5 L 716.0 176.7 L 717.5 176.7 L 717.5 187.9 L 716.0 187.9 L 716.0 182.7 L 710.2 182.7 L 710.2 187.9 L 708.7 187.9 L 708.7 176.7 " fill="#000000"/>
<path class="note" d="M 646.7 81.2 Q 645.7 81.2, 645.2 80.4 Q 644.7 79.7, 644.7 78.3 Q 644.7 77.0, 645.2 76.2 Q 645.7 75.4, 646.7 75.4 Q 647.8 75.4, 648.3 76.2 Q 648.8 77.0, 648.8 78.3 Q 648.8 79.7, 648.3 80.4 Q 647.8 81.2, 646.7 81.2 M 646.7 80.6 Q 647.3 80.6, 647.7 80.0 Q 648.0 79.4, 648.0 78.3 Q 648.0 77.2, 647.7 76.6 Q 647.3 76.1, 646.7 76.1 Q 646.1 76.1, 645.8 76.6 Q 645.5 77.2, 645.5 78.3 Q 645.5 79.4, 645.8 80.0 Q 646.1 80.6, 646.7 80.6 " fill="#000000"/>
<path class="note" d="M 620.2 113.8 L 621.4 113.8 L 621.4 109.6 L 620.0 110.0 L 619.9 109.5 L 621.6 108.8 L 622.2 108.9 L 622.2 113.8 L 623.3 113.8 L 623.3 114.4 L 620.2 114.4 L 620.2 113.8 " fill="#000000"/>
<path class="note" d="M 616.7 157.1 Q 616.9 156.6, 617.4 156.3 Q 617.9 156.0, 618.6 156.0 Q 619.4 156.0, 619.9 156.5 Q 620.4 156.9, 620.4 157.8 Q 620.4 158.6, 619.7 159.4 Q 619.1 160.1, 617.9 161.1 L 620.5 161.1 L 620.5 161.7 L 616.7 161.7 L 616.7 161.2 Q 617.7 160.4, 618.3 159.9 Q 619.0 159.3, 619.3 158.8 Q 619.6 158.3, 619.6 157.8 Q 619.6 157.3, 619.3 157.0 Q 619.0 156.7, 618.6 156.7 Q 618.1 156.7, 617.8 156.8 Q 617.5 157.0, 617.3 157.4 L 616.7 157.1 " fill="#000000"/>
<path class="note" d="M 581.2 142.3 Q 581.8 142.4, 582.0 142.8 Q 582.3 143.1, 582.3 143.7 Q 582.3 144.2, 582.1 144.5 Q 581.8 144.9, 581.4 145.1 Q 581.0 145.3, 580.4 145.3 Q 579.8 145.3, 579.3 145.1 Q 578.9 144.9, 578.5 144.4 L 579.0 144.0 Q 579.3 144.4, 579.6 144.5 Q 579.9 144.7, 580.4 144.7 Q 580.9 144.7, 581.2 144.4 Q 581.5 144.1, 581.5 143.7 Q 581.5 143.1, 581.2 142.8 Q 580.9 142.6, 580.2 142.6 L 579.8 142.6 L 579.8 142.0 L 580.1 142.0 Q 580.7 142.0, 581.1 141.7 Q 581.4 141.5, 581.4 141.0 Q 581.4 140.6, 581.1 140.4 Q 580.9 140.2, 580.4 140.2 Q 579.9 140.2, 579.6 140.3 Q 579.3 140.5, 579.1 140.9 L 578.6 140.6 Q 578.8 140.2, 579.3 139.8 Q 579.7 139.5, 580.4 139.5 Q 581.2 139.5, 581.7 139.9 Q 582.2 140.3, 582.2 141.0 Q 582.2 141.4, 581.9 141.7 Q 581.7 142.1, 581.2 142.3 " fill="#000000"/>
<path class="note" d="M 570.4 113.5 L 571.1 113.5 L 571.1 114.1 L 570.4 114.1 L 570.4 115.4 L 569.7 115.4 L 569.7 114.1 L 566.8 114.1 L 566.8 113.6 L 569.2 109.8 L 570.4 109.8 L 570.4 113.5 M 567.7 113.5 L 569.7 113.5 L 569.7 110.3 L 567.7 113.5 " fill="#000000"/>
<path class="note" d="M 592.8 71.9 Q 593.3 71.9, 593.7 72.1 Q 594.1 72.3, 594.3 72.7 Q 594.5 73.1, 594.5 73.6 Q 594.5 74.2, 594.3 74.6 Q 594.0 75.1, 593.5 75.3 Q 593.1 75.5, 592.5 75.5 Q 592.0 75.5, 591.5 75.3 Q 591.1 75.1, 590.7 74.7 L 591.2 74.3 Q 591.5 74.5, 591.8 74.7 Q 592.2 74.8, 592.6 74.8 Q 593.1 74.8, 593.4 74.5 Q 593.8 74.2, 593.8 73.7 Q 593.8 73.1, 593.4 72.8 Q 593.1 72.5, 592.5 72.5 Q 592.0 72.5, 591.5 72.7 L 591.0 72.5 L 591.3 69.8 L 594.2 69.8 L 594.1 70.4 L 592.0 70.4 L 591.8 72.1 Q 592.3 71.9, 592.8 71.9 " fill="#000000"/>
<path class="note" d="M 658.3 124.1 Q 658.8 124.1, 659.1 124.4 Q 659.5 124.6, 659.7 125.0 Q 660.0 125.3, 660.0 125.8 Q 660.0 126.4, 659.7 126.8 Q 659.5 127.2, 659.0 127.5 Q 658.6 127.7, 658.1 127.7 Q 657.1 127.7, 656.6 127.0 Q 656.1 126.4, 656.1 125.0 Q 656.1 123.5, 656.7 122.7 Q 657.3 122.0, 658.5 122.0 Q 658.9 122.0, 659.2 122.0 Q 659.5 122.1, 659.7 122.3 L 659.4 122.8 Q 659.0 122.6, 658.5 122.6 Q 657.7 122.6, 657.3 123.1 Q 656.9 123.6, 656.9 124.7 Q 657.1 124.4, 657.5 124.3 Q 657.9 124.1, 658.3 124.1 M 658.1 127.1 Q 658.4 127.1, 658.6 126.9 Q 658.9 126.7, 659.0 126.5 Q 659.2 126.2, 659.2 125.8 Q 659.2 125.3, 658.9 125.1 Q 658.6 124.8, 658.1 124.8 Q 657.8 124.8, 657.4 124.9 Q 657.1 125.1, 656.9 125.3 Q 656.9 126.2, 657.2 126.6 Q 657.5 127.1, 658.1 127.1 " fill="#000000"/>
<path class="note" d="M 701.4 146.7 L 698.4 146.7 L 698.4 146.0 L 702.2 146.0 L 702.2 146.6 L 699.9 151.7 L 699.1 151.7 L 701.4 146.7 " fill="#000000"/>
<path class="note" d="M 644.6 164.8 Q 645.2 165.0, 645.5 165.3 Q 645.8 165.7, 645.8 166.2 Q 645.8 166.7, 645.5 167.1 Q 645.3 167.4, 644.8 167.6 Q 644.4 167.8, 643.8 167.8 Q 642.9 167.8, 642.3 167.4 Q 641.8 167.0, 641.8 166.2 Q 641.8 165.8, 642.0 165.4 Q 642.3 165.1, 642.8 164.8 Q 642.4 164.6, 642.2 164.3 Q 642.0 164.0, 642.0 163.5 Q 642.0 162.8, 642.5 162.5 Q 642.9 162.1, 643.8 162.1 Q 644.6 162.1, 645.1 162.5 Q 645.5 162.8, 645.5 163.5 Q 645.5 163.9, 645.3 164.2 Q 645.1 164.5, 644.6 164.8 M 643.8 162.7 Q 643.3 162.7, 643.0 162.9 Q 642.8 163.1, 642.8 163.5 Q 642.8 163.8, 643.0 164.0 Q 643.1 164.2, 643.4 164.3 Q 643.6 164.4, 644.1 164.6 Q 644.5 164.3, 644.6 164.1 Q 644.8 163.8, 644.8 163.5 Q 644.8 163.1, 644.5 162.9 Q 644.2 162.7, 643.8 162.7 M 643.8 167.2 Q 644.3 167.2, 644.6 167.0 Q 645.0 166.7, 645.0 166.2 Q 645.0 165.9, 644.8 165.7 Q 644.6 165.5, 644.4 165.4 Q 644.1 165.3, 643.7 165.2 L 643.3 165.0 Q 642.9 165.3, 642.8 165.6 Q 642.6 165.8, 642.6 166.2 Q 642.6 166.7, 642.9 167.0 Q 643.2 167.2, 643.8 167.2 " fill="#000000"/>
<path class="note" d="M 668.6 21.9 Q 669.6 21.9, 670.1 22.6 Q 670.6 23.3, 670.6 24.7 Q 670.6 26.1, 670.0 26.9 Q 669.3 27.7, 668.1 27.7 Q 667.8 27.7, 667.5 27.6 Q 667.2 27.5, 666.9 27.4 L 667.2 26.8 Q 667.6 27.1, 668.1 27.1 Q 668.9 27.1, 669.3 26.5 Q 669.7 26.0, 669.8 25.0 Q 669.5 25.2, 669.1 25.4 Q 668.8 25.5, 668.4 25.5 Q 667.9 25.5, 667.5 25.3 Q 667.1 25.1, 666.9 24.7 Q 666.7 24.3, 666.7 23.8 Q 666.7 23.3, 666.9 22.8 Q 667.2 22.4, 667.6 22.2 Q 668.0 21.9, 668.6 21.9 M 667.5 23.8 Q 667.5 24.3, 667.8 24.6 Q 668.0 24.9, 668.5 24.9 Q 668.9 24.9, 669.2 24.7 Q 669.6 24.6, 669.8 24.4 Q 669.8 23.4, 669.5 23.0 Q 669.2 22.6, 668.6 22.6 Q 668.3 22.6, 668.0 22.8 Q 667.8 22.9, 667.6 23.2 Q 667.5 23.5, 667.5 23.8 " fill="#000000"/>
<path class="note" d="M 593.8 50.2 L 595.1 50.2 L 595.1 46.0 L 593.7 46.5 L 593.5 46.0 L 595.3 45.2 L 595.8 45.3 L 595.8 50.2 L 596.9 50.2 L 596.9 50.9 L 593.8 50.9 L 593.8 50.2 " fill="#000000"/>
<path class="note" d="M 599.3 50.9 Q 598.3 50.9, 597.8 50.2 Q 597.3 49.4, 597.3 48.1 Q 597.3 46.7, 597.8 45.9 Q 598.3 45.2, 599.3 45.2 Q 600.4 45.2, 600.9 45.9 Q 601.4 46.7, 601.4 48.1 Q 601.4 49.4, 600.9 50.2 Q 600.4 50.9, 599.3 50.9 M 599.3 50.3 Q 599.9 50.3, 600.3 49.7 Q 600.6 49.2, 600.6 48.1 Q 600.6 47.0, 600.3 46.4 Q 599.9 45.8, 599.3 45.8 Q 598.7 45.8, 598.4 46.4 Q 598.1 47.0, 598.1 48.1 Q 598.1 49.2, 598.4 49.7 Q 598.7 50.3, 599.3 50.3 " fill="#000000"/>
<path class="note" d="M 675.9 86.7 L 677.2 86.7 L 677.2 82.5 L 675.8 82.9 L 675.6 82.4 L 677.3 81.7 L 677.9 81.8 L 677.9 86.7 L 679.0 86.7 L 679.0 87.3 L 675.9 87.3 L 675.9 86.7 " fill="#000000"/>
<path class="note" d="M 679.6 86.7 L 680.9 86.7 L 680.9 82.5 L 679.5 82.9 L 679.3 82.4 L 681.1 81.7 L 681.6 81.8 L 681.6 86.7 L 682.7 86.7 L 682.7 87.3 L 679.6 87.3 L 679.6 86.7 " fill="#000000"/>
<path class="note" d="M 581.7 202.4 L 583.0 202.4 L 583.0 198.2 L 581.6 198.6 L 581.4 198.2 L 583.2 197.4 L 583.7 197.5 L 583.7 202.4 L 584.8 202.4 L 584.8 203.1 L 581.7 203.1 L 581.7 202.4 " fill="#000000"/>
<path class="note" d="M 585.2 198.5 Q 585.4 198.0, 585.9 197.7 Q 586.4 197.4, 587.0 197.4 Q 587.9 197.4, 588.4 197.8 Q 588.8 198.3, 588.8 199.1 Q 588.8 199.9, 588.2 200.7 Q 587.6 201.5, 586.3 202.4 L 588.9 202.4 L 588.9 203.1 L 585.2 203.1 L 585.2 202.5 Q 586.2 201.8, 586.8 201.2 Q 587.4 200.7, 587.8 200.2 Q 588.1 199.7, 588.1 199.2 Q 588.1 198.6, 587.8 198.3 Q 587.5 198.0, 587.0 198.0 Q 586.6 198.0, 586.3 198.2 Q 586.0 198.4, 585.8 198.8 L 585.2 198.5 " fill="#000000"/>
<path class="note" d="M 522.3 163.9 L 523.5 163.9 L 523.5 159.7 L 522.1 160.1 L 521.9 159.7 L 523.7 158.9 L 524.2 159.0 L 524.2 163.9 L 525.3 163.9 L 525.3 164.6 L 522.3 164.6 L 522.3 163.9 " fill="#000000"/>
<path class="note" d="M 528.4 161.6 Q 528.9 161.8, 529.2 162.1 Q 529.4 162.5, 529.4 163.0 Q 529.4 163.5, 529.2 163.9 Q 529.0 164.2, 528.5 164.4 Q 528.1 164.6, 527.5 164.6 Q 526.9 164.6, 526.5 164.4 Q 526.0 164.2, 525.7 163.8 L 526.1 163.3 Q 526.5 163.7, 526.8 163.9 Q 527.1 164.0, 527.5 164.0 Q 528.0 164.0, 528.3 163.7 Q 528.7 163.5, 528.7 163.0 Q 528.7 162.4, 528.3 162.2 Q 528.0 161.9, 527.3 161.9 L 526.9 161.9 L 526.9 161.3 L 527.3 161.3 Q 527.9 161.3, 528.2 161.1 Q 528.5 160.8, 528.5 160.3 Q 528.5 159.9, 528.3 159.7 Q 528.0 159.5, 527.5 159.5 Q 527.1 159.5, 526.8 159.7 Q 526.5 159.8, 526.3 160.3 L 525.7 160.0 Q 525.9 159.5, 526.4 159.2 Q 526.9 158.9, 527.5 158.9 Q 528.4 158.9, 528.8 159.3 Q 529.3 159.6, 529.3 160.3 Q 529.3 160.8, 529.1 161.1 Q 528.8 161.4, 528.4 161.6 " fill="#000000"/>
<path class="note" d="M 511.7 137.2 L 512.9 137.2 L 512.9 133.0 L 511.5 133.4 L 511.4 132.9 L 513.1 132.2 L 513.7 132.3 L 513.7 137.2 L 514.8 137.2 L 514.8 137.8 L 511.7 137.8 L 511.7 137.2 " fill="#000000"/>
<path class="note" d="M 518.7 135.9 L 519.4 135.9 L 519.4 136.5 L 518.7 136.5 L 518.7 137.8 L 518.0 137.8 L 518.0 136.5 L 515.1 136.5 L 515.1 136.0 L 517.6 132.2 L 518.7 132.2 L 518.7 135.9 M 516.0 135.9 L 518.0 135.9 L 518.0 132.7 L 516.0 135.9 " fill="#000000"/>
<path class="note" d="M 530.2 68.7 L 531.4 68.7 L 531.4 64.5 L 530.0 64.9 L 529.9 64.5 L 531.6 63.7 L 532.1 63.8 L 532.1 68.7 L 533.3 68.7 L 533.3 69.3 L 530.2 69.3 L 530.2 68.7 " fill="#000000"/>
<path class="note" d="M 535.6 65.8 Q 536.1 65.8, 536.5 66.0 Q 536.9 66.2, 537.2 66.6 Q 537.4 67.0, 537.4 67.6 Q 537.4 68.1, 537.1 68.6 Q 536.8 69.0, 536.4 69.2 Q 535.9 69.4, 535.4 69.4 Q 534.9 69.4, 534.4 69.2 Q 533.9 69.0, 533.6 68.7 L 534.1 68.2 Q 534.3 68.4, 534.7 68.6 Q 535.0 68.8, 535.4 68.8 Q 535.9 68.8, 536.2 68.4 Q 536.6 68.1, 536.6 67.6 Q 536.6 67.0, 536.2 66.7 Q 535.9 66.4, 535.4 66.4 Q 534.9 66.4, 534.3 66.6 L 533.9 66.4 L 534.2 63.7 L 537.0 63.7 L 537.0 64.3 L 534.8 64.3 L 534.6 66.0 Q 535.1 65.8, 535.6 65.8 " fill="#000000"/>
<path class="note" d="M 687.0 100.3 L 688.2 100.3 L 688.2 96.1 L 686.8 96.5 L 686.7 96.1 L 688.4 95.3 L 688.9 95.4 L 688.9 100.3 L 690.1 100.3 L 690.1 101.0 L 687.0 101.0 L 687.0 100.3 " fill="#000000"/>
<path class="note" d="M 692.6 97.4 Q 693.1 97.4, 693.5 97.7 Q 693.9 97.9, 694.1 98.3 Q 694.3 98.7, 694.3 99.1 Q 694.3 99.7, 694.0 100.1 Q 693.8 100.5, 693.4 100.8 Q 692.9 101.0, 692.4 101.0 Q 691.4 101.0, 690.9 100.3 Q 690.4 99.7, 690.4 98.3 Q 690.4 96.8, 691.0 96.0 Q 691.6 95.3, 692.8 95.3 Q 693.2 95.3, 693.5 95.3 Q 693.8 95.4, 694.1 95.6 L 693.8 96.1 Q 693.3 95.9, 692.8 95.9 Q 692.0 95.9, 691.6 96.4 Q 691.2 96.9, 691.2 98.0 Q 691.5 97.7, 691.8 97.6 Q 692.2 97.4, 692.6 97.4 M 692.4 100.4 Q 692.7 100.4, 692.9 100.2 Q 693.2 100.0, 693.3 99.8 Q 693.5 99.5, 693.5 99.2 Q 693.5 98.7, 693.2 98.4 Q 692.9 98.1, 692.4 98.1 Q 692.1 98.1, 691.8 98.2 Q 691.4 98.4, 691.2 98.6 Q 691.2 99.5, 691.5 99.9 Q 691.8 100.4, 692.4 100.4 " fill="#000000"/>
<path class="note" d="M 731.5 116.4 L 732.7 116.4 L 732.7 112.2 L 731.4 112.6 L 731.2 112.2 L 732.9 111.4 L 733.5 111.5 L 733.5 116.4 L 734.6 116.4 L 734.6 117.0 L 731.5 117.0 L 731.5 116.4 " fill="#000000"/>
<path class="note" d="M 737.9 112.1 L 734.9 112.1 L 734.9 111.4 L 738.6 111.4 L 738.6 112.0 L 736.4 117.0 L 735.6 117.0 L 737.9 112.1 " fill="#000000"/>
<path class="note" d="M 716.0 196.1 L 717.2 196.1 L 717.2 191.9 L 715.9 192.3 L 715.7 191.8 L 717.4 191.1 L 718.0 191.2 L 718.0 196.1 L 719.1 196.1 L 719.1 196.7 L 716.0 196.7 L 716.0 196.1 " fill="#000000"/>
<path class="note" d="M 722.3 193.7 Q 722.8 194.0, 723.1 194.3 Q 723.4 194.6, 723.4 195.2 Q 723.4 195.7, 723.2 196.0 Q 722.9 196.4, 722.5 196.6 Q 722.0 196.8, 721.4 196.8 Q 720.5 196.8, 720.0 196.4 Q 719.4 195.9, 719.4 195.2 Q 719.4 194.7, 719.7 194.4 Q 719.9 194.0, 720.4 193.8 Q 720.0 193.6, 719.8 193.3 Q 719.6 192.9, 719.6 192.5 Q 719.6 191.8, 720.1 191.4 Q 720.6 191.0, 721.4 191.0 Q 722.2 191.0, 722.7 191.4 Q 723.2 191.8, 723.2 192.5 Q 723.2 192.9, 723.0 193.2 Q 722.7 193.5, 722.3 193.7 M 721.4 191.6 Q 720.9 191.6, 720.7 191.8 Q 720.4 192.1, 720.4 192.5 Q 720.4 192.8, 720.6 193.0 Q 720.8 193.1, 721.0 193.3 Q 721.3 193.4, 721.8 193.5 Q 722.1 193.3, 722.2 193.0 Q 722.4 192.8, 722.4 192.5 Q 722.4 192.1, 722.1 191.8 Q 721.9 191.6, 721.4 191.6 M 721.4 196.2 Q 722.0 196.2, 722.3 195.9 Q 722.6 195.6, 722.6 195.2 Q 722.6 194.9, 722.4 194.7 Q 722.3 194.5, 722.0 194.4 Q 721.8 194.3, 721.3 194.1 L 721.0 194.0 Q 720.6 194.2, 720.4 194.5 Q 720.2 194.8, 720.2 195.2 Q 720.2 195.6, 720.6 195.9 Q 720.9 196.2, 721.4 196.2 " fill="#000000"/>
<path class="legend" d="M 567.9 232.7 Q 568.9 232.7, 569.7 233.1 Q 570.5 233.5, 570.9 234.3 Q 571.3 235.1, 571.3 236.1 Q 571.3 237.2, 570.9 238.1 Q 570.4 238.9, 569.5 239.4 Q 568.6 239.9, 567.5 239.9 Q 565.5 239.9, 564.5 238.5 Q 563.5 237.1, 563.5 234.4 Q 563.5 231.4, 564.7 229.8 Q 566.0 228.3, 568.4 228.3 Q 569.1 228.3, 569.7 228.4 Q 570.3 228.6, 570.9 228.9 L 570.3 230.0 Q 569.4 229.6, 568.4 229.6 Q 566.8 229.6, 566.0 230.6 Q 565.2 231.6, 565.1 233.8 Q 565.7 233.2, 566.4 233.0 Q 567.1 232.7, 567.9 232.7 M 567.6 238.6 Q 568.2 238.6, 568.7 238.2 Q 569.2 237.9, 569.5 237.4 Q 569.7 236.8, 569.7 236.1 Q 569.7 235.1, 569.2 234.5 Q 568.6 233.9, 567.6 233.9 Q 566.9 233.9, 566.3 234.2 Q 565.6 234.5, 565.1 235.0 Q 565.2 236.9, 565.8 237.7 Q 566.4 238.6, 567.6 238.6 " fill="#000000"/>
<path class="legend" d="M 576.7 232.7 Q 577.7 232.7, 578.4 233.1 Q 579.2 233.5, 579.7 234.3 Q 580.1 235.1, 580.1 236.1 Q 580.1 237.2, 579.6 238.1 Q 579.1 238.9, 578.2 239.4 Q 577.4 239.9, 576.3 239.9 Q 574.3 239.9, 573.2 238.5 Q 572.2 237.1, 572.2 234.4 Q 572.2 231.4, 573.5 229.8 Q 574.7 228.3, 577.2 228.3 Q 577.9 228.3, 578.5 228.4 Q 579.1 228.6, 579.6 228.9 L 579.0 230.0 Q 578.2 229.6, 577.2 229.6 Q 575.6 229.6, 574.8 230.6 Q 573.9 231.6, 573.8 233.8 Q 574.4 233.2, 575.1 233.0 Q 575.9 232.7, 576.7 232.7 M 576.3 238.6 Q 576.9 238.6, 577.4 238.2 Q 577.9 237.9, 578.2 237.4 Q 578.5 236.8, 578.5 236.1 Q 578.5 235.1, 577.9 234.5 Q 577.4 233.9, 576.4 233.9 Q 575.7 233.9, 575.0 234.2 Q 574.3 234.5, 573.8 235.0 Q 573.9 236.9, 574.5 237.7 Q 575.1 238.6, 576.3 238.6 " fill="#000000"/>
<path class="legend" d="M 581.0 230.6 Q 581.4 229.5, 582.4 228.9 Q 583.4 228.3, 584.8 228.3 Q 586.5 228.3, 587.4 229.2 Q 588.4 230.1, 588.4 231.8 Q 588.4 233.5, 587.2 235.0 Q 585.9 236.6, 583.4 238.5 L 588.6 238.5 L 588.6 239.7 L 581.0 239.7 L 581.0 238.7 Q 583.1 237.2, 584.3 236.0 Q 585.6 234.9, 586.2 233.9 Q 586.8 232.9, 586.8 231.9 Q 586.8 230.8, 586.3 230.2 Q 585.7 229.6, 584.8 229.6 Q 583.9 229.6, 583.3 229.9 Q 582.6 230.3, 582.2 231.1 L 581.0 230.6 " fill="#000000"/>
<path class="legend" d="M 596.9 235.8 L 598.3 235.8 L 598.3 237.1 L 596.9 237.1 L 596.9 239.7 L 595.4 239.7 L 595.4 237.1 L 589.6 237.1 L 589.6 236.1 L 594.5 228.4 L 596.9 228.4 L 596.9 235.8 M 591.4 235.8 L 595.4 235.8 L 595.4 229.4 L 591.4 235.8 " fill="#000000"/>
<path class="legend" d="M 604.8 233.7 Q 605.9 234.2, 606.5 234.9 Q 607.1 235.5, 607.1 236.6 Q 607.1 237.6, 606.6 238.3 Q 606.1 239.1, 605.2 239.5 Q 604.3 239.9, 603.1 239.9 Q 601.2 239.9, 600.1 239.0 Q 599.1 238.2, 599.1 236.6 Q 599.1 235.7, 599.5 235.0 Q 600.0 234.3, 601.0 233.8 Q 600.3 233.4, 599.9 232.8 Q 599.5 232.1, 599.5 231.2 Q 599.5 229.8, 600.4 229.1 Q 601.4 228.3, 603.1 228.3 Q 604.7 228.3, 605.7 229.1 Q 606.6 229.8, 606.6 231.2 Q 606.6 232.0, 606.2 232.6 Q 605.7 233.2, 604.8 233.7 M 603.1 229.5 Q 602.1 229.5, 601.6 229.9 Q 601.1 230.4, 601.1 231.2 Q 601.1 231.8, 601.4 232.2 Q 601.8 232.6, 602.3 232.8 Q 602.8 233.0, 603.8 233.3 Q 604.5 232.9, 604.7 232.3 Q 605.0 231.8, 605.0 231.2 Q 605.0 230.4, 604.5 229.9 Q 604.0 229.5, 603.1 229.5 M 603.1 238.7 Q 604.2 238.7, 604.8 238.1 Q 605.5 237.6, 605.5 236.6 Q 605.5 236.0, 605.1 235.6 Q 604.8 235.2, 604.3 235.0 Q 603.8 234.8, 602.9 234.5 L 602.2 234.3 Q 601.4 234.7, 601.0 235.3 Q 600.7 235.9, 600.7 236.6 Q 600.7 237.6, 601.3 238.1 Q 602.0 238.7, 603.1 238.7 " fill="#000000"/>
<path class="legend" d="M 616.2 240.5 L 616.2 241.8 L 608.1 241.8 L 608.1 240.5 L 616.2 240.5 " fill="#000000"/>
<path class="legend" d="M 620.3 232.6 Q 621.3 232.6, 622.1 233.1 Q 623.0 233.5, 623.4 234.3 Q 623.9 235.1, 623.9 236.2 Q 623.9 237.3, 623.3 238.2 Q 622.8 239.0, 621.8 239.4 Q 620.9 239.9, 619.8 239.9 Q 618.8 239.9, 617.8 239.5 Q 616.9 239.1, 616.2 238.4 L 617.2 237.4 Q 617.7 237.9, 618.4 238.3 Q 619.2 238.6, 619.9 238.6 Q 620.9 238.6, 621.6 237.9 Q 622.3 237.3, 622.3 236.2 Q 622.3 235.0, 621.6 234.4 Q 620.9 233.8, 619.8 233.8 Q 618.8 233.8, 617.7 234.3 L 616.8 233.9 L 617.4 228.4 L 623.2 228.4 L 623.0 229.7 L 618.7 229.7 L 618.3 233.0 Q 619.3 232.6, 620.3 232.6 " fill="#000000"/>
<path class="legend" d="" fill="#000000"/>
<path class="legend" d="M 630.0 235.2 Q 630.0 232.9, 630.7 231.0 Q 631.3 229.1, 632.6 227.1 L 633.5 227.6 Q 632.5 229.5, 631.9 231.3 Q 631.4 233.0, 631.4 235.2 Q 631.4 237.3, 631.9 239.0 Q 632.5 240.7, 633.5 242.7 L 632.6 243.3 Q 631.3 241.3, 630.7 239.4 Q 630.0 237.5, 630.0 235.2 " fill="#000000"/>
<path class="legend" d="M 633.9 234.0 Q 633.9 231.3, 635.3 229.8 Q 636.6 228.3, 639.1 228.3 Q 641.6 228.3, 643.0 229.8 Q 644.3 231.3, 644.3 234.0 Q 644.3 236.8, 643.0 238.4 Q 641.6 239.9, 639.1 239.9 Q 636.6 239.9, 635.3 238.4 Q 633.9 236.8, 633.9 234.0 M 639.1 238.6 Q 640.8 238.6, 641.8 237.5 Q 642.7 236.3, 642.7 234.0 Q 642.7 231.8, 641.8 230.7 Q 640.8 229.6, 639.1 229.6 Q 637.4 229.6, 636.4 230.7 Q 635.5 231.8, 635.5 234.0 Q 635.5 236.3, 636.4 237.5 Q 637.4 238.6, 639.1 238.6 " fill="#000000"/>
<path class="legend" d="M 646.3 231.5 L 646.5 232.6 Q 647.4 231.4, 648.8 231.4 Q 649.2 231.4, 649.8 231.5 L 649.6 232.9 Q 648.9 232.7, 648.5 232.7 Q 647.9 232.7, 647.4 233.0 Q 647.0 233.2, 646.6 233.9 L 646.6 239.7 L 645.1 239.7 L 645.1 231.5 L 646.3 231.5 " fill="#000000"/>
<path class="legend" d="M 650.1 237.5 Q 650.1 236.2, 651.1 235.5 Q 652.2 234.8, 654.1 234.8 L 655.3 234.8 L 655.3 234.4 Q 655.3 233.4, 654.9 233.0 Q 654.5 232.6, 653.5 232.6 Q 652.8 232.6, 652.3 232.7 Q 651.8 232.8, 651.0 233.1 L 650.5 232.1 Q 652.0 231.4, 653.5 231.4 Q 655.2 231.4, 656.0 232.1 Q 656.8 232.9, 656.8 234.5 L 656.8 239.7 L 655.7 239.7 Q 655.7 239.7, 655.6 239.4 Q 655.6 239.2, 655.5 238.8 Q 654.3 239.9, 652.8 239.9 Q 651.5 239.9, 650.8 239.3 Q 650.1 238.6, 650.1 237.5 M 651.6 237.5 Q 651.6 238.1, 652.0 238.4 Q 652.3 238.7, 653.1 238.7 Q 653.7 238.7, 654.3 238.5 Q 654.9 238.2, 655.3 237.6 L 655.3 235.9 L 654.2 235.9 Q 652.9 235.9, 652.2 236.3 Q 651.6 236.7, 651.6 237.5 " fill="#000000"/>
<path class="legend" d="M 662.4 231.4 Q 663.7 231.4, 664.4 232.1 Q 665.1 232.9, 665.1 234.3 L 665.1 239.7 L 663.6 239.7 L 663.6 234.4 Q 663.6 233.4, 663.2 233.0 Q 662.8 232.6, 662.0 232.6 Q 661.2 232.6, 660.6 232.9 Q 660.0 233.2, 659.6 233.8 L 659.6 239.7 L 658.1 239.7 L 658.1 231.5 L 659.3 231.5 L 659.5 232.7 Q 660.6 231.4, 662.4 231.4 " fill="#000000"/>
<path class="legend" d="M 673.8 231.5 L 673.8 240.2 Q 673.8 243.8, 670.0 243.8 Q 668.2 243.8, 666.6 242.9 L 667.1 241.8 Q 668.0 242.2, 668.6 242.4 Q 669.2 242.6, 670.0 242.6 Q 671.2 242.6, 671.7 242.0 Q 672.3 241.5, 672.3 240.2 L 672.3 238.8 Q 671.4 239.9, 669.9 239.9 Q 668.2 239.9, 667.2 238.8 Q 666.3 237.7, 666.3 235.8 Q 666.3 233.7, 667.4 232.5 Q 668.6 231.4, 670.5 231.4 Q 671.6 231.4, 672.5 231.7 L 672.6 231.5 L 673.8 231.5 M 670.0 238.7 Q 670.8 238.7, 671.4 238.2 Q 672.0 237.8, 672.3 237.0 L 672.3 232.8 Q 671.5 232.6, 670.5 232.6 Q 669.3 232.6, 668.6 233.4 Q 667.8 234.2, 667.8 235.8 Q 667.8 237.2, 668.4 237.9 Q 669.0 238.7, 670.0 238.7 " fill="#000000"/>
<path class="legend" d="M 675.1 235.6 Q 675.1 233.6, 676.1 232.5 Q 677.1 231.4, 679.0 231.4 Q 680.8 231.4, 681.6 232.5 Q 682.4 233.5, 682.4 235.6 L 682.4 235.8 L 676.6 235.8 Q 676.7 237.2, 677.3 237.9 Q 677.9 238.7, 679.1 238.7 Q 679.7 238.7, 680.3 238.5 Q 680.9 238.4, 681.6 238.1 L 682.1 239.1 Q 681.2 239.5, 680.5 239.7 Q 679.8 239.9, 679.0 239.9 Q 677.1 239.9, 676.1 238.7 Q 675.1 237.6, 675.1 235.6 M 679.0 232.6 Q 678.0 232.6, 677.4 233.1 Q 676.9 233.6, 676.7 234.7 L 680.8 234.7 Q 680.7 233.6, 680.2 233.1 Q 679.8 232.6, 679.0 232.6 " fill="#000000"/>
<path class="legend" d="M 686.5 235.2 Q 686.5 237.5, 685.8 239.4 Q 685.2 241.3, 683.9 243.3 L 683.0 242.7 Q 684.0 240.7, 684.5 239.0 Q 685.1 237.3, 685.1 235.2 Q 685.1 233.0, 684.5 231.3 Q 684.0 229.5, 683.0 227.6 L 683.9 227.1 Q 685.2 229.1, 685.8 231.0 Q 686.5 232.9, 686.5 235.2 " fill="#000000"/>
</svg>